<?xml version="1.0" standalone="no"?>
<!DOCTYPE svg PUBLIC "-//W3C//DTD SVG 1.1//EN" "http://www.w3.org/Graphics/SVG/1.1/DTD/svg11.dtd" >
<svg xmlns="http://www.w3.org/2000/svg" xmlns:xlink="http://www.w3.org/1999/xlink" version="1.1">
<metadata></metadata>
<defs>
<font id="komika_titleregular" horiz-adv-x="948" >
<font-face units-per-em="2048" ascent="1638" descent="-410" />
<missing-glyph horiz-adv-x="493" />
<glyph horiz-adv-x="0" />
<glyph unicode="&#xd;" horiz-adv-x="1024" />
<glyph unicode=" "  horiz-adv-x="493" />
<glyph unicode="&#x09;" horiz-adv-x="493" />
<glyph unicode="&#xa0;" horiz-adv-x="493" />
<glyph unicode="!" horiz-adv-x="546" d="M-57 131q-4 -98 40 -152.5t107 -52.5q31 0 55.5 15.5t42 38t28.5 48t15 44.5q6 25 5.5 57.5t-12 64t-34 59.5t-59.5 42q-43 18 -77 10t-57.5 -32.5t-37.5 -62.5t-16 -79zM16 553q-8 -53 1.5 -82t39.5 -51q57 -43 127 -62q31 -10 45.5 -0.5t20.5 50.5q18 113 42.5 239.5 t52.5 258.5t56.5 264.5t57.5 256.5q10 43 2 73t-41 59t-75 52t-77 36q-39 16 -56 4.5t-28 -58.5q-20 -102 -44.5 -237t-47 -277.5t-43 -281t-33.5 -244.5z" />
<glyph unicode="&#x22;" horiz-adv-x="765" d="M72 1231q-16 -66 41 -74q23 -4 48 -2t44 8q45 9 74 70q14 31 30.5 75t30.5 93q12 35 22.5 73.5t16.5 74.5t9 66t1 46q-2 31 -29 63q-20 25 -42.5 44.5t-49.5 35.5q-29 20 -48 16.5t-25 -46.5q-10 -57 -25.5 -131t-33 -150t-35 -145.5t-29.5 -116.5zM365 1200 q-25 -66 36 -80q23 -4 47.5 -7t47.5 1q46 4 79 57q16 27 37 68t41.5 88t37 95t26.5 89q10 57 10 68q0 25 -22 66q-16 23 -37 45t-47 43q-57 51 -78 -21q-16 -53 -39 -122.5t-47.5 -142.5t-49 -138.5t-42.5 -108.5z" />
<glyph unicode="#" horiz-adv-x="978" d="M-52 529.5q3 15.5 34 25.5q35 14 71.5 22.5t77.5 22.5q10 53 18.5 109.5t18.5 115.5q0 -2 -6 -2q-66 -16 -98.5 12.5t-61.5 88.5q-18 35 -14 49t37 24q37 14 84 22.5t100 22.5q18 98 36.5 186.5t37.5 162.5q18 70 67 22q47 -43 70.5 -95t7.5 -128q-8 -53 -25 -113 q41 4 81 9.5t77 9.5q18 94 39 182t39 160q18 70 70 20q47 -43 68.5 -97t2.5 -128q-8 -29 -14 -59.5t-16 -65.5q63 -2 87.5 -26.5t47.5 -73.5q16 -35 10 -47.5t-37 -16.5q-35 -4 -71.5 -7t-75.5 -7q-12 -59 -24.5 -119.5t-22.5 -120.5q53 -2 76.5 -23.5t45.5 -68.5 q16 -33 11.5 -47t-35.5 -21q-33 -4 -65.5 -9t-67.5 -9q-16 -92 -30.5 -169t-25.5 -142q-8 -37 -21 -40t-38 13q-35 23 -55.5 54.5t-24.5 80.5q-2 16 -1 37t3 45q4 20 6 40t7 44q-41 -14 -83 -21.5t-83 -21.5l-22.5 -142.5t-20.5 -125.5q-8 -37 -19.5 -40t-38.5 13 q-45 29 -69.5 77t-14.5 138l2 29q-49 -10 -79.5 17.5t-59.5 80.5q-16 35 -13 50.5zM319 643q41 8 82 15.5t80 13.5q8 57 18.5 112.5t22.5 114.5q-43 -8 -83 -14t-79 -17q-10 -59 -20 -112.5t-21 -112.5z" />
<glyph unicode="$" horiz-adv-x="755" d="M-59 446q0 -29 41 -88q31 -47 64.5 -79.5t68.5 -57.5q-4 -25 -6.5 -48t-4.5 -52q-4 -74 13.5 -145.5t64.5 -106.5q27 -20 41.5 -15t18.5 42q6 53 17 124.5t24 137.5q2 -2 16 -2h18q55 0 95.5 21.5t68 53t46 69.5t28.5 69q18 76 -5.5 132t-68.5 103t-100 92t-100 99 q-39 51 -35 113.5t28.5 114.5t56 85t50.5 25q10 -6 10 -29q4 -35 -1 -85t-9 -87q-4 -74 30.5 -120t88.5 -75q41 -18 59 27q8 27 15.5 64.5t13.5 77.5t9 80t3 73q0 39 -9 85t-50 93q-33 37 -58 55q8 39 14.5 78t10.5 70q10 74 -11.5 128t-62.5 89q-51 47 -72 -21 q-14 -47 -30.5 -121.5t-32.5 -146.5q-25 -2 -45.5 -10t-36.5 -21q-72 -57 -123 -151t-78 -187q-20 -104 7.5 -190t80.5 -145q39 -45 88.5 -84t89.5 -72t61.5 -59.5t6.5 -45.5q-23 -29 -90 -9t-149 87q-29 29 -74 35t-78 -22q-18 -16 -18 -48z" />
<glyph unicode="%" horiz-adv-x="1214" d="M22.5 1043q2.5 -85 26.5 -150q14 -29 31.5 -57.5t36.5 -44.5q23 -20 52.5 -33t55.5 -21q80 -14 137 45q31 33 52.5 80t35 101.5t19.5 113t6 113.5q51 -23 106.5 -15.5t104.5 44.5q-72 -121 -149.5 -258.5t-149.5 -271.5t-132 -250.5t-97 -194.5q-35 -80 -24 -131.5 t48 -96.5q23 -20 35 -23t29 23q33 70 85 169.5t115.5 215t132 237.5t134 235.5t125 211.5t100.5 164q37 59 28.5 117.5t-42.5 112.5q-37 61 -72 8q-33 -49 -72 -85t-78.5 -59.5t-76.5 -34t-66 -5.5q-72 6 -108 75q-27 53 -50 84q-43 47 -118 70q-23 6 -53.5 -2t-53.5 -29 q-49 -49 -84 -126t-53.5 -162t-16 -170zM177 974q-1 79 20 189q8 39 22 80t29.5 73t31 50t25.5 12q12 -6 16.5 -33.5t4.5 -66.5t-5.5 -86t-11.5 -96q-20 -117 -49 -172.5t-55 -40.5q-27 12 -28 91zM574 294q1 -85 24 -150.5t64 -102.5q23 -20 51 -31.5t57 -17.5 q76 -18 135 41q31 33 53.5 79t38 99t22.5 110.5t7 112.5q0 39 -2 73.5t-6 67.5q-4 37 -18.5 73t-41.5 65q-18 20 -49.5 39.5t-64.5 29.5q-25 6 -56.5 -2t-54.5 -28q-51 -49 -87 -126t-54.5 -162t-17.5 -170zM723 223q0 84 27 191q8 39 22 80t30.5 73.5t33 50t26.5 11.5 t14.5 -35t3.5 -70t-6.5 -89t-15.5 -91q-23 -113 -53.5 -170t-54.5 -43q-27 14 -27 92z" />
<glyph unicode="&#x26;" horiz-adv-x="1062" d="M-64 331q-4 126 68 249q37 59 88 110t111 98q-29 59 -43 95q-53 131 -59.5 230t34.5 206q39 98 116 165.5t163 90.5q39 10 75.5 13t71.5 -8t72 -41t78 -85q98 -131 106 -266t-69 -252q-41 -66 -108 -125t-132 -113q31 -57 64.5 -112.5t68.5 -108.5q31 31 58.5 63.5 t60.5 69.5q33 33 51 33q23 0 35 -29q29 -68 15.5 -136t-46.5 -134q-10 -16 -18.5 -32.5t-18.5 -30.5q27 -35 48.5 -65t43.5 -58q29 -35 28 -54.5t-23.5 -42t-41 -36t-49.5 -21.5q-31 -4 -54 10.5t-64 57.5q-17 20 -37 43q-90 -78 -197 -115q-37 -16 -80 -27.5t-89 -7.5 t-97 29.5t-107 81.5q-119 129 -123 255zM190 291q0 -27 11 -43q25 -35 98.5 -11.5t171.5 95.5q-35 49 -68.5 103t-68.5 114q-78 -78 -111 -144.5t-33 -113.5zM375 1169q-39 -94 10 -221l6 -14q41 31 78 63.5t63 67.5q18 20 35 54t23 71t1 76t-30 73q-27 -8 -55.5 -25.5 t-54 -40t-46 -50t-30.5 -54.5z" />
<glyph unicode="'" horiz-adv-x="434" d="M55 1200q-25 -63 35 -80q25 -4 48.5 -7t45.5 1q47 4 80 57q16 27 37 68t41 88t36.5 95t27.5 89q10 57 10 68q0 25 -23 66q-16 23 -36.5 45t-47.5 43q-57 51 -78 -21q-16 -53 -39.5 -122.5t-48 -141.5t-48 -137.5t-40.5 -110.5z" />
<glyph unicode="(" horiz-adv-x="497" d="M25.5 886q-21.5 -212 2 -421t95.5 -387q41 -92 92 -121t102 -25q29 6 35 15.5t-8 44.5q-59 150 -78.5 323.5t-7.5 351t52 345.5t102 307q72 160 -43 336q-49 78 -88 8q-104 -164 -169 -364.5t-86.5 -412.5z" />
<glyph unicode=")" horiz-adv-x="555" d="M-100 -4q-33 -59 28 -70q121 -16 193 74q84 111 145.5 274.5t94 350t36 381t-29.5 366.5q-23 104 -80.5 180t-157.5 99q-49 14 -55 -10.5t4 -69.5q45 -190 54 -411.5t-14.5 -437.5t-79.5 -406.5t-138 -319.5z" />
<glyph unicode="*" horiz-adv-x="972" d="M6 944.5q-2 -16.5 19 -47.5q35 -57 77.5 -85t102.5 1q29 14 57.5 25.5t56.5 23.5q-4 -23 -6 -47t-6 -53q-10 -92 14.5 -138t69.5 -73q29 -20 40 -16t18 40q12 72 21 135.5t19 129.5q23 -23 47.5 -48.5t53.5 -52.5q66 -66 108 -65q41 0 82 31q23 23 25 36t-25 41 q-49 53 -93 98.5t-85 92.5q53 16 104.5 32.5t104.5 28.5t18 72q-29 53 -69.5 78.5t-112.5 11.5q-23 -4 -47.5 -9t-48.5 -11q6 37 14 75.5t19 79.5q16 74 -7.5 128t-70.5 97q-49 47 -68 -22q-20 -80 -35.5 -154.5t-27.5 -146.5q-23 25 -42.5 51.5t-45.5 54.5 q-49 61 -98.5 68.5t-96.5 -21.5q-49 -31 -8 -83q51 -66 96 -121.5t88 -104.5q-66 -25 -124 -51.5t-105 -50.5q-31 -14 -33 -30.5z" />
<glyph unicode="+" horiz-adv-x="999" d="M-53 760q-10 35 7 51t40 23q53 14 127 25t155 18q16 96 34 181t36 146q8 29 25.5 44.5t42.5 2.5q31 -16 63.5 -42.5t52.5 -55.5q23 -29 27 -50.5t-6 -55.5q-8 -35 -17.5 -73t-17.5 -79q96 4 162 0q53 -2 82 -61q16 -35 25.5 -65t19.5 -60q10 -35 2 -48.5t-37 -13.5 q-74 -4 -149.5 -7t-153.5 -13q-16 -98 -29.5 -190.5t-23.5 -168.5q-6 -39 -16.5 -45t-39.5 10q-25 16 -48 32t-52 38q-43 35 -41 103q4 37 7 84t12 104q-35 -4 -68 -11.5t-63.5 -15.5t-47 -1t-39.5 38q-20 29 -40.5 75t-30.5 81z" />
<glyph unicode="," horiz-adv-x="428" d="M-143 -188q-25 -61 26 -82q27 -14 57.5 -22.5t59.5 -6.5q23 4 40.5 15t37.5 40q14 20 34.5 54t41 72t39 78t30.5 75q14 35 12 60.5t-24 54.5q-27 35 -56.5 60.5t-60.5 45.5q-29 20 -48 16t-34 -41q-31 -111 -74.5 -216t-80.5 -203z" />
<glyph unicode="-" horiz-adv-x="808" d="M-135 897q-39 95 20 111q41 12 98.5 24t122 21.5t131 14.5t128.5 5q55 0 94 -76q20 -45 32.5 -84t26.5 -75q14 -45 6 -59.5t-41 -16.5q-109 -10 -224.5 -28.5t-213.5 -53.5q-27 -10 -49.5 2t-48.5 55q-27 41 -46.5 80t-35.5 80z" />
<glyph unicode="." horiz-adv-x="452" d="M-39 150q-4 -94 40 -149.5t108 -51.5q31 0 55 15.5t40.5 37t28 46t15.5 42.5q6 27 6 60t-11.5 64.5t-34 58t-58.5 42.5q-41 16 -75 8t-58.5 -32.5t-39 -62t-16.5 -78.5z" />
<glyph unicode="/" horiz-adv-x="724" d="M-82 74q4 -37 29 -60q20 -18 40.5 -37.5t49.5 -42.5q31 -23 47 -15.5t29 44.5q29 76 72.5 189.5t96 243.5t108.5 268.5t109.5 266.5t98.5 233.5t76 172.5q16 37 15 62.5t-30 60.5q-27 31 -55.5 58.5t-56.5 52.5q-59 53 -92 -23q-33 -66 -79 -177t-97.5 -245.5 t-104.5 -280t-100 -277.5t-85 -241.5t-59 -170.5q-14 -49 -12 -82z" />
<glyph unicode="0" horiz-adv-x="935" d="M-33 532.5q4 -172.5 41 -307.5q20 -57 55 -102t66 -70q47 -35 100.5 -53t102.5 -25q78 -10 137 8.5t113 88.5q76 100 125 243.5t73.5 299t26.5 310t-16 279.5q-10 68 -34 124.5t-71 107.5q-41 41 -102.5 68.5t-128.5 41.5q-49 10 -106.5 -9t-100.5 -62 q-98 -104 -163 -263t-93.5 -333t-24.5 -346.5zM232.5 438q-3.5 80 5 174.5t27 186.5t48 181t62.5 156.5t65.5 105.5t59.5 28q25 -10 35 -69.5t10 -145.5t-8.5 -181.5t-22.5 -181.5q-16 -109 -42 -197.5t-55.5 -152t-61 -93.5t-58.5 -18q-29 14 -45 70.5t-19.5 136.5z" />
<glyph unicode="1" horiz-adv-x="528" d="M-14 172q-4 -53 4 -84t33 -53q33 -25 64.5 -36t64.5 -24q35 -14 47 -3.5t18 44.5q10 88 25.5 199t33 230.5t37 244.5t39 242t39 221t35.5 182q10 43 2 65.5t-41 51.5q-35 33 -69.5 53.5t-69.5 32.5q-37 14 -54.5 6t-39.5 -47q-25 -43 -53.5 -101.5t-49.5 -115.5 q-18 -49 -5 -70.5t63 -56.5q-20 -117 -41 -257t-38.5 -276.5t-28.5 -255t-15 -192.5z" />
<glyph unicode="2" horiz-adv-x="845" d="M-98 208.5q-2 18.5 3 37t21 37.5q72 76 149 172t148.5 197.5t132 200.5t102.5 180t59.5 136.5t0.5 69.5q-14 14 -37.5 6t-52.5 -33.5t-60.5 -63.5t-62.5 -79q-47 -49 -111.5 -51t-119.5 24q-16 8 -26.5 19.5t-12.5 32t4 48t24 70.5q59 131 145.5 219.5t184.5 112.5 q57 14 109.5 1t97.5 -44t79 -70.5t54 -78.5q29 -59 38 -114.5t4 -111t-22.5 -112t-41.5 -115.5q-29 -72 -74 -150.5t-99.5 -158.5t-115 -157t-119.5 -140q53 12 112.5 18t100.5 8q31 2 51.5 -13t38.5 -50q16 -29 31.5 -67.5t24.5 -69.5q10 -37 1.5 -49.5t-38.5 -18.5 q-49 -4 -114 -14t-130.5 -23.5t-124.5 -27t-100 -25.5q-59 -16 -82 -7t-41 34q-23 25 -54.5 69.5t-52.5 81.5q-8 14 -15 32.5t-9 37z" />
<glyph unicode="3" horiz-adv-x="886" d="M-101.5 257q-0.5 -34 56.5 -101q92 -119 186.5 -162t180.5 -43q113 0 203.5 47t160.5 176q29 55 43 119.5t9 131.5t-31.5 131.5t-77.5 123.5q-27 31 -56.5 48.5t-62.5 31.5q123 74 195 162q29 37 47 91t20 118.5t-17.5 135t-64.5 142.5q-43 63 -86 97t-84 46.5t-77.5 8 t-67.5 -12.5q-43 -12 -85 -37.5t-79 -57.5t-66.5 -68.5t-50.5 -71.5q-33 -57 10 -109q23 -25 54.5 -40t65.5 -20t68 2t58 32q35 29 75 56.5t69 27.5q20 0 30 -19q14 -25 -1 -64.5t-64 -90t-134 -105.5t-208 -111q-51 -25 -19 -100q39 -88 96.5 -133t116.5 -33q47 8 77 4 t56 -32q12 -14 19.5 -42t5.5 -62t-13.5 -73t-35.5 -77q-53 -78 -126 -88.5t-188 71.5q-39 29 -90 35t-92 -31q-25 -20 -25.5 -54z" />
<glyph unicode="4" horiz-adv-x="970" d="M-66.5 673q-1.5 34 19.5 77q39 88 99.5 196.5t129 216t137 204.5t123.5 165q29 31 49.5 36t55.5 -9q18 -8 49 -27t64.5 -40.5t65.5 -44t50 -36.5q33 -29 40 -52.5t-3 -66.5q-23 -104 -49 -243t-55 -295q55 -4 79 -68q14 -37 21.5 -66.5t17.5 -64.5q8 -39 -1 -53.5 t-42 -18.5q-31 -2 -61.5 -4t-60.5 -4q-23 -135 -42.5 -255t-31.5 -218q-6 -39 -19.5 -49t-48.5 2q-27 10 -59.5 27.5t-61.5 40.5q-29 29 -38 56t-3 81q4 49 13.5 119.5t23.5 162.5q-59 -10 -116.5 -19t-110.5 -22q-29 -8 -53.5 -5t-51.5 38q-31 35 -59.5 79t-52.5 89 q-16 37 -17.5 71zM193 709q55 10 120.5 16t130.5 14q23 121 44.5 243t46.5 235q-45 -55 -90.5 -119t-89.5 -130.5t-84.5 -132t-77.5 -126.5z" />
<glyph unicode="5" horiz-adv-x="804" d="M-74 270q4 -35 54 -108q55 -104 136 -144.5t167 -37.5q78 2 136 30.5t100 69.5t67.5 89t38.5 89q59 186 32.5 325.5t-120.5 213.5q-104 80 -220 80q16 72 39 151.5t50 161.5q86 14 165.5 27.5t151.5 23.5q35 6 44 20.5t-1 55.5q-8 37 -14.5 78t-22.5 80q-25 72 -94 65 q-88 -4 -179 -12t-190 -29q-68 -14 -92 -90q-51 -168 -87 -308t-56 -253q-10 -53 -2 -83t26 -50q29 -29 47.5 -45.5t40.5 -38.5q20 -23 35 -26t55 13q18 8 43 13.5t49.5 6.5t44 -3t27.5 -12q8 -12 14.5 -45t6.5 -76q0 -41 -10.5 -88t-30.5 -86q-14 -31 -34.5 -54.5 t-48.5 -30.5t-66 8t-89 64q-35 35 -92 38t-98 -31q-27 -20 -23 -52z" />
<glyph unicode="6" horiz-adv-x="835" d="M-51 420q-2 -147 45 -246.5t166 -165.5q61 -29 110 -39t88 -6t70 20.5t55 39.5q39 37 76 97t64.5 137t42 165t8.5 180q-4 94 -40 167t-136 128q-67 35 -133 33q57 123 128.5 236.5t157.5 211.5q29 35 22 59.5t-36 49.5q-29 20 -79 41.5t-89 32.5q-41 10 -58.5 0.5 t-45.5 -39.5q-123 -141 -203 -295t-128 -301.5t-66.5 -278.5t-18.5 -227zM193 337q1 83 30 206q37 80 87 117.5t85 17.5q39 -23 37 -96.5t-33 -167.5q-37 -111 -84 -161t-88 -22q-35 23 -34 106z" />
<glyph unicode="7" horiz-adv-x="878" d="M30.5 1454.5q-5.5 -14.5 10.5 -49.5q14 -37 38.5 -81t41.5 -73q27 -35 56.5 -44t58.5 -1q25 4 57.5 9.5t69 11.5t74.5 12t71 10q-61 -119 -121.5 -247t-117 -261t-106.5 -267t-91 -263q-14 -49 -12.5 -78t24.5 -63q25 -35 55.5 -64t61.5 -51q33 -20 47 -16t26 41 q53 152 118 313.5t134.5 318t139 302t135.5 268.5q25 45 22.5 81.5t-24.5 75.5q-16 31 -39 71t-51 81q-23 41 -48.5 53t-60.5 12q-63 -4 -137 -10t-146.5 -15t-139 -22.5t-118.5 -31.5q-23 -8 -28.5 -22.5z" />
<glyph unicode="8" horiz-adv-x="892" d="M-55 385q-12 -125 43 -229.5t174 -155.5q63 -29 128.5 -37t128 10.5t119 63.5t101.5 125q39 74 60.5 146.5t15.5 145t-44 145.5t-120 146q76 59 133 118.5t88 129.5q59 125 28.5 245t-118.5 212q-72 72 -147.5 98.5t-153.5 -12.5q-92 -47 -165 -125t-118 -182 q-53 -123 -28.5 -234.5t123.5 -206.5q-92 -80 -164 -178t-84 -225zM203.5 261q-15.5 40 7 105.5t66 127t104.5 112.5q57 -59 54 -128.5t-34 -143.5q-35 -78 -80 -109.5t-77 -15.5q-25 12 -40.5 52zM327.5 994.5q-3.5 43.5 13.5 94t57.5 104.5t101.5 107q78 -80 39 -170 t-183 -212q-25 33 -28.5 76.5z" />
<glyph unicode="9" horiz-adv-x="831" d="M-15.5 1012.5q-9.5 -97.5 5.5 -189.5q12 -104 59 -174.5t146 -116.5q16 -10 34.5 -13t36.5 -7q-51 -94 -112.5 -182t-133.5 -170q-29 -31 -21.5 -55.5t28.5 -47.5q29 -31 54 -46t58 -36q35 -23 59.5 -12.5t53.5 37.5q109 102 201 246.5t158.5 301.5t101.5 310.5t28 271.5 q-4 74 -22.5 132.5t-50 104.5t-77.5 83t-104 70q-57 31 -104 38t-86 -2.5t-69.5 -29t-55.5 -41.5q-47 -47 -87 -122t-65.5 -164t-35 -186.5zM238 851q-2 40 4 87t18 96q14 53 35.5 101.5t44 83t46.5 52t44 7.5q23 -12 31 -55t3 -107.5t-24.5 -147.5t-52.5 -177 q-53 -72 -102 -46q-23 10 -34 38t-13 68z" />
<glyph unicode=":" horiz-adv-x="503" d="M-59 172q-10 -92 26.5 -148.5t95.5 -70.5q59 -16 104.5 18.5t57.5 100.5q4 27 3 63.5t-11 71.5t-32.5 65.5t-61.5 44.5q-78 29 -126 -18t-56 -127zM35 788q-4 -94 41 -151t108 -55q31 0 55.5 15t42 38.5t29 49.5t15.5 44q2 14 3 28.5t1 30.5q0 47 -24.5 95.5t-80.5 70.5 q-41 16 -74.5 8t-58 -32.5t-40 -61.5t-17.5 -80z" />
<glyph unicode=";" horiz-adv-x="532" d="M-104 -229q-18 -70 41 -99q29 -16 59.5 -26.5t58.5 -7.5q23 4 39.5 18t30.5 49q12 25 27.5 65t30 86t27.5 94t21 91q16 53 -9 104.5t-85 104.5q-27 27 -51.5 47t-43.5 27.5t-31.5 -3t-16.5 -42.5q-20 -135 -48 -263.5t-50 -244.5zM-74 946q12 -113 64.5 -181.5 t115.5 -66.5q33 0 55.5 18.5t37 46.5t20.5 58.5t8 52.5q2 31 -3 71t-20.5 78t-42 70.5t-69.5 51.5q-41 20 -73.5 10t-54 -40t-32 -75t-6.5 -94z" />
<glyph unicode="&#x3c;" horiz-adv-x="712" d="M-16 666q4 -23 22 -35q104 -57 207.5 -116.5t196.5 -125.5q29 -23 42 -16.5t23 41.5q12 45 19 118q2 35 -9.5 56.5t-35.5 42.5q-39 29 -90.5 61.5t-110.5 67.5q72 45 141 86t139 76q29 12 33 29.5t-16 47.5q-31 51 -74 105q-16 20 -31.5 27.5t-33 4.5t-41 -14.5 t-58.5 -27.5q-63 -35 -135 -79t-121 -81q-23 -12 -34 -36t-17 -53.5t-8 -61t-6 -60.5q-6 -18 -2 -57z" />
<glyph unicode="=" horiz-adv-x="892" d="M-7 620.5q13 20.5 38 26.5q63 14 136 26.5t146.5 19.5t146 10.5t134.5 1.5q55 0 80 -58q16 -33 25.5 -61.5t17.5 -57.5q10 -35 1 -47t-38 -14q-279 -13 -541 -74q-33 -8 -52 1t-36 40q-16 29 -31.5 65t-25.5 64q-14 37 -1 57.5zM18 995q-10 39 4.5 56.5t38.5 21.5 q61 10 135 16.5t150 7.5t148.5 -2t134.5 -12q57 -6 80 -63q12 -35 21 -63.5t15 -57.5q8 -35 -2 -47t-38 -8q-143 4 -279.5 -1t-271.5 -28q-33 -4 -51.5 5t-34.5 44q-14 29 -27.5 65t-22.5 66z" />
<glyph unicode="&#x3e;" horiz-adv-x="757" d="M-10 610.5q8 18.5 26 30.5q57 35 139.5 75t170.5 75q-49 29 -97.5 54t-95.5 48q-31 12 -40 26.5t-19 51.5q-4 31 -5 76t3 79q4 29 21.5 35t39.5 -4q43 -18 96.5 -46t112.5 -60.5t118.5 -68.5t114.5 -73q25 -16 35 -33.5t2 -62.5q-12 -80 -30 -139q-10 -35 -23.5 -50.5 t-42.5 -29.5q-104 -41 -186 -81t-160 -87q-23 -16 -38 -14t-40 26q-23 23 -47.5 56.5t-46.5 68.5q-16 29 -8 47.5z" />
<glyph unicode="?" horiz-adv-x="927" d="M19.5 1173.5q7.5 -34.5 37.5 -51.5q61 -37 126 -30.5t110 55.5q31 33 59.5 64.5t56 58t54 43t55.5 16.5q18 0 35.5 -14.5t21.5 -46.5q4 -49 -27.5 -117t-123.5 -145q-37 -33 -83 -75t-88 -98.5t-72.5 -130t-37.5 -170.5q-4 -49 3 -76t36 -50q27 -18 59.5 -38t60.5 -27 t46.5 2t16.5 46q12 119 55 190.5t97 124t110.5 96.5t97.5 109q27 43 47.5 99.5t23.5 124t-15.5 142.5t-69.5 155q-23 39 -58 74.5t-79 59t-95 32t-106 -6.5q-92 -23 -173 -100.5t-145 -200.5q-43 -80 -35.5 -114.5zM66 133q-8 -92 33.5 -143t101.5 -62q68 -14 111.5 24 t54.5 95q2 6 2 25v30q0 47 -20.5 93.5t-86.5 74.5q-43 18 -77.5 13.5t-60.5 -25t-41 -53.5t-17 -72z" />
<glyph unicode="@" horiz-adv-x="1218" d="M-9.5 605q21.5 -154 76 -268t130 -186.5t153.5 -105.5q92 -43 162 -44t119 22q16 8 18 24t-10 37q-20 31 -52 52.5t-63 31.5q-20 6 -39.5 7l-39 2t-43 5t-50.5 15q-37 14 -82 60t-77.5 126t-43 197.5t22.5 277.5t94.5 270.5t136 172t154.5 73.5t152 -22q84 -41 127 -120 t58 -171t10 -186.5t-17 -163.5q-35 -176 -83 -258t-77 -50q-10 10 -10 43q0 39 8 100.5t18.5 125t20.5 118t14 78.5q8 47 0 77t-55 65q-10 51 -37 88t-61 53q-49 20 -101.5 -0.5t-98.5 -72.5t-84 -133t-58 -179q-23 -98 -18 -170t27.5 -123t56.5 -82t69 -45q115 -47 188 39 q39 -82 111 -106q45 -20 92 -18.5t91 37.5t83 111.5t66 204.5q27 123 23.5 252t-39.5 245t-106.5 209t-181.5 146q-109 55 -226.5 52.5t-221.5 -66t-184 -186.5t-113 -310q-31 -197 -9.5 -351zM427 534.5q-9 57.5 19 190.5q14 68 39 125t51.5 98t49 62.5t32.5 17.5 q23 -12 29 -53q-20 -113 -43.5 -209t-48.5 -165t-49.5 -104.5t-44.5 -27.5q-25 8 -34 65.5z" />
<glyph unicode="A" horiz-adv-x="980" d="M-106 115q2 -25 16 -45.5t34.5 -37t42 -29.5t38.5 -23q31 -16 46 -10.5t27 40.5q20 66 42 134.5t50 146.5q76 29 175.5 49.5t197.5 40.5q4 -80 10.5 -149.5t12.5 -129.5q6 -57 19 -79.5t46 -36.5q33 -16 63.5 -19.5t65.5 -3.5t45.5 14.5t8.5 51.5q-8 172 -15 361.5 t-12.5 371.5t-6.5 345v103q0 98 1 176v14q1 38 -9 63q-12 30 -51 46q-53 20 -112.5 41t-155.5 27q-10 1 -19 1q-41 0 -65 -22q-29 -26 -47 -69q-51 -123 -112.5 -290t-121 -344t-113.5 -348t-91 -306q-10 -51 -10 -76v-8zM311 647q59 172 117.5 327.5t106.5 278.5 q0 -135 4 -278.5t8 -290.5q-119 -12 -236 -37z" />
<glyph unicode="B" d="M-44 235.5q1 -24.5 7 -44t17.5 -37t25.5 -41.5q39 -47 68.5 -77t70.5 -56q20 -18 37 -27.5t34 -11.5t35.5 3t45.5 15q49 18 103.5 46t107.5 62.5t100 76.5t82 89q46 59 68 122q15 43 15 97q0 25 -3 52q-10 72 -44 138t-85 103q41 33 72.5 66t60.5 66q53 65 86 151 q22 58 22 121q0 31 -5 63q-16 88 -48 153t-75 122q-48 61 -136 79q-49 10 -103 9q-41 1 -83 -5q-98 -14 -195.5 -52.5t-166.5 -87.5q-6 -127 -21.5 -275.5t-32 -299t-33 -295t-24.5 -263.5q-4 -37 -3 -61.5zM205 262q10 78 22.5 153.5t24.5 153.5q51 25 94 33q26 5 49 5 q14 0 27 -2q33 -5 52.5 -19.5t25.5 -34.5q1 -8 1 -16q-1 -26 -15 -56q-20 -39 -58.5 -79t-96 -75.5t-126.5 -62.5zM305 874q16 92 30.5 174t31.5 154q103 66 177 69h10q65 0 75 -40q1 -6 1 -14q0 -24 -14 -58q-20 -45 -63 -96t-105.5 -101.5t-142.5 -87.5z" />
<glyph unicode="C" horiz-adv-x="876" d="M-62 609q-3 -51 -4 -99q0 -68 6 -132q10 -108 42 -192q18 -57 54 -100t70 -66q41 -20 93.5 -43.5t115.5 -31.5q15 -2 31 -2q46 -1 93 17q63 24 102 63q37 41 73.5 102t59.5 133q17 53 17 91v11q-3 42 -54 62q-38 15 -72 15q-77 0 -131 -81q-90 -143 -144 -143q-9 0 -18 4 q-29 12 -42 65.5t-15 132.5q0 14 -1 29q0 67 8 144q9 94 28 186q18 86 49 182.5t65.5 176t67.5 129.5q27 40 48 40q5 0 9 -2q25 -12 30 -56t5 -97q0 -16 1 -32.5t3 -33.5q12 -86 49 -136t119 -73q43 -12 53.5 5.5t18.5 46.5q12 61 16 151q2 45 2 86.5t-2 79.5 q-4 66 -21.5 117t-66.5 102q-47 41 -117.5 77t-138.5 44q-9 1 -18 1q-37 0 -78 -14q-51 -16 -102 -73q-63 -74 -116.5 -175t-92.5 -219t-63 -244t-32 -248z" />
<glyph unicode="D" horiz-adv-x="1001" d="M-49 236q2 -32 9 -54t19.5 -39.5t24.5 -36.5q35 -41 62.5 -68.5t66.5 -55.5q44 -35 87 -35q29 0 59 16q135 57 239.5 149.5t177 205t116.5 237.5t58 249q8 67 8 131q0 55 -6 109q-12 116 -51 207q-43 109 -102.5 174.5t-128 98t-140.5 38.5q-20 2 -40 1q-52 -1 -102 -11 q-68 -14 -130.5 -43.5t-107.5 -62.5l-115 -1129q-5 -37 -5 -64q0 -9 1 -17zM211 283q35 248 73 481t83 457q43 19 80 19q29 0 54 -12q56 -28 79 -85q10 -29 16 -70q4 -31 4 -68v-26q-2 -78 -24.5 -172t-68.5 -188.5t-119 -182t-177 -153.5z" />
<glyph unicode="E" horiz-adv-x="788" d="M-63 270q-1 -14 -1 -27q0 -36 8 -65q11 -39 33 -67q27 -37 47.5 -60.5t43.5 -46.5q20 -20 48 -32q10 -4 23 -4q24 0 60 14q82 23 172 49t176 51q35 10 42 25.5t-1 56.5q-10 37 -20.5 71.5t-26.5 73.5q-14 35 -36 47.5t-56 8.5q-66 -6 -123.5 -15.5t-118.5 -25.5 q10 53 20.5 109t20.5 116q76 23 156.5 42t158.5 40q35 10 43 24.5t-2 57.5q-8 37 -17 71.5t-26 71.5q-14 35 -34.5 46t-55.5 9q-41 -2 -79 -5t-77 -11q20 92 37 176t33 160q86 16 165 28.5t150 22.5q35 6 44.5 21.5t3.5 58.5q-8 37 -15.5 67.5t-23.5 69.5q-19 70 -81 70h-7 q-143 -8 -284 -43t-245 -72z" />
<glyph unicode="F" horiz-adv-x="778" d="M-72 172v-24q0 -36 4 -58q6 -29 39 -53q27 -16 61 -34.5t64.5 -27t53 0t24.5 44.5q16 111 37.5 249.5t48.5 285.5q72 23 148.5 43t148.5 37q35 6 44 22.5t-1 57.5q-8 35 -17.5 70.5t-25.5 72.5q-26 56 -79 56q-5 0 -11 -1q-39 -2 -76 -6t-74 -10q20 94 34 179t30 153 q86 16 165.5 28.5t151.5 24.5q35 6 43.5 20.5t1.5 57.5q-10 70 -43 141q-23 43 -41 56.5t-53 11.5q-72 -4 -144.5 -12.5t-143 -19.5t-134 -26.5t-114.5 -33.5v-32q0 -69 -6 -159q-8 -112 -22.5 -239t-33 -258.5t-35 -250t-29 -215t-16.5 -151.5z" />
<glyph unicode="G" horiz-adv-x="905" d="M-68 420q9 -111 39 -199q16 -57 49 -105t68 -77q94 -66 203 -86q31 -7 61 -7q85 0 158 62q74 68 135.5 191t104.5 297q8 42 8 72v12q-2 32 -25 75q-12 23 -26.5 49.5t-30.5 49.5q-23 35 -50 45q-16 6 -36 6q-16 0 -35 -4q-37 -8 -88 -17.5t-98 -23.5q-49 -10 -80 -22 q-23 -10 -23 -39q0 -10 2 -21q23 -104 66 -150q38 -42 104 -42q8 0 17 1q-20 -63 -44 -119.5t-49.5 -95.5t-51 -57t-50.5 -6q-29 14 -43 72.5t-16 141.5v26q0 72 9 153q11 96 34 184q25 106 58.5 202.5t68.5 167.5t69 110q26 30 47 30q5 0 11 -2q12 -4 17 -26.5t9 -53.5 q2 -16 3 -33.5t1 -35.5t1 -34.5t3 -33.5q8 -88 50.5 -143t130.5 -72q33 -4 44 8.5t19 47.5q4 29 7 69.5t4 84.5q1 22 1 44t-1 45q-1 45 -5 80q-8 66 -27.5 118t-60.5 95q-43 47 -107.5 79t-125.5 42q-21 4 -45.5 4t-51.5 -4q-53 -8 -96 -51q-70 -68 -127 -166t-100 -214 t-70.5 -241t-38.5 -248q-5 -65 -5 -126q0 -56 5 -109z" />
<glyph unicode="H" horiz-adv-x="925" d="M-63 170q-5 -24 -5 -43q0 -23 7 -40q12 -30 43 -52q25 -23 60.5 -37t68.5 -29q35 -12 47 -2t18 45q14 98 29.5 219t38.5 256q53 12 107.5 22.5t107.5 22.5q-14 -111 -24.5 -203.5t-14.5 -164.5q-3 -20 -3 -38q1 -46 23 -72q32 -36 86 -60q27 -10 51.5 -19.5t42 -11.5 t27.5 8.5t10 38.5q23 166 50.5 350.5t57.5 364.5t58.5 344t53.5 291q4 21 4 38q1 14 -3 26q-8 24 -40 53q-35 29 -73 52t-73 36q-37 14 -56.5 7t-29.5 -59q-25 -135 -51.5 -311t-54.5 -362q-47 -4 -99.5 -10.5t-105.5 -14.5q27 154 49.5 287t42.5 227q4 23 4 40q0 15 -3 27 q-7 24 -42 52q-33 29 -76 53.5t-80 38.5q-35 16 -53 8t-28 -59q-18 -137 -39 -310t-42.5 -352.5t-44 -350.5t-46.5 -306z" />
<glyph unicode="I" horiz-adv-x="425" d="M-82 170q-1 -16 -1 -30q0 -32 6 -53q9 -30 40 -52q29 -23 61.5 -37t67.5 -29q35 -12 47.5 -2t18.5 45q12 90 27.5 202t34 232.5t37.5 245.5t38.5 241t38 218t35.5 178q4 23 4 40q0 15 -3 27q-7 24 -42 52q-33 29 -76 54.5t-80 37.5q-37 14 -55.5 4t-28.5 -55 q-14 -76 -31.5 -184.5t-35 -231.5t-34 -254t-30.5 -252t-24.5 -224t-14.5 -173z" />
<glyph unicode="J" horiz-adv-x="856" d="M-62 388q1 -69 19 -134q23 -92 74 -168t157 -113q66 -24 117 -24q28 0 52 7q67 21 114 64q59 57 106.5 177t85 292.5t66.5 390.5t51 474q1 16 1 28q0 23 -4 36q-7 22 -42 52q-35 29 -80 50.5t-80 35.5q-37 12 -56 2t-25 -57q-10 -102 -24.5 -238.5t-33 -280.5t-40 -282.5 t-46 -248t-51.5 -175.5q-26 -63 -51 -63h-2q-33 6 -40 50t-11 143q-4 152 -152 237q-22 14 -38 14q-17 0 -27 -16q-21 -31 -31 -96q-9 -80 -9 -144v-13z" />
<glyph unicode="K" horiz-adv-x="907" d="M-86 170q4 70 15.5 175.5t26.5 229t32.5 257t35 259.5t35 235.5t31.5 184.5q10 45 29.5 55.5t54.5 -3.5q37 -12 80 -38t76 -55q35 -31 43 -52q4 -9 4 -23q0 -17 -6 -41q-18 -84 -38 -195.5t-42 -247.5q53 80 113.5 168t115.5 174t103.5 161t76.5 126q18 35 37 35 q23 0 47 -29q27 -29 46.5 -65.5t35.5 -79.5q10 -30 10 -60v-10q-2 -35 -22 -86q-27 -66 -72 -145.5t-100 -165.5t-115.5 -173t-115.5 -163q27 -61 59.5 -129t63 -130.5t59.5 -115.5t51 -90q23 -35 18.5 -56.5t-32.5 -41.5q-16 -14 -41 -24.5t-47 -14.5q-22 -9 -45 -9 q-13 0 -27 3q-37 8 -74 67q-14 25 -39.5 68t-56.5 96t-62.5 113.5t-58.5 120.5q-18 -127 -33.5 -239t-29.5 -204q0 -31 -10.5 -43t-28 -10t-42 13.5t-55.5 23.5q-60 26 -86 62q-22 30 -21 85q0 13 1 27z" />
<glyph unicode="L" horiz-adv-x="727" d="M-86 260q-2 -17 -2 -33q0 -29 7 -52q11 -36 34 -64q31 -37 49 -60.5t41 -46.5q18 -18 45 -32q9 -5 23 -4q25 0 63 16q82 25 172 50t176 50q41 12 45 26.5t-6 57.5q-6 35 -17.5 71.5t-27.5 71.5q-16 37 -36.5 48.5t-55.5 7.5q-61 -6 -115.5 -14.5t-113.5 -22.5 q20 131 44.5 270t49 274.5t49 260.5t47.5 225q6 24 6 42q0 12 -3 22q-7 24 -40 52.5t-76 52t-79 36.5q-35 14 -54.5 5t-32.5 -54q-18 -84 -37.5 -187.5t-39 -218.5t-38 -233.5t-33.5 -230t-26.5 -211t-17.5 -175.5z" />
<glyph unicode="M" horiz-adv-x="1261" d="M-82 160q-1 -15 -1 -28q0 -33 7 -54q10 -29 43 -53q27 -20 58.5 -36t62.5 -26q33 -10 45 1t19 48q8 86 21 195.5t30.5 230.5t37.5 248t40 250q14 -180 34.5 -356.5t42.5 -317.5q6 -35 12.5 -57.5t14.5 -36.5t18.5 -23.5t24.5 -17.5q45 -23 94 -37q37 -10 46.5 2t23.5 55 q20 70 54 171.5t74 213t81 225t76 206.5q-18 -106 -35 -223t-30 -225.5t-22.5 -201t-13.5 -151.5q-2 -19 -2 -34q0 -28 6 -48q10 -31 43 -53q25 -20 57.5 -35t65.5 -25q35 -12 47.5 4.5t20.5 53.5q8 72 21.5 174t30.5 220t35.5 246t38 248.5t37 228t31.5 187.5q5 26 5 47 t-5 36q-10 30 -47 52q-53 33 -109.5 56.5t-105.5 40.5q-35 13 -59 13h-9q-26 -3 -46.5 -27.5t-40 -72t-46.5 -120.5q-27 -66 -56.5 -142.5t-57 -154.5t-54 -154t-47.5 -139q-18 178 -29.5 281.5t-17.5 159t-7 75.5t-1 35q-4 31 -8 55.5t-13.5 45t-25.5 36.5t-45 31 q-45 23 -89 39t-108 28q-41 8 -61.5 -6t-32.5 -67q-14 -76 -31.5 -182.5t-35 -227.5t-36 -249t-32.5 -248.5t-24.5 -227t-14.5 -182.5z" />
<glyph unicode="N" horiz-adv-x="958" d="M-80 180q-2 -21 -2 -39q0 -25 5 -43q9 -30 38 -53q29 -29 62.5 -42t66.5 -26q35 -14 48.5 -4.5t17.5 43.5q8 74 21 170.5t28.5 205t33 226t33.5 232.5q16 -96 35 -192.5t37 -187.5t37.5 -171t38.5 -141q25 -88 84 -123q33 -16 64.5 -29.5t64.5 -23.5q18 -6 32 -6 q44 0 48 59q18 141 41.5 316t48 353.5t50.5 345.5t48 291q5 25 5 45q0 15 -3 28q-6 30 -41 59q-43 35 -67.5 47t-61.5 24t-56.5 1t-27.5 -56q-31 -174 -64.5 -392t-56.5 -454q-14 92 -28.5 191.5t-27.5 190.5t-23.5 168t-16.5 124q-8 61 -23.5 93t-52.5 52q-45 29 -87 47.5 t-85 34.5q-35 12 -57.5 0t-32.5 -59q-16 -86 -34.5 -201t-36 -243t-35 -258t-30.5 -246.5t-23.5 -210t-14.5 -146.5z" />
<glyph unicode="O" d="M-35 530q4 -172 47 -307q18 -57 53 -102t70 -74q45 -35 99.5 -52.5t105.5 -25.5q28 -4 54 -4q46 -1 84 13q60 22 114 85q76 104 125 249t74.5 301.5t27.5 310.5v31q0 137 -16 251q-12 72 -36 129.5t-71 106.5q-41 43 -103.5 72.5t-129.5 44.5q-16 3 -33 3q-36 0 -76 -14 q-58 -22 -100 -65q-98 -109 -164 -269q-65 -160 -97 -336q-28 -156 -28 -310v-38zM242 439v31q0 70 7 148q9 96 27 183q18 84 47 174t61 160.5t64 112.5q26 34 48 34q5 0 10 -2q25 -10 37 -71.5t13 -147.5v-19q0 -78 -7 -166q-8 -98 -25 -184q-18 -109 -44.5 -201 t-56.5 -157q-29 -64 -61 -94q-22 -21 -42 -21q-9 0 -17 4q-31 14 -45 73.5t-16 142.5z" />
<glyph unicode="P" horiz-adv-x="966" d="M-35 162q-5 -25 -5 -46q0 -23 6 -40q11 -33 36 -54.5t58.5 -35t68.5 -27.5q35 -10 47 0t21 43q12 104 28.5 210.5t34.5 217.5q80 31 159 74t150.5 95t132 111.5t101.5 120.5q49 74 79 157q17 47 16 101q0 41 -10 87q-22 104 -59.5 175.5t-80.5 131.5q-53 68 -132 76 q-19 2 -38 2q-62 1 -130 -19q-88 -26 -176 -75.5t-157 -98.5q-12 -8 -23.5 -87t-24 -197.5t-24.5 -259t-24.5 -272.5t-25.5 -237.5t-28 -152.5zM319 782q20 113 39 214.5t39 193.5q45 27 89 40t79 14t57.5 -9t26.5 -31q4 -14 4 -31q0 -27 -10 -61q-16 -55 -58 -114.5 t-109 -117t-157 -98.5z" />
<glyph unicode="Q" horiz-adv-x="946" d="M-35 530q4 -172 47 -307q18 -57 53 -102t70 -74q45 -35 98.5 -53.5t106.5 -24.5q24 -2 48 -2t46 2q45 4 84 31q6 -6 11.5 -12t13.5 -17q35 -45 80 -45q13 0 26 4q25 8 49.5 20.5t46.5 33.5q27 18 28.5 38.5t-21.5 55.5q-20 31 -37 63.5t-39 67.5q51 106 83 236t47 265 q13 118 13 233v30q-2 129 -18 233q-12 72 -35 129.5t-70 106.5q-41 43 -103.5 72.5t-129.5 44.5q-16 3 -33 3q-37 0 -76 -14q-59 -22 -100 -65q-98 -109 -163.5 -269.5t-97.5 -335.5q-28 -156 -28 -310v-38zM241 482q1 65 7 136q16 137 50 271.5t85 245.5q25 55 49.5 92 t46 49t39 -3.5t25.5 -64.5q8 -43 11 -106q2 -31 2 -64t-2 -68q-3 -71 -11 -142.5t-21 -135.5q-10 -72 -24.5 -135t-34.5 -117q-37 -10 -66.5 -22t-52.5 -29q-28 -21 -28 -48q0 -19 14 -42q8 -14 15 -28.5t17 -28.5q-21 -24 -41 -24q-9 0 -18 5q-23 12 -37 49t-20 90 q-5 46 -5 101v19z" />
<glyph unicode="R" horiz-adv-x="993" d="M-35 162q-1 -18 -1 -33q0 -31 5 -52q8 -32 33 -54q25 -20 53.5 -28.5t63.5 -23.5q33 -10 45 0.5t18 42.5q16 111 34 222.5t38 230.5q35 -61 77 -123.5t85 -120t84 -106.5t71 -82q47 -43 84 -48q11 -1 21 -1q24 0 45 8q25 6 42 11t40 34q20 23 22 43t-26 55 q-35 41 -74 94.5t-79 109.5t-77 113.5t-67 106.5q143 92 243.5 197.5t139.5 228.5q15 39 14 91q0 44 -10 98q-23 104 -60.5 175.5t-80.5 131.5q-53 68 -124 83q-32 7 -65 7q-41 -1 -84 -11q-78 -18 -158.5 -60t-154.5 -87q-23 -14 -43.5 -97t-41 -204t-37.5 -263 t-31.5 -276.5t-26 -245t-17.5 -167.5zM313 791q25 117 44.5 218t39.5 187q47 31 90 43t78 12q72 0 88 -47q2 -9 2 -19q0 -25 -13 -63q-19 -53 -63 -112.5t-112 -119t-154 -99.5z" />
<glyph unicode="S" horiz-adv-x="821" d="M-125 342q0 -35 55 -111q104 -154 207 -215q97 -57 199 -57h14q82 2 140.5 30.5t97.5 70.5t62.5 90.5t35.5 91.5q14 41 14 78q0 42 -17 78q-32 70 -92.5 133t-135 126.5t-129.5 137.5q-41 53 -41 120v7q2 72 26.5 140t62.5 123.5t68 78.5q33 33 40 10q4 -13 4 -36 q0 -16 -2 -37q-5 -50 -16 -112.5t-13 -105.5q-1 -9 -1 -19q0 -134 164 -214q31 -16 47.5 -7t28.5 45q12 39 23.5 92.5t21 110t16.5 111.5t9 100q-2 51 -11.5 110.5t-60.5 119.5q-37 45 -92 81.5t-108 61.5q-35 14 -68 16t-60.5 -4t-50 -19.5t-37.5 -27.5q-43 -35 -86 -87 t-79.5 -112.5t-64.5 -125t-40 -121.5q-20 -77 -20 -147q0 -59 14 -112q31 -118 100 -198q47 -57 110.5 -114.5t115.5 -107.5q54 -50 82 -89q16 -22 16 -39q0 -13 -10 -23q-22 -25 -60 -25q-26 0 -60 12q-83 30 -194 130q-39 37 -95 42q-8 1 -16 1q-47 0 -87 -25 q-27 -20 -27 -57z" />
<glyph unicode="T" horiz-adv-x="907" d="M8 1454.5q-8 -12.5 4 -49.5q12 -35 31.5 -88t44.5 -88q23 -35 42.5 -42t49.5 3q23 8 56.5 14t68.5 15q-20 -117 -41.5 -260.5t-40 -287t-33 -276.5t-20.5 -227q-3 -21 -3 -39q-1 -49 23 -76q32 -37 91 -61q29 -12 52 -22.5t40.5 -12.5t28 8t12.5 39q18 145 41.5 307 t50 327t53.5 325.5t51 306.5q59 8 115.5 15t103.5 13q37 4 43.5 17.5t-2.5 52.5q-10 41 -27.5 84t-41.5 80q-12 20 -29.5 29.5t-52.5 9.5q-70 -4 -159 -12.5t-181 -20.5t-181 -28.5t-159 -34.5q-23 -8 -31 -20.5z" />
<glyph unicode="U" horiz-adv-x="923" d="M-40 464q1 -152 40 -255q20 -57 49 -96t62 -68q78 -66 200 -78q19 -2 36 -2q39 -1 73 9q48 14 96 49q66 57 116 178t90 292t70.5 386t59.5 464q3 22 3 38.5t-3 27.5q-6 23 -41 51q-33 25 -72 50.5t-73.5 38t-58 2t-25.5 -55.5q-12 -102 -29.5 -240.5t-40.5 -284 t-49.5 -285.5t-56 -246.5t-63.5 -166.5q-28 -49 -57 -50q-7 0 -14 3q-29 13 -39 71q-7 42 -7 98q0 23 1 47q4 87 18.5 195.5t35 220.5t44 220.5t44.5 196.5q6 25 6 49q0 67 -49 115q-31 29 -64 51t-67 37q-37 16 -56.5 7t-29.5 -54q-37 -158 -73 -337q-36 -178 -56 -352 q-20 -165 -20 -312v-14z" />
<glyph unicode="V" horiz-adv-x="954" d="M27 1466q12 -340 35.5 -650t60.5 -572q8 -47 32.5 -105.5t73.5 -93.5q45 -33 86 -53q41 -22 89 -42q29 -12 49 -12q13 0 23 6q26 14 46 64q29 84 64 193.5t72.5 231.5t74.5 249t70 246t58.5 221t39.5 176q9 31 9 56q0 34 -16 58q-26 42 -75 77q-23 18 -45 32.5 t-41.5 17.5t-35 -7.5t-23.5 -38.5q-72 -256 -150 -539t-164 -553q-12 137 -22 271.5t-19.5 257t-16.5 228t-13 187.5q-10 104 -86 141q-33 16 -61.5 23.5t-63.5 7.5t-43 -17.5t-8 -60.5z" />
<glyph unicode="W" horiz-adv-x="1312" d="M2 547q0 -117 3 -222.5t7 -187.5q2 -57 14.5 -84.5t45.5 -44.5q72 -35 153 -57q31 -8 50.5 -1t35.5 50q16 51 42 128t56.5 165t63.5 181t64 177q0 -66 4 -137.5t9 -140t10 -129t9 -101.5q4 -43 20.5 -78.5t55.5 -56.5q39 -14 65.5 -26.5t75.5 -26.5q23 -6 41 -6 q16 0 28 5q24 11 36 50q23 84 52.5 190.5t62 224.5t68.5 240.5t71 238.5t66.5 220.5t58.5 181.5q10 35 10 71v12q-2 42 -31 77q-53 51 -110 86q-39 20 -56.5 15t-33.5 -54q-18 -55 -53 -162.5t-76 -241.5t-86.5 -282.5t-83.5 -283.5q4 109 8 220t8 207.5t7 168t3 100.5 q0 51 -6 73.5t-41 43.5q-33 16 -56.5 28.5t-58 22.5t-52 0t-32.5 -45q-20 -43 -54 -136.5t-74 -211t-81.5 -246.5t-78.5 -242q4 111 10 230.5t13 228t13.5 195t8.5 129.5l2 32q1 30 -5 63q-8 50 -42 79q-31 25 -66 38t-78 25q-37 10 -51 -4t-18 -63q-6 -92 -11.5 -205 t-8.5 -234t-5 -244.5t-2 -242.5z" />
<glyph unicode="X" horiz-adv-x="966" d="M-106 158q0 29 20 73q51 111 132 267.5t175 320.5q-29 90 -56.5 179t-52 170t-45 151t-34.5 121q-7 32 -7 50q0 14 3 20q8 18 43 24q16 2 34 2h35q16 0 36 -1t40 -3q41 -6 63.5 -35t38.5 -74q18 -66 42 -143.5t51 -163.5q74 133 136 243.5t109 184.5q23 35 48 35t53 -23 q29 -29 56.5 -69.5t45.5 -75.5q19 -36 19 -68q-1 -6 -1 -13q-4 -38 -24 -73q-61 -104 -144 -245.5t-175 -298.5q57 -186 109 -356.5t95 -305.5q16 -39 10 -58.5t-36 -25.5q-34 -4 -70 -4t-74 4q-37 6 -57 27.5t-43 71.5q-16 35 -48 129t-75 227q-72 -127 -133 -245 t-109 -202q-19 -33 -43 -33q-20 0 -45 23q-27 25 -52 59.5t-47.5 69.5t-22.5 64z" />
<glyph unicode="Y" horiz-adv-x="888" d="M-4 1537.5q-6 -15.5 4 -58.5q18 -90 42 -200t50.5 -226.5t53 -234.5t51.5 -228q-16 -129 -27.5 -240.5t-22.5 -197.5q-1 -16 -1 -29q0 -32 6 -52q10 -28 38 -57q29 -18 65 -35.5t69 -31.5q35 -12 47 -3t20 50q14 111 30.5 226.5t39.5 244.5q55 117 112.5 241.5 t107.5 239.5t89 212.5t57 160.5q15 47 15 74v5q-2 29 -25 64q-20 25 -48 53.5t-55.5 47t-51 16.5t-33.5 -41q-59 -147 -123 -297.5t-129 -298.5q-33 147 -62.5 276.5t-56.5 227.5q-16 51 -32.5 75.5t-51.5 34.5q-29 9 -58 9h-12q-34 -2 -69 -6q-33 -6 -39 -21.5z" />
<glyph unicode="Z" horiz-adv-x="768" d="M-101 154q15 -37 33 -66q29 -37 49.5 -61.5t43.5 -49.5q23 -23 49 -34q9 -4 21 -4q24 0 61 14q82 29 179 54.5t183 49.5q35 6 45 22.5t0 57.5q-6 35 -18.5 71t-28.5 75q-24 55 -78 55q-11 0 -22 -2q-53 -10 -102.5 -21.5t-98.5 -27.5q125 236 257 475t255 457 q23 39 24 73v5q0 31 -10 65q-8 29 -16 61.5t-25 75.5q-14 35 -31.5 49.5t-52.5 12.5q-66 -4 -138 -11.5t-145 -17.5t-140.5 -24.5t-122.5 -30.5q-23 -10 -30 -23.5t3 -50.5q12 -37 32.5 -86t33.5 -78q23 -37 50 -47t60 -2q43 12 88.5 20.5t98.5 20.5q-72 -123 -147 -263.5 t-142.5 -275.5t-123.5 -255t-89 -199q-11 -27 -11 -50q0 -18 6 -34z" />
<glyph unicode="[" horiz-adv-x="622" d="M-27 229q12 127 33 289t46.5 330t54 329.5t55.5 288.5q12 63 71 74q55 10 114 14.5t108 6.5q33 2 52 -16.5t34 -53.5q16 -37 25 -67.5t18 -67.5q10 -39 -0.5 -53.5t-42.5 -20.5q-35 -4 -76 -10t-82 -10q-23 -109 -47.5 -237t-47 -260t-43 -263t-36.5 -248q23 2 44 4t44 4 q61 10 90 -55q16 -35 23.5 -67.5t17.5 -67.5q10 -39 1 -55.5t-44 -16.5q-41 -10 -92 -22.5t-98 -24.5q-39 -10 -66 -1t-49 32q-20 18 -37.5 40.5t-38.5 45.5q-18 31 -27.5 65.5t-3.5 93.5z" />
<glyph unicode="\" horiz-adv-x="733" d="M25 1497q12 -80 35.5 -199.5t52 -258t61.5 -285t64.5 -281.5t60.5 -246.5t49 -181.5q16 -49 32.5 -74.5t49.5 -29.5q51 -12 113 -2q35 4 43 20t-2 51q-20 88 -46 210t-54.5 258t-57.5 279.5t-54.5 276.5t-46 248t-32.5 195q-10 47 -23.5 66.5t-52.5 29.5q-37 10 -69.5 12 t-67.5 0q-72 -4 -55 -88z" />
<glyph unicode="]" horiz-adv-x="651" d="M-76 125q14 -35 27.5 -66.5t28.5 -56.5q16 -25 34.5 -36t55.5 -3q43 10 89 18.5t93 18.5q45 2 58.5 21.5t17.5 48.5q18 125 42.5 286.5t52.5 328.5t56.5 326.5t55.5 280.5q6 37 3 62.5t-26 60.5q-16 29 -32.5 52.5t-33.5 45.5q-20 29 -39.5 39.5t-54.5 6.5 q-68 -6 -128 -14.5t-107 -20.5q-31 -6 -39 -27.5t-4 -52.5t17 -66t28 -67q14 -37 32.5 -48.5t55.5 -7.5q16 2 32.5 5.5t32.5 5.5q-20 -111 -42.5 -240t-45 -263t-43 -265t-35.5 -242q-39 -8 -80.5 -20.5t-72.5 -22.5q-59 -23 -29 -88z" />
<glyph unicode="^" horiz-adv-x="915" d="M41 1059q-29 -53 2 -111q18 -35 34.5 -59.5t37.5 -48.5q20 -27 35 -27q18 0 32 27q47 78 104.5 170t123.5 186q23 -111 43 -209t39 -164q23 -66 71 -82q31 -10 57.5 -13t51.5 -5q29 -2 38 11.5t1 47.5q-12 57 -27.5 132t-32 157t-31 166t-24.5 162q-6 49 -15.5 70.5 t-29.5 50.5q-20 23 -44 43t-48 43q-23 16 -42.5 15t-43.5 -36q-47 -59 -96.5 -131t-93.5 -143.5t-80.5 -137t-61.5 -114.5z" />
<glyph unicode="_" horiz-adv-x="880" d="M-41 -383q4 29 8 57.5t13 59.5q8 37 23 51t46 14h914q27 2 39 -7t14 -27.5t-3 -42t-9.5 -46t-8.5 -46t-13 -43t-23.5 -31t-38.5 -7.5h-916q-29 0 -41 15.5t-4 52.5z" />
<glyph unicode="`" horiz-adv-x="808" d="M178 1991q33 -29 80 -64t101.5 -69.5t112.5 -68.5t114 -58q45 -25 116 28q0 -2 7.5 6.5t12.5 22.5t3 31.5t-23 33.5q-94 55 -191 121t-171 140q-20 20 -47 19t-68 -30q-23 -14 -33 -41.5t-14 -70.5z" />
<glyph unicode="a" horiz-adv-x="980" d="M-106 115q2 -25 16 -45.5t34.5 -37t42 -29.5t38.5 -23q31 -16 46 -10.5t27 40.5q20 66 42 134.5t50 146.5q76 29 175.5 49.5t197.5 40.5q4 -80 10.5 -149.5t12.5 -129.5q6 -57 19 -79.5t46 -36.5q33 -16 63.5 -19.5t65.5 -3.5t45.5 14.5t8.5 51.5q-8 172 -15 361.5 t-12.5 371.5t-6.5 345v103q0 98 1 176v14q1 38 -9 63q-12 30 -51 46q-53 20 -112.5 41t-155.5 27q-10 1 -19 1q-41 0 -65 -22q-29 -26 -47 -69q-51 -123 -112.5 -290t-121 -344t-113.5 -348t-91 -306q-10 -51 -10 -76v-8zM311 647q59 172 117.5 327.5t106.5 278.5 q0 -135 4 -278.5t8 -290.5q-119 -12 -236 -37z" />
<glyph unicode="b" d="M-44 235.5q1 -24.5 7 -44t17.5 -37t25.5 -41.5q39 -47 68.5 -77t70.5 -56q20 -18 37 -27.5t34 -11.5t35.5 3t45.5 15q49 18 103.5 46t107.5 62.5t100 76.5t82 89q46 59 68 122q15 43 15 97q0 25 -3 52q-10 72 -44 138t-85 103q41 33 72.5 66t60.5 66q53 65 86 151 q22 58 22 121q0 31 -5 63q-16 88 -48 153t-75 122q-48 61 -136 79q-49 10 -103 9q-41 1 -83 -5q-98 -14 -195.5 -52.5t-166.5 -87.5q-6 -127 -21.5 -275.5t-32 -299t-33 -295t-24.5 -263.5q-4 -37 -3 -61.5zM205 262q10 78 22.5 153.5t24.5 153.5q51 25 94 33q26 5 49 5 q14 0 27 -2q33 -5 52.5 -19.5t25.5 -34.5q1 -8 1 -16q-1 -26 -15 -56q-20 -39 -58.5 -79t-96 -75.5t-126.5 -62.5zM305 874q16 92 30.5 174t31.5 154q103 66 177 69h10q65 0 75 -40q1 -6 1 -14q0 -24 -14 -58q-20 -45 -63 -96t-105.5 -101.5t-142.5 -87.5z" />
<glyph unicode="c" horiz-adv-x="876" d="M-62 609q-3 -51 -4 -99q0 -68 6 -132q10 -108 42 -192q18 -57 54 -100t70 -66q41 -20 93.5 -43.5t115.5 -31.5q15 -2 31 -2q46 -1 93 17q63 24 102 63q37 41 73.5 102t59.5 133q17 53 17 91v11q-3 42 -54 62q-38 15 -72 15q-77 0 -131 -81q-90 -143 -144 -143q-9 0 -18 4 q-29 12 -42 65.5t-15 132.5q0 14 -1 29q0 67 8 144q9 94 28 186q18 86 49 182.5t65.5 176t67.5 129.5q27 40 48 40q5 0 9 -2q25 -12 30 -56t5 -97q0 -16 1 -32.5t3 -33.5q12 -86 49 -136t119 -73q43 -12 53.5 5.5t18.5 46.5q12 61 16 151q2 45 2 86.5t-2 79.5 q-4 66 -21.5 117t-66.5 102q-47 41 -117.5 77t-138.5 44q-9 1 -18 1q-37 0 -78 -14q-51 -16 -102 -73q-63 -74 -116.5 -175t-92.5 -219t-63 -244t-32 -248z" />
<glyph unicode="d" horiz-adv-x="1001" d="M-49 236q2 -32 9 -54t19.5 -39.5t24.5 -36.5q35 -41 62.5 -68.5t66.5 -55.5q44 -35 87 -35q29 0 59 16q135 57 239.5 149.5t177 205t116.5 237.5t58 249q8 67 8 131q0 55 -6 109q-12 116 -51 207q-43 109 -102.5 174.5t-128 98t-140.5 38.5q-20 2 -40 1q-52 -1 -102 -11 q-68 -14 -130.5 -43.5t-107.5 -62.5l-115 -1129q-5 -37 -5 -64q0 -9 1 -17zM211 283q35 248 73 481t83 457q43 19 80 19q29 0 54 -12q56 -28 79 -85q10 -29 16 -70q4 -31 4 -68v-26q-2 -78 -24.5 -172t-68.5 -188.5t-119 -182t-177 -153.5z" />
<glyph unicode="e" horiz-adv-x="788" d="M-63 270q-1 -14 -1 -27q0 -36 8 -65q11 -39 33 -67q27 -37 47.5 -60.5t43.5 -46.5q20 -20 48 -32q10 -4 23 -4q24 0 60 14q82 23 172 49t176 51q35 10 42 25.5t-1 56.5q-10 37 -20.5 71.5t-26.5 73.5q-14 35 -36 47.5t-56 8.5q-66 -6 -123.5 -15.5t-118.5 -25.5 q10 53 20.5 109t20.5 116q76 23 156.5 42t158.5 40q35 10 43 24.5t-2 57.5q-8 37 -17 71.5t-26 71.5q-14 35 -34.5 46t-55.5 9q-41 -2 -79 -5t-77 -11q20 92 37 176t33 160q86 16 165 28.5t150 22.5q35 6 44.5 21.5t3.5 58.5q-8 37 -15.5 67.5t-23.5 69.5q-19 70 -81 70h-7 q-143 -8 -284 -43t-245 -72z" />
<glyph unicode="f" horiz-adv-x="778" d="M-72 172v-24q0 -36 4 -58q7 -29 39 -53q27 -16 61 -34.5t64.5 -27t53 0t24.5 44.5q16 111 37.5 249.5t48.5 285.5q72 23 148.5 43t148.5 37q35 6 44 22.5t-1 57.5q-8 35 -17.5 70.5t-25.5 72.5q-26 56 -79 56q-6 0 -11 -1q-39 -2 -76 -6t-74 -10q20 94 34 179t30 153 q86 16 165.5 28.5t151.5 24.5q35 6 43.5 20.5t1.5 57.5q-10 70 -43 141q-23 43 -41 56.5t-53 11.5q-72 -4 -144.5 -12.5t-143 -19.5t-134 -26.5t-114.5 -33.5v-32q0 -69 -6 -159q-9 -112 -23 -239t-32.5 -258.5t-35 -250t-29 -215t-16.5 -151.5z" />
<glyph unicode="g" horiz-adv-x="905" d="M-68 420q9 -111 39 -199q16 -57 49 -105t68 -77q94 -66 203 -86q31 -7 61 -7q85 0 158 62q74 68 135.5 191t104.5 297q8 42 8 72v12q-2 32 -25 75q-12 23 -26.5 49.5t-30.5 49.5q-23 35 -50 45q-16 6 -36 6q-16 0 -35 -4q-37 -8 -88 -17.5t-98 -23.5q-49 -10 -80 -22 q-23 -10 -23 -39q0 -10 2 -21q23 -104 66 -150q38 -42 104 -42q8 0 17 1q-20 -63 -44 -119.5t-49.5 -95.5t-51 -57t-50.5 -6q-29 14 -43 72.5t-16 141.5v26q0 72 9 153q11 96 34 184q25 106 58.5 202.5t68.5 167.5t69 110q26 30 47 30q5 0 11 -2q12 -4 17 -26.5t9 -53.5 q2 -16 3 -33.5t1 -35.5t1 -34.5t3 -33.5q8 -88 50.5 -143t130.5 -72q33 -4 44 8.5t19 47.5q4 29 7 69.5t4 84.5q1 22 1 44t-1 45q-1 45 -5 80q-8 66 -27.5 118t-60.5 95q-43 47 -107.5 79t-125.5 42q-21 4 -45.5 4t-51.5 -4q-53 -8 -96 -51q-70 -68 -127 -166t-100 -214 t-70.5 -241t-38.5 -248q-5 -65 -5 -126q0 -56 5 -109z" />
<glyph unicode="h" horiz-adv-x="925" d="M-63 170q-5 -24 -5 -43q0 -23 7 -40q12 -30 43 -52q25 -23 60.5 -37t68.5 -29q35 -12 47 -2t18 45q14 98 29.5 219t38.5 256q53 12 107.5 22.5t107.5 22.5q-14 -111 -24.5 -203.5t-14.5 -164.5q-3 -20 -3 -38q1 -46 23 -72q32 -36 86 -60q27 -10 51.5 -19.5t42 -11.5 t27.5 8.5t10 38.5q23 166 50.5 350.5t57.5 364.5t58.5 344t53.5 291q4 21 4 38q1 14 -3 26q-8 24 -40 53q-35 29 -73 52t-73 36q-37 14 -56.5 7t-29.5 -59q-25 -135 -51.5 -311t-54.5 -362q-47 -4 -99.5 -10.5t-105.5 -14.5q27 154 49.5 287t42.5 227q4 23 4 40q0 15 -3 27 q-7 24 -42 52q-33 29 -76 53.5t-80 38.5q-35 16 -53 8t-28 -59q-18 -137 -39 -310t-42.5 -352.5t-44 -350.5t-46.5 -306z" />
<glyph unicode="i" horiz-adv-x="425" d="M-82 170q-1 -16 -1 -30q0 -32 6 -53q9 -30 40 -52q29 -23 61.5 -37t67.5 -29q35 -12 47.5 -2t18.5 45q12 90 27.5 202t34 232.5t37.5 245.5t38.5 241t38 218t35.5 178q4 23 4 40q0 15 -3 27q-7 24 -42 52q-33 29 -76 54.5t-80 37.5q-37 14 -55.5 4t-28.5 -55 q-14 -76 -31.5 -184.5t-35 -231.5t-34 -254t-30.5 -252t-24.5 -224t-14.5 -173z" />
<glyph unicode="j" horiz-adv-x="856" d="M-62 388q1 -69 19 -134q23 -92 74 -168t157 -113q66 -24 117 -24q28 0 52 7q67 21 114 64q59 57 106.5 177t85 292.5t66.5 390.5t51 474q1 16 1 28q0 23 -4 36q-7 22 -42 52q-35 29 -80 50.5t-80 35.5q-37 12 -56 2t-25 -57q-10 -102 -24.5 -238.5t-33 -280.5t-40 -282.5 t-46 -248t-51.5 -175.5q-26 -63 -51 -63h-2q-33 6 -40 50t-11 143q-4 152 -152 237q-22 14 -38 14q-17 0 -27 -16q-21 -31 -31 -96q-9 -80 -9 -144v-13z" />
<glyph unicode="k" horiz-adv-x="907" d="M-86 170q4 70 15.5 175.5t26.5 229t32.5 257t35 259.5t35 235.5t31.5 184.5q10 45 29.5 55.5t54.5 -3.5q37 -12 80 -38t76 -55q35 -31 43 -52q4 -9 4 -23q0 -17 -6 -41q-18 -84 -38 -195.5t-42 -247.5q53 80 113.5 168t115.5 174t103.5 161t76.5 126q18 35 37 35 q23 0 47 -29q27 -29 46.5 -65.5t35.5 -79.5q10 -30 10 -60v-10q-2 -35 -22 -86q-27 -66 -72 -145.5t-100 -165.5t-115.5 -173t-115.5 -163q27 -61 59.5 -129t63 -130.5t59.5 -115.5t51 -90q23 -35 18.5 -56.5t-32.5 -41.5q-16 -14 -41 -24.5t-47 -14.5q-22 -9 -45 -9 q-13 0 -27 3q-37 8 -74 67q-14 25 -39.5 68t-56.5 96t-62.5 113.5t-58.5 120.5q-18 -127 -33.5 -239t-29.5 -204q0 -31 -10.5 -43t-28 -10t-42 13.5t-55.5 23.5q-60 26 -86 62q-22 30 -21 85q0 13 1 27z" />
<glyph unicode="l" horiz-adv-x="727" d="M-86 260q-2 -17 -2 -33q0 -29 7 -52q11 -36 34 -64q31 -37 49 -60.5t41 -46.5q18 -18 45 -32q9 -5 23 -4q25 0 63 16q82 25 172 50t176 50q41 12 45 26.5t-6 57.5q-6 35 -17.5 71.5t-27.5 71.5q-16 37 -36.5 48.5t-55.5 7.5q-61 -6 -115.5 -14.5t-113.5 -22.5 q20 131 44.5 270t49 274.5t49 260.5t47.5 225q6 24 6 42q0 12 -3 22q-7 24 -40 52.5t-76 52t-79 36.5q-35 14 -54.5 5t-32.5 -54q-18 -84 -37.5 -187.5t-39 -218.5t-38 -233.5t-33.5 -230t-26.5 -211t-17.5 -175.5z" />
<glyph unicode="m" horiz-adv-x="1261" d="M-82 160q-1 -15 -1 -28q0 -33 7 -54q10 -29 43 -53q27 -20 58.5 -36t62.5 -26q33 -10 45 1t19 48q8 86 21 195.5t30.5 230.5t37.5 248t40 250q14 -180 34.5 -356.5t42.5 -317.5q6 -35 12.5 -57.5t14.5 -36.5t18.5 -23.5t24.5 -17.5q45 -23 94 -37q37 -10 46.5 2t23.5 55 q20 70 54 171.5t74 213t81 225t76 206.5q-18 -106 -35 -223t-30 -225.5t-22.5 -201t-13.5 -151.5q-2 -19 -2 -34q0 -28 6 -48q10 -31 43 -53q25 -20 57.5 -35t65.5 -25q35 -12 47.5 4.5t20.5 53.5q8 72 21.5 174t30.5 220t35.5 246t38 248.5t37 228t31.5 187.5q5 26 5 47 t-5 36q-10 30 -47 52q-53 33 -109.5 56.5t-105.5 40.5q-35 13 -59 13h-9q-26 -3 -46.5 -27.5t-40 -72t-46.5 -120.5q-27 -66 -56.5 -142.5t-57 -154.5t-54 -154t-47.5 -139q-18 178 -29.5 281.5t-17.5 159t-7 75.5t-1 35q-4 31 -8 55.5t-13.5 45t-25.5 36.5t-45 31 q-45 23 -89 39t-108 28q-41 8 -61.5 -6t-32.5 -67q-14 -76 -31.5 -182.5t-35 -227.5t-36 -249t-32.5 -248.5t-24.5 -227t-14.5 -182.5z" />
<glyph unicode="n" horiz-adv-x="958" d="M-80 180q-2 -21 -2 -39q0 -25 5 -43q9 -30 38 -53q29 -29 62.5 -42t66.5 -26q35 -14 48.5 -4.5t17.5 43.5q8 74 21 170.5t28.5 205t33 226t33.5 232.5q16 -96 35 -192.5t37 -187.5t37.5 -171t38.5 -141q25 -88 84 -123q33 -16 64.5 -29.5t64.5 -23.5q18 -6 32 -6 q44 0 48 59q18 141 41.5 316t48 353.5t50.5 345.5t48 291q5 25 5 45q0 15 -3 28q-6 30 -41 59q-43 35 -67.5 47t-61.5 24t-56.5 1t-27.5 -56q-31 -174 -64.5 -392t-56.5 -454q-14 92 -28.5 191.5t-27.5 190.5t-23.5 168t-16.5 124q-8 61 -23.5 93t-52.5 52q-45 29 -87 47.5 t-85 34.5q-35 12 -57.5 0t-32.5 -59q-16 -86 -34.5 -201t-36 -243t-35 -258t-30.5 -246.5t-23.5 -210t-14.5 -146.5z" />
<glyph unicode="o" d="M-35 530q4 -172 47 -307q18 -57 53 -102t70 -74q45 -35 99.5 -52.5t105.5 -25.5q28 -4 54 -4q46 -1 84 13q60 22 114 85q76 104 125 249t74.5 301.5t27.5 310.5v31q0 137 -16 251q-12 72 -36 129.5t-71 106.5q-41 43 -103.5 72.5t-129.5 44.5q-16 3 -33 3q-36 0 -76 -14 q-58 -22 -100 -65q-98 -109 -164 -269q-65 -160 -97 -336q-28 -156 -28 -310v-38zM242 439v31q0 70 7 148q9 96 27 183q18 84 47 174t61 160.5t64 112.5q26 34 48 34q5 0 10 -2q25 -10 37 -71.5t13 -147.5v-19q0 -78 -7 -166q-8 -98 -25 -184q-18 -109 -44.5 -201 t-56.5 -157q-29 -64 -61 -94q-22 -21 -42 -21q-9 0 -17 4q-31 14 -45 73.5t-16 142.5z" />
<glyph unicode="p" horiz-adv-x="966" d="M-35 162q-5 -25 -5 -46q0 -23 6 -40q11 -33 36 -54.5t58.5 -35t68.5 -27.5q35 -10 47 0t21 43q12 104 28.5 210.5t34.5 217.5q80 31 159 74t150.5 95t132 111.5t101.5 120.5q49 74 79 157q16 47 16 101q0 41 -10 87q-22 104 -59.5 175.5t-80.5 131.5q-53 68 -132 76 q-19 2 -38 2q-62 0 -130 -19q-88 -26 -176 -75.5t-157 -98.5q-12 -8 -23.5 -87t-24 -197.5t-24.5 -259t-24.5 -272.5t-25.5 -237.5t-28 -152.5zM319 782q20 113 39 214.5t39 193.5q45 27 89 40t79 14t57.5 -9t26.5 -31q4 -14 4 -31q0 -27 -10 -61q-16 -55 -58 -114.5 t-109 -117t-157 -98.5z" />
<glyph unicode="q" horiz-adv-x="946" d="M-35 530q4 -172 47 -307q18 -57 53 -102t70 -74q45 -35 98.5 -53.5t106.5 -24.5q24 -2 48 -2t46 2q45 4 84 31q6 -6 11.5 -12t13.5 -17q35 -45 80 -45q13 0 26 4q25 8 49.5 20.5t46.5 33.5q27 18 28.5 38.5t-21.5 55.5q-20 31 -37 63.5t-39 67.5q51 106 83 236t47 265 q13 118 13 233v30q-2 129 -18 233q-12 72 -35 129.5t-70 106.5q-41 43 -103.5 72.5t-129.5 44.5q-16 3 -33 3q-37 0 -76 -14q-59 -22 -100 -65q-98 -109 -163.5 -269.5t-97.5 -335.5q-28 -156 -28 -310v-38zM241 482q1 65 7 136q16 137 50 271.5t85 245.5q25 55 49.5 92 t46 49t39 -3.5t25.5 -64.5q8 -43 11 -106q2 -31 2 -64t-2 -68q-3 -71 -11 -142.5t-21 -135.5q-10 -72 -24.5 -135t-34.5 -117q-37 -10 -66.5 -22t-52.5 -29q-28 -21 -28 -48q0 -19 14 -42q8 -14 15 -28.5t17 -28.5q-21 -24 -41 -24q-9 0 -18 5q-23 12 -37 49t-20 90 q-5 46 -5 101v19z" />
<glyph unicode="r" horiz-adv-x="993" d="M-35 162q-1 -18 -1 -33q0 -31 5 -52q8 -32 33 -54q25 -20 53.5 -28.5t63.5 -23.5q33 -10 45 0.5t18 42.5q16 111 34 222.5t38 230.5q35 -61 77 -123.5t85 -120t84 -106.5t71 -82q47 -43 84 -48q11 -1 21 -1q24 0 45 8q25 6 42 11t40 34q20 23 22 43t-26 55 q-35 41 -74 94.5t-79 109.5t-77 113.5t-67 106.5q143 92 243.5 197.5t139.5 228.5q15 39 14 91q0 44 -10 98q-23 104 -60.5 175.5t-80.5 131.5q-53 68 -124 83q-32 7 -65 7q-41 -1 -84 -11q-78 -18 -158.5 -60t-154.5 -87q-23 -14 -43.5 -97t-41 -204t-37.5 -263 t-31.5 -276.5t-26 -245t-17.5 -167.5zM313 791q25 117 44.5 218t39.5 187q47 31 90 43t78 12q72 0 88 -47q2 -9 2 -19q0 -25 -13 -63q-19 -53 -63 -112.5t-112 -119t-154 -99.5z" />
<glyph unicode="s" horiz-adv-x="821" d="M-125 348q0 -37 57 -112q104 -154 208 -218q98 -60 201 -59h13q82 2 140.5 30.5t97.5 71.5t62.5 92.5t35.5 92.5q14 42 14 80q0 42 -17 78q-32 70 -92 135t-135 129.5t-132 140.5q-41 54 -41 124v6q2 73 26.5 142.5t63.5 126t69 78.5q23 23 33 18.5t12.5 -26t-2 -56 t-10.5 -73.5t-12 -79t-8 -71q-1 -10 -1 -19q0 -137 165 -216q33 -18 48 -8t29 45q12 39 23.5 93t21 112.5t16.5 116t9 100.5q-2 51 -11 112.5t-61 120.5q-39 45 -94 83t-108 63q-35 14 -68 16t-61.5 -4t-51 -19.5t-36.5 -27.5q-43 -35 -87.5 -88.5t-81 -114.5t-64.5 -125.5 t-40 -126.5q-20 -77 -20 -147q0 -59 14 -114q31 -120 100 -202q49 -59 112.5 -116.5t117.5 -108.5q52 -51 80 -91q15 -22 16 -39q0 -14 -10 -24q-22 -27 -61 -27q-26 0 -60 12q-84 30 -195 134q-39 37 -95 43q-8 1 -17 0q-46 0 -86 -26q-27 -20 -27 -58z" />
<glyph unicode="t" horiz-adv-x="907" d="M8 1454.5q-8 -12.5 4 -49.5q12 -35 31.5 -88t44.5 -88q23 -35 42.5 -42t49.5 3q23 8 56.5 14t68.5 15q-20 -117 -41.5 -260.5t-40 -287t-33 -276.5t-20.5 -227q-3 -21 -3 -39q-1 -49 23 -76q32 -37 91 -61q29 -12 52 -22.5t40.5 -12.5t28 8t12.5 39q18 145 41.5 307 t50 327t53.5 325.5t51 306.5q59 8 115.5 15t103.5 13q37 4 43.5 17.5t-2.5 52.5q-10 41 -27.5 84t-41.5 80q-12 20 -29.5 29.5t-52.5 9.5q-70 -4 -159 -12.5t-181 -20.5t-181 -28.5t-159 -34.5q-23 -8 -31 -20.5z" />
<glyph unicode="u" horiz-adv-x="923" d="M-40 464q1 -152 40 -255q20 -57 49 -96t62 -68q78 -66 200 -78q19 -2 36 -2q39 -1 73 9q48 14 96 49q66 57 116 178t90 292t70.5 386t59.5 464q3 22 3 38.5t-3 27.5q-6 23 -41 51q-33 25 -72 50.5t-73.5 38t-58 2t-25.5 -55.5q-12 -102 -29.5 -240.5t-40.5 -284 t-49.5 -285.5t-56 -246.5t-63.5 -166.5q-28 -49 -57 -50q-7 0 -14 3q-29 13 -39 71q-7 42 -7 98q0 23 1 47q4 87 18.5 195.5t35 220.5t44 220.5t44.5 196.5q6 25 6 49q0 67 -49 115q-31 29 -64 51t-67 37q-37 16 -56.5 7t-29.5 -54q-37 -158 -73 -337q-36 -178 -56 -352 q-20 -165 -20 -312v-14z" />
<glyph unicode="v" horiz-adv-x="954" d="M27 1466q12 -340 35.5 -650t60.5 -572q8 -47 32.5 -105.5t73.5 -93.5q45 -33 86 -53q41 -22 89 -42q29 -12 49 -12q13 0 23 6q26 14 46 64q29 84 64 193.5t72.5 231.5t74.5 249t70 246t58.5 221t39.5 176q9 31 9 56q0 34 -16 58q-26 42 -75 77q-23 18 -45 32.5 t-41.5 17.5t-35 -7.5t-23.5 -38.5q-72 -256 -150 -539t-164 -553q-12 137 -22 271.5t-19.5 257t-16.5 228t-13 187.5q-10 104 -86 141q-33 16 -61.5 23.5t-63.5 7.5t-43 -17.5t-8 -60.5z" />
<glyph unicode="w" horiz-adv-x="1312" d="M2 547q0 -117 3 -222.5t7 -187.5q2 -57 14.5 -84.5t45.5 -44.5q72 -35 153 -57q31 -8 50.5 -1t35.5 50q16 51 42 128t56.5 165t63.5 181t64 177q0 -66 4 -137.5t9 -140t10 -129t9 -101.5q4 -43 20.5 -78.5t55.5 -56.5q39 -14 65.5 -26.5t75.5 -26.5q23 -6 41 -6 q16 0 28 5q24 11 36 50q23 84 52.5 190.5t62 224.5t68.5 240.5t71 238.5t66.5 220.5t58.5 181.5q10 35 10 71v12q-2 42 -31 77q-53 51 -110 86q-39 20 -56.5 15t-33.5 -54q-18 -55 -53 -162.5t-76 -241.5t-86.5 -282.5t-83.5 -283.5q4 109 8 220t8 207.5t7 168t3 100.5 q0 51 -6 73.5t-41 43.5q-33 16 -56.5 28.5t-58 22.5t-52 0t-32.5 -45q-20 -43 -54 -136.5t-74 -211t-81.5 -246.5t-78.5 -242q4 111 10 230.5t13 228t13.5 195t8.5 129.5l2 32q1 30 -5 63q-8 50 -42 79q-31 25 -66 38t-78 25q-37 10 -51 -4t-18 -63q-6 -92 -11.5 -205 t-8.5 -234t-5 -244.5t-2 -242.5z" />
<glyph unicode="x" horiz-adv-x="966" d="M-106 158q0 29 20 73q51 111 132 267.5t175 320.5q-29 90 -56.5 179t-52 170t-45 151t-34.5 121q-7 32 -7 50q0 14 3 20q8 18 43 24q16 2 34 2h35q16 0 36 -1t40 -3q41 -6 63.5 -35t38.5 -74q18 -66 42 -143.5t51 -163.5q74 133 136 243.5t109 184.5q23 35 48 35t53 -23 q29 -29 56.5 -69.5t45.5 -75.5q19 -36 19 -68q-1 -6 -1 -13q-4 -38 -24 -73q-61 -104 -144 -245.5t-175 -298.5q57 -186 109 -356.5t95 -305.5q16 -39 10 -58.5t-36 -25.5q-34 -4 -70 -4t-74 4q-37 6 -57 27.5t-43 71.5q-16 35 -48 129t-75 227q-72 -127 -133 -245 t-109 -202q-19 -33 -43 -33q-20 0 -45 23q-27 25 -52 59.5t-47.5 69.5t-22.5 64z" />
<glyph unicode="y" horiz-adv-x="888" d="M-4 1537.5q-6 -15.5 4 -58.5q18 -90 42 -200t50.5 -226.5t53 -234.5t51.5 -228q-16 -129 -27.5 -240.5t-22.5 -197.5q-1 -16 -1 -29q0 -32 6 -52q10 -28 38 -57q29 -18 65 -35.5t69 -31.5q35 -12 47 -3t20 50q14 111 30.5 226.5t39.5 244.5q55 117 112.5 241.5 t107.5 239.5t89 212.5t57 160.5q15 47 15 74v5q-2 29 -25 64q-20 25 -48 53.5t-55.5 47t-51 16.5t-33.5 -41q-59 -147 -123 -297.5t-129 -298.5q-33 147 -62.5 276.5t-56.5 227.5q-16 51 -32.5 75.5t-51.5 34.5q-29 9 -58 9h-12q-34 -2 -69 -6q-33 -6 -39 -21.5z" />
<glyph unicode="z" horiz-adv-x="768" d="M-101 154q15 -37 33 -66q29 -37 49.5 -61.5t43.5 -49.5q23 -23 49 -34q9 -4 21 -4q24 0 61 14q82 29 179 54.5t183 49.5q35 6 45 22.5t0 57.5q-6 35 -18.5 71t-28.5 75q-24 55 -78 55q-11 0 -22 -2q-53 -10 -102.5 -21.5t-98.5 -27.5q125 236 257 475t255 457 q23 39 24 73v5q0 31 -10 65q-8 29 -16 61.5t-25 75.5q-14 35 -31.5 49.5t-52.5 12.5q-66 -4 -138 -11.5t-145 -17.5t-140.5 -24.5t-122.5 -30.5q-23 -10 -30 -23.5t3 -50.5q12 -37 32.5 -86t33.5 -78q23 -37 50 -47t60 -2q43 12 88.5 20.5t98.5 20.5q-72 -123 -147 -263.5 t-142.5 -275.5t-123.5 -255t-89 -199q-11 -27 -11 -50q0 -18 6 -34z" />
<glyph unicode="{" horiz-adv-x="694" d="M-29 801q-16 66 29 80q25 10 59.5 16t75.5 14q27 156 51.5 297.5t46.5 257.5q8 33 23.5 51.5t50.5 22.5q53 10 111.5 14.5t107.5 6.5q61 2 88 -70q16 -37 24.5 -67.5t16.5 -67.5q10 -39 1 -53.5t-44 -20.5q-35 -4 -74.5 -10t-82.5 -10q-23 -109 -46.5 -237t-46 -260 t-43 -263t-36.5 -248q23 2 44 4t44 4q59 10 88 -55q16 -35 25.5 -67.5t17.5 -67.5q10 -39 1 -55.5t-44 -16.5q-43 -10 -93.5 -22.5t-97.5 -24.5q-43 -14 -68.5 -3t-47.5 34q-18 18 -37 40.5t-39 45.5q-27 31 -35 65.5t-2 93.5q10 78 21.5 166t25.5 193q-16 2 -26.5 12 t-26.5 35q-20 35 -35.5 82t-26.5 84z" />
<glyph unicode="|" horiz-adv-x="733" d="M51 49q-4 -49 4 -77.5t39 -51.5q25 -16 50.5 -30.5t58.5 -28.5q35 -12 46 -1t19 50q10 86 28.5 213t41 274.5t48.5 304t49.5 301t45 266.5t35.5 197q10 43 3 66.5t-42 52.5q-33 29 -64.5 45.5t-64.5 32.5q-35 16 -54.5 6t-29.5 -55q-14 -78 -33.5 -204t-41 -276.5 t-44 -312.5t-41 -309t-33 -270t-20.5 -193z" />
<glyph unicode="}" horiz-adv-x="772" d="M-84 180q-4 -12 3 -36.5t17.5 -51t22.5 -51.5t21 -39q16 -25 34.5 -36t53.5 -3q43 10 89 18.5t93 18.5q45 2 59.5 21.5t18.5 48.5q14 104 33.5 231t41.5 268q35 12 73 15.5t67.5 9.5t43 22.5t-0.5 57.5q-10 37 -19.5 75.5t-23.5 73.5q-27 70 -86 70q23 111 42.5 212 t35.5 187q6 37 3 62.5t-26 60.5q-16 29 -32.5 52.5t-33.5 45.5q-20 29 -39.5 39.5t-54.5 6.5q-68 -6 -128 -14.5t-107 -20.5q-25 -6 -41.5 -24.5t-6 -53.5t20.5 -67.5t27 -67.5q16 -37 34.5 -48.5t55.5 -7.5q16 2 32.5 5.5t32.5 5.5q-20 -111 -42.5 -240t-45 -263t-43 -265 t-35.5 -242q-63 -12 -122.5 -29.5t-67.5 -46.5z" />
<glyph unicode="~" horiz-adv-x="1013" d="M-18 1135q0 -82 90 -82q49 0 86 30q2 0 16 14.5t32.5 33t38 33t36.5 14.5q18 0 46.5 -6.5t58.5 -16.5t55.5 -22.5t39.5 -26.5q60 -59 189 -59q80 0 192 108q113 106 113 186q0 39 -39 66q-33 20 -68 20q-41 0 -82 -41q-6 -8 -20 -26.5t-29.5 -36.5t-30 -32.5t-22.5 -12.5 q-27 2 -53.5 15.5t-53 28.5t-52 30.5t-50.5 25.5q-86 41 -158 41q-33 0 -82 -21.5t-96 -54t-86 -68.5t-53 -67q-18 -41 -18 -73z" />
<glyph unicode="&#xa1;" horiz-adv-x="546" d="M-55 81.5q8 -29.5 41 -58.5t74.5 -52.5t76.5 -36.5q39 -16 56.5 -4.5t27.5 58.5q20 102 45 237t47.5 277.5t43 280t32.5 245.5q8 53 -1 82t-40 51q-59 43 -127 62q-31 10 -45 0.5t-20 -49.5q-18 -113 -43 -240t-52.5 -259t-56.5 -264t-57 -257q-10 -43 -2 -72.5z M169 1451.5q1 -32.5 12.5 -64t34 -59.5t58.5 -42q43 -18 77 -10t57.5 32.5t38 62.5t16.5 79q4 98 -40 152.5t-108 52.5q-31 0 -55 -15.5t-41.5 -38t-29 -48t-15.5 -44.5q-6 -25 -5 -57.5z" />
<glyph unicode="&#xa2;" horiz-adv-x="761" d="M33 578q0 -131 35 -224q12 -37 33.5 -65.5t43.5 -46.5q-2 -16 -3 -31.5t-1 -32.5q-4 -74 13.5 -145.5t64.5 -106.5q27 -20 41 -15t19 42q4 45 13 103.5t19 117.5h4q45 -4 91.5 13.5t75 46t55 73.5t43.5 99q16 47 13 76.5t-40 45.5q-94 37 -150 -49q-78 -123 -120 -102 q-20 8 -30.5 48t-11.5 98.5t5 128t20 136.5q14 63 37 134t48.5 130.5t50 95.5t42.5 30q16 -10 20.5 -42t4.5 -73q0 -12 1 -23.5t3 -23.5q10 -66 37 -102.5t86 -53.5q33 -10 40 3.5t13 35.5q10 45 13.5 111.5t-0.5 122.5q-4 49 -16.5 86.5t-49.5 74.5l-25 19q8 35 13.5 69.5 t9.5 63.5q10 74 -11.5 128t-62.5 89q-51 47 -71 -21q-14 -47 -30 -116.5t-32 -141.5q-29 0 -61.5 -14t-65.5 -49q-72 -80 -123 -207t-77.5 -265t-26.5 -271z" />
<glyph unicode="&#xa3;" horiz-adv-x="901" d="M-58.5 712.5q-13.5 -20.5 1.5 -57.5q10 -29 25.5 -64.5t31.5 -64.5q16 -31 35.5 -40t52.5 -1l25 7q-8 -66 -14.5 -125.5t-10.5 -106.5q-6 -49 5 -85t34 -64q31 -37 49.5 -60.5t40.5 -46.5q18 -18 45 -31.5t86 11.5q82 25 172 50t176 50q41 12 45 26.5t-6 57.5 q-6 35 -17 71.5t-28 71.5q-16 37 -36.5 48.5t-55.5 7.5q-61 -6 -115.5 -14.5t-113.5 -22.5q8 51 16 104t18 107q111 12 226 18q29 2 38 14.5t-1 47.5q-8 29 -17.5 57.5t-25.5 60.5q-25 57 -80 58q-23 0 -46.5 1t-47.5 -1l24 141h88q45 0 92 -2q29 -4 39 8t2 47 q-6 29 -15 57.5t-22 63.5q-20 57 -79 64q-14 2 -27.5 3t-30.5 3q10 47 19.5 92t19.5 86t3 64.5t-40 52t-76 52t-79 36.5q-35 14 -54.5 5t-31.5 -54q-16 -70 -33 -154t-33 -176q-53 -4 -105.5 -8t-99.5 -13q-25 -4 -39 -21.5t-4 -56.5q8 -31 21.5 -66.5t27.5 -64.5 q16 -35 34.5 -44t51.5 -5q18 4 36 5t34 6q-4 -37 -10 -74t-10 -74q-92 -12 -172 -31q-25 -6 -38.5 -26.5z" />
<glyph unicode="&#xa5;" horiz-adv-x="888" d="M-44 383q-13 -21 1 -57q10 -29 25.5 -65t31.5 -64q16 -31 36 -40.5t52 -0.5q27 8 48 10q-2 -4 -3 -14q-4 -53 5.5 -81t37.5 -57q29 -18 65 -35.5t69 -31.5q35 -12 47 -3t20 50q6 53 13.5 107.5t15.5 109.5q111 12 223 18q29 2 38 14.5t-1 47.5q-8 29 -17.5 57.5 t-25.5 61.5q-25 57 -80 57q-23 0 -47.5 1t-48.5 -1q16 35 33.5 69.5t33.5 71.5q35 0 70 -1t70 -1q29 -4 39 8.5t2 47.5q-6 29 -15.5 57.5t-21.5 62.5q-16 39 -41 52q68 150 121 278.5t75 206.5q16 51 14.5 79.5t-24.5 63.5q-20 25 -48 53.5t-55.5 47t-51 16.5t-33.5 -41 q-59 -147 -123 -297.5t-129 -298.5q-33 147 -62.5 276.5t-56.5 227.5q-16 51 -32.5 75.5t-51.5 35t-69.5 8.5t-69.5 -6q-33 -6 -39 -21.5t4 -58.5q27 -131 62.5 -296t74.5 -333q-31 -4 -58.5 -7t-53.5 -7q-25 -4 -39.5 -21.5t-3.5 -56.5q8 -31 21 -67t28 -64 q16 -35 34.5 -44t51.5 -5l80 12q-10 -78 -19 -148q-49 -6 -95 -14t-89 -18q-25 -6 -38 -27z" />
<glyph unicode="&#xa6;" horiz-adv-x="585" d="M47 59q-4 -49 4 -77.5t39 -51.5q25 -16 50.5 -30.5t58.5 -28.5q35 -12 46 -1t19 50q14 72 24.5 120t17.5 87t13.5 71.5t13.5 72.5t16 93.5t24 129.5q10 43 3 66t-42 52q-33 29 -64.5 45.5t-64.5 32.5q-35 16 -54.5 6t-29.5 -55q-14 -86 -24.5 -142.5t-16.5 -97.5 t-9 -73.5t-6.5 -68.5t-7.5 -83t-10 -117zM184 1032q-4 -49 4.5 -77.5t38.5 -51.5q25 -16 50.5 -30.5t58.5 -28.5q35 -12 46 -1t19 50q14 72 25.5 120t20 87t14.5 71.5t13 72.5t17.5 93.5t24.5 128.5q10 43 3 66.5t-42 52.5q-33 29 -64.5 45.5t-64.5 32.5q-35 16 -54.5 6 t-29.5 -55q-14 -86 -24.5 -142.5t-17.5 -97.5t-11 -73.5t-8 -68.5t-8.5 -82t-10.5 -118z" />
<glyph unicode="&#xa7;" horiz-adv-x="1234" d="M-84 295q0 -35 55 -111q104 -154 207 -215t213 -57q70 2 121 22.5t89 53t63.5 71.5t42.5 78q41 -10 84 -6q82 2 140 30.5t97 70.5t62.5 90.5t35.5 91.5q29 86 -2.5 155.5t-92 133t-135.5 127t-130 137.5q-43 55 -41 126.5t26.5 140.5t62.5 124t69 78q33 33 40 10t2 -73 t-16.5 -112.5t-13.5 -105.5q-12 -147 164 -233q31 -16 47 -7t29 46q12 39 23 92t20.5 109.5t16.5 111.5t9 100q-2 51 -11 110.5t-60 119.5q-37 45 -92.5 81.5t-108.5 61.5q-35 14 -68 16t-60.5 -4t-50 -19.5t-36.5 -27.5q-43 -35 -85 -85t-79 -109q-4 4 -10 5t-11 5 q-35 14 -67.5 16t-60 -4t-50 -19.5t-37.5 -27.5q-43 -35 -86 -87t-79.5 -112.5t-64.5 -125t-40 -121.5q-37 -141 -6 -259t100 -198q47 -57 110.5 -114.5t116 -108t81 -89t6.5 -61.5q-37 -43 -120 -13.5t-194 130.5q-39 37 -95 42t-103 -24q-27 -20 -27 -57zM284 997.5 q-1 61.5 15 111.5t47 73q66 66 90 47q0 -23 -1 -59.5t1 -75.5t6 -74t11 -55q20 -72 66 -136.5t102 -105.5q47 -47 96 -91t86 -82t53 -66.5t-2 -47.5q-29 -33 -84 -23.5t-129 58.5q-61 68 -138 133.5t-136 143.5q-43 55 -62.5 121.5t-20.5 128z" />
<glyph unicode="&#xa8;" horiz-adv-x="860" d="M135 1853q-4 -70 30 -111.5t81 -37.5q23 0 41 11t31.5 27.5t21.5 35t10 32.5q6 18 6 43q0 37 -19.5 72t-60.5 53q-31 12 -55 6t-42.5 -24t-30 -47t-13.5 -60zM494 1853q-2 -35 6 -63.5t23.5 -49t36 -30.5t44.5 -8q23 0 41.5 11t31.5 27.5t20.5 35t11.5 32.5q2 10 3 20.5 t1 24.5q0 35 -18.5 70t-59.5 53q-31 12 -56.5 6t-44 -24.5t-28.5 -46t-12 -58.5z" />
<glyph unicode="&#xa9;" horiz-adv-x="1705" d="M13 591q-5 -177 55 -335q29 -84 75.5 -147.5t120.5 -108.5q109 -66 240 -90.5t270 -12t276.5 61.5t257 133t213 202t142.5 267q33 100 46 215t5 225.5t-38 209.5t-83 167q-49 92 -129 172t-172 137.5t-185 90t-169 32.5q-133 0 -265 -70.5t-249 -190t-209 -277.5 t-144.5 -331t-57.5 -350zM217 484.5q-10 115.5 19.5 248.5t88 263t139.5 248t172 203t185 127t183 23q111 -25 218 -118t185 -222t109.5 -274t-11.5 -274q-31 -66 -65.5 -132.5t-75.5 -128t-89 -114.5t-104 -92q-82 -57 -157.5 -96.5t-158.5 -54.5t-180 -3t-222 62 q-115 43 -170.5 131t-65.5 203.5zM522 618q0 -131 35 -223q14 -41 40 -72.5t52 -48.5q29 -16 67 -33.5t85 -21.5q47 -6 92 10.5t74 44.5q27 31 53.5 76t42.5 99q16 45 13 74.5t-40 43.5q-90 39 -147 -47q-78 -125 -119 -102q-20 8 -30.5 48t-11.5 97.5t5 126t21 135.5 q12 61 34.5 132t48 129.5t50 94.5t41.5 29q18 -10 22 -40.5t4 -71.5q0 -12 1 -23.5t1 -23.5q10 -63 37 -100.5t86 -53.5q33 -10 40 2t14 35q10 47 13 112.5t-1 120.5q-4 47 -16.5 85t-49.5 75q-35 31 -86 56.5t-100 31.5q-33 4 -71 -9t-74 -54q-70 -80 -121.5 -205t-78 -261 t-26.5 -268z" />
<glyph unicode="&#xaa;" horiz-adv-x="561" d="M-70 1016q0 -20 11 -43q33 -59 69 -103q16 -23 31.5 -23.5t34.5 3.5q35 8 69.5 13t71.5 11q-10 -57 -15 -100t-7 -74q-4 -35 1 -51t23 -35q18 -14 37.5 -24t36.5 -17q23 -8 31 -0.5t12 29.5q8 61 19.5 135t25.5 158q20 2 38.5 3t37.5 3q35 2 26 43q-6 23 -10 41.5 t-12 40.5q-16 41 -51 41q18 98 34.5 183t30.5 151q6 27 2 41t-24 33q-12 8 -32 22t-40.5 27.5t-39.5 25t-30 15.5q-23 10 -35 7t-30 -24q-35 -41 -77 -101.5t-84 -127t-80 -133t-62 -121.5q-12 -27 -13 -49zM90 1040q47 74 101.5 160t111.5 154q-16 -70 -28.5 -144.5 t-26.5 -150.5q-41 -4 -82 -8.5t-76 -10.5z" />
<glyph unicode="&#xab;" horiz-adv-x="1277" d="M-12 762q-8 -45 2 -62.5t35 -33.5q55 -37 114.5 -73t118.5 -68.5t112.5 -60.5t96.5 -46q23 -10 40 -4t21 35q4 35 3 79.5t-5 75.5q-10 37 -19 51.5t-40 26.5q-47 23 -95 48.5t-98 53.5q88 35 170 75t140 75q18 12 26 30.5t-8 47.5q-23 35 -47.5 68.5t-46.5 56.5 q-25 25 -40 26.5t-38 -14.5q-78 -47 -160 -87t-186 -81q-29 -14 -42 -29.5t-24 -50.5q-18 -57 -30 -139zM600 719q-8 -45 2 -62.5t35 -33.5q55 -37 114.5 -73t119 -68.5t112.5 -60.5t96 -46q23 -10 40.5 -4t21.5 35q4 35 3 79.5t-5 75.5q-10 37 -19.5 51.5t-40.5 26.5 q-47 23 -95 48.5t-97 53.5q88 35 170 75t139 75q18 12 26.5 30.5t-8.5 47.5q-23 35 -47 68.5t-47 56.5q-25 25 -40 26.5t-38 -14.5q-78 -47 -159.5 -87t-186.5 -81q-29 -14 -42 -29.5t-23 -50.5q-19 -57 -31 -139z" />
<glyph unicode="&#xac;" horiz-adv-x="1943" d="M31 100q-4 -25 4 -42t24 -33q23 -18 37.5 -29.5t30.5 -24.5q14 -10 32.5 -16t63.5 6q59 12 125.5 25.5t132.5 25.5q31 6 33 12.5t-2 28.5q-8 18 -15.5 37t-17.5 35q-16 18 -29.5 24.5t-39.5 4.5q-47 -4 -87 -8.5t-87 -10.5q16 63 34.5 133t37 137.5t36.5 130t37 113.5 q6 20 0 31.5t-29 26.5q-53 29 -116 43q-27 8 -39.5 3t-22.5 -28q-20 -61 -42.5 -145t-42 -172.5t-35 -169t-23.5 -138.5zM97.5 1517.5q-5.5 -6.5 2.5 -24.5q10 -16 23.5 -43t34.5 -45q16 -16 30.5 -20.5t38.5 1.5q16 4 40 7.5t50 7.5q-14 -59 -30.5 -130t-29.5 -142.5 t-24.5 -138t-15.5 -113.5q-10 -41 15.5 -58.5t64.5 -30.5q43 -12 69.5 -17t30.5 24q14 74 31.5 153.5t37 161.5t40 163t39.5 152q41 4 81.5 7.5t75.5 7.5q27 4 31 10t0 25q-20 47 -49 81q-10 10 -22.5 15.5t-40.5 5.5q-51 -2 -116 -7t-133.5 -11.5t-134 -14.5t-118.5 -16 q-16 -4 -21.5 -10.5zM438 477q-14 -33 27 -41q16 -2 34.5 -4t32.5 2q18 0 33 7.5t31 21.5q12 12 26.5 32.5t29 44t26.5 48t20 45.5q2 12 3 20.5t1 12.5q0 16 -14 32q-12 10 -27.5 21.5t-31.5 21.5q-23 14 -36 11.5t-24 -21.5q-12 -27 -29.5 -61.5t-36 -69.5t-35.5 -67.5 t-30 -55.5zM543 14.5q10 -12.5 32 -28.5q16 -8 32 -14.5t28 -12.5q25 -8 34 -5t19 21q16 33 31.5 67t38.5 73q55 16 127.5 25.5t144.5 19.5q4 -41 8 -75t9 -65q6 -29 16 -40t33 -17q25 -10 47 -11t49 -1q25 0 32 7t7 26q-6 86 -11.5 181t-9.5 185t-5 171t3 141q0 25 -9 38 t-38 23q-37 10 -81 19.5t-113 13.5q-41 4 -62.5 -9.5t-36.5 -35.5q-39 -61 -84 -144.5t-89 -171.5t-83 -173t-65 -152q-14 -43 -4 -55.5zM659 877q-6 -29 2.5 -43.5t30.5 -24.5q20 -12 47 -19.5t49 -13.5q27 -6 35 -1t13 22q12 49 22 109.5t29 127.5q39 6 79 11.5t78 11.5 q-10 -55 -16 -101.5t-10 -83.5q-10 -37 13.5 -54t64.5 -30q41 -10 68.5 -15t27.5 24q14 82 35.5 174t43 182t43.5 172t38 145q4 20 0 31.5t-29 26.5q-51 33 -106 45q-29 6 -42.5 3t-19.5 -30q-20 -68 -38.5 -155.5t-41.5 -180.5q-35 -4 -72.5 -6t-78.5 -6q23 78 38 143.5 t31 112.5q4 23 -1 34t-29 25q-27 16 -56.5 27.5t-56.5 20.5q-29 8 -43 4t-19 -31q-14 -68 -28.5 -155t-30.5 -176t-33.5 -174t-36.5 -152zM846 293q47 86 88 164t78 139q0 -68 2 -139.5t8 -145.5q-47 -4 -90 -8t-86 -10zM1260 131q-8 -37 1 -52.5t31 -39.5q27 -23 48.5 -38 t54.5 -28q29 -18 51 -19t63 9q33 8 73 22.5t79 32t75 38t60 44.5q35 29 51.5 61t5.5 75q-4 35 -30.5 67.5t-61.5 50.5q57 35 94 66q41 35 67 77t9 91q-10 45 -33.5 76.5t-56.5 60.5q-35 31 -98.5 39t-136 2t-145 -25.5t-126.5 -44.5q-4 -63 -14 -138t-21.5 -149.5 t-22.5 -146.5t-17 -131zM1317 920q-4 -27 3 -45.5t23 -34.5q18 -18 35 -29.5t33 -24.5q14 -10 34.5 -15t63.5 5q59 10 125 23.5t129 25.5q27 6 33 13.5t-4 27.5q-6 18 -13 36t-18 38q-10 16 -26.5 23.5t-44.5 3.5q-47 -4 -89 -7.5t-88 -13.5q10 29 15.5 56.5t15.5 56.5 q55 12 114.5 21.5t117.5 19.5q27 6 34 12t-4 29q-6 18 -13 35.5t-17 35.5q-10 16 -25.5 22.5t-42.5 4.5q-66 0 -113 -8q14 47 25.5 89t26.5 79q63 10 120.5 15t110.5 11q25 4 31 10.5t2 28.5q-4 18 -10.5 33.5t-16.5 36.5q-18 35 -65 35q-104 -4 -209 -22t-183 -36z M1436 115q10 39 18.5 75.5t18.5 75.5q78 27 126 20t56 -28q8 -33 -52.5 -75t-166.5 -68zM1513 420q10 47 20.5 87t25.5 77q78 33 130 35t62 -21q4 -14 -10.5 -36.5t-45 -48.5t-77 -50.5t-105.5 -42.5z" />
<glyph unicode="&#xad;" horiz-adv-x="808" d="M-135 897q-39 95 20 111q41 12 98.5 24t122 21.5t131 14.5t128.5 5q55 0 94 -76q20 -45 32.5 -84t26.5 -75q14 -45 6 -59.5t-41 -16.5q-109 -10 -224.5 -28.5t-213.5 -53.5q-27 -10 -49.5 2t-48.5 55q-27 41 -46.5 80t-35.5 80z" />
<glyph unicode="&#xae;" horiz-adv-x="1705" d="M13 591q-5 -177 55 -335q29 -84 75.5 -147.5t120.5 -108.5q109 -66 240 -90.5t270 -12t276.5 61.5t257 133t213 202t142.5 267q33 100 46 215t5 225.5t-38 209.5t-83 167q-49 92 -129 172t-172 137.5t-185 90t-169 32.5q-133 0 -265 -70.5t-249 -190t-209 -277.5 t-144.5 -331t-57.5 -350zM217 484.5q-10 115.5 19.5 248.5t88 263t139.5 248t172 203t185 127t183 23q111 -25 218 -118t185 -222t109.5 -274t-11.5 -274q-31 -66 -65.5 -132.5t-75.5 -128t-89 -114.5t-104 -92q-82 -57 -157.5 -96.5t-158.5 -54.5t-180 -3t-222 62 q-115 43 -170.5 131t-65.5 203.5zM551 434q-4 -41 3 -63.5t24 -36.5q18 -16 38.5 -22.5t45.5 -16.5q23 -8 31.5 0t13.5 31q14 82 26.5 161.5t26.5 165.5q25 -45 55.5 -90t61 -86t60.5 -75.5t52 -59.5q35 -33 60.5 -37t48.5 6q18 4 30.5 7.5t28.5 25.5q12 16 14.5 30.5 t-16.5 39.5q-27 31 -55.5 68.5t-56 79.5t-55 83t-50.5 78q104 66 177 141.5t102 165.5q16 51 2 135q-16 74 -43 126t-60 95q-39 49 -89 60.5t-106.5 -1.5t-114.5 -44t-114 -64q-16 -10 -30.5 -70.5t-29 -146.5t-27.5 -189.5t-23.5 -199.5t-18.5 -176t-12 -121zM801 887 q18 86 32.5 159t28.5 134q70 41 123 41q51 0 62 -35q6 -23 -7.5 -61t-45 -81t-81 -84.5t-112.5 -72.5z" />
<glyph unicode="&#xaf;" horiz-adv-x="808" d="M88 1884q8 -20 12 -25.5t8.5 -8.5t11.5 -8t19 -25q27 -43 49.5 -55.5t49.5 -2.5q98 35 212.5 53.5t225.5 28.5q33 2 41 16.5t-6 59.5q-6 18 -8.5 22.5t-3.5 7.5t-4 9t-13 29q-39 76 -94 75q-61 0 -128 -6t-131.5 -15t-121.5 -20.5t-98 -23.5q-59 -16 -21 -111z" />
<glyph unicode="&#xb0;" horiz-adv-x="509" d="M-35 1248.5q2 -54.5 27 -95.5q10 -18 28.5 -32.5t36.5 -22.5q25 -12 54.5 -17.5t58.5 -7.5q82 -8 137 29q41 33 68.5 79t41 95t15.5 97t-8 89q-8 23 -20 40.5t-39 33.5q-51 27 -127 37q-29 4 -61 -3t-54 -22q-53 -35 -89 -85t-53.5 -105t-15.5 -109.5zM116 1219.5 q-1 25.5 4 56.5t15 57.5t25.5 55t33 51t35 35t31.5 10.5q14 -4 20.5 -22.5t7.5 -46t-4 -58.5t-14 -58q-20 -70 -55 -113.5t-65 -33.5q-16 4 -24.5 22.5t-9.5 44z" />
<glyph unicode="&#xb1;" horiz-adv-x="999" d="M-53 1001.5q10 -34.5 30.5 -81t40.5 -74.5q23 -31 39.5 -38t47 1t63.5 15t68 12q-8 -57 -11.5 -104.5t-7.5 -84.5q-4 -68 41 -102q29 -23 52.5 -38t47.5 -32q29 -16 39.5 -10t16.5 45q10 76 23.5 168t29.5 190q78 10 153.5 13.5t149.5 7.5q29 0 37 13t-2 48 q-10 31 -19.5 60.5t-25.5 64.5q-27 57 -82 62q-66 4 -162 0q8 41 17.5 78.5t17.5 72.5q10 35 6 56.5t-27 50.5q-20 29 -53 55.5t-63 42.5q-25 12 -42.5 -3t-25.5 -44q-18 -61 -35.5 -145t-34.5 -183q-82 -6 -155.5 -17t-126.5 -26q-23 -6 -40 -22.5t-7 -51zM-43 250 q10 -35 30.5 -81t41.5 -75q23 -31 39 -38t47 1q88 23 142 39.5t92 27.5t69 19.5t74 13.5t106.5 7t167.5 4q29 0 37 13.5t-2 47.5q-10 31 -19.5 60.5t-25.5 64.5q-29 61 -82 62q-92 -2 -154.5 -4t-110 -6.5t-85 -11.5t-81.5 -16t-100.5 -23.5t-138.5 -30.5q-23 -4 -40 -21.5 t-7 -52.5z" />
<glyph unicode="&#xb2;" horiz-adv-x="485" d="M-105 725.5q5 -23.5 15 -43.5q12 -23 31.5 -50.5t35.5 -43.5q10 -16 24.5 -21.5t51.5 4.5q25 8 62 16.5t79 16.5t81.5 14.5t70.5 8.5q18 4 23.5 12t-0.5 31q-4 18 -14.5 42.5t-20.5 43.5q-20 41 -55 39q-27 -2 -63 -5.5t-71 -11.5q37 39 75 87t72 98.5t61.5 99.5t45.5 94 q31 74 40.5 140.5t-25.5 140.5q-12 25 -34 50t-49.5 43.5t-60 27t-69.5 0.5q-61 -16 -114.5 -70.5t-90.5 -136.5q-23 -53 -18.5 -75t24.5 -32q35 -16 75 -15t70 32q18 27 38 50t37.5 38.5t31.5 21.5t25 -4q14 -12 -16 -80.5t-86 -159t-128 -187.5t-139 -169 q-20 -23 -15 -46.5z" />
<glyph unicode="&#xb3;" horiz-adv-x="495" d="M-109 772q0 -20 35 -61q55 -72 112.5 -98.5t111.5 -26.5q68 0 124 29.5t97 107.5q37 70 32.5 154t-67.5 155q-16 18 -34 28.5t-38 18.5q37 23 66.5 47.5t52.5 53.5q18 23 29.5 55.5t12.5 71.5t-11.5 83t-38.5 87q-27 39 -53.5 59t-51 27.5t-47 5.5t-41.5 -8 q-53 -16 -99 -58.5t-73 -85.5q-20 -33 6 -65q12 -14 32 -24.5t41.5 -13.5t42 1t34.5 20q23 16 46.5 33.5t41.5 17.5q12 0 18 -12q18 -29 -39 -93t-208 -132q-31 -14 -13 -62q25 -53 59.5 -80.5t71.5 -19.5q29 4 46.5 2t34 -20.5t16.5 -63.5t-31 -92q-33 -47 -77 -53t-114 45 q-25 16 -55.5 20t-56.5 -18q-14 -12 -15 -35z" />
<glyph unicode="&#xb4;" horiz-adv-x="808" d="M180.5 1819.5q-2.5 -17.5 2.5 -31.5t12.5 -22.5t7.5 -6.5q72 -53 116 -28q55 25 114 58.5t113 68t101 69.5t80 64q-4 43 -14.5 70.5t-32.5 41.5q-41 29 -67.5 30t-47.5 -19q-74 -74 -171 -139.5t-191 -121.5q-20 -16 -22.5 -33.5z" />
<glyph unicode="&#xb5;" horiz-adv-x="1040" d="M-53 -342q-4 -53 5 -83t40 -52q29 -23 61.5 -37t67.5 -29q35 -12 47 -2t18 45q14 106 33 240.5t41 279.5q74 -45 168 -53q61 -6 109.5 7.5t95.5 48.5q66 57 116 178t90 292t70.5 386t59.5 464q6 43 0 66t-41 51q-33 25 -72 50.5t-73.5 38t-58.5 2t-26 -55.5 q-12 -102 -29.5 -240.5t-40 -284t-49 -285.5t-56 -246.5t-63.5 -167t-71 -46.5q-23 10 -34 48t-13 96.5t5 133.5t20 159q10 70 26.5 159.5t33.5 177.5t33.5 163t24.5 112q23 98 -43 164q-31 29 -63.5 51t-67.5 37q-37 16 -56 7t-30 -54q-45 -184 -89 -419t-82 -480.5 t-65.5 -485t-41.5 -436.5z" />
<glyph unicode="&#xb6;" horiz-adv-x="966" d="M20.5 839q2.5 -42 13.5 -81t27 -76q39 -94 125 -184q-10 -29 -13 -73t-7 -112q-10 -111 -19.5 -217t-25.5 -211q0 -33 9 -43t48 0q39 14 76 27.5t66.5 35t50 54.5t24.5 86q0 12 13.5 89t34 186.5t44 237.5t46 244t39 205t20.5 119q29 14 47 -6t25 -61q-4 -37 -18.5 -131 t-36 -216t-46 -259.5t-46 -259t-39 -214t-21.5 -126.5q0 -33 9 -43.5t48 0.5q39 14 76 27t66.5 35t49 54.5t23.5 85.5q2 47 17.5 153.5t36 238t43 271.5t39 259t23.5 197.5t-3 87.5q-57 49 -133 98t-158 74.5t-163 17.5t-150 -76q-59 -59 -114.5 -131t-105.5 -176 q-25 -53 -34 -99t-6.5 -88z" />
<glyph unicode="&#xb7;" horiz-adv-x="452" d="M78 872q-4 -94 40 -149t107 -51q31 0 55.5 15t42 36.5t27.5 46.5t15 43q6 27 6 59q0 47 -26 94.5t-79 71.5q-41 16 -74.5 8t-58 -32.5t-39 -62.5t-16.5 -79z" />
<glyph unicode="&#xb8;" horiz-adv-x="411" d="M-94 -340q-25 -63 35 -80q25 -4 48 -7t46 1q47 4 80 57q16 27 36.5 68t41 88t37 95t26.5 89q10 57 10 68q0 25 -22 65q-16 23 -37 45.5t-47 43.5q-57 51 -78 -21q-16 -53 -40 -122.5t-48.5 -141.5t-48 -137.5t-39.5 -110.5z" />
<glyph unicode="&#xb9;" horiz-adv-x="309" d="M-16 729q-4 -35 1 -52.5t19 -31.5q20 -14 52 -28.5t55 -22.5q20 -8 26 -3t10 27q8 80 23.5 186.5t34 217.5t36 212t33.5 173q6 27 1 40t-25 32q-23 18 -55.5 38.5t-55 28.5t-32 3t-23.5 -27q-14 -27 -32.5 -62t-28.5 -69q-10 -29 -3 -41.5t35 -34.5q-12 -70 -24.5 -154 t-21.5 -166t-16 -152.5t-9 -113.5z" />
<glyph unicode="&#xba;" horiz-adv-x="1642" d="M-80 180q-6 -53 3 -82.5t38 -52.5q29 -29 62.5 -42t66.5 -26q35 -14 48.5 -4.5t17.5 43.5q8 74 21 170.5t28.5 205t33 226t33.5 232.5q16 -96 35 -192.5t37 -187.5t37.5 -171t38.5 -141q25 -88 84 -123q33 -16 64.5 -29.5t64.5 -23.5q74 -25 80 53q18 141 41.5 316 t48 353.5t50.5 345.5t48 291q8 43 2 73t-41 59q-43 35 -67.5 47t-61.5 24t-56.5 1t-27.5 -56q-31 -174 -64.5 -392t-56.5 -454q-14 92 -28.5 191.5t-27.5 190.5t-23.5 168t-16.5 124q-8 61 -23.5 93t-52.5 52q-45 29 -87 47.5t-85 34.5q-35 12 -57.5 0t-32.5 -59 q-16 -86 -34.5 -201t-36 -243t-35 -258t-30.5 -246.5t-23.5 -210t-14.5 -146.5zM877 438q8 -20 9 -26t2 -10.5t5 -10.5t16 -26q27 -43 63 -55.5t62 -2.5q98 35 213 53.5t226 28.5q33 2 41 16.5t-7 59.5q-6 18 -9 23.5t-6 9.5t-7 11t-15 30q-39 76 -94 75q-61 0 -127.5 -6 t-131 -15t-122 -20.5t-98.5 -23.5q-59 -16 -20 -111zM1001.5 908.5q2.5 -54.5 26.5 -95.5q10 -18 28.5 -32.5t37.5 -22.5q25 -12 54.5 -17.5t57.5 -7.5q82 -8 137 29q41 33 69 79t41 95t15 97t-8 89q-8 23 -20 40.5t-39 33.5q-51 27 -127 37q-29 4 -60.5 -3t-54.5 -22 q-53 -35 -89 -85t-53.5 -105t-15 -109.5zM1185.5 916q-1.5 42 14.5 81q14 39 41 75t47 34q10 -2 15.5 -16.5t5.5 -34.5q0 -18 -3 -41t-10 -41q-16 -49 -39.5 -81t-46.5 -24q-23 6 -24.5 48z" />
<glyph unicode="&#xbb;" horiz-adv-x="1277" d="M-10 610.5q-8 -18.5 8 -47.5q23 -35 47.5 -68.5t46.5 -56.5q25 -25 40 -26.5t38 14.5q78 47 160 87t186 81q29 14 42 29.5t24 50.5q18 57 30 139q8 45 -2 62.5t-35 33.5q-55 37 -114.5 73t-118.5 68.5t-112.5 60.5t-96.5 46q-23 10 -40 4t-21 -35q-4 -35 -3 -80t5 -75 q10 -37 19 -51.5t40 -26.5q47 -23 95 -48.5t98 -53.5q-88 -35 -170 -75t-140 -75q-18 -12 -26 -30.5zM602.5 567.5q-8.5 -18.5 7.5 -47.5q23 -35 47.5 -68.5t47.5 -56.5q25 -25 40 -26.5t37 14.5q78 47 160 87t186 81q29 14 42.5 29.5t23.5 50.5q19 57 31 139 q8 45 -2.5 62.5t-34.5 33.5q-55 37 -114.5 73t-119 68.5t-113 60.5t-96.5 46q-23 10 -40 4t-21 -35q-4 -35 -3 -80t5 -75q10 -37 19.5 -51.5t39.5 -26.5q47 -23 95.5 -48.5t97.5 -53.5q-88 -35 -170 -75t-139 -75q-18 -12 -26.5 -30.5z" />
<glyph unicode="&#xbc;" horiz-adv-x="1097" d="M-78 176.5q2 -16.5 12 -33.5q6 -12 7.5 -9t1.5 7t4 4q2 0 12 -14q23 -29 40 -28t40 36q49 66 123 162t160 206.5t178 227.5t178 224.5t159.5 197.5t120.5 146q27 31 33 55t-12 67q-8 18 -11 22.5t-5 4.5t-6.5 2t-14.5 19q-41 66 -96 4q-51 -55 -126 -149.5t-161 -209 t-177 -239.5t-173 -240t-148.5 -209t-103.5 -147q-29 -41 -35 -74q-2 -16 0 -32.5zM-61 743q-4 -35 1 -52t19 -32q20 -14 52 -28.5t55 -22.5q20 -8 26 -3t10 28q8 80 23.5 186.5t34 217t36 211.5t33.5 173q6 27 1 40.5t-25 31.5q-23 18 -55.5 38.5t-55 29t-32 3.5t-23.5 -28 q-14 -27 -32.5 -61.5t-29.5 -69.5q-10 -29 -2.5 -41t35.5 -35q-12 -70 -24.5 -153.5t-21.5 -165.5t-16 -153t-9 -114zM467 381q0 -20 10 -43q33 -59 70 -102q16 -23 31.5 -24t33.5 3q35 8 70 13t72 12q-10 -57 -15.5 -100.5t-7.5 -73.5q-4 -35 1 -51.5t24 -34.5 q18 -14 37.5 -24.5t35.5 -16.5q23 -8 31 -1t12 29q8 61 19.5 135t26.5 158q20 2 38.5 3t36.5 3q35 2 27 43q-6 23 -10 41.5t-13 40.5q-16 41 -51 41q18 98 34.5 183t31.5 151q6 27 2 41t-25 33q-12 8 -31.5 22.5t-40 27.5t-40 24.5t-29.5 15.5q-23 10 -35 7t-31 -24 q-35 -41 -76.5 -101t-83.5 -127t-80 -133.5t-63 -121.5q-12 -27 -12 -49zM627 406q47 74 101 159.5t112 153.5q-16 -70 -28.5 -144.5t-27.5 -150.5q-41 -4 -81.5 -8t-75.5 -10z" />
<glyph unicode="&#xbd;" horiz-adv-x="1153" d="M-78 176.5q2 -16.5 12 -33.5q6 -12 7.5 -9t1.5 7t4 4q2 0 12 -14q23 -29 40 -28t40 36q49 66 123 162t160 206.5t178 227.5t178 224.5t159.5 197.5t120.5 146q27 31 33 55t-12 67q-8 18 -11 22.5t-5 4.5t-6.5 2t-14.5 19q-41 66 -96 4q-51 -55 -126 -149.5t-161 -209 t-177 -239.5t-173 -240t-148.5 -209t-103.5 -147q-29 -41 -35 -74q-2 -16 0 -32.5zM-61 743q-4 -35 1 -52t19 -32q20 -14 52 -28.5t55 -22.5q20 -8 26 -3t10 28q8 80 23.5 186.5t34 217t36 211.5t33.5 173q6 27 1 40.5t-25 31.5q-23 18 -55.5 38.5t-55 29t-32 3.5t-23.5 -28 q-14 -27 -32.5 -61.5t-29.5 -69.5q-10 -29 -2.5 -41t35.5 -35q-12 -70 -24.5 -153.5t-21.5 -165.5t-16 -153t-9 -114zM538 107.5q5 -23.5 15 -44.5q12 -23 31.5 -50t36.5 -44q10 -16 24 -21t51 5q25 8 62 16t79 16.5t81.5 14.5t70.5 8q18 4 23.5 12.5t-0.5 30.5 q-4 18 -14.5 43t-20.5 43q-20 41 -55 39q-27 -2 -63 -5t-71 -11q37 39 75 87t72 98t61.5 99.5t45.5 94.5q31 74 40.5 140t-25.5 140q-12 25 -34 50.5t-49.5 44t-60 26.5t-69.5 0q-61 -16 -114.5 -70.5t-90.5 -136.5q-23 -53 -18.5 -74.5t24.5 -31.5q35 -16 75 -15.5t71 31.5 q18 27 37.5 50.5t37 39t31.5 21.5t25 -4q14 -12 -15.5 -81t-86 -159t-128 -187.5t-139.5 -168.5q-20 -23 -15 -46.5z" />
<glyph unicode="&#xbe;" horiz-adv-x="1294" d="M-80 836q0 -20 35 -62q55 -72 112.5 -98.5t110.5 -26.5q68 0 124 30t97 107q37 70 33 154t-67 156q-16 18 -34 28.5t-38 18.5q37 23 66.5 47t52.5 53q18 23 29.5 55.5t12.5 71.5t-11.5 83t-39.5 87q-27 39 -53 59.5t-51 27.5t-47.5 5t-40.5 -8q-53 -16 -99 -58t-73 -85 q-20 -33 6 -66q12 -14 31.5 -24.5t41 -13.5t42 1t35.5 21q23 16 46 33.5t42 17.5q12 0 18 -12q18 -29 -39 -93.5t-209 -132.5q-31 -14 -12 -61q25 -53 59.5 -81t71.5 -19q29 4 46.5 2t33.5 -20.5t16 -63.5t-30 -92q-33 -47 -77 -53.5t-114 44.5q-25 16 -55.5 20.5 t-57.5 -18.5q-14 -12 -14 -34zM119 176.5q2 -16.5 12 -33.5q6 -12 7 -9t1 7t2 4q4 0 15 -14q23 -29 40 -28t40 36q49 66 122.5 162t159.5 206.5t178 227.5t178.5 224.5t160 197.5t120.5 146q27 31 33 55t-12 67q-8 18 -11.5 22.5t-5.5 4.5t-6 2t-14 19q-41 66 -97 4 q-51 -55 -125.5 -149.5t-160.5 -209t-177.5 -239.5t-173 -240t-148.5 -209t-103 -147q-29 -41 -35 -74q-2 -16 0 -32.5zM664 381q0 -20 10 -43q33 -59 69 -102q16 -23 32 -24t34 3q35 8 69.5 13t71.5 12q-10 -57 -15 -100.5t-7 -73.5q-4 -35 1 -51.5t23 -34.5 q18 -14 38 -24.5t36 -16.5q23 -8 31 -1t12 29q8 61 19.5 135t25.5 158q20 2 38.5 3t37.5 3q35 2 27 43q-6 23 -10.5 41.5t-12.5 40.5q-16 41 -51 41q18 98 34.5 183t30.5 151q6 27 2 41t-24 33q-12 8 -31.5 22.5t-40 27.5t-40 24.5t-30.5 15.5q-23 10 -35 7t-30 -24 q-35 -41 -77 -101t-84 -127t-80 -133.5t-62 -121.5q-12 -27 -12 -49zM823 406q47 74 101.5 159.5t111.5 153.5q-16 -70 -28.5 -144.5t-26.5 -150.5l-82 -8t-76 -10z" />
<glyph unicode="&#xbf;" horiz-adv-x="927" d="M19.5 391.5q-3.5 -67.5 15 -142.5t69.5 -155q23 -39 58 -74.5t79 -59t95 -32t106 5.5q92 23 173 101t145 201q43 80 35.5 114.5t-37.5 50.5q-61 37 -126 31t-110 -55q-31 -33 -59.5 -65.5t-56 -58.5t-55 -42t-54.5 -16q-18 0 -35.5 14t-21.5 47q-4 49 27.5 116.5 t123.5 145.5q37 33 83 75t88 98.5t73 130t37 169.5q4 49 -3 76.5t-36 50.5q-27 18 -59.5 38t-60.5 27t-46 -2.5t-16 -45.5q-12 -119 -55.5 -191t-97.5 -124t-111.5 -97t-96.5 -109q-27 -43 -47 -99t-23.5 -123.5zM446 1421q0 -47 20.5 -93t86.5 -75q43 -18 78 -13t60.5 25.5 t41 53.5t17.5 72q8 92 -34 143t-102 61q-68 14 -111.5 -23.5t-53.5 -94.5q-2 -6 -3 -25v-31z" />
<glyph unicode="&#xc0;" horiz-adv-x="980" d="M-106 129q0 -25 6 -41t17 -27.5t28 -27.5q20 -16 41.5 -29.5t38.5 -23.5q31 -16 46 -10.5t27 40.5q20 66 42 134.5t50 146.5q76 29 175.5 49.5t197.5 40.5q4 -80 10.5 -149.5t12.5 -129.5q6 -57 19 -79.5t46 -36.5q33 -16 63.5 -19.5t65.5 -3.5t45.5 14.5t8.5 51.5 q-8 172 -15.5 361.5t-12.5 371.5t-6 345t1 279q2 47 -9.5 77t-50.5 46q-53 20 -112.5 41t-155.5 27q-55 6 -84 -20.5t-47 -69.5q-51 -123 -112.5 -290t-121 -344t-113.5 -348t-91 -306q-10 -43 -10 -70zM268 2001q33 -29 80 -63.5t101.5 -69.5t113 -69t113.5 -58 q45 -25 117 28q0 -2 7 6.5t12 22.5t3 31.5t-22 34.5q-94 55 -191.5 120.5t-171.5 139.5q-20 20 -47 19t-68 -29q-23 -14 -33 -42t-14 -71zM311 647q59 174 117.5 328.5t106.5 277.5q0 -135 4 -278.5t8 -290.5q-119 -12 -236 -37z" />
<glyph unicode="&#xc1;" horiz-adv-x="980" d="M-106 129q0 -25 6 -41t17 -27.5t28 -27.5q20 -16 41.5 -29.5t38.5 -23.5q31 -16 46 -10.5t27 40.5q20 66 42 134.5t50 146.5q76 29 175.5 49.5t197.5 40.5q4 -80 10.5 -149.5t12.5 -129.5q6 -57 19 -79.5t46 -36.5q33 -16 63.5 -19.5t65.5 -3.5t45.5 14.5t8.5 51.5 q-8 172 -15.5 361.5t-12.5 371.5t-6 345t1 279q2 47 -9.5 77t-50.5 46q-53 20 -112.5 41t-155.5 27q-55 6 -84 -20.5t-47 -69.5q-51 -123 -112.5 -290t-121 -344t-113.5 -348t-91 -306q-10 -43 -10 -70zM301.5 1819.5q-2.5 -17.5 2.5 -31.5t12.5 -22.5t7.5 -6.5 q72 -53 116 -28q55 25 113.5 58.5t113 68t101.5 69.5t80 64q-4 43 -14.5 70.5t-32.5 41.5q-41 29 -67.5 30t-47.5 -19q-74 -74 -171 -139.5t-191 -121.5q-20 -16 -22.5 -33.5zM311 647q59 174 117.5 328.5t106.5 277.5q0 -135 4 -278.5t8 -290.5q-119 -12 -236 -37z" />
<glyph unicode="&#xc2;" horiz-adv-x="980" d="M-106 129q0 -25 6 -41t17 -27.5t28 -27.5q20 -16 41.5 -29.5t38.5 -23.5q31 -16 46 -10.5t27 40.5q20 66 42 134.5t50 146.5q76 29 175.5 49.5t197.5 40.5q4 -80 10.5 -149.5t12.5 -129.5q6 -57 19 -79.5t46 -36.5q33 -16 63.5 -19.5t65.5 -3.5t45.5 14.5t8.5 51.5 q-8 172 -15.5 361.5t-12.5 371.5t-6 345t1 279q2 47 -9.5 77t-50.5 46q-53 20 -112.5 41t-155.5 27q-55 6 -84 -20.5t-47 -69.5q-51 -123 -112.5 -290t-121 -344t-113.5 -348t-91 -306q-10 -43 -10 -70zM311 647q59 174 117.5 328.5t106.5 277.5q0 -135 4 -278.5t8 -290.5 q-119 -12 -236 -37zM365 1931q-18 -35 2 -73q12 -23 23 -39.5t24 -32.5q14 -18 24 -19q10 0 21 19q33 53 70.5 113.5t82.5 123.5q16 -74 28.5 -139t25.5 -110q16 -45 49 -54q20 -8 37.5 -10t33.5 -2q35 -2 27 39q-8 39 -19.5 88t-21.5 104.5t-20.5 111.5t-16.5 108 q-4 33 -10 47t-18 32q-14 16 -29.5 28.5t-32.5 29.5q-16 12 -28.5 11t-28.5 -23q-33 -41 -66 -88.5t-61.5 -95.5t-54 -92t-41.5 -77z" />
<glyph unicode="&#xc3;" horiz-adv-x="980" d="M-106 129q0 -25 6 -41t17 -27.5t28 -27.5q20 -16 41.5 -29.5t38.5 -23.5q31 -16 46 -10.5t27 40.5q20 66 42 134.5t50 146.5q76 29 175.5 49.5t197.5 40.5q4 -80 10.5 -149.5t12.5 -129.5q6 -57 19 -79.5t46 -36.5q33 -16 63.5 -19.5t65.5 -3.5t45.5 14.5t8.5 51.5 q-8 172 -15.5 361.5t-12.5 371.5t-6 345t1 279q2 47 -9.5 77t-50.5 46q-53 20 -112.5 41t-155.5 27q-55 6 -84 -20.5t-47 -69.5q-51 -123 -112.5 -290t-121 -344t-113.5 -348t-91 -306q-10 -43 -10 -70zM199 1806q0 -57 63 -57q39 0 62 20q2 0 12 10.5t22.5 24t26.5 23.5 t27 10q14 0 34.5 -4t41 -11t39 -16.5t28.5 -19.5q41 -41 133 -41q61 0 137 76q80 74 80 133q0 27 -26 47q-23 14 -50 14q-29 0 -57 -28q-4 -6 -14 -18.5t-21.5 -27t-21.5 -23.5t-17 -9q-39 4 -75.5 30.5t-71.5 40.5q-31 14 -57.5 21.5t-55.5 7.5q-25 0 -59.5 -15.5 t-68.5 -38t-61.5 -49t-37.5 -46.5q-12 -29 -12 -54zM311 647q59 174 117.5 328.5t106.5 277.5q0 -135 4 -278.5t8 -290.5q-119 -12 -236 -37z" />
<glyph unicode="&#xc4;" horiz-adv-x="980" d="M-106 129q0 -25 6 -41t17 -27.5t28 -27.5q20 -16 41.5 -29.5t38.5 -23.5q31 -16 46 -10.5t27 40.5q20 66 42 134.5t50 146.5q76 29 175.5 49.5t197.5 40.5q4 -80 10.5 -149.5t12.5 -129.5q6 -57 19 -79.5t46 -36.5q33 -16 63.5 -19.5t65.5 -3.5t45.5 14.5t8.5 51.5 q-8 172 -15.5 361.5t-12.5 371.5t-6 345t1 279q2 47 -9.5 77t-50.5 46q-53 20 -112.5 41t-155.5 27q-55 6 -84 -20.5t-47 -69.5q-51 -123 -112.5 -290t-121 -344t-113.5 -348t-91 -306q-10 -43 -10 -70zM283 1864q-4 -70 29.5 -112t80.5 -38q23 0 41.5 11.5t31.5 27.5 t21.5 34.5t10.5 33.5q6 18 6 43q0 37 -19.5 71.5t-60.5 53.5q-31 12 -55.5 6t-43 -24.5t-29.5 -47t-13 -59.5zM311 647q59 174 117.5 328.5t106.5 277.5q0 -135 4 -278.5t8 -290.5q-119 -12 -236 -37zM641 1864q-2 -35 6 -63.5t23.5 -49t36 -31t45.5 -8.5q23 0 41 11.5 t31.5 27.5t20.5 34.5t11 33.5q2 10 3 20t1 25q0 35 -18.5 69.5t-59.5 53.5q-31 12 -56.5 6t-43.5 -24.5t-28.5 -46t-12.5 -58.5z" />
<glyph unicode="&#xc5;" horiz-adv-x="980" d="M-106 129q0 -25 6 -41t17 -27.5t28 -27.5q20 -16 41.5 -29.5t38.5 -23.5q31 -16 46 -10.5t27 40.5q20 66 42 134.5t50 146.5q76 29 175.5 49.5t197.5 40.5q4 -80 10.5 -149.5t12.5 -129.5q6 -57 19 -79.5t46 -36.5q33 -16 63.5 -19.5t65.5 -3.5t45.5 14.5t8.5 51.5 q-8 172 -15.5 361.5t-12.5 371.5t-6 345t1 279q2 47 -9.5 77t-50.5 46q-53 20 -112.5 41t-155.5 27q-55 6 -84 -20.5t-47 -69.5q-51 -123 -112.5 -290t-121 -344t-113.5 -348t-91 -306q-10 -43 -10 -70zM311 647q59 174 117.5 328.5t106.5 277.5q0 -135 4 -278.5t8 -290.5 q-119 -12 -236 -37zM375 1834q2 -54 26 -95q10 -18 29 -32.5t37 -23.5q25 -12 54.5 -17t58.5 -7q82 -8 137 29q41 33 68.5 78.5t41 95t15.5 97.5t-8 89q-8 23 -20.5 40.5t-39.5 33.5q-51 27 -127 37q-29 4 -60.5 -3.5t-54.5 -21.5q-53 -35 -88.5 -85t-53 -105.5 t-15.5 -109.5zM525 1805.5q-1 25.5 4.5 56t15.5 57.5t25.5 55.5t33 51t35 35t31.5 10.5q14 -4 20 -22.5t7 -46.5t-4 -58.5t-13 -57.5q-20 -70 -55 -113.5t-66 -33.5q-16 4 -24.5 22.5t-9.5 44z" />
<glyph unicode="&#xc6;" horiz-adv-x="1441" d="M-94 90q4 -16 14 -27.5t23 -27.5q18 -16 37.5 -29.5t33.5 -23.5q31 -16 47.5 -10.5t32.5 40.5q29 66 60.5 134.5t72.5 146.5q78 29 181.5 48t201.5 40q-6 -66 -13 -109t-12 -73.5t-8.5 -52t-3.5 -44.5q-4 -57 17.5 -78.5t54.5 -35.5q8 -8 37 -11.5t61 -3.5q33 0 64 2 t45 7q82 23 172 49t176 51q35 10 42 25.5t-1 56.5q-10 37 -20.5 71.5t-26.5 73.5q-14 35 -35.5 47.5t-56.5 8.5q-66 -6 -123 -15.5t-117 -25.5q0 8 1 14t1 14q18 92 37 197q76 23 157 42t159 40q35 10 43 24.5t-3 57.5q-8 37 -17 71.5t-26 71.5q-14 35 -34.5 46t-55.5 9 q-41 -2 -78.5 -5t-76.5 -11q20 92 36.5 176t32.5 160q86 16 165 28.5t151 22.5q35 6 44 21.5t3 58.5q-8 37 -15.5 67.5t-23.5 69.5q-20 72 -88 70q-92 -4 -164 -21.5t-137 -40.5q-2 2 -4 2t-4 2q-51 20 -107.5 41t-152.5 27q-53 6 -86 -20.5t-58 -69.5q-70 -123 -156 -290 t-173 -344t-166.5 -348t-137.5 -306q-16 -43 -21 -69t-1 -42zM401 649q86 174 168 329t150 277q-20 -135 -38.5 -278t-35.5 -291q-61 -6 -121 -15.5t-123 -21.5z" />
<glyph unicode="&#xc7;" horiz-adv-x="876" d="M-62.5 609q-7.5 -122 3 -230.5t41.5 -192.5q18 -57 54 -100t70 -66q6 -4 23 -12q-18 -51 -37.5 -106.5t-38 -107.5t-35 -99t-28.5 -82q-25 -63 35 -80q25 -4 48 -7t46 1q47 4 80 57q16 27 36.5 68t41 88t37 95t26.5 89q0 4 1 9.5t1 9.5q57 0 110.5 22.5t88.5 57.5 q37 41 73.5 102t59.5 133q20 61 17 102t-54 62q-125 51 -203 -66q-106 -168 -162 -139q-29 12 -42 65.5t-15 132.5t7 173t28 186q18 86 49 182.5t65.5 176t67.5 129t57 38.5q25 -12 30 -56t5 -97q0 -16 1 -32.5t3 -33.5q12 -86 49 -136t119 -73q43 -12 53.5 5.5t18.5 46.5 q12 61 16 151t0 166q-4 66 -21.5 117t-66.5 102q-47 41 -117.5 77t-138.5 44q-45 4 -96 -12.5t-102 -73.5q-63 -74 -116.5 -175t-92.5 -219t-63.5 -244t-32 -248z" />
<glyph unicode="&#xc8;" horiz-adv-x="788" d="M-63 270q-4 -53 7 -92t33 -67q27 -37 47.5 -60.5t43.5 -46.5q20 -20 47.5 -31.5t83.5 9.5q82 23 172 49t176 51q35 10 42 25.5t-1 56.5q-10 37 -20.5 71.5t-26.5 73.5q-14 35 -36 47.5t-56 8.5q-66 -6 -123.5 -15.5t-118.5 -25.5q10 53 20.5 109t20.5 116q76 23 156.5 42 t158.5 40q35 10 43 24.5t-2 57.5q-8 37 -17 71.5t-26 71.5q-14 35 -34.5 46t-55.5 9q-41 -2 -79 -5t-77 -11q20 92 37 176t33 160q86 16 165 28.5t150 22.5q35 6 44.5 21.5t3.5 58.5q-8 37 -15.5 67.5t-23.5 69.5q-20 72 -88 70q-143 -8 -284 -43t-245 -72zM178 1991 q33 -29 80 -64t101.5 -69.5t112.5 -68.5t114 -58q45 -25 116 28q0 -2 7.5 6.5t12.5 22.5t3 31.5t-23 33.5q-94 55 -191 121t-171 140q-20 20 -47 19t-68 -30q-23 -14 -33 -41.5t-14 -70.5z" />
<glyph unicode="&#xc9;" horiz-adv-x="788" d="M-63 270q-4 -53 7 -92t33 -67q27 -37 47.5 -60.5t43.5 -46.5q20 -20 47.5 -31.5t83.5 9.5q82 23 172 49t176 51q35 10 42 25.5t-1 56.5q-10 37 -20.5 71.5t-26.5 73.5q-14 35 -36 47.5t-56 8.5q-66 -6 -123.5 -15.5t-118.5 -25.5q10 53 20.5 109t20.5 116q76 23 156.5 42 t158.5 40q35 10 43 24.5t-2 57.5q-8 37 -17 71.5t-26 71.5q-14 35 -34.5 46t-55.5 9q-41 -2 -79 -5t-77 -11q20 92 37 176t33 160q86 16 165 28.5t150 22.5q35 6 44.5 21.5t3.5 58.5q-8 37 -15.5 67.5t-23.5 69.5q-20 72 -88 70q-143 -8 -284 -43t-245 -72zM180.5 1819.5 q-2.5 -17.5 2.5 -31.5t12.5 -22.5t7.5 -6.5q72 -53 116 -28q55 25 114 58.5t113 68t101 69.5t80 64q-4 43 -14.5 70.5t-32.5 41.5q-41 29 -67.5 30t-47.5 -19q-74 -74 -171 -139.5t-191 -121.5q-20 -16 -22.5 -33.5z" />
<glyph unicode="&#xca;" horiz-adv-x="788" d="M-63 270q-4 -53 7 -92t33 -67q27 -37 47.5 -60.5t43.5 -46.5q20 -20 47.5 -31.5t83.5 9.5q82 23 172 49t176 51q35 10 42 25.5t-1 56.5q-10 37 -20.5 71.5t-26.5 73.5q-14 35 -36 47.5t-56 8.5q-66 -6 -123.5 -15.5t-118.5 -25.5q10 53 20.5 109t20.5 116q76 23 156.5 42 t158.5 40q35 10 43 24.5t-2 57.5q-8 37 -17 71.5t-26 71.5q-14 35 -34.5 46t-55.5 9q-41 -2 -79 -5t-77 -11q20 92 37 176t33 160q86 16 165 28.5t150 22.5q35 6 44.5 21.5t3.5 58.5q-8 37 -15.5 67.5t-23.5 69.5q-20 72 -88 70q-143 -8 -284 -43t-245 -72zM252 1925 q-18 -35 2 -74q12 -23 23.5 -39t23.5 -32q14 -18 25 -19q10 0 20 19q33 53 71 113.5t83 123.5q16 -74 28.5 -139.5t24.5 -110.5q16 -45 49 -53q20 -8 38 -10t34 -2q35 -2 26 39q-8 39 -19 88t-21.5 104.5t-20.5 111.5t-16 107q-4 33 -10.5 47.5t-18.5 32.5 q-14 16 -29.5 28.5t-32.5 29.5q-16 12 -28 11t-29 -24q-33 -41 -65.5 -88t-61.5 -95t-54.5 -92t-41.5 -77z" />
<glyph unicode="&#xcb;" horiz-adv-x="788" d="M-63 270q-4 -53 7 -92t33 -67q27 -37 47.5 -60.5t43.5 -46.5q20 -20 47.5 -31.5t83.5 9.5q82 23 172 49t176 51q35 10 42 25.5t-1 56.5q-10 37 -20.5 71.5t-26.5 73.5q-14 35 -36 47.5t-56 8.5q-66 -6 -123.5 -15.5t-118.5 -25.5q10 53 20.5 109t20.5 116q76 23 156.5 42 t158.5 40q35 10 43 24.5t-2 57.5q-8 37 -17 71.5t-26 71.5q-14 35 -34.5 46t-55.5 9q-41 -2 -79 -5t-77 -11q20 92 37 176t33 160q86 16 165 28.5t150 22.5q35 6 44.5 21.5t3.5 58.5q-8 37 -15.5 67.5t-23.5 69.5q-20 72 -88 70q-143 -8 -284 -43t-245 -72zM135 1853 q-4 -70 30 -111.5t81 -37.5q23 0 41 11t31.5 27.5t21.5 35t10 32.5q6 18 6 43q0 37 -19.5 72t-60.5 53q-31 12 -55 6t-42.5 -24t-30 -47t-13.5 -60zM494 1853q-2 -35 6 -63.5t23.5 -49t36 -30.5t44.5 -8q23 0 41.5 11t31.5 27.5t20.5 35t11.5 32.5q2 10 3 20.5t1 24.5 q0 35 -18.5 70t-59.5 53q-31 12 -56.5 6t-44 -24.5t-28.5 -46t-12 -58.5z" />
<glyph unicode="&#xcc;" horiz-adv-x="425" d="M-82 170q-4 -53 5 -83t40 -52q29 -23 61.5 -37t67.5 -29q35 -12 47.5 -2t18.5 45q12 90 27.5 202t34 232.5t37.5 245.5t38.5 241t38 218t35.5 178q8 43 1 66.5t-42 52.5q-33 29 -76 54.5t-80 37.5q-37 14 -55.5 4t-28.5 -55q-14 -76 -31.5 -184.5t-35 -231.5t-34 -254 t-30.5 -252t-24.5 -224t-14.5 -173zM-59 2034q33 -29 80 -64t101 -69.5t112.5 -68.5t113.5 -58q45 -25 117 28q0 -2 7 6.5t12 22.5t3 31.5t-22 33.5q-94 55 -191.5 121t-171.5 140q-20 20 -46.5 19t-67.5 -30q-23 -14 -33 -41.5t-14 -70.5z" />
<glyph unicode="&#xcd;" horiz-adv-x="425" d="M-82 170q-4 -53 5 -83t40 -52q29 -23 61.5 -37t67.5 -29q35 -12 47.5 -2t18.5 45q12 90 27.5 202t34 232.5t37.5 245.5t38.5 241t38 218t35.5 178q8 43 1 66.5t-42 52.5q-33 29 -76 54.5t-80 37.5q-37 14 -55.5 4t-28.5 -55q-14 -76 -31.5 -184.5t-35 -231.5t-34 -254 t-30.5 -252t-24.5 -224t-14.5 -173zM31 1824q-2 -18 3 -32t12 -22.5t7 -6.5q72 -53 117 -28q55 25 113.5 58.5t113 68t101.5 69.5t80 64q-4 43 -14.5 70.5t-33.5 41.5q-41 29 -67.5 30t-46.5 -19q-74 -74 -171.5 -139.5t-191.5 -120.5q-20 -16 -22 -34z" />
<glyph unicode="&#xce;" horiz-adv-x="425" d="M-82 170q-4 -53 5 -83t40 -52q29 -23 61.5 -37t67.5 -29q35 -12 47.5 -2t18.5 45q12 90 27.5 202t34 232.5t37.5 245.5t38.5 241t38 218t35.5 178q8 43 1 66.5t-42 52.5q-33 29 -76 54.5t-80 37.5q-37 14 -55.5 4t-28.5 -55q-14 -76 -31.5 -184.5t-35 -231.5t-34 -254 t-30.5 -252t-24.5 -224t-14.5 -173zM53 1915q-18 -35 2 -74q12 -23 23.5 -39t23.5 -33q14 -18 25 -18q10 0 20 18q33 53 71 114t83 124q16 -74 28.5 -139.5t24.5 -110.5q16 -45 49 -53q20 -8 38 -10t34 -2q35 -2 27 39q-8 39 -19.5 88t-21.5 104t-20.5 111.5t-16.5 107.5 q-4 33 -10 47.5t-19 32.5q-14 16 -29.5 28.5t-31.5 28.5q-16 12 -28.5 11.5t-29.5 -23.5q-33 -41 -65.5 -88t-61 -95t-54 -92t-42.5 -77z" />
<glyph unicode="&#xcf;" horiz-adv-x="425" d="M-82 170q-4 -53 5 -83t40 -52q29 -23 61.5 -37t67.5 -29q35 -12 47.5 -2t18.5 45q12 90 27.5 202t34 232.5t37.5 245.5t38.5 241t38 218t35.5 178q8 43 1 66.5t-42 52.5q-33 29 -76 54.5t-80 37.5q-37 14 -55.5 4t-28.5 -55q-14 -76 -31.5 -184.5t-35 -231.5t-34 -254 t-30.5 -252t-24.5 -224t-14.5 -173zM-39 1853q-4 -70 30 -111.5t81 -37.5q23 0 41 11t31.5 27.5t21.5 35t10 32.5q6 18 6 43q0 37 -19.5 72t-60.5 53q-31 12 -55 6t-42.5 -24t-30 -47t-13.5 -60zM319 1853q-2 -35 6.5 -63.5t24 -49t36 -30.5t44.5 -8q23 0 41 11t31.5 27.5 t20.5 35t12 32.5q2 10 3 20.5t1 24.5q0 35 -18.5 70t-59.5 53q-31 12 -56.5 6t-44 -24.5t-29 -46t-12.5 -58.5z" />
<glyph unicode="&#xd0;" horiz-adv-x="1230" d="M-2 854q27 -59 86 -133q31 -35 61.5 -45t75.5 -2l-37 -357q-6 -49 -4 -80.5t9.5 -54t19.5 -40t24 -36.5q35 -41 63 -68.5t66 -55.5q74 -59 146 -19q135 57 239.5 149.5t177 205t116.5 237.5t58.5 249t2.5 239.5t-51 207.5q-43 109 -102.5 174.5t-128 98t-141.5 38 t-141.5 -9t-131 -44t-107.5 -62.5l-49 -477q-47 -4 -93.5 -9.5t-101.5 -13.5q-96 -12 -57 -92zM440 283q16 111 31.5 217t32.5 211q33 2 72.5 3t95.5 5q47 2 64.5 14t4.5 49q-10 29 -20 63t-33 70q-33 63 -123 64h-16q10 61 22.5 121.5t24.5 120.5q78 35 134 7t79 -85 q10 -29 16 -70t4 -94q-2 -78 -24.5 -172t-68.5 -188.5t-119 -182t-177 -153.5z" />
<glyph unicode="&#xd1;" horiz-adv-x="958" d="M-80 180q-6 -53 3 -82.5t38 -52.5q29 -29 62.5 -42t66.5 -26q35 -14 48.5 -4.5t17.5 43.5q8 74 21 170.5t28.5 205t33 226t33.5 232.5q16 -96 35 -192.5t37 -187.5t37.5 -171t38.5 -141q25 -88 84 -123q33 -16 64.5 -29.5t64.5 -23.5q74 -25 80 53q18 141 41.5 316 t48 353.5t50.5 345.5t48 291q8 43 2 73t-41 59q-43 35 -67.5 47t-61.5 24t-56.5 1t-27.5 -56q-31 -174 -64.5 -392t-56.5 -454q-14 92 -28.5 191.5t-27.5 190.5t-23.5 168t-16.5 124q-8 61 -23.5 93t-52.5 52q-45 29 -87 47.5t-85 34.5q-35 12 -57.5 0t-32.5 -59 q-16 -86 -34.5 -201t-36 -243t-35 -258t-30.5 -246.5t-23.5 -210t-14.5 -146.5zM199 1806q0 -57 63 -57q39 0 62 20q2 0 12 10.5t22.5 24t26.5 23.5t27 10q14 0 34.5 -4t41 -11t39 -16.5t28.5 -19.5q41 -41 133 -41q61 0 137 76q80 74 80 133q0 27 -26 47q-23 14 -50 14 q-29 0 -57 -28q-4 -6 -14 -18.5t-21.5 -27t-21.5 -23.5t-17 -9q-39 4 -75.5 30.5t-71.5 40.5q-31 14 -57.5 21.5t-55.5 7.5q-25 0 -59.5 -15.5t-68.5 -38t-61.5 -49t-37.5 -46.5q-12 -29 -12 -54z" />
<glyph unicode="&#xd2;" d="M-35 530q4 -172 47 -307q18 -57 53 -102t70 -74q45 -35 99.5 -52.5t105.5 -25.5q78 -12 138.5 9.5t113.5 84.5q76 104 125 249t74.5 301.5t27.5 311t-16 281.5q-12 72 -36 129.5t-71 106.5q-41 43 -103.5 72.5t-129.5 44.5q-51 10 -109.5 -11.5t-99.5 -64.5 q-98 -109 -163.5 -269.5t-97.5 -336t-28 -347.5zM178 1991q33 -29 80 -64t101.5 -69.5t112.5 -68.5t114 -58q45 -25 116 28q0 -2 7.5 6.5t12.5 22.5t3 31.5t-23 33.5q-94 55 -191 121t-171 140q-20 20 -47 19t-68 -30q-23 -14 -33 -41.5t-14 -70.5zM242 439q-2 83 7 179.5 t27 182.5q18 84 47 174t61 160.5t64.5 112.5t57.5 32t37 -71.5t13 -147.5t-7 -184.5t-25 -184.5q-18 -109 -44.5 -201t-56.5 -156.5t-61.5 -95t-58.5 -16.5q-31 14 -45 73.5t-16 142.5z" />
<glyph unicode="&#xd3;" d="M-35 530q4 -172 47 -307q18 -57 53 -102t70 -74q45 -35 99.5 -52.5t105.5 -25.5q78 -12 138.5 9.5t113.5 84.5q76 104 125 249t74.5 301.5t27.5 311t-16 281.5q-12 72 -36 129.5t-71 106.5q-41 43 -103.5 72.5t-129.5 44.5q-51 10 -109.5 -11.5t-99.5 -64.5 q-98 -109 -163.5 -269.5t-97.5 -336t-28 -347.5zM180.5 1819.5q-2.5 -17.5 2.5 -31.5t12.5 -22.5t7.5 -6.5q72 -53 116 -28q55 25 114 58.5t113 68t101 69.5t80 64q-4 43 -14.5 70.5t-32.5 41.5q-41 29 -67.5 30t-47.5 -19q-74 -74 -171 -139.5t-191 -121.5 q-20 -16 -22.5 -33.5zM242 439q-2 83 7 179.5t27 182.5q18 84 47 174t61 160.5t64.5 112.5t57.5 32t37 -71.5t13 -147.5t-7 -184.5t-25 -184.5q-18 -109 -44.5 -201t-56.5 -156.5t-61.5 -95t-58.5 -16.5q-31 14 -45 73.5t-16 142.5z" />
<glyph unicode="&#xd4;" d="M-35 530q4 -172 47 -307q18 -57 53 -102t70 -74q45 -35 99.5 -52.5t105.5 -25.5q78 -12 138.5 9.5t113.5 84.5q76 104 125 249t74.5 301.5t27.5 311t-16 281.5q-12 72 -36 129.5t-71 106.5q-41 43 -103.5 72.5t-129.5 44.5q-51 10 -109.5 -11.5t-99.5 -64.5 q-98 -109 -163.5 -269.5t-97.5 -336t-28 -347.5zM242 439q-2 83 7 179.5t27 182.5q18 84 47 174t61 160.5t64.5 112.5t57.5 32t37 -71.5t13 -147.5t-7 -184.5t-25 -184.5q-18 -109 -44.5 -201t-56.5 -156.5t-61.5 -95t-58.5 -16.5q-31 14 -45 73.5t-16 142.5zM322 1890 q-18 -35 2 -73q12 -23 23 -39.5t24 -32.5q14 -18 24 -19q10 0 21 19q33 53 70.5 113.5t82.5 123.5q16 -74 28.5 -139t25.5 -110q16 -45 49 -54q20 -8 37.5 -10t33.5 -2q35 -2 27 39q-8 39 -19.5 88t-21.5 104.5t-20.5 111.5t-16.5 108q-4 33 -10 47t-18 33q-14 16 -30 28 t-32 29q-16 12 -28.5 11t-28.5 -23q-33 -41 -66 -88.5t-61.5 -95.5t-54 -92t-41.5 -77z" />
<glyph unicode="&#xd5;" d="M-35 530q4 -172 47 -307q18 -57 53 -102t70 -74q45 -35 99.5 -52.5t105.5 -25.5q78 -12 138.5 9.5t113.5 84.5q76 104 125 249t74.5 301.5t27.5 311t-16 281.5q-12 72 -36 129.5t-71 106.5q-41 43 -103.5 72.5t-129.5 44.5q-51 10 -109.5 -11.5t-99.5 -64.5 q-98 -109 -163.5 -269.5t-97.5 -336t-28 -347.5zM199 1806q0 -57 63 -57q39 0 62 20q2 0 12 10.5t22.5 24t26.5 23.5t27 10q14 0 34.5 -4t41 -11t39 -16.5t28.5 -19.5q41 -41 133 -41q61 0 137 76q80 74 80 133q0 27 -26 47q-23 14 -50 14q-29 0 -57 -28q-4 -6 -14 -18.5 t-21.5 -27t-21.5 -23.5t-17 -9q-39 4 -75.5 30.5t-71.5 40.5q-31 14 -57.5 21.5t-55.5 7.5q-25 0 -59.5 -15.5t-68.5 -38t-61.5 -49t-37.5 -46.5q-12 -29 -12 -54zM242 439q-2 83 7 179.5t27 182.5q18 84 47 174t61 160.5t64.5 112.5t57.5 32t37 -71.5t13 -147.5t-7 -184.5 t-25 -184.5q-18 -109 -44.5 -201t-56.5 -156.5t-61.5 -95t-58.5 -16.5q-31 14 -45 73.5t-16 142.5z" />
<glyph unicode="&#xd6;" d="M-35 530q4 -172 47 -307q18 -57 53 -102t70 -74q45 -35 99.5 -52.5t105.5 -25.5q78 -12 138.5 9.5t113.5 84.5q76 104 125 249t74.5 301.5t27.5 311t-16 281.5q-12 72 -36 129.5t-71 106.5q-41 43 -103.5 72.5t-129.5 44.5q-51 10 -109.5 -11.5t-99.5 -64.5 q-98 -109 -163.5 -269.5t-97.5 -336t-28 -347.5zM205 1853q-4 -70 29.5 -111.5t80.5 -37.5q23 0 41.5 11t31.5 27.5t21.5 35t10.5 32.5q6 18 6 43q0 37 -19.5 72t-60.5 53q-31 12 -55.5 6t-43 -24t-29.5 -47t-13 -60zM242 439q-2 83 7 179.5t27 182.5q18 84 47 174t61 160.5 t64.5 112.5t57.5 32t37 -71.5t13 -147.5t-7 -184.5t-25 -184.5q-18 -109 -44.5 -201t-56.5 -156.5t-61.5 -95t-58.5 -16.5q-31 14 -45 73.5t-16 142.5zM563 1853q-2 -35 6.5 -63.5t23.5 -49t35.5 -30.5t45.5 -8q23 0 41 11t31.5 27.5t20.5 35t11 32.5q2 10 3 20.5t1 24.5 q0 35 -18.5 70t-58.5 53q-31 12 -56.5 6t-44 -24.5t-29 -46t-12.5 -58.5z" />
<glyph unicode="&#xd7;" horiz-adv-x="894" d="M-43 514q4 -37 10 -63.5t13 -57.5q8 -33 19 -35t44 21q59 47 134 102.5t157 114.5q63 -47 118.5 -99.5t110.5 -101.5q20 -20 35.5 -17t32.5 36q14 29 28.5 56.5t26.5 64.5q25 61 -14 102q-43 47 -113 113q35 25 67.5 44t63.5 40q33 16 45.5 33.5t16.5 56.5q6 35 1 75.5 t-16 75.5q-8 27 -30.5 29t-49.5 -14q-57 -31 -128.5 -78t-153.5 -105q-61 53 -121.5 96.5t-108.5 71.5q-20 12 -43.5 13.5t-42.5 -31.5q-16 -33 -33.5 -79t-25.5 -81q-4 -39 2 -55.5t33 -32.5q51 -29 112 -74q-47 -35 -82.5 -65.5t-64.5 -53.5q-49 -47 -43 -102z" />
<glyph unicode="&#xd8;" d="M-35 530q4 -172 47 -307q10 -35 28.5 -66.5t41.5 -56.5q-14 -37 -24.5 -67.5t-16.5 -50.5q-14 -49 -12 -82q4 -37 28 -60q10 -10 5 -6t-12 9t-10 7.5t11 -10.5q31 -23 47.5 -15.5t28.5 44.5q10 29 24.5 65.5t30.5 79.5q39 -18 79 -28.5t79 -16.5q78 -12 138.5 9.5 t113.5 84.5q76 104 125 249t74.5 301.5t27.5 311t-16 281.5q-10 49 -23.5 92t-36.5 80q43 100 72 162q16 37 15.5 62.5t-29.5 60.5q-12 14 -11 17t5 1l4 -2q0 2 -15 15q-59 53 -92 -23q-16 -29 -34.5 -73t-41.5 -97q-35 20 -73.5 33.5t-79.5 24.5q-51 10 -109.5 -11.5 t-99.5 -64.5q-98 -109 -163.5 -269.5t-97.5 -336t-28 -347.5zM242 541q6 133 34 260q18 84 47 174t61 160.5t64.5 112.5t57.5 32q8 -4 14 -12q-66 -166 -139.5 -357.5t-138.5 -369.5zM276 250q61 154 133 328t142 344q-4 -59 -10.5 -118t-16.5 -112q-18 -109 -44.5 -201 t-56.5 -156.5t-61.5 -95t-58.5 -16.5q-16 6 -27 27z" />
<glyph unicode="&#xd9;" horiz-adv-x="923" d="M-40 463.5q1 -152.5 40 -254.5q20 -57 49 -96t62 -68q78 -66 200 -78q61 -6 109.5 7.5t95.5 48.5q66 57 116 178t90 292t70.5 386t59.5 464q6 43 0 66t-41 51q-33 25 -72 50.5t-73.5 38t-58 2t-25.5 -55.5q-12 -102 -29.5 -240.5t-40.5 -284t-49.5 -285.5t-56 -246.5 t-63.5 -167t-71 -46.5q-29 12 -39 70.5t-6 145.5t18.5 195.5t35 220.5t44 220.5t44.5 196.5q23 98 -43 164q-31 29 -64 51t-67 37q-37 16 -56.5 7t-29.5 -54q-37 -158 -73 -337t-56.5 -352.5t-19.5 -326zM178 1991q33 -29 80 -64t101.5 -69.5t112.5 -68.5t114 -58 q45 -25 116 28q0 -2 7.5 6.5t12.5 22.5t3 31.5t-23 33.5q-94 55 -191 121t-171 140q-20 20 -47 19t-68 -30q-23 -14 -33 -41.5t-14 -70.5z" />
<glyph unicode="&#xda;" horiz-adv-x="923" d="M-40 463.5q1 -152.5 40 -254.5q20 -57 49 -96t62 -68q78 -66 200 -78q61 -6 109.5 7.5t95.5 48.5q66 57 116 178t90 292t70.5 386t59.5 464q6 43 0 66t-41 51q-33 25 -72 50.5t-73.5 38t-58 2t-25.5 -55.5q-12 -102 -29.5 -240.5t-40.5 -284t-49.5 -285.5t-56 -246.5 t-63.5 -167t-71 -46.5q-29 12 -39 70.5t-6 145.5t18.5 195.5t35 220.5t44 220.5t44.5 196.5q23 98 -43 164q-31 29 -64 51t-67 37q-37 16 -56.5 7t-29.5 -54q-37 -158 -73 -337t-56.5 -352.5t-19.5 -326zM180.5 1819.5q-2.5 -17.5 2.5 -31.5t12.5 -22.5t7.5 -6.5 q72 -53 116 -28q55 25 114 58.5t113 68t101 69.5t80 64q-4 43 -14.5 70.5t-32.5 41.5q-41 29 -67.5 30t-47.5 -19q-74 -74 -171 -139.5t-191 -121.5q-20 -16 -22.5 -33.5z" />
<glyph unicode="&#xdb;" horiz-adv-x="923" d="M-40 463.5q1 -152.5 40 -254.5q20 -57 49 -96t62 -68q78 -66 200 -78q61 -6 109.5 7.5t95.5 48.5q66 57 116 178t90 292t70.5 386t59.5 464q6 43 0 66t-41 51q-33 25 -72 50.5t-73.5 38t-58 2t-25.5 -55.5q-12 -102 -29.5 -240.5t-40.5 -284t-49.5 -285.5t-56 -246.5 t-63.5 -167t-71 -46.5q-29 12 -39 70.5t-6 145.5t18.5 195.5t35 220.5t44 220.5t44.5 196.5q23 98 -43 164q-31 29 -64 51t-67 37q-37 16 -56.5 7t-29.5 -54q-37 -158 -73 -337t-56.5 -352.5t-19.5 -326zM252 1925q-18 -35 2 -74q12 -23 23.5 -39t23.5 -32q14 -18 25 -19 q10 0 20 19q33 53 71 113.5t83 123.5q16 -74 28.5 -139.5t24.5 -110.5q16 -45 49 -53q20 -8 38 -10t34 -2q35 -2 26 39q-8 39 -19 88t-21.5 104.5t-20.5 111.5t-16 107q-4 33 -10.5 47.5t-18.5 32.5q-14 16 -29.5 28.5t-32.5 29.5q-16 12 -28 11t-29 -24q-33 -41 -65.5 -88 t-61.5 -95t-54.5 -92t-41.5 -77z" />
<glyph unicode="&#xdc;" horiz-adv-x="923" d="M-40 463.5q1 -152.5 40 -254.5q20 -57 49 -96t62 -68q78 -66 200 -78q61 -6 109.5 7.5t95.5 48.5q66 57 116 178t90 292t70.5 386t59.5 464q6 43 0 66t-41 51q-33 25 -72 50.5t-73.5 38t-58 2t-25.5 -55.5q-12 -102 -29.5 -240.5t-40.5 -284t-49.5 -285.5t-56 -246.5 t-63.5 -167t-71 -46.5q-29 12 -39 70.5t-6 145.5t18.5 195.5t35 220.5t44 220.5t44.5 196.5q23 98 -43 164q-31 29 -64 51t-67 37q-37 16 -56.5 7t-29.5 -54q-37 -158 -73 -337t-56.5 -352.5t-19.5 -326zM195 1853q-4 -70 29.5 -111.5t80.5 -37.5q23 0 41.5 11t31.5 27.5 t21.5 35t10.5 32.5q6 18 6 43q0 37 -19.5 72t-60.5 53q-31 12 -55.5 6t-43 -24t-29.5 -47t-13 -60zM553 1853q-2 -35 6 -63.5t23.5 -49t36 -30.5t45.5 -8q23 0 41 11t31.5 27.5t20.5 35t11 32.5q2 10 3 20.5t1 24.5q0 35 -18.5 70t-59.5 53q-31 12 -56.5 6t-44 -24.5 t-28.5 -46t-12 -58.5z" />
<glyph unicode="&#xdd;" horiz-adv-x="888" d="M-4 1537.5q-6 -15.5 4 -58.5q18 -90 42 -200t50.5 -226.5t53 -234.5t51.5 -228q-16 -129 -27.5 -240.5t-22.5 -197.5q-4 -53 5.5 -81t37.5 -57q29 -18 65 -35.5t69 -31.5q35 -12 47 -3t20 50q14 111 30.5 226.5t39.5 244.5q55 117 112.5 241.5t107.5 239.5t89 212.5 t57 160.5q16 51 14.5 79.5t-24.5 63.5q-20 25 -48 53.5t-55.5 47t-51 16.5t-33.5 -41q-59 -147 -123 -297.5t-129 -298.5q-33 147 -62.5 276.5t-56.5 227.5q-16 51 -32.5 75.5t-51.5 35t-69.5 8.5t-69.5 -6q-33 -6 -39 -21.5zM180.5 1819.5q-2.5 -17.5 2.5 -31.5t12.5 -22.5 t7.5 -6.5q72 -53 116 -28q55 25 114 58.5t113 68t101 69.5t80 64q-4 43 -14.5 70.5t-32.5 41.5q-41 29 -67.5 30t-47.5 -19q-74 -74 -171 -139.5t-191 -121.5q-20 -16 -22.5 -33.5z" />
<glyph unicode="&#xde;" horiz-adv-x="897" d="M-82 170q-4 -53 5 -83t40 -52q29 -23 61.5 -37t67.5 -29q35 -12 47.5 -2t18.5 45q4 35 9 72t11 76q78 31 157 73.5t150.5 95t132 112t101.5 120.5q49 74 78.5 157t7 187.5t-60 176t-80.5 130.5q-55 68 -136.5 76t-173.5 -20q4 16 7.5 30.5t7.5 30.5q8 43 1 66.5t-42 52.5 q-33 29 -76 54.5t-80 37.5q-37 14 -55.5 4t-28.5 -55q-14 -76 -31.5 -184.5t-35 -231.5t-34 -254t-30.5 -252t-24.5 -224t-14.5 -173zM236 512q20 113 38.5 214t38.5 194q45 27 89 40t79 14t57.5 -9.5t26.5 -30.5q10 -37 -6 -92.5t-58 -114.5t-108.5 -116.5t-156.5 -98.5z " />
<glyph unicode="&#xdf;" horiz-adv-x="1396" d="M-58 795.5q5 -23.5 15 -43.5q12 -23 31.5 -50.5t36.5 -44.5q10 -16 24 -21t51 5q25 8 62 16.5t79 16.5t81.5 14t70.5 8q18 4 23.5 12.5t-0.5 30.5q-4 18 -14.5 43t-20.5 43q-20 41 -55 39q-27 -2 -62.5 -5t-70.5 -11q37 39 74.5 87t71.5 98t61.5 99.5t45.5 94.5 q31 74 40.5 140.5t-25.5 139.5q-12 25 -33.5 50.5t-49.5 44t-60.5 26.5t-69.5 0q-61 -16 -114.5 -70.5t-90.5 -136.5q-23 -53 -18.5 -74.5t24.5 -31.5q35 -16 75 -15.5t71 31.5q18 27 37.5 50.5t37 39t31.5 21.5t25 -4q14 -12 -15.5 -81t-86 -159t-128 -187.5t-139.5 -168.5 q-20 -23 -15 -46.5zM166 176.5q2 -16.5 12 -33.5q6 -12 7 -9t1 7t2 4q4 0 15 -14q23 -29 40 -28t40 36q49 66 122.5 162t159.5 206.5t178.5 227.5t178.5 224.5t159.5 197.5t120.5 146q27 31 33 55t-12 67q-8 18 -11.5 22.5t-5.5 4.5t-6 2t-14 19q-41 66 -96 4 q-51 -55 -126 -149.5t-161 -209t-177 -239.5t-173 -240t-148.5 -209t-103.5 -147q-29 -41 -35 -74q-2 -16 0 -32.5zM793 164q0 -20 34 -62q55 -72 112.5 -98.5t111.5 -26.5q68 0 124 30t97 108q37 70 32.5 153.5t-67.5 155.5q-16 18 -34 28.5t-38 18.5q37 23 67 47.5 t52 52.5q18 23 29.5 55.5t12.5 71.5t-11 83t-39 87q-27 39 -53.5 59.5t-51 28t-47 5t-41.5 -8.5q-53 -16 -99 -58t-73 -85q-20 -33 7 -66q12 -14 31.5 -24t41 -13.5t42 1t34.5 20.5q23 16 46.5 33.5t41.5 17.5q12 0 19 -12q18 -29 -39.5 -93.5t-208.5 -131.5 q-31 -14 -13 -62q25 -53 60 -80.5t71 -19.5q29 4 46.5 2t34 -20.5t16.5 -63.5t-31 -92q-33 -47 -77 -53.5t-113 45.5q-25 16 -55.5 20t-57.5 -18q-14 -12 -14 -35z" />
<glyph unicode="&#xe0;" horiz-adv-x="980" d="M-106 129q0 -25 6 -41t17 -27.5t28 -27.5q20 -16 41.5 -29.5t38.5 -23.5q31 -16 46 -10.5t27 40.5q20 66 42 134.5t50 146.5q76 29 175.5 49.5t197.5 40.5q4 -80 10.5 -149.5t12.5 -129.5q6 -57 19 -79.5t46 -36.5q33 -16 63.5 -19.5t65.5 -3.5t45.5 14.5t8.5 51.5 q-8 172 -15.5 361.5t-12.5 371.5t-6 345t1 279q2 47 -9.5 77t-50.5 46q-53 20 -112.5 41t-155.5 27q-55 6 -84 -20.5t-47 -69.5q-51 -123 -112.5 -290t-121 -344t-113.5 -348t-91 -306q-10 -43 -10 -70zM268 2001q33 -29 80 -63.5t101.5 -69.5t113 -69t113.5 -58 q45 -25 117 28q0 -2 7 6.5t12 22.5t3 31.5t-22 34.5q-94 55 -191.5 120.5t-171.5 139.5q-20 20 -47 19t-68 -29q-23 -14 -33 -42t-14 -71zM311 647q59 174 117.5 328.5t106.5 277.5q0 -135 4 -278.5t8 -290.5q-119 -12 -236 -37z" />
<glyph unicode="&#xe1;" horiz-adv-x="980" d="M-106 129q0 -25 6 -41t17 -27.5t28 -27.5q20 -16 41.5 -29.5t38.5 -23.5q31 -16 46 -10.5t27 40.5q20 66 42 134.5t50 146.5q76 29 175.5 49.5t197.5 40.5q4 -80 10.5 -149.5t12.5 -129.5q6 -57 19 -79.5t46 -36.5q33 -16 63.5 -19.5t65.5 -3.5t45.5 14.5t8.5 51.5 q-8 172 -15.5 361.5t-12.5 371.5t-6 345t1 279q2 47 -9.5 77t-50.5 46q-53 20 -112.5 41t-155.5 27q-55 6 -84 -20.5t-47 -69.5q-51 -123 -112.5 -290t-121 -344t-113.5 -348t-91 -306q-10 -43 -10 -70zM301.5 1819.5q-2.5 -17.5 2.5 -31.5t12.5 -22.5t7.5 -6.5 q72 -53 116 -28q55 25 113.5 58.5t113 68t101.5 69.5t80 64q-4 43 -14.5 70.5t-32.5 41.5q-41 29 -67.5 30t-47.5 -19q-74 -74 -171 -139.5t-191 -121.5q-20 -16 -22.5 -33.5zM311 647q59 174 117.5 328.5t106.5 277.5q0 -135 4 -278.5t8 -290.5q-119 -12 -236 -37z" />
<glyph unicode="&#xe2;" horiz-adv-x="980" d="M-106 129q0 -25 6 -41t17 -27.5t28 -27.5q20 -16 41.5 -29.5t38.5 -23.5q31 -16 46 -10.5t27 40.5q20 66 42 134.5t50 146.5q76 29 175.5 49.5t197.5 40.5q4 -80 10.5 -149.5t12.5 -129.5q6 -57 19 -79.5t46 -36.5q33 -16 63.5 -19.5t65.5 -3.5t45.5 14.5t8.5 51.5 q-8 172 -15.5 361.5t-12.5 371.5t-6 345t1 279q2 47 -9.5 77t-50.5 46q-53 20 -112.5 41t-155.5 27q-55 6 -84 -20.5t-47 -69.5q-51 -123 -112.5 -290t-121 -344t-113.5 -348t-91 -306q-10 -43 -10 -70zM311 647q59 174 117.5 328.5t106.5 277.5q0 -135 4 -278.5t8 -290.5 q-119 -12 -236 -37zM365 1931q-18 -35 2 -73q12 -23 23 -39.5t24 -32.5q14 -18 24 -19q10 0 21 19q33 53 70.5 113.5t82.5 123.5q16 -74 28.5 -139t25.5 -110q16 -45 49 -54q20 -8 37.5 -10t33.5 -2q35 -2 27 39q-8 39 -19.5 88t-21.5 104.5t-20.5 111.5t-16.5 108 q-4 33 -10 47t-18 32q-14 16 -29.5 28.5t-32.5 29.5q-16 12 -28.5 11t-28.5 -23q-33 -41 -66 -88.5t-61.5 -95.5t-54 -92t-41.5 -77z" />
<glyph unicode="&#xe3;" horiz-adv-x="980" d="M-106 129q0 -25 6 -41t17 -27.5t28 -27.5q20 -16 41.5 -29.5t38.5 -23.5q31 -16 46 -10.5t27 40.5q20 66 42 134.5t50 146.5q76 29 175.5 49.5t197.5 40.5q4 -80 10.5 -149.5t12.5 -129.5q6 -57 19 -79.5t46 -36.5q33 -16 63.5 -19.5t65.5 -3.5t45.5 14.5t8.5 51.5 q-8 172 -15.5 361.5t-12.5 371.5t-6 345t1 279q2 47 -9.5 77t-50.5 46q-53 20 -112.5 41t-155.5 27q-55 6 -84 -20.5t-47 -69.5q-51 -123 -112.5 -290t-121 -344t-113.5 -348t-91 -306q-10 -43 -10 -70zM199 1806q0 -57 63 -57q39 0 62 20q2 0 12 10.5t22.5 24t26.5 23.5 t27 10q14 0 34.5 -4t41 -11t39 -16.5t28.5 -19.5q41 -41 133 -41q61 0 137 76q80 74 80 133q0 27 -26 47q-23 14 -50 14q-29 0 -57 -28q-4 -6 -14 -18.5t-21.5 -27t-21.5 -23.5t-17 -9q-39 4 -75.5 30.5t-71.5 40.5q-31 14 -57.5 21.5t-55.5 7.5q-25 0 -59.5 -15.5 t-68.5 -38t-61.5 -49t-37.5 -46.5q-12 -29 -12 -54zM311 647q59 174 117.5 328.5t106.5 277.5q0 -135 4 -278.5t8 -290.5q-119 -12 -236 -37z" />
<glyph unicode="&#xe4;" horiz-adv-x="980" d="M-106 129q0 -25 6 -41t17 -27.5t28 -27.5q20 -16 41.5 -29.5t38.5 -23.5q31 -16 46 -10.5t27 40.5q20 66 42 134.5t50 146.5q76 29 175.5 49.5t197.5 40.5q4 -80 10.5 -149.5t12.5 -129.5q6 -57 19 -79.5t46 -36.5q33 -16 63.5 -19.5t65.5 -3.5t45.5 14.5t8.5 51.5 q-8 172 -15.5 361.5t-12.5 371.5t-6 345t1 279q2 47 -9.5 77t-50.5 46q-53 20 -112.5 41t-155.5 27q-55 6 -84 -20.5t-47 -69.5q-51 -123 -112.5 -290t-121 -344t-113.5 -348t-91 -306q-10 -43 -10 -70zM283 1864q-4 -70 29.5 -112t80.5 -38q23 0 41.5 11.5t31.5 27.5 t21.5 34.5t10.5 33.5q6 18 6 43q0 37 -19.5 71.5t-60.5 53.5q-31 12 -55.5 6t-43 -24.5t-29.5 -47t-13 -59.5zM311 647q59 174 117.5 328.5t106.5 277.5q0 -135 4 -278.5t8 -290.5q-119 -12 -236 -37zM641 1864q-2 -35 6 -63.5t23.5 -49t36 -31t45.5 -8.5q23 0 41 11.5 t31.5 27.5t20.5 34.5t11 33.5q2 10 3 20t1 25q0 35 -18.5 69.5t-59.5 53.5q-31 12 -56.5 6t-43.5 -24.5t-28.5 -46t-12.5 -58.5z" />
<glyph unicode="&#xe5;" horiz-adv-x="980" d="M-106 129q0 -25 6 -41t17 -27.5t28 -27.5q20 -16 41.5 -29.5t38.5 -23.5q31 -16 46 -10.5t27 40.5q20 66 42 134.5t50 146.5q76 29 175.5 49.5t197.5 40.5q4 -80 10.5 -149.5t12.5 -129.5q6 -57 19 -79.5t46 -36.5q33 -16 63.5 -19.5t65.5 -3.5t45.5 14.5t8.5 51.5 q-8 172 -15.5 361.5t-12.5 371.5t-6 345t1 279q2 47 -9.5 77t-50.5 46q-53 20 -112.5 41t-155.5 27q-55 6 -84 -20.5t-47 -69.5q-51 -123 -112.5 -290t-121 -344t-113.5 -348t-91 -306q-10 -43 -10 -70zM311 647q59 174 117.5 328.5t106.5 277.5q0 -135 4 -278.5t8 -290.5 q-119 -12 -236 -37zM375 1834q2 -54 26 -95q10 -18 29 -32.5t37 -23.5q25 -12 54.5 -17t58.5 -7q82 -8 137 29q41 33 68.5 78.5t41 95t15.5 97.5t-8 89q-8 23 -20.5 40.5t-39.5 33.5q-51 27 -127 37q-29 4 -60.5 -3.5t-54.5 -21.5q-53 -35 -88.5 -85t-53 -105.5 t-15.5 -109.5zM525 1805.5q-1 25.5 4.5 56t15.5 57.5t25.5 55.5t33 51t35 35t31.5 10.5q14 -4 20 -22.5t7 -46.5t-4 -58.5t-13 -57.5q-20 -70 -55 -113.5t-66 -33.5q-16 4 -24.5 22.5t-9.5 44z" />
<glyph unicode="&#xe6;" horiz-adv-x="1441" d="M-94 90q4 -16 14 -27.5t23 -27.5q18 -16 37.5 -29.5t33.5 -23.5q31 -16 47.5 -10.5t32.5 40.5q29 66 60.5 134.5t72.5 146.5q78 29 181.5 48t201.5 40q-6 -66 -13 -109t-12 -73.5t-8.5 -52t-3.5 -44.5q-4 -57 17.5 -78.5t54.5 -35.5q8 -8 37 -11.5t61 -3.5q33 0 64 2 t45 7q82 23 172 49t176 51q35 10 42 25.5t-1 56.5q-10 37 -20.5 71.5t-26.5 73.5q-14 35 -35.5 47.5t-56.5 8.5q-66 -6 -123 -15.5t-117 -25.5q0 8 1 14t1 14q18 92 37 197q76 23 157 42t159 40q35 10 43 24.5t-3 57.5q-8 37 -17 71.5t-26 71.5q-14 35 -34.5 46t-55.5 9 q-41 -2 -78.5 -5t-76.5 -11q20 92 36.5 176t32.5 160q86 16 165 28.5t151 22.5q35 6 44 21.5t3 58.5q-8 37 -15.5 67.5t-23.5 69.5q-20 72 -88 70q-92 -4 -164 -21.5t-137 -40.5q-2 2 -4 2t-4 2q-51 20 -107.5 41t-152.5 27q-53 6 -86 -20.5t-58 -69.5q-70 -123 -156 -290 t-173 -344t-166.5 -348t-137.5 -306q-16 -43 -21 -69t-1 -42zM401 649q86 174 168 329t150 277q-20 -135 -38.5 -278t-35.5 -291q-61 -6 -121 -15.5t-123 -21.5z" />
<glyph unicode="&#xe7;" horiz-adv-x="876" d="M-62.5 609q-7.5 -122 3 -230.5t41.5 -192.5q18 -57 54 -100t70 -66q6 -4 23 -12q-18 -51 -37.5 -106.5t-38 -107.5t-35 -99t-28.5 -82q-25 -63 35 -80q25 -4 48 -7t46 1q47 4 80 57q16 27 36.5 68t41 88t37 95t26.5 89q0 4 1 9.5t1 9.5q57 0 110.5 22.5t88.5 57.5 q37 41 73.5 102t59.5 133q20 61 17 102t-54 62q-125 51 -203 -66q-106 -168 -162 -139q-29 12 -42 65.5t-15 132.5t7 173t28 186q18 86 49 182.5t65.5 176t67.5 129t57 38.5q25 -12 30 -56t5 -97q0 -16 1 -32.5t3 -33.5q12 -86 49 -136t119 -73q43 -12 53.5 5.5t18.5 46.5 q12 61 16 151t0 166q-4 66 -21.5 117t-66.5 102q-47 41 -117.5 77t-138.5 44q-45 4 -96 -12.5t-102 -73.5q-63 -74 -116.5 -175t-92.5 -219t-63.5 -244t-32 -248z" />
<glyph unicode="&#xe8;" horiz-adv-x="788" d="M-63 270q-4 -53 7 -92t33 -67q27 -37 47.5 -60.5t43.5 -46.5q20 -20 47.5 -31.5t83.5 9.5q82 23 172 49t176 51q35 10 42 25.5t-1 56.5q-10 37 -20.5 71.5t-26.5 73.5q-14 35 -36 47.5t-56 8.5q-66 -6 -123.5 -15.5t-118.5 -25.5q10 53 20.5 109t20.5 116q76 23 156.5 42 t158.5 40q35 10 43 24.5t-2 57.5q-8 37 -17 71.5t-26 71.5q-14 35 -34.5 46t-55.5 9q-41 -2 -79 -5t-77 -11q20 92 37 176t33 160q86 16 165 28.5t150 22.5q35 6 44.5 21.5t3.5 58.5q-8 37 -15.5 67.5t-23.5 69.5q-20 72 -88 70q-143 -8 -284 -43t-245 -72zM178 1991 q33 -29 80 -64t101.5 -69.5t112.5 -68.5t114 -58q45 -25 116 28q0 -2 7.5 6.5t12.5 22.5t3 31.5t-23 33.5q-94 55 -191 121t-171 140q-20 20 -47 19t-68 -30q-23 -14 -33 -41.5t-14 -70.5z" />
<glyph unicode="&#xe9;" horiz-adv-x="788" d="M-63 270q-4 -53 7 -92t33 -67q27 -37 47.5 -60.5t43.5 -46.5q20 -20 47.5 -31.5t83.5 9.5q82 23 172 49t176 51q35 10 42 25.5t-1 56.5q-10 37 -20.5 71.5t-26.5 73.5q-14 35 -36 47.5t-56 8.5q-66 -6 -123.5 -15.5t-118.5 -25.5q10 53 20.5 109t20.5 116q76 23 156.5 42 t158.5 40q35 10 43 24.5t-2 57.5q-8 37 -17 71.5t-26 71.5q-14 35 -34.5 46t-55.5 9q-41 -2 -79 -5t-77 -11q20 92 37 176t33 160q86 16 165 28.5t150 22.5q35 6 44.5 21.5t3.5 58.5q-8 37 -15.5 67.5t-23.5 69.5q-20 72 -88 70q-143 -8 -284 -43t-245 -72zM180.5 1819.5 q-2.5 -17.5 2.5 -31.5t12.5 -22.5t7.5 -6.5q72 -53 116 -28q55 25 114 58.5t113 68t101 69.5t80 64q-4 43 -14.5 70.5t-32.5 41.5q-41 29 -67.5 30t-47.5 -19q-74 -74 -171 -139.5t-191 -121.5q-20 -16 -22.5 -33.5z" />
<glyph unicode="&#xea;" horiz-adv-x="788" d="M-63 270q-4 -53 7 -92t33 -67q27 -37 47.5 -60.5t43.5 -46.5q20 -20 47.5 -31.5t83.5 9.5q82 23 172 49t176 51q35 10 42 25.5t-1 56.5q-10 37 -20.5 71.5t-26.5 73.5q-14 35 -36 47.5t-56 8.5q-66 -6 -123.5 -15.5t-118.5 -25.5q10 53 20.5 109t20.5 116q76 23 156.5 42 t158.5 40q35 10 43 24.5t-2 57.5q-8 37 -17 71.5t-26 71.5q-14 35 -34.5 46t-55.5 9q-41 -2 -79 -5t-77 -11q20 92 37 176t33 160q86 16 165 28.5t150 22.5q35 6 44.5 21.5t3.5 58.5q-8 37 -15.5 67.5t-23.5 69.5q-20 72 -88 70q-143 -8 -284 -43t-245 -72zM252 1925 q-18 -35 2 -74q12 -23 23.5 -39t23.5 -32q14 -18 25 -19q10 0 20 19q33 53 71 113.5t83 123.5q16 -74 28.5 -139.5t24.5 -110.5q16 -45 49 -53q20 -8 38 -10t34 -2q35 -2 26 39q-8 39 -19 88t-21.5 104.5t-20.5 111.5t-16 107q-4 33 -10.5 47.5t-18.5 32.5 q-14 16 -29.5 28.5t-32.5 29.5q-16 12 -28 11t-29 -24q-33 -41 -65.5 -88t-61.5 -95t-54.5 -92t-41.5 -77z" />
<glyph unicode="&#xeb;" horiz-adv-x="788" d="M-63 270q-4 -53 7 -92t33 -67q27 -37 47.5 -60.5t43.5 -46.5q20 -20 47.5 -31.5t83.5 9.5q82 23 172 49t176 51q35 10 42 25.5t-1 56.5q-10 37 -20.5 71.5t-26.5 73.5q-14 35 -36 47.5t-56 8.5q-66 -6 -123.5 -15.5t-118.5 -25.5q10 53 20.5 109t20.5 116q76 23 156.5 42 t158.5 40q35 10 43 24.5t-2 57.5q-8 37 -17 71.5t-26 71.5q-14 35 -34.5 46t-55.5 9q-41 -2 -79 -5t-77 -11q20 92 37 176t33 160q86 16 165 28.5t150 22.5q35 6 44.5 21.5t3.5 58.5q-8 37 -15.5 67.5t-23.5 69.5q-20 72 -88 70q-143 -8 -284 -43t-245 -72zM135 1853 q-4 -70 30 -111.5t81 -37.5q23 0 41 11t31.5 27.5t21.5 35t10 32.5q6 18 6 43q0 37 -19.5 72t-60.5 53q-31 12 -55 6t-42.5 -24t-30 -47t-13.5 -60zM494 1853q-2 -35 6 -63.5t23.5 -49t36 -30.5t44.5 -8q23 0 41.5 11t31.5 27.5t20.5 35t11.5 32.5q2 10 3 20.5t1 24.5 q0 35 -18.5 70t-59.5 53q-31 12 -56.5 6t-44 -24.5t-28.5 -46t-12 -58.5z" />
<glyph unicode="&#xec;" horiz-adv-x="425" d="M-82 170q-4 -53 5 -83t40 -52q29 -23 61.5 -37t67.5 -29q35 -12 47.5 -2t18.5 45q12 90 27.5 202t34 232.5t37.5 245.5t38.5 241t38 218t35.5 178q8 43 1 66.5t-42 52.5q-33 29 -76 54.5t-80 37.5q-37 14 -55.5 4t-28.5 -55q-14 -76 -31.5 -184.5t-35 -231.5t-34 -254 t-30.5 -252t-24.5 -224t-14.5 -173zM-59 2034q33 -29 80 -64t101 -69.5t112.5 -68.5t113.5 -58q45 -25 117 28q0 -2 7 6.5t12 22.5t3 31.5t-22 33.5q-94 55 -191.5 121t-171.5 140q-20 20 -46.5 19t-67.5 -30q-23 -14 -33 -41.5t-14 -70.5z" />
<glyph unicode="&#xed;" horiz-adv-x="425" d="M-82 170q-4 -53 5 -83t40 -52q29 -23 61.5 -37t67.5 -29q35 -12 47.5 -2t18.5 45q12 90 27.5 202t34 232.5t37.5 245.5t38.5 241t38 218t35.5 178q8 43 1 66.5t-42 52.5q-33 29 -76 54.5t-80 37.5q-37 14 -55.5 4t-28.5 -55q-14 -76 -31.5 -184.5t-35 -231.5t-34 -254 t-30.5 -252t-24.5 -224t-14.5 -173zM31 1824q-2 -18 3 -32t12 -22.5t7 -6.5q72 -53 117 -28q55 25 113.5 58.5t113 68t101.5 69.5t80 64q-4 43 -14.5 70.5t-33.5 41.5q-41 29 -67.5 30t-46.5 -19q-74 -74 -171.5 -139.5t-191.5 -120.5q-20 -16 -22 -34z" />
<glyph unicode="&#xee;" horiz-adv-x="425" d="M-82 170q-4 -53 5 -83t40 -52q29 -23 61.5 -37t67.5 -29q35 -12 47.5 -2t18.5 45q12 90 27.5 202t34 232.5t37.5 245.5t38.5 241t38 218t35.5 178q8 43 1 66.5t-42 52.5q-33 29 -76 54.5t-80 37.5q-37 14 -55.5 4t-28.5 -55q-14 -76 -31.5 -184.5t-35 -231.5t-34 -254 t-30.5 -252t-24.5 -224t-14.5 -173zM53 1915q-18 -35 2 -74q12 -23 23.5 -39t23.5 -33q14 -18 25 -18q10 0 20 18q33 53 71 114t83 124q16 -74 28.5 -139.5t24.5 -110.5q16 -45 49 -53q20 -8 38 -10t34 -2q35 -2 27 39q-8 39 -19.5 88t-21.5 104t-20.5 111.5t-16.5 107.5 q-4 33 -10 47.5t-19 32.5q-14 16 -29.5 28.5t-31.5 28.5q-16 12 -28.5 11.5t-29.5 -23.5q-33 -41 -65.5 -88t-61 -95t-54 -92t-42.5 -77z" />
<glyph unicode="&#xef;" horiz-adv-x="425" d="M-82 170q-4 -53 5 -83t40 -52q29 -23 61.5 -37t67.5 -29q35 -12 47.5 -2t18.5 45q12 90 27.5 202t34 232.5t37.5 245.5t38.5 241t38 218t35.5 178q8 43 1 66.5t-42 52.5q-33 29 -76 54.5t-80 37.5q-37 14 -55.5 4t-28.5 -55q-14 -76 -31.5 -184.5t-35 -231.5t-34 -254 t-30.5 -252t-24.5 -224t-14.5 -173zM-39 1853q-4 -70 30 -111.5t81 -37.5q23 0 41 11t31.5 27.5t21.5 35t10 32.5q6 18 6 43q0 37 -19.5 72t-60.5 53q-31 12 -55 6t-42.5 -24t-30 -47t-13.5 -60zM319 1853q-2 -35 6.5 -63.5t24 -49t36 -30.5t44.5 -8q23 0 41 11t31.5 27.5 t20.5 35t12 32.5q2 10 3 20.5t1 24.5q0 35 -18.5 70t-59.5 53q-31 12 -56.5 6t-44 -24.5t-29 -46t-12.5 -58.5z" />
<glyph unicode="&#xf0;" horiz-adv-x="835" d="M-117 420q-6 -82 2.5 -151.5t28.5 -118.5q14 -31 35.5 -59t55.5 -48t82 -30.5t118 -10.5q135 12 218 83t144 206q31 68 59.5 158t49 199.5t29 232.5t-2.5 256q25 4 49.5 5t49.5 5q33 2 41 16.5t-6 59.5q-6 18 -8.5 22t-3.5 7t-4 9.5t-13 28.5q-39 76 -94 76h-25 q-10 0 -22 -2q-10 53 -25 100q-14 41 -26.5 56.5t-51.5 23.5q-41 4 -95 6t-87 -4q-41 -10 -56.5 -29.5t-2.5 -64.5q18 -61 30 -123q-35 -8 -64.5 -14.5t-54.5 -14.5q-59 -16 -20 -110q8 -20 12 -25.5t8.5 -8.5t11.5 -8t19 -26q27 -43 49.5 -55t48.5 -2q8 2 29 10 q6 -74 6 -149q-63 31 -135 24q-115 -8 -177 -60t-105 -134t-67 -168t-30 -168zM154 471q10 98 38.5 166t71.5 72q41 4 72 -50.5t31 -142.5q-27 -125 -60 -199.5t-74 -83.5q-49 -10 -71.5 55.5t-7.5 182.5z" />
<glyph unicode="&#xf1;" horiz-adv-x="958" d="M-80 180q-6 -53 3 -82.5t38 -52.5q29 -29 62.5 -42t66.5 -26q35 -14 48.5 -4.5t17.5 43.5q8 74 21 170.5t28.5 205t33 226t33.5 232.5q16 -96 35 -192.5t37 -187.5t37.5 -171t38.5 -141q25 -88 84 -123q33 -16 64.5 -29.5t64.5 -23.5q74 -25 80 53q18 141 41.5 316 t48 353.5t50.5 345.5t48 291q8 43 2 73t-41 59q-43 35 -67.5 47t-61.5 24t-56.5 1t-27.5 -56q-31 -174 -64.5 -392t-56.5 -454q-14 92 -28.5 191.5t-27.5 190.5t-23.5 168t-16.5 124q-8 61 -23.5 93t-52.5 52q-45 29 -87 47.5t-85 34.5q-35 12 -57.5 0t-32.5 -59 q-16 -86 -34.5 -201t-36 -243t-35 -258t-30.5 -246.5t-23.5 -210t-14.5 -146.5zM199 1806q0 -57 63 -57q39 0 62 20q2 0 12 10.5t22.5 24t26.5 23.5t27 10q14 0 34.5 -4t41 -11t39 -16.5t28.5 -19.5q41 -41 133 -41q61 0 137 76q80 74 80 133q0 27 -26 47q-23 14 -50 14 q-29 0 -57 -28q-4 -6 -14 -18.5t-21.5 -27t-21.5 -23.5t-17 -9q-39 4 -75.5 30.5t-71.5 40.5q-31 14 -57.5 21.5t-55.5 7.5q-25 0 -59.5 -15.5t-68.5 -38t-61.5 -49t-37.5 -46.5q-12 -29 -12 -54z" />
<glyph unicode="&#xf2;" d="M-35 530q4 -172 47 -307q18 -57 53 -102t70 -74q45 -35 99.5 -52.5t105.5 -25.5q78 -12 138.5 9.5t113.5 84.5q76 104 125 249t74.5 301.5t27.5 311t-16 281.5q-12 72 -36 129.5t-71 106.5q-41 43 -103.5 72.5t-129.5 44.5q-51 10 -109.5 -11.5t-99.5 -64.5 q-98 -109 -163.5 -269.5t-97.5 -336t-28 -347.5zM178 1991q33 -29 80 -64t101.5 -69.5t112.5 -68.5t114 -58q45 -25 116 28q0 -2 7.5 6.5t12.5 22.5t3 31.5t-23 33.5q-94 55 -191 121t-171 140q-20 20 -47 19t-68 -30q-23 -14 -33 -41.5t-14 -70.5zM242 439q-2 83 7 179.5 t27 182.5q18 84 47 174t61 160.5t64.5 112.5t57.5 32t37 -71.5t13 -147.5t-7 -184.5t-25 -184.5q-18 -109 -44.5 -201t-56.5 -156.5t-61.5 -95t-58.5 -16.5q-31 14 -45 73.5t-16 142.5z" />
<glyph unicode="&#xf3;" d="M-35 530q4 -172 47 -307q18 -57 53 -102t70 -74q45 -35 99.5 -52.5t105.5 -25.5q78 -12 138.5 9.5t113.5 84.5q76 104 125 249t74.5 301.5t27.5 311t-16 281.5q-12 72 -36 129.5t-71 106.5q-41 43 -103.5 72.5t-129.5 44.5q-51 10 -109.5 -11.5t-99.5 -64.5 q-98 -109 -163.5 -269.5t-97.5 -336t-28 -347.5zM180.5 1819.5q-2.5 -17.5 2.5 -31.5t12.5 -22.5t7.5 -6.5q72 -53 116 -28q55 25 114 58.5t113 68t101 69.5t80 64q-4 43 -14.5 70.5t-32.5 41.5q-41 29 -67.5 30t-47.5 -19q-74 -74 -171 -139.5t-191 -121.5 q-20 -16 -22.5 -33.5zM242 439q-2 83 7 179.5t27 182.5q18 84 47 174t61 160.5t64.5 112.5t57.5 32t37 -71.5t13 -147.5t-7 -184.5t-25 -184.5q-18 -109 -44.5 -201t-56.5 -156.5t-61.5 -95t-58.5 -16.5q-31 14 -45 73.5t-16 142.5z" />
<glyph unicode="&#xf4;" d="M-35 530q4 -172 47 -307q18 -57 53 -102t70 -74q45 -35 99.5 -52.5t105.5 -25.5q78 -12 138.5 9.5t113.5 84.5q76 104 125 249t74.5 301.5t27.5 311t-16 281.5q-12 72 -36 129.5t-71 106.5q-41 43 -103.5 72.5t-129.5 44.5q-51 10 -109.5 -11.5t-99.5 -64.5 q-98 -109 -163.5 -269.5t-97.5 -336t-28 -347.5zM242 439q-2 83 7 179.5t27 182.5q18 84 47 174t61 160.5t64.5 112.5t57.5 32t37 -71.5t13 -147.5t-7 -184.5t-25 -184.5q-18 -109 -44.5 -201t-56.5 -156.5t-61.5 -95t-58.5 -16.5q-31 14 -45 73.5t-16 142.5zM322 1890 q-18 -35 2 -73q12 -23 23 -39.5t24 -32.5q14 -18 24 -19q10 0 21 19q33 53 70.5 113.5t82.5 123.5q16 -74 28.5 -139t25.5 -110q16 -45 49 -54q20 -8 37.5 -10t33.5 -2q35 -2 27 39q-8 39 -19.5 88t-21.5 104.5t-20.5 111.5t-16.5 108q-4 33 -10 47t-18 33q-14 16 -30 28 t-32 29q-16 12 -28.5 11t-28.5 -23q-33 -41 -66 -88.5t-61.5 -95.5t-54 -92t-41.5 -77z" />
<glyph unicode="&#xf5;" d="M-35 530q4 -172 47 -307q18 -57 53 -102t70 -74q45 -35 99.5 -52.5t105.5 -25.5q78 -12 138.5 9.5t113.5 84.5q76 104 125 249t74.5 301.5t27.5 311t-16 281.5q-12 72 -36 129.5t-71 106.5q-41 43 -103.5 72.5t-129.5 44.5q-51 10 -109.5 -11.5t-99.5 -64.5 q-98 -109 -163.5 -269.5t-97.5 -336t-28 -347.5zM199 1806q0 -57 63 -57q39 0 62 20q2 0 12 10.5t22.5 24t26.5 23.5t27 10q14 0 34.5 -4t41 -11t39 -16.5t28.5 -19.5q41 -41 133 -41q61 0 137 76q80 74 80 133q0 27 -26 47q-23 14 -50 14q-29 0 -57 -28q-4 -6 -14 -18.5 t-21.5 -27t-21.5 -23.5t-17 -9q-39 4 -75.5 30.5t-71.5 40.5q-31 14 -57.5 21.5t-55.5 7.5q-25 0 -59.5 -15.5t-68.5 -38t-61.5 -49t-37.5 -46.5q-12 -29 -12 -54zM242 439q-2 83 7 179.5t27 182.5q18 84 47 174t61 160.5t64.5 112.5t57.5 32t37 -71.5t13 -147.5t-7 -184.5 t-25 -184.5q-18 -109 -44.5 -201t-56.5 -156.5t-61.5 -95t-58.5 -16.5q-31 14 -45 73.5t-16 142.5z" />
<glyph unicode="&#xf6;" d="M-35 530q4 -172 47 -307q18 -57 53 -102t70 -74q45 -35 99.5 -52.5t105.5 -25.5q78 -12 138.5 9.5t113.5 84.5q76 104 125 249t74.5 301.5t27.5 311t-16 281.5q-12 72 -36 129.5t-71 106.5q-41 43 -103.5 72.5t-129.5 44.5q-51 10 -109.5 -11.5t-99.5 -64.5 q-98 -109 -163.5 -269.5t-97.5 -336t-28 -347.5zM205 1853q-4 -70 29.5 -111.5t80.5 -37.5q23 0 41.5 11t31.5 27.5t21.5 35t10.5 32.5q6 18 6 43q0 37 -19.5 72t-60.5 53q-31 12 -55.5 6t-43 -24t-29.5 -47t-13 -60zM242 439q-2 83 7 179.5t27 182.5q18 84 47 174t61 160.5 t64.5 112.5t57.5 32t37 -71.5t13 -147.5t-7 -184.5t-25 -184.5q-18 -109 -44.5 -201t-56.5 -156.5t-61.5 -95t-58.5 -16.5q-31 14 -45 73.5t-16 142.5zM563 1853q-2 -35 6.5 -63.5t23.5 -49t35.5 -30.5t45.5 -8q23 0 41 11t31.5 27.5t20.5 35t11 32.5q2 10 3 20.5t1 24.5 q0 35 -18.5 70t-58.5 53q-31 12 -56.5 6t-44 -24.5t-29 -46t-12.5 -58.5z" />
<glyph unicode="&#xf7;" horiz-adv-x="999" d="M22.5 737q10.5 -35 31 -81t40.5 -74q23 -31 39.5 -38t46.5 1q88 23 142.5 39t92.5 27.5t68.5 19.5t73.5 13t106.5 7t167.5 4q29 0 37.5 13.5t-2.5 48.5q-10 31 -19 60.5t-26 64.5q-29 61 -82 61q-92 -2 -154.5 -4t-109.5 -6t-85 -11.5t-82 -17.5t-100 -23.5t-138 -29.5 q-23 -4 -40.5 -21.5t-7 -52.5zM299 336q-4 -94 40 -149.5t107 -51.5q31 0 55.5 15.5t42 37t28 46t14.5 42.5q6 27 6 60q0 47 -25.5 94t-79.5 72q-41 16 -74.5 8t-58 -32.5t-39 -62.5t-16.5 -79zM354 1204q-4 -94 40 -149.5t108 -50.5q31 0 55.5 15t41.5 36.5t27.5 46 t14.5 43.5q6 27 6 59q0 47 -25.5 94.5t-78.5 71.5q-41 16 -75 8t-58.5 -32.5t-39 -62.5t-16.5 -79z" />
<glyph unicode="&#xf8;" d="M-35 530q4 -172 47 -307q10 -35 28.5 -66.5t41.5 -56.5q-14 -37 -24.5 -67.5t-16.5 -50.5q-14 -49 -12 -82q4 -37 28 -60q10 -10 5 -6t-12 9t-10 7.5t11 -10.5q31 -23 47.5 -15.5t28.5 44.5q10 29 24.5 65.5t30.5 79.5q39 -18 79 -28.5t79 -16.5q78 -12 138.5 9.5 t113.5 84.5q76 104 125 249t74.5 301.5t27.5 311t-16 281.5q-10 49 -23.5 92t-36.5 80q43 100 72 162q16 37 15.5 62.5t-29.5 60.5q-12 14 -11 17t5 1l4 -2q0 2 -15 15q-59 53 -92 -23q-16 -29 -34.5 -73t-41.5 -97q-35 20 -73.5 33.5t-79.5 24.5q-51 10 -109.5 -11.5 t-99.5 -64.5q-98 -109 -163.5 -269.5t-97.5 -336t-28 -347.5zM242 541q6 133 34 260q18 84 47 174t61 160.5t64.5 112.5t57.5 32q8 -4 14 -12q-66 -166 -139.5 -357.5t-138.5 -369.5zM276 250q61 154 133 328t142 344q-4 -59 -10.5 -118t-16.5 -112q-18 -109 -44.5 -201 t-56.5 -156.5t-61.5 -95t-58.5 -16.5q-16 6 -27 27z" />
<glyph unicode="&#xf9;" horiz-adv-x="923" d="M-40 463.5q1 -152.5 40 -254.5q20 -57 49 -96t62 -68q78 -66 200 -78q61 -6 109.5 7.5t95.5 48.5q66 57 116 178t90 292t70.5 386t59.5 464q6 43 0 66t-41 51q-33 25 -72 50.5t-73.5 38t-58 2t-25.5 -55.5q-12 -102 -29.5 -240.5t-40.5 -284t-49.5 -285.5t-56 -246.5 t-63.5 -167t-71 -46.5q-29 12 -39 70.5t-6 145.5t18.5 195.5t35 220.5t44 220.5t44.5 196.5q23 98 -43 164q-31 29 -64 51t-67 37q-37 16 -56.5 7t-29.5 -54q-37 -158 -73 -337t-56.5 -352.5t-19.5 -326zM178 1991q33 -29 80 -64t101.5 -69.5t112.5 -68.5t114 -58 q45 -25 116 28q0 -2 7.5 6.5t12.5 22.5t3 31.5t-23 33.5q-94 55 -191 121t-171 140q-20 20 -47 19t-68 -30q-23 -14 -33 -41.5t-14 -70.5z" />
<glyph unicode="&#xfa;" horiz-adv-x="923" d="M-40 463.5q1 -152.5 40 -254.5q20 -57 49 -96t62 -68q78 -66 200 -78q61 -6 109.5 7.5t95.5 48.5q66 57 116 178t90 292t70.5 386t59.5 464q6 43 0 66t-41 51q-33 25 -72 50.5t-73.5 38t-58 2t-25.5 -55.5q-12 -102 -29.5 -240.5t-40.5 -284t-49.5 -285.5t-56 -246.5 t-63.5 -167t-71 -46.5q-29 12 -39 70.5t-6 145.5t18.5 195.5t35 220.5t44 220.5t44.5 196.5q23 98 -43 164q-31 29 -64 51t-67 37q-37 16 -56.5 7t-29.5 -54q-37 -158 -73 -337t-56.5 -352.5t-19.5 -326zM180.5 1819.5q-2.5 -17.5 2.5 -31.5t12.5 -22.5t7.5 -6.5 q72 -53 116 -28q55 25 114 58.5t113 68t101 69.5t80 64q-4 43 -14.5 70.5t-32.5 41.5q-41 29 -67.5 30t-47.5 -19q-74 -74 -171 -139.5t-191 -121.5q-20 -16 -22.5 -33.5z" />
<glyph unicode="&#xfb;" horiz-adv-x="923" d="M-40 463.5q1 -152.5 40 -254.5q20 -57 49 -96t62 -68q78 -66 200 -78q61 -6 109.5 7.5t95.5 48.5q66 57 116 178t90 292t70.5 386t59.5 464q6 43 0 66t-41 51q-33 25 -72 50.5t-73.5 38t-58 2t-25.5 -55.5q-12 -102 -29.5 -240.5t-40.5 -284t-49.5 -285.5t-56 -246.5 t-63.5 -167t-71 -46.5q-29 12 -39 70.5t-6 145.5t18.5 195.5t35 220.5t44 220.5t44.5 196.5q23 98 -43 164q-31 29 -64 51t-67 37q-37 16 -56.5 7t-29.5 -54q-37 -158 -73 -337t-56.5 -352.5t-19.5 -326zM252 1925q-18 -35 2 -74q12 -23 23.5 -39t23.5 -32q14 -18 25 -19 q10 0 20 19q33 53 71 113.5t83 123.5q16 -74 28.5 -139.5t24.5 -110.5q16 -45 49 -53q20 -8 38 -10t34 -2q35 -2 26 39q-8 39 -19 88t-21.5 104.5t-20.5 111.5t-16 107q-4 33 -10.5 47.5t-18.5 32.5q-14 16 -29.5 28.5t-32.5 29.5q-16 12 -28 11t-29 -24q-33 -41 -65.5 -88 t-61.5 -95t-54.5 -92t-41.5 -77z" />
<glyph unicode="&#xfc;" horiz-adv-x="923" d="M-40 463.5q1 -152.5 40 -254.5q20 -57 49 -96t62 -68q78 -66 200 -78q61 -6 109.5 7.5t95.5 48.5q66 57 116 178t90 292t70.5 386t59.5 464q6 43 0 66t-41 51q-33 25 -72 50.5t-73.5 38t-58 2t-25.5 -55.5q-12 -102 -29.5 -240.5t-40.5 -284t-49.5 -285.5t-56 -246.5 t-63.5 -167t-71 -46.5q-29 12 -39 70.5t-6 145.5t18.5 195.5t35 220.5t44 220.5t44.5 196.5q23 98 -43 164q-31 29 -64 51t-67 37q-37 16 -56.5 7t-29.5 -54q-37 -158 -73 -337t-56.5 -352.5t-19.5 -326zM195 1853q-4 -70 29.5 -111.5t80.5 -37.5q23 0 41.5 11t31.5 27.5 t21.5 35t10.5 32.5q6 18 6 43q0 37 -19.5 72t-60.5 53q-31 12 -55.5 6t-43 -24t-29.5 -47t-13 -60zM553 1853q-2 -35 6 -63.5t23.5 -49t36 -30.5t45.5 -8q23 0 41 11t31.5 27.5t20.5 35t11 32.5q2 10 3 20.5t1 24.5q0 35 -18.5 70t-59.5 53q-31 12 -56.5 6t-44 -24.5 t-28.5 -46t-12 -58.5z" />
<glyph unicode="&#xfd;" horiz-adv-x="888" d="M-4 1537.5q-6 -15.5 4 -58.5q18 -90 42 -200t50.5 -226.5t53 -234.5t51.5 -228q-16 -129 -27.5 -240.5t-22.5 -197.5q-4 -53 5.5 -81t37.5 -57q29 -18 65 -35.5t69 -31.5q35 -12 47 -3t20 50q14 111 30.5 226.5t39.5 244.5q55 117 112.5 241.5t107.5 239.5t89 212.5 t57 160.5q16 51 14.5 79.5t-24.5 63.5q-20 25 -48 53.5t-55.5 47t-51 16.5t-33.5 -41q-59 -147 -123 -297.5t-129 -298.5q-33 147 -62.5 276.5t-56.5 227.5q-16 51 -32.5 75.5t-51.5 35t-69.5 8.5t-69.5 -6q-33 -6 -39 -21.5zM180.5 1819.5q-2.5 -17.5 2.5 -31.5t12.5 -22.5 t7.5 -6.5q72 -53 116 -28q55 25 114 58.5t113 68t101 69.5t80 64q-4 43 -14.5 70.5t-32.5 41.5q-41 29 -67.5 30t-47.5 -19q-74 -74 -171 -139.5t-191 -121.5q-20 -16 -22.5 -33.5z" />
<glyph unicode="&#xfe;" horiz-adv-x="897" d="M-82 170q-4 -53 5 -83t40 -52q29 -23 61.5 -37t67.5 -29q35 -12 47.5 -2t18.5 45q4 35 9 72t11 76q78 31 157 73.5t150.5 95t132 112t101.5 120.5q49 74 78.5 157t7 187.5t-60 176t-80.5 130.5q-55 68 -136.5 76t-173.5 -20q4 16 7.5 30.5t7.5 30.5q8 43 1 66.5t-42 52.5 q-33 29 -76 54.5t-80 37.5q-37 14 -55.5 4t-28.5 -55q-14 -76 -31.5 -184.5t-35 -231.5t-34 -254t-30.5 -252t-24.5 -224t-14.5 -173zM236 512q20 113 38.5 214t38.5 194q45 27 89 40t79 14t57.5 -9.5t26.5 -30.5q10 -37 -6 -92.5t-58 -114.5t-108.5 -116.5t-156.5 -98.5z " />
<glyph unicode="&#xff;" horiz-adv-x="888" d="M-4 1537.5q-6 -15.5 4 -58.5q18 -90 42 -200t50.5 -226.5t53 -234.5t51.5 -228q-16 -129 -27.5 -240.5t-22.5 -197.5q-4 -53 5.5 -81t37.5 -57q29 -18 65 -35.5t69 -31.5q35 -12 47 -3t20 50q14 111 30.5 226.5t39.5 244.5q55 117 112.5 241.5t107.5 239.5t89 212.5 t57 160.5q16 51 14.5 79.5t-24.5 63.5q-20 25 -48 53.5t-55.5 47t-51 16.5t-33.5 -41q-59 -147 -123 -297.5t-129 -298.5q-33 147 -62.5 276.5t-56.5 227.5q-16 51 -32.5 75.5t-51.5 35t-69.5 8.5t-69.5 -6q-33 -6 -39 -21.5zM135 1853q-4 -70 30 -111.5t81 -37.5 q23 0 41 11t31.5 27.5t21.5 35t10 32.5q6 18 6 43q0 37 -19.5 72t-60.5 53q-31 12 -55 6t-42.5 -24t-30 -47t-13.5 -60zM494 1853q-2 -35 6 -63.5t23.5 -49t36 -30.5t44.5 -8q23 0 41.5 11t31.5 27.5t20.5 35t11.5 32.5q2 10 3 20.5t1 24.5q0 35 -18.5 70t-59.5 53 q-31 12 -56.5 6t-44 -24.5t-28.5 -46t-12 -58.5z" />
<glyph unicode="&#x152;" horiz-adv-x="1316" d="M-35 530q4 -172 47 -307q18 -57 53 -102t70 -74q45 -35 99.5 -52.5t105.5 -25.5q72 -10 127 6.5t106 67.5q6 -8 13.5 -14t15.5 -15q20 -20 48 -31.5t83 9.5q82 23 172 49.5t176 50.5q35 10 42 25.5t-1 56.5q-10 37 -20 72t-27 73q-14 35 -35.5 47.5t-56.5 8.5 q-66 -6 -123 -15.5t-119 -25.5q10 53 20.5 109.5t20.5 115.5q76 23 157 42.5t159 39.5q35 10 43 24.5t-2 57.5q-8 37 -17.5 71.5t-25.5 71.5q-14 35 -35 46.5t-55 9.5q-41 -2 -79 -5.5t-77 -11.5q20 92 36.5 176t33.5 160q86 16 164.5 28.5t150.5 22.5q35 6 44 21.5t3 58.5 q-8 37 -15 67.5t-24 69.5q-20 72 -88 70q-133 -8 -263 -39t-235 -65q-41 31 -91 52.5t-103 31.5q-51 10 -109.5 -11.5t-99.5 -64.5q-98 -109 -163.5 -269.5t-97.5 -336t-28 -347.5zM242 439q-2 83 7 179.5t27 182.5q18 84 47 174t61 160.5t64.5 112.5t57.5 32 q18 -8 29.5 -46t16.5 -95.5t3 -128t-8 -144.5l-21 -155q0 -4 -1 -9.5t-1 -9.5q-18 -109 -44.5 -201t-56.5 -156.5t-61.5 -95t-58.5 -16.5q-31 14 -45 73.5t-16 142.5z" />
<glyph unicode="&#x153;" horiz-adv-x="1316" d="M-35 530q4 -172 47 -307q18 -57 53 -102t70 -74q45 -35 99.5 -52.5t105.5 -25.5q72 -10 127 6.5t106 67.5q6 -8 13.5 -14t15.5 -15q20 -20 48 -31.5t83 9.5q82 23 172 49.5t176 50.5q35 10 42 25.5t-1 56.5q-10 37 -20 72t-27 73q-14 35 -35.5 47.5t-56.5 8.5 q-66 -6 -123 -15.5t-119 -25.5q10 53 20.5 109.5t20.5 115.5q76 23 157 42.5t159 39.5q35 10 43 24.5t-2 57.5q-8 37 -17.5 71.5t-25.5 71.5q-14 35 -35 46.5t-55 9.5q-41 -2 -79 -5.5t-77 -11.5q20 92 36.5 176t33.5 160q86 16 164.5 28.5t150.5 22.5q35 6 44 21.5t3 58.5 q-8 37 -15 67.5t-24 69.5q-20 72 -88 70q-133 -8 -263 -39t-235 -65q-41 31 -91 52.5t-103 31.5q-51 10 -109.5 -11.5t-99.5 -64.5q-98 -109 -163.5 -269.5t-97.5 -336t-28 -347.5zM242 439q-2 83 7 179.5t27 182.5q18 84 47 174t61 160.5t64.5 112.5t57.5 32 q18 -8 29.5 -46t16.5 -95.5t3 -128t-8 -144.5l-21 -155q0 -4 -1 -9.5t-1 -9.5q-18 -109 -44.5 -201t-56.5 -156.5t-61.5 -95t-58.5 -16.5q-31 14 -45 73.5t-16 142.5z" />
<glyph unicode="&#x178;" horiz-adv-x="888" d="M-4 1537.5q-6 -15.5 4 -58.5q18 -90 42 -200t50.5 -226.5t53 -234.5t51.5 -228q-16 -129 -27.5 -240.5t-22.5 -197.5q-4 -53 5.5 -81t37.5 -57q29 -18 65 -35.5t69 -31.5q35 -12 47 -3t20 50q14 111 30.5 226.5t39.5 244.5q55 117 112.5 241.5t107.5 239.5t89 212.5 t57 160.5q16 51 14.5 79.5t-24.5 63.5q-20 25 -48 53.5t-55.5 47t-51 16.5t-33.5 -41q-59 -147 -123 -297.5t-129 -298.5q-33 147 -62.5 276.5t-56.5 227.5q-16 51 -32.5 75.5t-51.5 35t-69.5 8.5t-69.5 -6q-33 -6 -39 -21.5zM135 1853q-4 -70 30 -111.5t81 -37.5 q23 0 41 11t31.5 27.5t21.5 35t10 32.5q6 18 6 43q0 37 -19.5 72t-60.5 53q-31 12 -55 6t-42.5 -24t-30 -47t-13.5 -60zM494 1853q-2 -35 6 -63.5t23.5 -49t36 -30.5t44.5 -8q23 0 41.5 11t31.5 27.5t20.5 35t11.5 32.5q2 10 3 20.5t1 24.5q0 35 -18.5 70t-59.5 53 q-31 12 -56.5 6t-44 -24.5t-28.5 -46t-12 -58.5z" />
<glyph unicode="&#x2c6;" horiz-adv-x="915" d="M252 1925q-18 -35 2 -74q12 -23 23.5 -39t23.5 -32q14 -18 25 -19q10 0 20 19q33 53 71 113.5t83 123.5q16 -74 28.5 -139.5t24.5 -110.5q16 -45 49 -53q20 -8 38 -10t34 -2q35 -2 26 39q-8 39 -19 88t-21.5 104.5t-20.5 111.5t-16 107q-4 33 -10.5 47.5t-18.5 32.5 q-14 16 -29.5 28.5t-32.5 29.5q-16 12 -28 11t-29 -24q-33 -41 -65.5 -88t-61.5 -95t-54.5 -92t-41.5 -77z" />
<glyph unicode="&#x2dc;" horiz-adv-x="1013" d="M199 1806q0 -57 63 -57q39 0 62 20q2 0 12 10.5t22.5 24t26.5 23.5t27 10q14 0 34.5 -4t41 -11t39 -16.5t28.5 -19.5q41 -41 133 -41q61 0 137 76q80 74 80 133q0 27 -26 47q-23 14 -50 14q-29 0 -57 -28q-4 -6 -14 -18.5t-21.5 -27t-21.5 -23.5t-17 -9q-39 4 -75.5 30.5 t-71.5 40.5q-31 14 -57.5 21.5t-55.5 7.5q-25 0 -59.5 -15.5t-68.5 -38t-61.5 -49t-37.5 -46.5q-12 -29 -12 -54z" />
<glyph unicode="&#x2000;" horiz-adv-x="1153" />
<glyph unicode="&#x2001;" horiz-adv-x="2307" />
<glyph unicode="&#x2002;" horiz-adv-x="1153" />
<glyph unicode="&#x2003;" horiz-adv-x="2307" />
<glyph unicode="&#x2004;" horiz-adv-x="769" />
<glyph unicode="&#x2005;" horiz-adv-x="576" />
<glyph unicode="&#x2006;" horiz-adv-x="384" />
<glyph unicode="&#x2007;" horiz-adv-x="384" />
<glyph unicode="&#x2008;" horiz-adv-x="288" />
<glyph unicode="&#x2009;" horiz-adv-x="461" />
<glyph unicode="&#x200a;" horiz-adv-x="128" />
<glyph unicode="&#x2010;" horiz-adv-x="808" d="M-135 897q-39 95 20 111q41 12 98.5 24t122 21.5t131 14.5t128.5 5q55 0 94 -76q20 -45 32.5 -84t26.5 -75q14 -45 6 -59.5t-41 -16.5q-109 -10 -224.5 -28.5t-213.5 -53.5q-27 -10 -49.5 2t-48.5 55q-27 41 -46.5 80t-35.5 80z" />
<glyph unicode="&#x2011;" horiz-adv-x="808" d="M-135 897q-39 95 20 111q41 12 98.5 24t122 21.5t131 14.5t128.5 5q55 0 94 -76q20 -45 32.5 -84t26.5 -75q14 -45 6 -59.5t-41 -16.5q-109 -10 -224.5 -28.5t-213.5 -53.5q-27 -10 -49.5 2t-48.5 55q-27 41 -46.5 80t-35.5 80z" />
<glyph unicode="&#x2012;" horiz-adv-x="808" d="M-135 897q-39 95 20 111q41 12 98.5 24t122 21.5t131 14.5t128.5 5q55 0 94 -76q20 -45 32.5 -84t26.5 -75q14 -45 6 -59.5t-41 -16.5q-109 -10 -224.5 -28.5t-213.5 -53.5q-27 -10 -49.5 2t-48.5 55q-27 41 -46.5 80t-35.5 80z" />
<glyph unicode="&#x2013;" horiz-adv-x="1136" d="M-20 748q-39 80 57 92q63 10 151 20t186.5 17.5t201 12.5t194.5 5q88 0 123 -64q23 -37 33 -70.5t20 -62.5q12 -37 -5 -49t-64 -14q-166 -8 -342.5 -23.5t-331.5 -44.5q-45 -8 -76 2.5t-61 44.5q-57 70 -86 134z" />
<glyph unicode="&#x2014;" horiz-adv-x="1728" d="M-20 748q27 -59 86 -134q31 -35 61.5 -45t75.5 -2q51 10 157.5 17.5t239.5 13.5t279.5 11t280.5 9.5t242.5 7.5t164.5 5q47 2 64.5 14t4.5 49q-10 29 -20 63t-33 70q-33 63 -123 64q-61 0 -179 -2t-261 -5t-299 -8.5t-294 -11.5t-242.5 -12t-147.5 -12q-96 -12 -57 -92z " />
<glyph unicode="&#x2018;" horiz-adv-x="536" d="M63.5 1659.5q2.5 -23.5 9.5 -55t13 -78.5q20 -80 47.5 -163t52.5 -130q29 -66 74 -90q20 -10 46 -17.5t48 -11.5q59 -8 39 64q-14 51 -32.5 124.5t-38 154.5t-38 160t-30.5 138q-14 70 -76 49q-25 -14 -48.5 -27.5t-39.5 -29.5q-18 -23 -23.5 -43.5t-3 -44z" />
<glyph unicode="&#x2019;" horiz-adv-x="475" d="M98 1208q-12 -70 45 -67q57 0 95 14q23 10 37 28.5t28 53.5q10 31 21.5 77t21.5 97t18.5 104.5t12.5 96.5q2 43 -3 70.5t-34 58.5q-20 20 -45 37.5t-51 31.5q-31 16 -48.5 10.5t-21.5 -48.5q-6 -57 -15 -134t-20.5 -156t-22 -152t-18.5 -122z" />
<glyph unicode="&#x201a;" horiz-adv-x="475" d="M98 -233q-12 -70 45 -68q59 0 95 14q23 10 37 28.5t28 53.5q10 31 21.5 77t21.5 97t18.5 104.5t12.5 96.5q2 43 -3 70.5t-34 58.5q-20 20 -45 37.5t-51 32.5q-31 16 -48.5 10t-21.5 -49q-6 -57 -15 -134t-20.5 -156t-22 -151.5t-18.5 -121.5z" />
<glyph unicode="&#x201c;" horiz-adv-x="794" d="M9 1664q9 -52 38 -134q29 -78 61.5 -155t61.5 -124q20 -35 37.5 -53t44.5 -29q23 -8 47.5 -11t48.5 -5q55 -2 29 68q-16 49 -42 121.5t-53.5 151.5t-53 155.5t-42.5 134.5q-20 76 -77 39q-47 -29 -80 -68q-29 -39 -20 -91zM341 1692.5q-3 -25.5 7 -68.5q6 -43 19.5 -98.5 t30 -109.5t35 -103t34.5 -80q16 -35 32.5 -56.5t41.5 -33.5q20 -10 45.5 -17.5t48.5 -11.5q59 -8 39 64q-14 51 -32.5 124.5t-38 154.5t-38 160t-30.5 138q-14 70 -76 49q-25 -14 -48.5 -27.5t-39.5 -29.5q-27 -29 -30 -54.5z" />
<glyph unicode="&#x201d;" horiz-adv-x="786" d="M98 1208q-12 -70 45 -67q63 0 95 14q23 10 37 28.5t28 53.5q10 31 21.5 77t21.5 97t18.5 104.5t12.5 96.5q2 43 -3 70.5t-34 58.5q-20 20 -45 37.5t-51 31.5q-31 16 -48.5 10.5t-21.5 -48.5q-6 -57 -15 -134t-20.5 -156t-22 -152t-18.5 -122zM391 1212q-23 -68 39 -73 q53 -12 94 2q25 4 41.5 21t32.5 50q18 33 39.5 92.5t39 123t28 121t8.5 88t-29 63.5q-16 23 -39.5 42t-48.5 40q-59 47 -76 -29q-10 -57 -26.5 -131t-35 -149.5t-37 -145.5t-30.5 -115z" />
<glyph unicode="&#x201e;" horiz-adv-x="786" d="M98 -225q-12 -70 45 -68q63 0 95 14q23 10 37 28.5t28 53.5q10 31 21.5 77t21.5 97.5t18.5 104.5t12.5 96q2 43 -3 70.5t-34 58.5q-20 20 -45 37.5t-51 32.5q-31 16 -48.5 10t-21.5 -49q-6 -57 -15 -134t-20.5 -156t-22 -151.5t-18.5 -121.5zM391 -221q-23 -68 39 -74 q53 -12 94 2q25 4 41.5 21.5t32.5 50.5q18 33 39.5 92t39 122.5t28 121t8.5 88t-29 63.5q-16 23 -39.5 42.5t-48.5 39.5q-59 47 -76 -29q-10 -57 -26.5 -130.5t-35 -149.5t-37 -145.5t-30.5 -114.5z" />
<glyph unicode="&#x2022;" horiz-adv-x="663" d="M47 768q-4 -84 15.5 -150.5t55.5 -113.5t85 -70.5t104 -19.5q53 0 96 26.5t74 65.5t50.5 82t25.5 76q4 25 7 49t3 55q0 41 -11 84t-33.5 82t-57.5 70.5t-82 54.5q-72 29 -131.5 14.5t-102.5 -58.5t-68.5 -108.5t-29.5 -138.5z" />
<glyph unicode="&#x2026;" horiz-adv-x="1538" d="M-39 150q-4 -94 40 -149.5t108 -51.5q31 0 55 15.5t40.5 37t28 46t15.5 42.5q6 27 6 60t-11.5 64.5t-34 58t-58.5 42.5q-41 16 -75 8t-58.5 -32.5t-39 -62t-16.5 -78.5zM500 150q-4 -94 43 -149.5t108 -51.5q31 0 55.5 15.5t41 37t27.5 46t16 42.5q6 27 6 60t-11.5 64.5 t-34 58t-59.5 42.5q-41 16 -74.5 8t-59.5 -32.5t-41 -61t-17 -79.5zM1042 150q-4 -94 43.5 -149.5t108.5 -51.5q31 0 55.5 15.5t41 37t27.5 46t15 42.5q6 27 6 60t-11 64.5t-33.5 58t-59.5 42.5q-41 16 -75 8t-59.5 -32.5t-41 -61t-17.5 -79.5z" />
<glyph unicode="&#x202f;" horiz-adv-x="461" />
<glyph unicode="&#x2039;" horiz-adv-x="712" d="M-16 666q4 -23 22 -35q104 -57 207.5 -116.5t196.5 -125.5q29 -23 42 -16.5t23 41.5q12 45 19 118q2 35 -9.5 56.5t-35.5 42.5q-39 29 -90.5 61.5t-110.5 67.5q72 45 141 86t139 76q29 12 33 29.5t-16 47.5q-31 51 -74 105q-16 20 -31.5 27.5t-33 4.5t-41 -14.5 t-58.5 -27.5q-63 -35 -135 -79t-121 -81q-23 -12 -34 -36t-17 -53.5t-8 -61t-6 -60.5q-6 -18 -2 -57z" />
<glyph unicode="&#x203a;" horiz-adv-x="757" d="M-10 610.5q8 18.5 26 30.5q57 35 139.5 75t170.5 75q-49 29 -97.5 54t-95.5 48q-31 12 -40 26.5t-19 51.5q-4 31 -5 76t3 79q4 29 21.5 35t39.5 -4q43 -18 96.5 -46t112.5 -60.5t118.5 -68.5t114.5 -73q25 -16 35 -33.5t2 -62.5q-12 -80 -30 -139q-10 -35 -23.5 -50.5 t-42.5 -29.5q-104 -41 -186 -81t-160 -87q-23 -16 -38 -14t-40 26q-23 23 -47.5 56.5t-46.5 68.5q-16 29 -8 47.5z" />
<glyph unicode="&#x205f;" horiz-adv-x="576" />
<glyph unicode="&#x20ac;" horiz-adv-x="1048" d="M-56.5 618.5q-13.5 -20.5 1.5 -57.5q10 -29 25.5 -64.5t31.5 -64.5q16 -31 35.5 -40t52.5 -1q6 2 10 2q6 0 11 2q10 -121 43 -209q18 -57 54 -100t71 -66q41 -20 93 -43.5t115 -31.5q61 -8 124 15.5t102 62.5q37 41 73.5 102t59.5 133q20 61 17 102t-54 62 q-125 51 -203 -66q-106 -168 -162 -139q-31 12 -44 74.5t-13 152.5q59 8 119.5 12.5t124.5 8.5q29 2 38 14.5t-1 46.5q-8 29 -17.5 57.5t-25.5 61.5q-25 57 -80 57q-33 2 -67 1t-70 -3q4 18 7 37t7 37q4 16 8 33.5t8 36.5q53 2 107.5 1t109.5 -3q29 -4 39.5 8t1.5 47 q-6 29 -15 57.5t-22 63.5q-20 57 -79 63l-62 6q39 98 77 161t67 52q25 -12 29.5 -56t4.5 -97q0 -16 1 -32.5t3 -33.5q12 -86 49 -136t119 -73q43 -12 53.5 5.5t18.5 46.5q12 61 16.5 151t-0.5 166q-4 66 -21 117t-67 102q-47 41 -117.5 77t-138.5 44q-45 4 -96 -12.5 t-102 -73.5q-66 -76 -119 -179.5t-94 -223.5q-51 -4 -98.5 -9.5t-90.5 -11.5q-25 -4 -39 -21.5t-4 -56.5q8 -31 21.5 -66.5t27.5 -64.5q16 -35 34.5 -44t51.5 -5q8 2 15 2q8 0 16 2q-6 -37 -11 -73.5t-9 -73.5q-35 -4 -68 -11.5t-65 -13.5q-25 -6 -38.5 -26.5z" />
<glyph unicode="&#x2122;" horiz-adv-x="1288" d="M3 1510.5q-5 -7.5 3 -30t18.5 -53t26.5 -53.5q14 -20 25.5 -24t27.5 2q14 4 34 8t42 8q-12 -70 -25.5 -155t-23.5 -170t-19.5 -163.5t-11.5 -136.5q-8 -47 11.5 -67.5t54.5 -36.5q35 -14 54.5 -20.5t23.5 28.5q12 86 25.5 182.5t28.5 194.5t31.5 193.5t30.5 181.5 q37 4 70 9t62 9q23 2 25.5 10.5t-1.5 30.5q-14 53 -41 96q-8 12 -17 18.5t-32 6.5q-41 -2 -94 -7t-108.5 -13.5t-108 -17.5t-95.5 -19q-12 -4 -17 -11.5zM471 731q-4 -33 3 -49t26 -31q16 -12 34.5 -21t36.5 -16q20 -6 27.5 0.5t11.5 28.5q10 104 30.5 253t45.5 296 q8 -106 20.5 -210.5t26.5 -188.5q6 -41 15.5 -56.5t25.5 -25.5q12 -6 25.5 -11.5t29.5 -9.5q23 -6 28 1t13 32q12 41 33 101.5t44.5 127t48 134t44.5 122.5q-10 -63 -20 -132.5t-17.5 -134t-13.5 -119t-8 -89.5q-4 -31 2 -49t27 -33q14 -10 33.5 -19t37.5 -16q23 -8 30 2.5 t11 32.5q6 63 20.5 166t32 214.5t34 217t28.5 176.5q6 33 1 50.5t-28 31.5q-33 18 -66.5 32.5t-62.5 25.5q-47 18 -67.5 -9.5t-50.5 -115.5q-16 -39 -34 -84t-34 -91t-31.5 -91.5t-27.5 -83.5q-12 106 -18.5 167.5t-9.5 94t-4 45t-1 20.5q-4 39 -12.5 61.5t-42.5 39.5 q-27 14 -53.5 23t-63.5 18q-25 4 -37 -4.5t-21 -41.5q-12 -68 -28.5 -173t-31.5 -217.5t-26.5 -218t-15.5 -173.5z" />
<glyph unicode="&#x25fc;" horiz-adv-x="1576" d="M0 0v1577h1577v-1577h-1577z" />
<glyph unicode="&#xfb01;" horiz-adv-x="1236" d="M-72 172q-2 -53 4 -81.5t39 -53.5q27 -16 61 -34.5t64.5 -27t53 0t24.5 44.5q16 111 37.5 249.5t48.5 285.5q72 23 148.5 43t148.5 37q35 6 44 22.5t-1 57.5q-8 35 -17.5 70.5t-25.5 72.5q-29 61 -90 55q-39 -2 -76 -6t-74 -10q20 94 34 179t30 153q33 6 85 16 t112.5 22.5t122 26t114.5 23.5q-20 -133 -42.5 -293t-41 -314.5t-33 -290.5t-18.5 -222q-4 -53 5 -83t40 -53q29 -23 61.5 -37t67.5 -28q35 -12 47 -2t19 45q12 90 27.5 201.5t33.5 232.5t37.5 246t39 240.5t38 218t34.5 178.5q12 49 -10 100t-65 91t-101.5 62.5 t-117.5 14.5q-70 -10 -179.5 -27.5t-222 -38t-213 -42t-151.5 -39.5q2 -80 -6.5 -191.5t-22.5 -238.5t-32.5 -258.5t-35 -250t-29 -215t-16.5 -151.5z" />
<glyph unicode="&#xfb02;" horiz-adv-x="1443" d="M-72 172q-2 -53 4.5 -82t38.5 -53q27 -16 61 -34.5t64.5 -27t53 0t24.5 44.5q16 111 37.5 249.5t48.5 285.5q72 23 148.5 43t148.5 37q35 6 44 22.5t-1 57.5q-8 35 -17.5 70.5t-25.5 72.5q-29 61 -90 55q-39 -2 -76 -6t-74 -10q20 94 34 179t30 153q29 6 78 13 t106.5 15.5t118.5 16.5t117 16q-23 -127 -46.5 -269t-43 -280.5t-34.5 -262.5t-22 -216q-6 -49 5.5 -85t33.5 -64q31 -37 49.5 -60.5t40.5 -46.5q18 -18 45 -31.5t86 11.5q82 25 172.5 50t176.5 50q41 12 45 26.5t-6 57.5q-6 35 -17.5 72t-28.5 71q-16 37 -36.5 48.5 t-55.5 7.5q-61 -6 -115.5 -14.5t-113.5 -22.5q20 131 45 270t49.5 274.5t49 260.5t46.5 225q16 66 -7 112t-65 75.5t-93.5 42t-92.5 10.5q-72 -4 -185.5 -17.5t-233 -31t-224 -38t-155.5 -38.5q2 -80 -6.5 -191.5t-22.5 -238.5t-32.5 -258.5t-35 -250t-29 -215t-16.5 -151.5 z" />
</font>
</defs>
</svg>
