<?xml version="1.0" standalone="no"?>
<!DOCTYPE svg PUBLIC "-//W3C//DTD SVG 1.1//EN" "http://www.w3.org/Graphics/SVG/1.1/DTD/svg11.dtd" >
<svg xmlns="http://www.w3.org/2000/svg" xmlns:xlink="http://www.w3.org/1999/xlink" version="1.1">
<metadata></metadata>
<defs>
<font id="komika_text_kapsitalic" horiz-adv-x="1251" >
<font-face units-per-em="2048" ascent="1638" descent="-410" />
<missing-glyph horiz-adv-x="536" />
<glyph horiz-adv-x="0" />
<glyph unicode="&#xd;" horiz-adv-x="1024" />
<glyph unicode=" "  horiz-adv-x="536" />
<glyph unicode="&#x09;" horiz-adv-x="536" />
<glyph unicode="&#xa0;" horiz-adv-x="536" />
<glyph unicode="!" horiz-adv-x="454" d="M102 59q-8 -35 8.5 -65.5t67.5 -30.5q74 0 122 33t77 133l4 18q8 43 -10.5 70t-73.5 27q-61 0 -116.5 -49.5t-76.5 -120.5zM242 410q-8 -39 3 -61.5t52 -22.5q66 0 106 47t58 121l211 710q4 16 9 32.5t9 33.5q10 53 -1 94t-64 41q-37 0 -62.5 -13.5t-42 -35t-26 -47 t-13.5 -49.5q-4 -10 -4 -19q0 -8 -2 -16l-205 -725q-23 -51 -28 -90z" />
<glyph unicode="&#x22;" horiz-adv-x="704" d="M284 928q-1 -21 3 -38.5t16 -30.5t35 -17h10q41 0 80 47t51 117l74 262q2 23 6 49t0 50t-20.5 40t-53.5 16q-59 0 -88.5 -43t-42.5 -100q0 -18 -2 -29l-51 -243l-4 -12q-4 -13 -8 -31q-4 -16 -5 -37zM647 884q4 -38 51 -42h9q51 0 84.5 47t46.5 117v2l57 256q4 18 9 36.5 t9 36.5q6 35 -4 60.5t-65 25.5q-37 0 -59.5 -14t-36 -37.5t-21.5 -53.5t-14 -61l-56 -251l-4 -29q-10 -55 -6 -93z" />
<glyph unicode="#" horiz-adv-x="1431" d="M247 401.5q-1 -14.5 6 -27t25.5 -19.5t53.5 -7q10 0 22.5 1t26.5 3h57l-106 -182q-27 -47 -43.5 -83t-20.5 -58q-6 -29 9.5 -42.5t60.5 -13.5q18 0 39.5 15.5t41 40t37 53.5t29.5 57l123 213h226l-111 -198q-25 -35 -36 -59.5t-15 -45.5q-10 -41 11.5 -56.5t47.5 -19.5h4 q18 0 41 17.5t44.5 45t40 58.5t32.5 60l113 198h75q35 -2 60.5 -3t48.5 -1q53 0 78.5 19.5t44.5 85.5l2 12q6 35 -27 42t-135 7h-51l180 315h70q23 -2 41 -2h39q49 0 83.5 14.5t43.5 49.5v14q8 10 10 23q4 23 -16.5 44t-73.5 21q-23 0 -54 -6h-51l88 154q63 86 76 141 q10 59 -57 59q-29 0 -47.5 -6t-36 -22.5t-36 -48t-46.5 -82.5l-113 -195h-225l104 184q41 59 52 105q12 66 -64 65q-29 0 -51.5 -15t-41 -37.5t-29.5 -47t-17 -41.5l-125 -213h-82h-31q-156 0 -180 -82l-2 -12q-8 -39 16.5 -52.5t71.5 -13.5h25q12 0 26 2h66l-185 -315h-59 h-31q-78 0 -127 -21.5t-61 -64.5q-4 -12 -5 -26.5zM702 514l183 315h225l-182 -315h-226z" />
<glyph unicode="$" horiz-adv-x="1024" d="M143 252q-12 -59 7.5 -101t59.5 -70t95 -42t115 -19l-31 -108q-6 -16 -9 -30.5t-7 -28.5q-23 -106 55 -107q35 0 57.5 13.5t38 36t24.5 53t15 65.5l33 117q78 20 156.5 66t149.5 115t127 162t89 208q4 10 6 21l4 22q14 72 6 125t-32.5 86.5t-63.5 50t-88 16.5 q-53 0 -112 -20l61 223h6q43 0 71 -16.5t44 -28.5q63 -57 106 -57q57 0 86 100l2 8q6 37 -16 69.5t-61 57.5t-89.5 38t-97.5 13l15 43q10 20 16 47q6 31 -5 57.5t-56 26.5h-9q-59 -6 -86.5 -44t-33.5 -72q-2 -6 -1 -11.5t-2 -9.5l-16 -53q-72 -20 -146.5 -63.5t-139 -103.5 t-116 -136t-75.5 -164q-4 -10 -8 -31q-12 -55 -2 -100t33.5 -77t55.5 -49.5t66 -17.5q27 0 62 14.5t76 37.5l-107 -381q-35 -12 -57 -13q-29 0 -48.5 12.5t-29.5 27t-14.5 26.5t-4.5 10q4 10 9 27q10 47 -9.5 72.5t-48.5 25.5q-33 0 -67.5 -28.5t-50.5 -86.5zM470.5 750.5 q-5.5 19.5 0.5 48.5q2 6 2 10q0 6 4 12q27 92 97.5 163t150.5 108l-84 -295q-45 -27 -82 -46.5t-63 -19.5q-20 0 -25.5 19.5zM657 242l131 465q68 29 115 28q74 0 51 -108q0 -17 -6 -31q-39 -135 -118.5 -226t-172.5 -128z" />
<glyph unicode="%" horiz-adv-x="1355" d="M342 43q-8 -43 8.5 -68.5t50.5 -25.5q33 0 76 27.5t88 89.5q193 289 328 487.5t223 329.5t138.5 204.5t76 111.5t31.5 50.5t8 20.5v6q10 43 -16.5 73.5t-67.5 30.5q-29 0 -56.5 -16t-55.5 -55q-203 -305 -342.5 -514t-231.5 -346.5t-142 -213t-76 -113.5t-31 -49.5 t-7 -17.5zM364 972q5 -40 24.5 -72t54 -52.5t87.5 -20.5q45 0 106.5 23.5t119 65.5t104 96.5t64.5 115.5q4 10 8 31q18 94 -30 153.5t-152 59.5q-57 0 -116 -23.5t-111 -64.5t-92 -95t-58 -118q-2 -6 -4 -11t-2 -11q-8 -37 -3 -77zM545 1055l4 16q6 25 23.5 47.5t39 41 t45 28.5t43.5 10q31 0 44.5 -18.5t9.5 -34.5l-2 -2q-8 -29 -29 -54.5t-46.5 -46t-52 -33t-44.5 -12.5q-10 0 -26.5 7.5t-8.5 50.5zM785.5 81q0.5 -38 18 -68.5t51.5 -51t91 -20.5q45 0 108.5 22.5t126 65.5t112.5 104t73 139l4 25q8 45 4 85t-21.5 70.5t-47 48t-72.5 17.5 q-66 0 -132.5 -17.5t-124.5 -56t-104.5 -102t-72.5 -156.5q-4 -10 -8 -30q-6 -37 -5.5 -75zM975 172l6 27q18 66 66.5 104.5t93.5 38.5q66 0 55 -45l-4 -25q-10 -33 -30.5 -61.5t-45 -50t-50.5 -34.5t-48 -13q-35 0 -41 19.5t-2 39.5z" />
<glyph unicode="&#x26;" horiz-adv-x="1284" d="M139 152q0 -61 21.5 -107.5t68.5 -74t125 -27.5q59 0 128 17t140.5 49t145.5 76t143 97l47 -112q16 -47 41 -67.5t54 -20.5q25 0 48 11t43.5 29.5t37 41t26.5 42.5l-131 213q27 25 56.5 57t57.5 63.5t53.5 62t41.5 53.5q37 33 39 57q4 18 -6 31.5t-28.5 22t-43 12.5 t-49.5 4t-44 -14.5t-32.5 -35t-24 -42t-18.5 -35.5q-14 -16 -29.5 -36.5t-37.5 -41.5q-35 94 -70 188.5t-59 161.5q47 25 99 61t97 79t80 91t49 99l2 12q8 49 -9 86t-54 64t-87 40t-106 13q-127 0 -216 -47t-122 -168l-4 -16q-10 -57 1.5 -121t29.5 -119q-174 -86 -296 -213 t-177 -330q-12 -41 -18 -75q-12 -68 -13 -131zM333 246q1 35 7 71q2 18 10 41q41 143 131 233.5t219 156.5q14 -37 32 -85.5t37 -102.5t39.5 -111.5t43.5 -112.5q-55 -43 -114.5 -82t-118 -67.5t-113.5 -46t-100 -17.5q-27 0 -42.5 16.5t-23.5 44t-7 62.5zM795 1145l2 12 q10 35 39.5 49.5t74.5 14.5q14 0 35 -4.5t39.5 -11.5t29.5 -19t9 -29l-2 -4q-16 -59 -73.5 -100t-123.5 -70q-16 39 -27.5 81t-2.5 81z" />
<glyph unicode="'" horiz-adv-x="350" d="M284 928q-1 -21 3 -38.5t16 -30.5t35 -17h10q41 0 80 47t51 117l74 262q2 23 6 49t0 50t-20.5 40t-53.5 16q-59 0 -88.5 -43t-42.5 -100q0 -18 -2 -29l-51 -243l-4 -12q-4 -13 -8 -31q-4 -16 -5 -37z" />
<glyph unicode="(" horiz-adv-x="786" d="M276 561q-102 -526 160 -756q35 -29 66 -28q35 0 56.5 31.5t37.5 78.5l2 7q4 20 -5 41.5t-24.5 40t-32 34t-26.5 25.5q-16 33 -29.5 88t-19.5 129t-2 164t24 194q6 33 14.5 66t18.5 67q76 270 190.5 461t256.5 277q35 27 77 45t52 45l4 16q10 53 -10.5 77t-55.5 24 q-53 0 -121 -46q-109 -72 -197.5 -160.5t-160.5 -199.5t-128 -245t-101 -294q-14 -47 -24.5 -93t-21.5 -89z" />
<glyph unicode=")" horiz-adv-x="786" d="M119 -150q-4 -25 2 -41t20.5 -27t33 -16.5t36.5 -5.5q20 0 38.5 5.5t29.5 15.5q129 115 223 218t164.5 214t123 236.5t95.5 285.5l18 86q27 133 37 255t-3 228.5t-53 194.5t-116 152q-29 23 -61 22q-41 0 -73 -34.5t-46 -88.5v-6q-4 -23 9 -43t32.5 -41.5t39 -48.5 t25.5 -63q6 -27 16.5 -74t16.5 -112.5t4 -148.5t-20 -179q-4 -23 -10.5 -47.5t-12.5 -51.5q-33 -117 -59.5 -195.5t-66.5 -152.5t-102.5 -159t-166.5 -216q-18 -12 -45 -27.5t-52.5 -34t-46 -41t-28.5 -48.5z" />
<glyph unicode="*" horiz-adv-x="1087" d="M272 1114q-16 -72 35 -125q57 -53 123 -53q12 0 39 4t39 4q49 0 55 -22q10 -16 0 -70q-4 -16 -11 -45t-11 -45q-18 -109 65 -166q10 -8 49 -8q61 0 97 96q41 125 71 156q10 -4 33 -14.5t59 -30.5q70 -39 82 -39q35 0 66 29.5t39 64.5q6 43 -49 92q-29 27 -46.5 46.5 t-19.5 33.5q43 10 88 19.5t92 19.5q97 29 117 127q12 63 -8.5 83.5t-87.5 20.5q-12 0 -33.5 8.5t-48.5 8.5q-4 0 -8 -1t-8 -1q-31 -4 -51.5 -6.5t-34.5 -2.5q-70 0 -84 33q-4 18 -3 52t9 85q10 53 11 88t-3 54q-12 68 -94 67q-25 -2 -47.5 -13t-41 -28.5t-31.5 -40 t-18 -45.5q0 -12 -2 -18q-10 -49 -4 -102q-12 -18 -26 -19l-68 92q-47 49 -106 49q-35 0 -64 -25.5t-37 -60.5q-8 -41 39 -123l68 -116q-29 -25 -82 -25h-4q-37 0 -41 -2q-35 -8 -67 -32.5t-36 -53.5z" />
<glyph unicode="+" horiz-adv-x="1112" d="M152 436q-6 -33 13 -57.5t71 -24.5q12 0 32.5 -4t42.5 -4q16 0 33 6h199l-60 -217q-10 -10 -14 -28.5t-8 -34.5l-4 -21l-4 -16q-2 -6 -3 -11.5t-4 -11.5q-10 -49 11.5 -69.5t54.5 -20.5q37 0 75 24.5t50 65.5q2 8 8 31t13.5 47.5t13.5 47t8 34.5l53 180h223q14 -6 31 -6 q20 0 38.5 4t27.5 4q31 0 56.5 10.5t45 28t32.5 38t17 40.5q4 29 -12 51.5t-64 22.5l-110 -2h-230l58 207q14 20 20 47q6 35 8 37l3 12q10 51 -9.5 74.5t-54.5 23.5q-37 0 -75 -26.5t-52 -77.5q-6 -20 -16.5 -42t-14.5 -38v-10l-57 -207h-207q-8 4 -20 4q-18 0 -40 -4 t-32 -4q-63 0 -101 -33t-46 -70z" />
<glyph unicode="," horiz-adv-x="438" d="M-27 -188q-8 -41 11.5 -53.5t48.5 -12.5q57 0 114.5 29.5t105.5 75t84 98.5t48 102q4 10 5 19.5t5 19.5q12 70 -11.5 108t-98.5 38q-92 0 -136.5 -42t-54.5 -94q-6 -25 -3 -47t13 -41q23 -43 17 -75q-6 -29 -27.5 -46.5t-46 -29t-46 -19.5t-26.5 -16z" />
<glyph unicode="-" horiz-adv-x="790" d="M193 571q-6 -37 14 -67.5t74 -30.5q12 0 30.5 -4t38.5 -4q25 0 41 10l275 2l141 2q47 0 80 29t39 63q8 35 -17.5 66t-93.5 31q-16 0 -33.5 2t-36.5 2q-25 0 -45 -6h-282q-4 2 -25 2q-20 0 -45.5 -3t-36.5 -3q-51 0 -80.5 -28t-37.5 -63z" />
<glyph unicode="." horiz-adv-x="407" d="M74 61.5q6 -26.5 21.5 -48t38 -36t50.5 -14.5q41 0 74 16.5t56.5 42t40 55t22.5 54.5q4 8 5 15.5t5 17.5q4 20 4 43t-9 41t-27.5 29.5t-51.5 11.5q-41 0 -79 -15.5t-68.5 -40t-51 -53t-28.5 -55.5l-2 -10q-6 -27 0 -53.5z" />
<glyph unicode="/" horiz-adv-x="825" d="M111 2q-12 -68 77 -68q31 0 57.5 21.5t48 49.5t38 55.5t28.5 39.5q33 53 86.5 135t118 178.5t133 202t131 207t115.5 192.5t84 159v-3q14 27 29.5 58t19.5 59q6 29 -3 49.5t-48 20.5t-65.5 -9.5t-45 -22.5t-31 -29.5t-20.5 -30.5q-35 -57 -86 -143.5t-111.5 -187.5 t-127 -210t-130 -212t-121 -194.5t-98.5 -156.5q-33 -53 -53 -92t-26 -68z" />
<glyph unicode="0" horiz-adv-x="829" d="M131 316.5q6 -93.5 38 -164t87 -111.5t135 -41q84 0 161 47t139.5 127t107.5 185.5t69 222.5l2 10q16 82 23.5 175t-9 173t-61.5 132t-133 52q-39 0 -71.5 -3t-63.5 -12t-61.5 -27.5t-65.5 -47.5q-104 -86 -178 -224t-105 -296q-20 -104 -14 -197.5zM340.5 283.5 q-25.5 74.5 5.5 228.5q20 104 58 195.5t83 138.5q12 14 32 29.5t40.5 27.5t39.5 20.5t30 8.5q35 0 54 -24.5t27.5 -69.5t4.5 -105.5t-19 -130.5q-14 -72 -35.5 -139.5t-53.5 -122.5t-76 -91t-101 -40h2q-66 0 -91.5 74.5z" />
<glyph unicode="1" horiz-adv-x="409" d="M104 59q-2 -12 10.5 -24t30.5 -21q23 -14 56 -14q47 0 62.5 19.5t21.5 54.5q18 80 30 149l65 286t71 220q16 37 30.5 81t34.5 116q4 14 10 37.5t11 35.5q0 4 4 9q0 27 -13.5 44t-31 26t-32.5 12.5t-18 3.5q-31 0 -70.5 -16.5t-74.5 -37t-60.5 -40t-25.5 -25.5 q-16 -70 80 -92q-8 -41 -22.5 -88.5t-30.5 -100.5q-23 -70 -46.5 -146.5t-39.5 -164.5q-10 -47 -18.5 -106.5t-18.5 -120.5q-4 -23 -7 -48.5t-8 -48.5z" />
<glyph unicode="2" horiz-adv-x="831" d="M-8 84q-6 -35 7 -58.5t50 -23.5l23 4q22 4 45 8q59 12 149 27.5t183 15.5q68 0 113.5 -1t74.5 -3t43 -4t22 -4q4 0 8.5 -1t8.5 -1h8q41 0 63.5 27.5t30.5 64.5q14 72 -45 97.5t-203 25.5q-82 0 -186 -12q35 29 68.5 62.5t70.5 68.5q41 39 78 75.5t72 67.5 q66 57 114 114.5t81.5 108t52 90t22.5 64.5l2 4q16 84 -29 134t-137 50q-104 0 -219 -51q-45 -23 -103.5 -55.5t-111.5 -71.5t-92 -77.5t-45 -69.5q-4 -18 3 -36.5t18.5 -32t25.5 -23t25 -9.5q35 6 74.5 31t103.5 74q31 25 65.5 47.5t69.5 40.5t64.5 28.5t50.5 10.5 q16 0 24 -9.5t6 -21.5q-4 -16 -39.5 -60t-91 -103.5t-123 -127t-133 -131t-122 -117t-91.5 -81.5q-47 -39 -74.5 -66t-44 -44t-22.5 -28.5t-8 -17.5z" />
<glyph unicode="3" horiz-adv-x="862" d="M20 219q-8 -45 15.5 -85t71 -69.5t114 -47t144.5 -17.5q84 0 164.5 21.5t146 63.5t113 104.5t63.5 146.5q35 186 -119 244q129 68 195 131t82 147q10 51 -3.5 92t-43 71t-72.5 46t-92 16q-39 0 -95.5 -14t-120 -37.5t-127 -55.5t-115.5 -67t-87 -70.5t-41 -68.5 q-4 -18 2 -37.5t18.5 -34t30 -23.5t33.5 -9q35 0 65 32v-2q47 43 101.5 80t106 62.5t97.5 40t76 14.5q25 0 40.5 -10.5t11.5 -32.5q-6 -37 -56.5 -78t-118 -78t-143.5 -64.5t-133 -35.5h2q-41 -4 -56.5 -20.5t-23.5 -53.5q-8 -47 9.5 -85t46.5 -38q6 0 12 2q4 2 12 3t14 4 q41 16 82 22t80 6q66 0 103 -21.5t26 -70.5q-6 -31 -27.5 -59.5t-56.5 -52t-82 -37t-102 -13.5q-63 0 -105 13.5t-49 44.5q-6 20 -19 32.5t-26.5 18.5t-26 8t-18.5 2q-39 0 -73.5 -16.5t-45.5 -63.5z" />
<glyph unicode="4" horiz-adv-x="978" d="M72 391q-4 -18 1 -37.5t14 -36t21.5 -26.5t24.5 -10h4q2 0 5 1t5 1q41 12 95.5 25.5t106.5 23.5t97.5 17t69.5 7q4 0 8 6v-6l4 -8q-14 -49 -24.5 -89t-16.5 -73q-20 -98 0.5 -140t81.5 -42q53 0 90 29.5t41 54.5q-4 43 -3 68.5t8 58.5q8 45 34 129l2 14q16 2 37 4.5 t39 2.5l127 -9h6q18 0 33.5 10.5t29 26t21.5 33.5t13 33q6 33 -7.5 51t-38 27.5t-59.5 11.5t-72 2h-63q27 76 80 190.5t112 229.5v-2l25 41q-6 12 -16.5 28.5t-22.5 32.5t-27.5 27.5t-29.5 11.5q-39 -16 -115 -66.5t-169 -119t-191.5 -149.5t-181.5 -155.5t-138 -136 t-61 -92.5zM412 524q55 51 97 88t73.5 65t57.5 47t48 38v-2q-20 -47 -41.5 -96.5t-44.5 -110.5l-2 -8q-66 -4 -111.5 -9.5t-76.5 -11.5z" />
<glyph unicode="5" horiz-adv-x="847" d="M25 233q-8 -43 20.5 -85t78.5 -73.5t117.5 -51t135.5 -19.5q100 0 185 26.5t150.5 73t107.5 105.5t54 127q12 63 -2 123.5t-57 108.5t-114.5 78t-172.5 30q-59 0 -120 -12l73 180q6 14 64.5 23.5t133.5 14.5t147.5 7t107.5 2q39 0 56.5 25.5t23.5 54.5q8 37 4 59.5 t-15.5 34.5t-28 16t-34.5 4h-39q-18 -2 -79.5 -8t-142.5 -16t-168 -26.5t-159 -39.5q-14 -6 -35.5 -40.5t-44 -85t-46 -107.5t-42 -106.5t-31 -85t-12.5 -42.5q-6 -35 15.5 -71.5t68.5 -36.5q16 0 43 10q125 49 217 49q41 0 77 -11t60.5 -31.5t37 -47.5t6.5 -57 q-10 -59 -72 -91t-156 -40h-16q-70 0 -119 37.5t-82 68.5q-20 16 -31.5 28.5t-27.5 12.5q-41 0 -90 -43v-4q-23 -20 -33 -37.5t-14 -30.5z" />
<glyph unicode="6" horiz-adv-x="907" d="M127 377q-23 -119 9 -192.5t86 -113.5t110.5 -54.5t83.5 -14.5q88 0 175 37t159.5 98.5t125 141t68.5 165.5q14 70 0 133.5t-51 110.5t-96.5 75t-137.5 28q-39 0 -90 -13q51 68 103.5 113t87.5 72q49 37 51 53q8 39 -19.5 67.5t-70.5 28.5q-51 0 -125 -54t-176 -179 q-86 -104 -139.5 -179t-85 -132.5t-46 -102.5t-22.5 -88zM336 381q23 113 93.5 172t152.5 59q51 0 78.5 -11t40 -26.5t15.5 -33t5 -29.5h4q4 -20 5 -39.5t-3 -42.5q-29 -76 -62.5 -122t-69.5 -71.5t-71 -33.5t-65 -8q-68 0 -104 47t-19 139z" />
<glyph unicode="7" horiz-adv-x="790" d="M188 965q-8 -37 17.5 -57.5t62.5 -31t74 -12.5t51 -2h15q66 0 112.5 1t108.5 9q2 2 12 2l-8 -12q-88 -133 -161 -251.5t-127 -215t-86 -169t-40 -113.5l-2 -9q-10 -47 9.5 -75.5t74.5 -28.5q66 0 101.5 30.5t39.5 49.5l2 10q-4 20 -4 31q0 12 4 24q8 41 58.5 149.5 t167.5 289.5q39 57 77.5 109t73.5 96.5t64.5 78t48.5 54.5q31 35 31 41q4 39 -5.5 62.5t-24.5 34.5t-34.5 14t-36.5 3l-8 -41q2 0 -18.5 2t-56.5 5.5t-84 6.5t-103 3q-113 0 -158 2t-61 4h-25q-84 -10 -120.5 -39t-41.5 -55z" />
<glyph unicode="8" horiz-adv-x="845" d="M68 219q-20 -100 58.5 -159.5t223.5 -59.5q59 0 120.5 10t114 33t89.5 58.5t47 84.5v7q6 31 1 61.5t-23.5 65t-48 77.5t-72.5 101l-9 10q27 20 74 57t96 79t90.5 80t55.5 58q29 41 43 73t20 60q6 27 -1 56.5t-28.5 54.5t-56.5 40t-84 15q-51 0 -111.5 -10t-116.5 -25.5 t-105.5 -33t-79.5 -31.5q-139 -72 -166 -197q-25 -125 96 -274q-109 -90 -162 -157.5t-65 -133.5zM268 225q12 68 133 156q107 -117 101 -162q-2 -10 -10.5 -18t-18.5 -17q-37 -18 -82 -18q-133 0 -123 59zM397 780q4 20 33 42t73 41.5t98 31.5t110 14h4q47 0 39 -32 q-4 -18 -26.5 -43t-51.5 -48.5t-56.5 -43t-41.5 -29.5l-9 -6q-33 -23 -51 -36.5t-28.5 -19.5t-13.5 -8t-5 -2l-2 -2q-23 20 -37 45t-22.5 44.5t-10.5 33.5t-2 18z" />
<glyph unicode="9" horiz-adv-x="862" d="M123 569q-10 -55 1 -101t40 -79t70.5 -51.5t93.5 -18.5q76 0 159.5 32t161.5 75l-90 -383q20 -43 86 -43q37 0 75 15.5t46 62.5q4 37 8 68.5t12 72.5q16 86 41 173t53.5 171t61.5 161t64 138h-2q16 31 25 49.5t15.5 29.5t8.5 17.5t2 10.5q4 29 -16.5 61.5t-41.5 44.5 q-14 4 -54 11.5t-87 7.5q-86 0 -156.5 -14.5t-124 -35t-88 -40t-53.5 -31.5q-2 -2 -5 -4t-5 -4l2 2q-92 -59 -148.5 -120t-89 -115t-47 -96t-18.5 -67zM330 575q10 55 49 111.5t91 103t109.5 75t106.5 28.5q35 0 59.5 -17.5t20.5 -56.5q-10 -45 -45 -100t-85 -104.5 t-111.5 -83t-125.5 -33.5q-37 0 -57 21.5t-12 55.5z" />
<glyph unicode=":" horiz-adv-x="405" d="M98 96q-10 -51 10.5 -92t75.5 -41q74 0 122 53t71 121q2 6 4 12.5t2 12.5q10 55 -9.5 91t-72.5 36q-39 0 -71.5 -16.5t-58.5 -42t-43 -56.5t-26 -61zM252 666q-10 -53 11.5 -94.5t76.5 -41.5q74 0 121.5 53.5t70.5 121.5q2 6 4.5 13t2.5 13q10 55 -8.5 90t-71.5 35 q-39 0 -73 -16.5t-60.5 -42t-44 -56t-25.5 -61.5z" />
<glyph unicode=";" horiz-adv-x="405" d="M-43 -190q-8 -41 11.5 -53.5t47.5 -12.5q57 0 114.5 29.5t106 75t83.5 99.5t49 103q4 10 5 19.5t5 19.5q12 68 -11.5 107t-99.5 39q-41 0 -73.5 -17.5t-57 -42t-41 -53.5t-22.5 -51l-4 -15q-10 -49 16.5 -70.5t58.5 -21.5q27 0 52 12q-27 -43 -64 -59t-72.5 -25.5 t-64.5 -22.5t-37 -46zM258 666q-10 -51 10.5 -93.5t75.5 -42.5q74 0 122 53.5t71 121.5q2 6 4 13t2 13q10 55 -8.5 90t-71.5 35q-39 0 -72 -16.5t-59.5 -42t-44 -56t-25.5 -61.5z" />
<glyph unicode="&#x3c;" horiz-adv-x="1077" d="M262 467q-4 -25 7.5 -49.5t33.5 -42.5l455 -369q18 -33 59 -33t86 31t58 76l2 16q8 45 -12.5 56.5t-45.5 13.5l-377 295l541 246q31 0 61 23.5t44 74.5l2 10q10 41 -16.5 66.5t-67.5 25.5q-27 0 -54.5 -14t-48.5 -43l-635 -287q-41 -18 -63.5 -43.5t-28.5 -52.5z" />
<glyph unicode="=" horiz-adv-x="1202" d="M233 418q-8 -39 6.5 -70t59.5 -31q23 0 78 23h612q16 -8 26.5 -10t16.5 -2h6q31 0 56.5 11t45 29.5t33 41t17.5 45.5q8 37 -10.5 65.5t-69.5 28.5q-29 0 -46 -9l-17 -10h-625q-10 10 -25.5 12.5t-29.5 2.5q-53 0 -89 -40t-45 -87zM346 827q-10 -41 6.5 -71.5t59.5 -30.5 q45 0 71 20h617q14 -10 27.5 -12t27.5 -2q55 0 87 29t48 78l2 14q8 41 -7 72.5t-56 31.5q-29 0 -51 -10l-21 -10h-618q-16 12 -34 14t-26 2q-55 0 -90 -40t-43 -85z" />
<glyph unicode="&#x3e;" horiz-adv-x="1077" d="M162 78q-10 -53 19.5 -82t70.5 -29q23 0 45 10.5t39 32.5l680 379q27 14 47 39t27 53q4 23 -4.5 42.5t-32.5 35.5l-480 295q4 16 -18.5 36.5t-46.5 20.5q-59 0 -102.5 -40t-51.5 -83q-6 -29 7.5 -51t48.5 -30l407 -244l-545 -293q-12 0 -27.5 -2t-30.5 -10t-28.5 -24.5 t-21.5 -45.5z" />
<glyph unicode="?" horiz-adv-x="1087" d="M252 49q-12 -59 22.5 -83.5t81.5 -24.5q70 0 114 36.5t62 102.5l-4 -2q8 16 9 33q10 49 -3.5 80.5t-66.5 31.5q-72 0 -129 -32.5t-84 -124.5zM326 453q-10 -53 12 -84t100 -31q23 0 40.5 21.5t37 58.5t47 85t72.5 100t110.5 104.5t161.5 99.5q51 25 101.5 58.5t93.5 75.5 t75 89t46 100q2 6 4 11.5t2 11.5q10 51 -6.5 95t-52 77t-85 51.5t-106.5 18.5q-66 0 -132.5 -20.5t-132 -51.5t-127 -70t-116.5 -75q-47 -33 -88 -76t-53 -84l-4 -17q-10 -47 6 -69.5t51 -22.5q39 0 93 30t116 89q90 72 175 124t157 52q47 0 80.5 -17.5t27.5 -49.5l-2 -7 q-8 -33 -57 -73.5t-119 -87.5t-151.5 -99.5t-155.5 -108.5t-129.5 -114.5t-73.5 -116.5q-4 -20 -9 -39.5t-9 -37.5z" />
<glyph unicode="@" horiz-adv-x="1650" d="M170 209q8 -80 50 -139.5t124 -93t213 -33.5q59 0 113.5 11t96.5 24.5t67 23.5l24 10q51 0 90 39t47 80q8 33 -10 56.5t-72 23.5q-35 0 -54 -18.5t-48 -51.5l-19 -9q-18 -9 -48.5 -19.5t-68.5 -19.5t-77 -9q-92 0 -147.5 25.5t-83 67.5t-30.5 96.5t9 111.5q2 27 12 59 q20 72 67.5 160t118 176t163 172t202 149.5t234.5 104.5t262 39q92 0 147.5 -30.5t82 -80t28.5 -113t-10 -126.5q-4 -16 -7.5 -30.5t-7.5 -30.5q-33 -115 -81 -204t-98 -149.5t-96 -91.5t-73 -31q-25 0 -16 33q2 10 6 21.5t8 21.5l197 567q10 10 14 33q4 25 -5 51.5 t-52 26.5h-4q-20 0 -48 -14.5t-38 -38.5l-22 3q-21 3 -38 3q-80 0 -161.5 -28.5t-158.5 -77t-147.5 -112t-127 -132t-96.5 -138t-58 -131.5q-2 -8 -4 -15t-4 -15q-14 -74 19.5 -119t139.5 -45q55 0 119 28.5t126 72.5t121.5 94.5t106.5 93.5q-37 -92 -49 -164 q-16 -86 5.5 -133t93.5 -47q70 0 154.5 45t165.5 129t150.5 201t110.5 262q4 16 8 33.5t9 33.5q18 98 9 185.5t-55.5 153t-136.5 104t-233 38.5q-125 0 -254 -36.5t-251 -100t-233.5 -150.5t-202.5 -189.5t-158 -215t-99 -225.5q-6 -23 -11.5 -43.5t-9.5 -42.5 q-18 -90 -10 -170zM719 463l2 8q14 51 70.5 128t133 149.5t164 125t164.5 52.5q25 0 34 -11.5t5 -27.5v-4q-6 -23 -38.5 -67t-80 -96t-103.5 -106.5t-112.5 -99.5t-107.5 -73.5t-86 -28.5t-42 17t-3 34z" />
<glyph unicode="A" horiz-adv-x="1222" d="M33 49q-6 -31 8 -53.5t68 -26.5h6q41 0 78.5 50.5t87.5 121.5l225 326l58 4q57 4 134.5 9t154.5 9.5t116 4.5q14 -66 23 -104t15.5 -63.5t9.5 -45t7 -50.5q6 -33 15.5 -77.5t19.5 -85.5t21.5 -70t17.5 -29h16q55 0 85 32t40 81q5 31 5 59q0 10 -1 19q-10 92 -34.5 229 t-51.5 287.5t-48.5 295t-25.5 253.5q1 10 1 20q0 48 -17 83q-20 42 -61 42q-31 0 -68 -29.5t-80 -99.5l-764 -1069l-32.5 -52t-28.5 -71zM635 653l278 412q2 -33 5.5 -86t8.5 -109.5t11 -110.5t12 -87z" />
<glyph unicode="B" horiz-adv-x="1255" d="M146 -18q6 -28 36 -27q90 0 204 19.5t235.5 56.5t240.5 91t218.5 123.5t172 155t99.5 183.5q2 6 4 13t4 13q5 27 5 52q0 80 -56 134q-74 72 -240 72q147 70 214 143.5t91 159.5l2 13q3 13 3 26q0 55 -51 95q-62 49 -204 49q-154 0 -299 -33t-268 -61q-31 -6 -66.5 -33 t-46.5 -76q-2 -8 -2 -27l-247 -917q-14 -41 -27.5 -81t-20.5 -75q-4 -23 -4 -41q0 -16 3 -28zM367 143l143 506q117 27 213 42.5t182 15.5q43 0 91 -3.5t87 -14.5t61.5 -31.5t16.5 -57.5l-2 -8q-29 -92 -120 -170t-209.5 -135.5t-243.5 -94t-219 -49.5zM559 827l68 240 q199 109 448 109q35 0 64.5 -8.5t25.5 -30.5l-2 -4q-14 -57 -78.5 -108.5t-152.5 -92.5t-187.5 -68.5t-185.5 -36.5z" />
<glyph unicode="C" horiz-adv-x="1175" d="M187 245q8 -91 45.5 -160t103 -107.5t162.5 -38.5q92 0 188 30.5t183 79.5t161 110t123 120q31 35 35 61q6 29 -12.5 43t-51.5 14q-39 0 -89 -21.5t-91 -68.5q-23 -29 -65.5 -62.5t-95 -61t-106.5 -46t-99 -18.5q-68 0 -109 26.5t-59.5 71.5t-19.5 105v9q0 55 11 115 l8.5 34l8.5 34q35 125 100.5 249t150.5 220t183 156.5t199 60.5q63 0 96 -9t47 -26q43 -49 68.5 -80.5t33.5 -31.5q51 0 90 34.5t50 79.5q2 11 2 21q0 38 -29 69q-66 72 -147.5 98.5t-182.5 26.5q-133 0 -266 -72.5t-250 -194.5t-208 -278.5t-138 -322.5q-12 -37 -18 -74 q-14 -74 -14 -142q0 -27 2 -53z" />
<glyph unicode="D" horiz-adv-x="1241" d="M164 4q8 -35 57 -35q55 0 153.5 20.5t216.5 66.5t245 118t241.5 174.5t206.5 236.5t139 304q8 23 13 51q10 53 10 103q0 31 -4 62q-10 79 -52 139.5t-116 96t-184 35.5q-86 0 -155 -9t-127 -23.5t-110.5 -32t-105.5 -33.5q-63 -20 -100 -66.5t-48 -97.5q-4 -20 -4 -33 l-243 -862q-8 -33 -17.5 -65.5t-13.5 -61.5q-6 -29 -6 -53q0 -19 4 -35zM377 178l258 920q72 35 172 67.5t211 32.5q72 0 118 -23.5t70.5 -62.5t28.5 -90q1 -15 1 -29q0 -37 -7 -75l-6 -29q-47 -166 -148.5 -291t-223.5 -211t-249 -137t-225 -72z" />
<glyph unicode="E" horiz-adv-x="1087" d="M156 82q-4 -18 -4 -33q0 -27 12 -46q18 -30 90 -30h16q10 0 21 2l649 48q92 0 125 29.5t39 60.5l2 12q3 14 3 25q-1 28 -17 40q-24 18 -82 17h-33l-606 -51l114 413l471 52q10 2 22.5 3t27.5 1q41 0 79.5 17t55.5 77l2 12q6 29 -13.5 52.5t-93.5 23.5h-22t-29 -2 l-448 -55l98 348l516 32q51 2 89 3.5t64.5 9.5t43 27.5t28.5 58.5l2 12q2 12 2 21q0 30 -22 42q-30 16 -78 15q-25 0 -51.5 -2t-52.5 -4q-184 -12 -290 -17.5t-165 -5.5h-139q-33 0 -57.5 -11t-43 -29.5t-29 -39t-14.5 -39.5q0 -4 -1 -9t-1 -9q-16 -68 -51 -218.5 t-94 -367.5l-94 -348q-12 -39 -24.5 -73.5t-16.5 -63.5z" />
<glyph unicode="F" horiz-adv-x="993" d="M139 61q-4 -20 -4 -35q0 -55 51 -55h15q6 0 16 2q35 4 57.5 13.5t38 28t26.5 47t26 69.5l131 436l481 72q57 4 90 12t50.5 21.5t24.5 32t15 45.5q4 4 4 8t2 8q2 8 2 14q-1 30 -29 42q-34 14 -83 14q-41 0 -82 -5.5t-66 -9.5l-360 -53l96 348l541 37q82 8 115 30.5 t49 73.5q1 7 1 14q0 44 -24 61q-27 20 -86 20q-10 0 -19.5 -1t-19.5 -1q-184 -16 -286.5 -25.5t-154.5 -15.5t-71.5 -9.5t-42.5 -5.5q-96 -10 -138 -29.5t-52 -66.5q-4 -15 -4 -37q0 -15 2 -33q-35 -123 -54.5 -195.5t-35 -124.5t-29 -98t-33.5 -116l-143 -463 q-4 -20 -8.5 -36.5t-8.5 -33.5z" />
<glyph unicode="G" horiz-adv-x="1474" d="M182 242q8 -88 51 -156t125 -107.5t213 -39.5q184 0 355.5 71.5t311.5 187t240.5 261t141.5 295.5l2 10q1 7 1 14q0 29 -21 44q-25 18 -72 18q-33 0 -66 -13l-28 -8q-27 -8 -70 -21.5t-96 -28.5t-103.5 -29.5t-92.5 -26t-62 -15.5q-39 -4 -70 -18t-52.5 -33.5t-34.5 -42 t-17 -43.5q-4 -29 5 -47t36 -18q12 0 18 2q63 14 123.5 30.5t119 34t119 34.5t125.5 34q-47 -82 -120.5 -172t-171 -166t-216 -125t-253.5 -49q-76 0 -125 28.5t-76 75.5t-31 109q-1 16 -1 32q0 48 9 97q2 18 11 45q35 125 127 249t213.5 223t257 160.5t254.5 61.5h28 q66 -4 99.5 -15t50 -26.5t20.5 -32t9.5 -31t18.5 -23.5t48 -9h18q10 0 23 2q33 4 53.5 25.5t26.5 54.5q4 27 0 55q-16 76 -95 129t-221 53q-98 0 -208.5 -27.5t-224 -80.5t-222 -130t-202 -174.5t-164 -214t-107.5 -249.5q-6 -20 -11 -40t-9 -40q-13 -68 -13 -132 q0 -26 2 -52z" />
<glyph unicode="H" horiz-adv-x="1259" d="M137 74q-4 -18 -4 -33q-1 -23 9 -37q16 -24 69 -35q4 0 7 -1t7 -1q33 0 65 32.5t48 100.5l139 500l643 21l-123 -449q-4 -10 -8 -31q-3 -15 -3 -29q0 -28 14 -52q20 -34 71 -35h10q31 2 52.5 15t36 33.5t22.5 45t12 47.5q6 37 13 59l290 1047q12 35 19 63q6 35 -6.5 56.5 t-59.5 21.5q-43 0 -69.5 -10t-44 -27.5t-26.5 -40t-17 -47.5l-129 -483l-650 -27l115 410q4 8 6 19.5t6 23.5q2 16 3 33.5t-5 33t-19.5 25.5t-35.5 14h-14q-53 0 -85 -38.5t-44 -79.5q-12 -43 -36 -125t-51.5 -179.5t-56 -200t-51.5 -188.5l-109 -407q-4 -12 -6 -23.5 t-4 -21.5z" />
<glyph unicode="I" horiz-adv-x="454" d="M147 68q-2 -11 -2 -22q1 -25 11 -44q14 -27 63 -33q4 0 9 -1t10 -1q29 0 47 11.5t30.5 32t21.5 47t21 57.5l297 1050q6 23 16.5 47.5t14.5 47.5q6 33 -4 55t-51 22q-45 0 -74 -9t-46 -27.5t-27.5 -47t-16.5 -65.5l-303 -1069q-4 -14 -8 -26.5t-9 -24.5z" />
<glyph unicode="J" horiz-adv-x="1069" d="M82 90q10 -53 49 -95t109.5 -68.5t179.5 -26.5q111 0 212 36.5t182 98t139 143.5t85 172l232 821q6 23 11 42.5t9 35.5q3 17 3 31q0 20 -6 34q-11 23 -60 23q-41 0 -66.5 -17t-42 -42t-27 -53.5t-16.5 -53.5l-233 -821q-12 -45 -49 -97t-90.5 -97t-123 -75t-145.5 -30 q-47 0 -74.5 5t-43 17.5t-20.5 32t-9 48.5q4 25 14 55.5t14 58.5q5 19 5 35q0 20 -7 37q-12 31 -65 31h-31q-29 0 -66.5 -29t-60.5 -113q-4 -10 -8 -30q-5 -27 -5 -54.5t5 -54.5z" />
<glyph unicode="K" horiz-adv-x="1128" d="M158 -10q14 -24 59 -25q41 0 82 27.5t57 111.5l2 17l148 520l401 -612q45 -72 78 -72q10 0 14 2q53 16 79 35.5t30 46.5q1 6 1 12q0 33 -26 78l-409 614l536 381q55 29 82 57.5t31 53.5q6 33 -15.5 54.5t-58.5 21.5q-23 0 -49 -10.5t-49 -32.5l-588 -422l107 352l4 19 q6 29 8 52t-4 39.5t-23.5 26t-50.5 9.5q-45 -2 -82 -44t-53 -102l-305 -1081l-6 -35q-7 -35 -7 -58.5t7 -35.5z" />
<glyph unicode="L" horiz-adv-x="909" d="M147 61q-4 -20 -4 -39q1 -20 5 -40q8 -38 49 -37q4 0 7 1t7 1l582 76q66 12 102.5 37.5t42.5 52.5q0 10 -2 16l2 10q2 9 2 16q0 52 -82 52q-33 0 -70 -6l-421 -56l297 1055q4 14 6 26.5t6 22.5q5 22 5 39q0 20 -7 32q-12 22 -58 23q-78 0 -104.5 -39.5t-42.5 -107.5 l-305 -1083q-10 -16 -17 -52z" />
<glyph unicode="M" horiz-adv-x="1589" d="M162 111q-6 -33 -6 -57q0 -33 11 -50q19 -29 60 -35h9q23 0 43 16.5t36.5 39t27.5 48t15 44.5l207 733q25 -123 57.5 -248t57.5 -248q8 -43 12 -63.5t7 -33.5t7.5 -26.5t14.5 -42.5q4 -18 29.5 -37.5t66.5 -19.5q29 0 60.5 14.5t62.5 49.5q27 31 41 47t25.5 33.5t26 39 t44.5 62.5q25 31 74 87t110.5 125.5t130 145.5t130.5 146l-226 -779q-6 -12 -9 -23t-7 -22q-6 -35 7 -59.5t61 -28.5h10q57 0 89 39t42 90l4 19l307 1089q7 35 7 58v6q-1 24 -11 38.5t-27.5 21.5t-44.5 11h-4q-12 0 -33.5 -14t-47 -37.5t-54.5 -54.5t-55 -64 q-117 -143 -207 -250.5t-155.5 -185.5t-110.5 -130t-72 -85q-47 -57 -69.5 -94t-32.5 -37t-22.5 67.5t-29 145.5t-32 146.5t-25.5 119t-10 60.5q-8 51 -20.5 105t-22.5 99.5t-18.5 74t-8.5 26.5q-8 57 -33.5 86t-58.5 29q-31 0 -60.5 -28t-45.5 -85z" />
<glyph unicode="N" horiz-adv-x="1337" d="M143 63q-3 -15 -3 -28q0 -68 81 -68h15q45 4 73.5 35t36.5 68q2 8 2 16v16l230 818q27 -53 58.5 -114t62 -120t57 -116.5t43.5 -102.5q14 -41 40.5 -99.5t56.5 -120t58.5 -118.5t46.5 -94q6 -8 10.5 -19.5t14.5 -20.5t30.5 -15.5t57.5 -6.5q25 0 43.5 13.5t32.5 33 t24.5 41t16.5 39.5l313 1119q4 12 6 23l4 22q4 20 4 36q0 24 -10 38q-16 22 -69 22q-35 0 -55.5 -12.5t-35 -32t-21.5 -42t-13 -42.5l-248 -893q-6 8 -17.5 29.5t-24.5 45t-24.5 44t-15.5 30.5q-37 66 -65.5 125.5t-57.5 125t-62.5 145.5t-80.5 188q-6 16 -11.5 22.5 t-9.5 16.5t-11 30.5t-19 65.5q-6 18 -15.5 41t-23 43.5t-30.5 33.5t-38 13q-25 0 -43 -5t-34.5 -21.5t-32 -45t-29.5 -75.5l-305 -1079q-10 -29 -13 -48z" />
<glyph unicode="O" horiz-adv-x="1304" d="M199 444q-16 -84 -16 -155q0 -133 56 -219q87 -134 293 -133q139 0 281.5 63t267.5 172t220.5 254t142.5 311q14 55 24 111q20 101 20 197q0 101 -36 175q-35 74 -108.5 118t-196.5 44q-102 0 -204.5 -41t-199 -109.5t-181.5 -155.5t-154.5 -181t-117.5 -187.5 t-69 -170.5q-6 -25 -12 -47.5t-10 -45.5zM393 455q4 20 9.5 39.5t11.5 42.5q16 59 55 132.5t91 147.5t116.5 143.5t134.5 123t142.5 86t142.5 32.5q74 0 116.5 -29.5t62 -80t19.5 -115.5q0 -63 -14 -133q-4 -27 -11.5 -53.5t-15.5 -53.5q-35 -125 -104.5 -237.5 t-160.5 -197.5t-195.5 -135t-208.5 -50q-133 0 -176 92q-26 56 -26 134q0 51 11 112z" />
<glyph unicode="P" horiz-adv-x="1132" d="M150 66q-2 -15 -2 -28q0 -20 5 -38q9 -29 56 -29h8q59 4 96 42t45 77q2 8 1 15.5t-1 13.5l121 426q78 12 171 37.5t188.5 63.5t186.5 86t166 105.5t129.5 122t74.5 136.5l4 16l4 16q6 30 6 56t-7 48q-13 42 -44 66.5t-75 33.5t-93 9q-215 0 -359.5 -20.5t-236.5 -36.5 q-57 -10 -92 -52t-49 -91q-12 -39 -24.5 -82t-25 -85t-22.5 -80t-16 -67l-197 -696q-12 -31 -18 -65zM530 727l99 385q45 12 103.5 21.5t122 15.5t125.5 9t118 3q18 0 38.5 -1t36 -6t24.5 -17.5t5 -32.5l-2 -8q-16 -57 -89 -114.5t-171 -108t-207.5 -89.5t-202.5 -57z" />
<glyph unicode="Q" horiz-adv-x="1347" d="M169 206q5 -83 42 -142.5t105.5 -92t175.5 -32.5q125 0 248.5 43t244.5 122q35 -49 78 -91t65 -93q63 -33 107 -33q37 0 64.5 22.5t52.5 70.5l2 -3q-16 31 -41 54.5t-49 50.5q-31 37 -55.5 65.5t-61.5 83.5q129 119 222 268.5t144 323.5q4 16 8.5 35t8.5 35q14 70 14 135 q0 29 -3 56q-9 90 -48 156.5t-104.5 104t-159.5 37.5q-102 0 -210 -39.5t-212.5 -107.5t-201.5 -158t-177 -190.5t-139.5 -204.5t-85.5 -203q-4 -23 -10.5 -45t-10.5 -45q-14 -78 -14 -146q0 -19 1 -37zM366 290v8q0 49 11 103q4 18 9 38t9 40q20 74 65.5 157t106 163 t134 152.5t153.5 127t163 87t161 32.5q57 0 94 -25.5t55.5 -68.5t19.5 -100v-9q0 -53 -12 -112q-4 -16 -7 -30t-7 -30q-35 -129 -103.5 -244.5t-160.5 -207.5q-41 43 -70 79.5t-49 63.5q-23 18 -45 18q-35 0 -66.5 -27.5t-38.5 -64.5q-1 -8 -1 -15q0 -27 16 -52 q23 -10 46 -47t52 -84q-86 -57 -176 -90t-182 -33q-63 0 -101.5 21.5t-56.5 59.5t-19 90z" />
<glyph unicode="R" horiz-adv-x="1150" d="M154 72q-5 -25 -5 -44q0 -21 6 -34q11 -25 52 -25h4q37 0 61.5 12.5t40 33t25.5 46t20 52.5l119 428l441 -516q49 -57 116 -58q43 0 80 25.5t51 73.5l-16 -31l2 10q2 9 2 18q1 25 -15 45q-22 28 -53 52l-411 458q104 25 211.5 66t201 99.5t162 132t92.5 163.5 q4 10 6.5 18.5t4.5 18.5q6 29 5 54q0 169 -251 169q-178 0 -295 -7t-199 -19q-66 -10 -104.5 -60.5t-52.5 -117.5l-41 -164t-37 -160l-213 -690q-4 -14 -6 -26.5t-4 -22.5zM537 743l108 392q45 14 126 22t163 8q68 0 123 -6q87 -14 87 -62q0 -6 -1 -12l-2 -6 q-14 -57 -81 -111.5t-157 -100.5t-189.5 -78.5t-176.5 -45.5z" />
<glyph unicode="S" horiz-adv-x="1292" d="M139 227q-5 -24 -5 -47q0 -27 6 -55q12 -51 47.5 -93t98 -67.5t154.5 -25.5q80 0 172.5 17t187.5 52t188 89.5t172 127t140.5 165.5t92.5 206q4 10 5 18.5t3 16.5q5 31 6 57q-1 42 -15 73q-22 50 -63 77.5t-90 38t-84 10.5q-96 0 -184 -18.5t-163 -42t-134.5 -42 t-95.5 -18.5q-31 0 -53.5 18.5t-14.5 57.5l2 10q12 43 58 102.5t117 112.5t164 91t202 38q59 0 80.5 -14.5t33.5 -22.5q23 -18 35 -31.5t23.5 -21.5t28 -12t51.5 -4q20 0 37.5 10t32 23.5t23.5 28.5t11 28l2 10q2 10 2 20q-1 28 -17 54q-22 34 -65 61t-101.5 41t-125.5 14 q-123 0 -252 -47t-241.5 -125t-195.5 -180t-116 -215q-2 -8 -4 -15t-4 -16q-5 -29 -5 -54q0 -32 8 -54q15 -42 47 -66t75 -33.5t86 -9.5q57 0 131 18.5t153.5 42t159.5 42t152 18.5q46 0 72 -20q18 -15 19 -49q0 -13 -3 -29l-4 -21q-23 -80 -69 -143.5t-106.5 -112.5 t-129 -82.5t-134 -55t-122 -32t-93.5 -10.5q-51 0 -81.5 10.5t-48 26.5t-25.5 33.5t-13 34.5q-10 41 -24 76.5t-53 35.5q-59 0 -93 -30.5t-49 -71.5z" />
<glyph unicode="T" horiz-adv-x="1021" d="M342 1120q-6 -33 14.5 -53t79.5 -20q12 0 25.5 1t30.5 3l247 49l-276 -994q-4 -14 -8 -30.5t-9 -32.5q-6 -29 4.5 -51.5t63.5 -22.5q66 0 90.5 31t48.5 104l291 1031l297 53q49 12 81 22.5t51.5 22.5t29.5 26.5t16 32.5l2 13q2 13 2 23q0 24 -12 38q-18 20 -57 20 q-8 0 -16.5 -1t-18.5 -3q-96 -16 -171 -29.5t-160 -29.5t-193.5 -36.5t-268.5 -51.5q-29 -8 -57.5 -16.5t-54 -19.5t-44 -27.5t-26.5 -41.5z" />
<glyph unicode="U" d="M188 199q-6 -28 -6 -54q0 -27 6 -51q12 -48 52.5 -83.5t108 -54.5t167.5 -19q129 0 248 35.5t213 94t159 132t85 151.5l237 844q4 2 11.5 17.5t11.5 37.5q4 31 -7.5 59.5t-64.5 28.5q-39 0 -63.5 -12t-40 -32.5t-22.5 -48t-13 -56.5l-256 -846q-10 -37 -53 -77 t-108 -72.5t-147.5 -53t-175.5 -20.5q-31 0 -58.5 7t-48 20.5t-29.5 33t-5 43.5l2 8l283 1004q2 12 3 29.5t-5 34t-22.5 27.5t-47.5 11q-33 0 -54.5 -10t-34.5 -26.5t-21.5 -36t-16.5 -39.5l-278 -994q-4 -8 -5.5 -16t-3.5 -16z" />
<glyph unicode="V" horiz-adv-x="1064" d="M320 140q2 -97 24 -142q20 -41 55 -41q27 0 60 26.5t73 86.5q20 35 56.5 87t78.5 110.5t87 121t87 119.5t76.5 103t55.5 75q23 31 37 50.5t36.5 47t61.5 70.5t109 121q39 43 58 65.5t29.5 32.5t16.5 17.5t18 19.5l56 90l2 12q2 12 2 23q-1 25 -13 39q-18 22 -51 22 q-29 0 -61.5 -15t-65.5 -50q-29 -29 -57.5 -63.5t-77.5 -98.5q-43 -51 -64.5 -77.5t-31.5 -40t-12 -17.5t-5.5 -10t-12.5 -20.5t-32 -47.5q-14 -18 -45.5 -59t-72.5 -92.5t-86 -105.5t-82 -100t-61.5 -77t-26.5 -33q-2 8 -2 62q0 53 1 113.5t2 110.5t1 52q2 53 4 83t3 48.5 t2 31.5t2 32.5t2 51.5t3 89q0 27 4 75t4 79q1 6 1 13q0 42 -24 62q-28 24 -65 25q-35 0 -68.5 -21.5t-43.5 -62.5q-4 -4 -5.5 -14.5t-5.5 -24.5q-6 -35 -14 -80q-6 -36 -6 -57v-10q-4 -147 -7 -263t-3 -180q0 -37 1 -46t-1 -32q-2 -27 -3 -73.5t-1 -98.5q-3 -78 -3 -147 q0 -35 1 -67z" />
<glyph unicode="W" horiz-adv-x="1560" d="M238 106q-1 -24 -1 -43q0 -47 7 -67q10 -26 45 -27q4 0 9 1t9 1q20 2 35.5 5.5t32 16.5t40 41.5t62.5 84.5q6 6 34 45t69 97t90 132t99 149.5t97 148.5t80 130q-1 -38 -1 -80q0 -63 2 -135q3 -119 8.5 -228.5t12.5 -192.5t11 -107q12 -43 21.5 -67.5t17.5 -37t16 -15.5 t19 -3h22q33 0 69 26.5t81 106.5q23 41 74 127t117.5 194.5t140 232.5t141 241.5t124 219t85.5 169.5l-2 6q2 4 6 16q4 29 -9.5 55.5t-70.5 26.5q-47 0 -83 -46t-69 -99q-14 -20 -66 -106.5t-127 -210t-161 -272t-168 -294.5v98v148t-1 165t-2 155.5t-2 118.5t-1 54 q0 18 1 51v22q0 22 -1 43q-2 32 -9 56.5t-22 24.5q-29 0 -47 -3t-37.5 -21.5t-46 -58.5t-71.5 -114q-8 -12 -34 -53t-62 -99t-81 -130t-91 -145.5t-91 -143.5t-82 -125q6 92 12.5 191.5t14.5 195.5t16 183.5t15 156.5q2 16 4 55t10 80q-12 53 -32.5 67.5t-57.5 14.5 q-63 0 -90 -28.5t-37 -81.5q-23 -117 -35 -234t-19.5 -222t-10.5 -195.5t-7 -153.5q-2 -43 -6 -91t-7 -93.5t-6 -80t-3 -49.5z" />
<glyph unicode="X" horiz-adv-x="983" d="M31 35q0 -2 1 -3t1 -3q6 -33 28.5 -48.5t51.5 -15.5t61.5 14.5t58.5 43.5q35 41 86.5 100t101.5 120.5t95 118t71.5 89t28.5 34.5l12 -48q11 -48 28.5 -115.5t38 -139t38.5 -116.5q4 -33 31 -59.5t67 -26.5q25 0 53.5 12t63.5 43l-10 59q0 4 2 7t2 8q4 23 -3 33t-11 22 q-23 49 -45.5 133t-40 167t-28.5 144l-11 60l21 26q22 25 58 66t81 92t93 103.5t94 99.5t81 80q25 29 48.5 65.5t31.5 71.5q4 25 -4.5 43t-36.5 26q-16 4 -27 5q-39 0 -69.5 -25t-65.5 -55q-20 -23 -55 -61t-75 -81t-81 -88t-73.5 -80.5t-53.5 -58.5l-22 -23h-3 q-8 0 -21 43.5t-29.5 104.5t-35 131t-32.5 123q-4 18 -8.5 34.5t-11.5 29t-19.5 19.5t-36.5 7q-51 0 -82 -23.5t-41 -58.5l-2 -8q-4 -14 -2 -32.5t5 -36t7 -33t6 -21.5q0 -6 9.5 -44t21.5 -90t27.5 -111.5t28 -109.5t21.5 -84l9 -34q-2 -2 -30.5 -39t-79 -98.5t-103.5 -127 t-105.5 -128t-86.5 -99.5q-2 -4 -20.5 -23.5t-41 -44t-41 -49t-20.5 -36.5z" />
<glyph unicode="Y" d="M375 1251q-2 -9 -2 -19q0 -39 33 -85l294 -508l-143 -508q-4 -12 -6 -24.5t-4 -22.5q-6 -26 -6 -48q0 -17 4 -31q8 -32 47 -32h8q37 2 61.5 15.5t41 34t26.5 45t19 51.5l147 520l623 508q39 37 55 62.5t20 41.5q4 23 -10 36t-31 26q-20 10 -32 10q-35 0 -72 -27.5 t-84 -52.5l-502 -414l-252 371q-29 63 -53.5 105.5t-50.5 42.5h-6q-41 -8 -79 -32t-46 -65z" />
<glyph unicode="Z" horiz-adv-x="1163" d="M68 49q-2 -10 -2 -18q0 -27 18 -45q24 -24 68 -23h10q80 4 191.5 7t226 4t217 2t161.5 1h64q45 0 78 41.5t47 92.5q6 8 6 16q6 29 -17.5 38t-70.5 9q-43 0 -101.5 -5t-125.5 -9q-72 0 -129.5 -1t-112.5 -2t-113.5 -5.5t-130.5 -10.5l1108 1086q31 31 37 61.5t-10.5 53 t-48.5 22.5h-8l-660 -39q-90 -2 -141 -8t-81 -19.5t-42 -37t-21 -60.5l-2 -6q-1 -7 -1 -13q0 -48 85 -48q29 0 67 5t85 15l479 37l-1077 -1053q-47 -43 -53 -88z" />
<glyph unicode="[" horiz-adv-x="827" d="M76 -164q-10 -51 3 -71.5t56 -20.5q33 0 98 12l322 33q49 4 68.5 28.5t31.5 61.5q4 10 4 17q0 6 3 14q8 39 -2.5 52t-38.5 13q-16 0 -39 -2t-52 -6l-229 -24l410 1446l223 59q51 16 79.5 22.5t44 12.5t24 18t16.5 43v8q10 41 -23 59.5t-88 18.5h-31q-16 0 -32 -4 l-207 -47q-76 -18 -135.5 -61t-77.5 -105l-416 -1530q-4 -12 -6 -24.5t-6 -22.5z" />
<glyph unicode="\" horiz-adv-x="919" d="M467 1144q2 -87 7 -196.5t14.5 -230.5t21.5 -234.5t28.5 -213t36.5 -163.5q0 -18 3.5 -42.5t9.5 -49t15 -45t24 -28.5q37 -25 69 -25q57 0 76 82q4 29 4 65q0 37 -8 84q-25 154 -43 323t-30.5 317.5t-18.5 256t-6 138.5q-4 45 -6 85t-8.5 70.5t-20.5 48t-43 17.5 q-25 0 -60 -14q-33 -12 -45 -29t-16 -37q-4 -10 -3 -22.5t-1 -22.5q-2 -47 0 -134z" />
<glyph unicode="]" horiz-adv-x="827" d="M117 -201q-8 -41 11 -57t54 -16q29 0 63 7t68 15l160 23q45 8 79 14t57.5 16.5t40 28.5t26.5 53l475 1643q2 6 3 11t3 11q6 31 -7 54.5t-71 23.5q-35 0 -96 -12q-14 -4 -59 -10.5t-94.5 -12.5t-88.5 -11t-39 -7q-66 -6 -97.5 -27.5t-43.5 -58.5l-2 -17q-10 -47 11.5 -63 t68.5 -16q12 0 25.5 1t29.5 3l224 30l-410 -1454l-215 -47q-33 -6 -60.5 -10t-49 -13.5t-38 -30t-26.5 -56.5z" />
<glyph unicode="^" horiz-adv-x="819" d="M684 1087q-4 -14 8.5 -25t48.5 -22q6 -2 17 -2q16 0 37.5 13.5t56.5 48.5l238 200l98 -194q12 -41 35.5 -54.5t40.5 -13.5q8 0 10 2q39 14 54.5 27.5t21.5 36.5v6q6 25 -7 55l-129 252q-6 29 -24.5 50.5t-46.5 21.5q-33 0 -47.5 -13.5t-28.5 -31.5l-311 -264 q-23 -18 -40.5 -34t-27.5 -42z" />
<glyph unicode="_" horiz-adv-x="962" d="M-86 -190q-4 -27 6 -46.5t43 -19.5h938q35 0 57.5 25.5t26.5 54.5q6 27 -4 47t-39 20h-938q-35 0 -59.5 -26.5t-30.5 -54.5z" />
<glyph unicode="`" horiz-adv-x="1079" d="M633 1352q6 -33 14 -56.5t22.5 -44t35 -40t49.5 -44.5q35 -29 59.5 -52t34.5 -40q12 -23 24.5 -33t21.5 -15t13 -5h6q31 10 46.5 19.5t19.5 25.5q6 18 -10 63q-10 35 -28.5 76t-41 80t-48.5 73t-50 52q-61 45 -107 45q-47 0 -59 -55q-2 -10 -2 -23v-26z" />
<glyph unicode="a" horiz-adv-x="978" d="M10 59q-8 -35 7.5 -57t68.5 -27h6q39 0 76 43t78 107l170 248q98 8 154.5 12t91 6t55 3t45.5 1q4 -14 5 -24.5t5 -20.5q8 -29 12 -47t7.5 -33.5t5.5 -32t4 -38.5q4 -29 14 -67t21.5 -72.5t22.5 -59.5t20 -25h14q55 0 84 31t39 80q4 16 6 34t0 34q-8 59 -23.5 142 t-31.5 177v-2q-25 137 -48.5 279.5t-27.5 253.5v-3q1 12 1 24q0 43 -16 73q-22 40 -63 39q-31 0 -65.5 -27t-73.5 -88v2l-611 -858q-10 -16 -28.5 -45t-24.5 -62zM549 565l168 248q4 -53 9 -120t13 -118z" />
<glyph unicode="b" horiz-adv-x="1003" d="M102 -10q10 -28 43 -27q74 0 167.5 16.5t192.5 47t196.5 74.5t180.5 102.5t142 129t82 152.5v2q2 6 4 12.5t2 10.5q4 22 4 43q0 59 -34 101q-46 58 -150 75q88 51 131 106.5t61 120.5l2 11q2 12 2 23q0 49 -42 87q-52 47 -177 47q-111 0 -216 -20.5t-195 -42.5 q-29 -6 -49 -12q-29 -8 -65 -33t-46 -76q0 -4 -1 -9t-1 -11l-197 -732q-10 -33 -20 -65.5t-17 -61.5q-5 -22 -5 -40t5 -31zM324 158l104 366q86 18 160 29.5t137 11.5q31 0 65.5 -2t63.5 -8t45 -19t12 -36v-4q-20 -68 -86.5 -124.5t-152.5 -99.5t-180.5 -72.5t-167.5 -41.5z M477 705l45 155q150 80 336 80q20 0 40 -2t17 -8v-2q-10 -41 -56 -77t-109.5 -65.5t-136.5 -51t-136 -29.5z" />
<glyph unicode="c" horiz-adv-x="940" d="M134 206q7 -77 39 -133.5t88 -89t136 -32.5q76 0 156 25.5t152.5 66.5t134 91t102.5 99v-2q29 37 35 60q6 35 -15.5 51t-56.5 16t-79 -19.5t-83 -62.5q-16 -23 -48.5 -47t-70.5 -44.5t-79 -35t-74 -14.5q-49 0 -77.5 19.5t-42 53.5t-14.5 79v8q0 41 9 86q4 12 6 24.5 t6 24.5q27 98 77 192.5t114.5 170t139.5 122t151 46.5q47 0 70.5 -6.5t33.5 -18.5q14 -16 25.5 -30.5t21.5 -26.5q31 -37 45 -37q49 0 88 34.5t50 77.5q1 8 1 16q0 39 -26 70q-53 61 -123 84t-154 23q-111 0 -221 -60.5t-207.5 -160t-172 -227.5t-113.5 -265 q-4 -16 -7.5 -31.5t-7.5 -31.5q-11 -61 -11 -117q0 -25 2 -48z" />
<glyph unicode="d" horiz-adv-x="993" d="M115 9q10 -34 63 -34q45 0 125 17.5t176 54.5t200.5 96.5t199 143.5t170 193.5t114.5 248.5q4 10 6 20.5t5 22.5q8 43 8 84q0 28 -4 56q-10 68 -45 118.5t-98.5 81.5t-155.5 31q-117 0 -195 -20.5t-149 -43.5q-14 -4 -28.5 -8t-31.5 -8q-59 -18 -92 -60t-43 -90 q-2 -10 -3 -17t-1 -13l-195 -684q-2 -10 -5 -19.5t-5 -19.5q-4 -16 -8 -32.5t-8 -33.5q-5 -26 -5 -47t5 -38zM334 190l194 695q53 29 129 51t156 22q51 0 85 -17t51.5 -46t20.5 -65q1 -12 1 -25q0 -25 -4 -51l-4 -21q-37 -123 -111 -217t-163 -159.5t-184 -106.5t-171 -60z " />
<glyph unicode="e" horiz-adv-x="870" d="M109 84q-4 -18 -4 -34q0 -26 11 -44q17 -29 89 -29q6 0 12 1.5t14 1.5l525 38q86 2 114.5 31t34.5 62l4 12q2 12 2 22q1 29 -17 43q-24 18 -81 19h-25l-460 -39l78 289l360 39q10 2 19.5 3t19.5 1q41 0 78 17.5t53 76.5l4 12q4 29 -14.5 54.5t-87.5 25.5h-21 q-10 0 -22 -2l-334 -41l65 236l398 26q8 0 16 1t18 1q37 0 63 2t45 11.5t33.5 28t24.5 52.5l2 13q2 13 2 23q0 31 -22 43q-30 16 -80 16q-12 0 -25.5 -1t-25.5 -1q-8 0 -15.5 -1t-13.5 -1q-147 -10 -230 -14.5t-130 -4.5h-111q-63 0 -99 -40t-42 -77q-2 -4 -1 -7t1 -5 q-4 -14 -9.5 -33.5t-11.5 -42.5q-16 -66 -39.5 -164t-58.5 -227l-74 -278q-4 -10 -6 -18.5t-6 -18.5q-6 -20 -11 -41t-9 -37z" />
<glyph unicode="f" horiz-adv-x="794" d="M94 72q-4 -19 -4 -34q0 -60 57 -61q20 0 31 3h-2q33 4 54.5 12t36 24.5t25.5 42t23 62.5l99 336l372 55h-2q51 4 80 11t44.5 18.5t22.5 28t15 38.5q0 2 2 5t2 8q0 4 2 7t2 7q4 23 -3 38t-21.5 23.5t-36 11.5t-43.5 3q-31 0 -58.5 -3t-50.5 -8q-4 -2 -8 -2h-6l-260 -39 l65 234l414 29q76 8 106.5 30.5t47.5 71.5l2 4q1 8 1 15q0 41 -21 59q-23 20 -78 20q-8 0 -18.5 -1t-20.5 -1q-109 -10 -180.5 -16t-117.5 -11.5t-71 -7.5t-39 -4q-12 -2 -20 -2t-19 -2h2q-88 -10 -126 -30.5t-48 -69.5q-4 -14 -6 -28.5t0 -30.5q-31 -115 -47.5 -176.5 t-30.5 -106.5q-10 -31 -18 -61.5t-21 -75.5l-114 -371q-4 -16 -8.5 -29.5t-6.5 -25.5z" />
<glyph unicode="g" horiz-adv-x="1179" d="M128 204q7 -73 44 -129.5t105.5 -90t179.5 -33.5q152 0 293 58.5t255.5 153.5t196.5 215t117 243l2 12q2 10 2 18q0 28 -19 43q-26 19 -71 19q-25 0 -62 -13l-63 -20q-35 -10 -78 -23.5t-84 -24.5t-76.5 -20.5t-54.5 -11.5q-72 -8 -111.5 -49t-48.5 -82q-6 -29 5.5 -51.5 t44.5 -22.5h8q6 0 12 2h-2q49 12 95 24.5t93 27.5q39 10 78 22t82 23q-41 -61 -97 -125t-128 -116t-157 -85t-183 -33q-55 0 -91 21.5t-54.5 56.5t-22.5 80q-1 13 -1 26q0 33 7 68q2 8 3 15.5t5 17.5q27 96 97.5 193.5t165 174t199 125t196.5 48.5h20q41 -4 64.5 -10.5 t36 -15.5t16.5 -18.5t8 -17.5q8 -20 19.5 -34.5t52.5 -14.5h16q10 0 21 2q35 2 56 25.5t30 58.5q2 12 3 25.5t-3 27.5q-14 66 -81 112t-188 46t-263 -51.5t-275 -144.5t-238.5 -226t-148.5 -297q-6 -16 -10.5 -32.5t-8.5 -35.5q-11 -57 -11 -110q0 -23 2 -46z" />
<glyph unicode="h" horiz-adv-x="1007" d="M94 80q-4 -20 -4 -36q0 -24 8 -36q14 -22 68 -33q4 0 7 -1t7 -1q35 0 66 31t47 94l106 381l473 15l-90 -334v2q-2 -8 -6 -29q-3 -16 -3 -30q1 -28 13 -50q20 -33 70 -33h10q31 2 51.5 14.5t35 32t23.5 42t13 45.5l8 45l232 837q4 14 8 26.5t6 27.5q8 37 -4 59t-63 22 q-41 0 -67 -9t-41 -24.5t-24.5 -37t-17.5 -43.5l-98 -375l-477 -18l84 305v-2q8 14 10 39q3 14 3 28q0 20 -6 38q-10 32 -59 38h-14q-53 0 -82 -37t-43 -76q-4 -16 -11 -40.5t-16 -53.5q-14 -47 -30.5 -104.5t-33.5 -119t-33.5 -122.5t-31.5 -113l-86 -327v2 q-4 -10 -5 -19.5t-3 -19.5z" />
<glyph unicode="i" horiz-adv-x="364" d="M102 76q-3 -14 -3 -26q-1 -22 9 -40q14 -28 66 -35h19q51 0 70.5 31t37.5 82l-2 -2q4 4 5 10t3 10l2 5l238 839q2 4 3 10.5t3 10.5q4 14 9 29.5t9 29.5q6 35 -4 57.5t-55 22.5q-43 0 -69.5 -8t-44 -25.5t-27 -43t-15.5 -60.5l-241 -856v2q-6 -18 -13 -43z" />
<glyph unicode="j" horiz-adv-x="856" d="M48 85q9 -46 43 -83t93.5 -59.5t151.5 -22.5t177 31t152.5 83t116.5 120.5t72 144.5l186 657q4 16 8.5 32t8.5 32q3 16 3 29q0 22 -8 37q-12 24 -63 24q-37 0 -61.5 -13.5t-40 -35t-24.5 -46t-15 -44.5q0 -4 -2 -6t-2 -7l-187 -655q-10 -33 -36.5 -71.5t-66.5 -71.5 t-90 -55.5t-108 -22.5q-66 0 -83 14.5t-21 53.5l2 -7q2 10 3 20.5t5 20.5q4 12 8 24.5t6 27.5q3 17 3 33q0 21 -6 39q-11 30 -66 30h-25q-29 0 -66.5 -26.5t-58.5 -104.5v2q-4 -10 -8 -31q-5 -25 -5 -49q0 -22 4 -44z" />
<glyph unicode="k" horiz-adv-x="903" d="M111 -4q14 -24 61 -25q41 0 81 26t56 103l2 15l105 366l295 -450q23 -35 39 -50.5t38 -15.5q12 0 21 4l-2 -2q49 16 73.5 36t30.5 48q1 6 1 13q0 30 -21 73v2l-320 475l410 291l-2 -2q51 27 75.5 53.5t28.5 53.5q6 35 -16.5 58.5t-58.5 23.5q-23 0 -47.5 -9.5 t-47.5 -31.5l-424 -306l70 234l4 20q6 29 6 53q0 19 -4 33q-8 33 -73 33q-47 -2 -82 -41t-52 -94l-243 -866l-4 -27q-7 -35 -7 -58.5t7 -35.5z" />
<glyph unicode="l" horiz-adv-x="727" d="M102 70q-3 -18 -3 -35q-1 -22 5 -43q10 -37 52 -37q4 0 7 1t7 1l467 61q61 10 96 37t39 56q2 4 2 14v4q2 10 2 19q0 59 -80 59q-31 0 -61 -6h2l-313 -41l231 819q4 10 5 20.5t5 20.5q4 21 4 38q0 24 -8 36q-14 22 -61 22q-74 0 -100.5 -38t-41.5 -99l-243 -866v2 q-4 -10 -6.5 -19.5t-6.5 -25.5z" />
<glyph unicode="m" horiz-adv-x="1271" d="M113 111q-6 -31 -6 -54q0 -33 12 -49q20 -26 61 -33h10q25 0 44.5 14.5t35 36t26.5 45t15 42.5l142 503q4 -20 8 -39.5t10 -37.5q14 -61 29.5 -123t25.5 -121q6 -29 9.5 -45.5t5.5 -26.5t3 -17t5 -16v3q2 -6 5 -12.5t7 -16.5q4 -16 29.5 -37t64.5 -21q27 0 56.5 12.5 t60.5 45.5q25 29 37 44t22 34q8 12 18.5 27.5t33.5 41.5q14 18 40.5 50t60.5 71t73 83t80 89l39 43l-156 -543q-4 -10 -6 -17t-4 -17q-3 -14 -3 -27q0 -21 9 -37q14 -26 61 -31h8q55 0 87 38t42 85l5 15l245 870q8 39 7 62.5t-10 38t-27.5 20.5t-42.5 10h-5q-12 0 -32.5 -12 t-44 -31.5t-49 -46.5t-48.5 -55h2q-111 -135 -191.5 -229.5t-133.5 -159.5q-39 -47 -65.5 -79t-45.5 -55q-20 -25 -34.5 -43t-22.5 -30q-2 -4 -8 -11q4 10 0 29q-10 57 -25.5 124t-25.5 124q-12 53 -31 134t-41.5 158t-48 132t-52.5 55q-33 0 -62.5 -26.5t-45.5 -81.5z" />
<glyph unicode="n" horiz-adv-x="1069" d="M98 70q-3 -16 -3 -30q0 -66 81 -67h12q47 4 77 35t36 70q2 10 2 26l166 594q10 -16 17.5 -31.5t17.5 -31.5q35 -66 66.5 -131.5t52.5 -120.5q12 -31 32.5 -77t44 -96t47 -96t39.5 -77l5 -8q6 -16 22 -32.5t80 -16.5q25 0 43 12t31.5 29.5t23.5 38t17 36.5v2l249 895 q6 25 11 41q4 21 4 37q0 25 -10 37q-16 20 -72 20q-31 0 -51.5 -10t-33.5 -26.5t-20.5 -36t-13.5 -37.5q-4 -8 -4 -10l-184 -662q-4 8 -4 10q-10 16 -19.5 33t-13.5 29q-61 129 -101 215t-67 143.5t-42 90t-23.5 55t-13.5 40t-11 42.5q-6 14 -13.5 32.5t-19.5 34.5 t-28.5 27.5t-39.5 11.5q-25 0 -43 -5t-33.5 -19.5t-28.5 -41t-28 -69.5l-245 -864q-4 -10 -6.5 -20.5t-4.5 -20.5z" />
<glyph unicode="o" horiz-adv-x="1044" d="M143 375q-14 -71 -14 -131q0 -110 48 -182q75 -112 249 -113q115 0 232.5 52t221 141t182.5 210t118 256q4 23 10 45.5t10 44.5q16 79 16 153v16q-2 81 -30.5 143.5t-92 99.5t-167.5 37q-86 0 -170 -34t-164 -90t-150.5 -128t-127 -149.5t-96.5 -153.5t-56 -139 q-12 -39 -19 -78zM340 385q2 27 16 64q20 70 73.5 158.5t126.5 167.5t157 133.5t164 54.5q53 0 83.5 -22.5t44 -60.5t13.5 -87t-10 -101q-4 -20 -9.5 -40t-11.5 -40q-27 -96 -81 -182t-122.5 -151.5t-148.5 -104.5t-160 -39q-94 -1 -126 67q-19 39 -18 95q-1 40 9 88z" />
<glyph unicode="p" horiz-adv-x="905" d="M104 74q-3 -16 -3 -31q0 -19 5 -36q11 -30 60 -30h8q57 4 93 41t44 74q2 6 0 13.5t-2 15.5l2 -8l92 325q98 16 216 57.5t225.5 100.5t189.5 135t107 164l4 27q6 30 6 54q0 22 -5 40q-11 37 -38 58.5t-65.5 30.5t-81.5 9q-166 0 -274.5 -13.5t-180.5 -25.5q-4 -2 -15.5 -4 t-15.5 -4l2 2q-53 -10 -85 -49t-46 -84q-4 -16 -9 -31.5t-9 -32.5q-16 -53 -30.5 -103t-23.5 -85l-155 -557q-8 -20 -15 -53zM457 629l65 264q37 8 82 15t92 12.5t94.5 7.5t88.5 2q23 0 47 -3t20 -24l-2 -4q-12 -41 -63.5 -82t-122 -78t-151 -65.5t-150.5 -44.5z" />
<glyph unicode="q" horiz-adv-x="1077" d="M119 180q4 -71 34.5 -122.5t90 -79t149.5 -27.5q98 0 195.5 32.5t193.5 92.5q10 -14 21.5 -25.5l21.5 -21.5q16 -20 32.5 -40t31.5 -48q57 -31 98 -31q72 0 117 88l-35 6l35 10q-10 20 -24.5 37t-30.5 33q-4 4 -9.5 9t-9.5 9l-24 29q-14 16 -28.5 32.5t-31.5 41.5 q102 98 175 217t114 256q8 25 14 55q11 57 11 110q0 27 -3 52q-8 76 -40.5 131t-89 88t-136.5 33q-84 0 -173 -33t-175 -88t-167 -129t-146.5 -157t-113.5 -169t-71 -165q-4 -18 -7 -37t-7 -35q-13 -67 -13 -126q0 -14 1 -28zM317 260q0 39 9 82q4 14 7 28.5t7 30.5 q25 86 88.5 184.5t147 181.5t180 137t186.5 54q41 0 66.5 -18t39 -50t13.5 -75t-8 -90q-4 -10 -5.5 -21.5t-5.5 -21.5q-29 -98 -76.5 -182t-113.5 -154q-23 20 -37 40t-27 36q-4 6 -9 13t-9 14q-10 10 -23.5 14t-25.5 4q-35 0 -66.5 -28.5t-40.5 -65.5q-1 -8 -1 -15 q0 -30 20 -55q12 -6 29.5 -29.5t35.5 -56.5q-61 -37 -125.5 -59.5t-130.5 -22.5q-45 0 -72.5 16.5t-40 44t-12.5 64.5z" />
<glyph unicode="r" horiz-adv-x="921" d="M106 80q-5 -25 -5 -43q1 -22 7 -36q12 -26 58 -26h4q37 0 59.5 11.5t38 30t24.5 43t17 49.5l86 299l328 -381q20 -27 48 -40.5t56 -13.5q41 0 78 27t51 76l-10 2q-2 29 -18 49.5t-39 36.5v-2l-307 342q82 23 165.5 57.5t154.5 81.5t123 107.5t73 132.5v-2q4 8 5 16t3 18 q5 26 5 49q0 148 -218 148q-145 0 -239.5 -5t-159.5 -15q-61 -10 -97.5 -56.5t-50.5 -107.5l-12 -56v2q-12 -51 -24.5 -103t-22.5 -99l-172 -553q-2 -10 -4 -19.5t-5 -19.5zM461 639l76 274q37 10 94 15.5t117 5.5q49 0 96 -6h-2q61 -8 57 -37l-2 -4q-10 -41 -57 -80 t-110.5 -73t-135.5 -58.5t-133 -36.5z" />
<glyph unicode="s" horiz-adv-x="1034" d="M94 203q-4 -21 -4 -42q0 -24 5 -48q9 -45 40 -81t84 -58.5t133 -22.5q98 0 218 32.5t232.5 99.5t203 169t131.5 244v2q2 8 4 15t4 13q6 28 6 53q-1 35 -13 61q-20 44 -55.5 68.5t-77.5 33t-73 8.5q-94 0 -180 -21.5t-156 -44.5q-41 -12 -72.5 -21.5t-54.5 -9.5 q-16 0 -28.5 9.5t-8.5 31.5v6q10 33 45 77t88 84t124 67.5t153 27.5q35 0 51 -7t25 -13h2q23 -16 34 -31q16 -16 31.5 -24.5t58.5 -8.5q20 0 39 10.5t34.5 25t24.5 29.5t11 28v8q1 9 1 18q0 27 -14 49q-18 30 -53.5 54t-87 37.5t-108.5 13.5q-102 0 -209 -39t-200 -103.5 t-162.5 -150.5t-96.5 -178l-4 -25q-6 -30 -6 -54.5t6 -43.5q12 -39 40 -60.5t65.5 -29.5t76.5 -8q49 0 105.5 14t116.5 31q68 18 134 34.5t122 16.5q29 0 45 -11.5t10 -43.5q-4 -12 -6 -17q-25 -92 -89.5 -154.5t-141 -102.5t-150.5 -57.5t-115 -17.5q-72 0 -92.5 25 t-26.5 47q-12 39 -25.5 70.5t-54.5 31.5q-59 0 -91.5 -29.5t-43.5 -70.5z" />
<glyph unicode="t" horiz-adv-x="817" d="M258 915q-8 -35 13.5 -56t78.5 -21h23q14 0 26 2l170 34l-215 -765q0 -6 -2 -13.5t-4 -13.5q-2 -8 -4 -14.5t-4 -14.5q-6 -31 6 -54.5t66 -23.5q33 0 54 6.5t35.5 21.5t24 40t21.5 59l225 807l223 41q45 12 75 21.5t47.5 21t26.5 26t15 34.5l2 10q2 13 2 23q1 26 -13 42 q-20 22 -60 21q-20 0 -31 -2q-57 -10 -104.5 -18.5t-93.5 -17.5t-97 -18.5t-117 -21.5q-47 -10 -101 -20.5t-120 -22.5q-4 -2 -10 -3t-10 -3l2 2q-47 -12 -90.5 -30t-57.5 -66z" />
<glyph unicode="u" horiz-adv-x="1001" d="M133 180q-5 -24 -5 -45q0 -71 50 -121q64 -66 234 -65q106 0 205.5 30.5t178 80t133 111.5t70.5 128l191 674q4 8 9 20.5t9 26.5q6 33 -6 61.5t-67 28.5q-37 0 -61.5 -11.5t-39 -30.5t-21.5 -44t-14 -51l-204 -676q-8 -29 -40 -57.5t-80 -51t-110.5 -38t-132.5 -15.5 q-43 0 -72.5 16.5t-23.5 47.5v4l227 803q2 12 3 30.5t-5 34.5t-23.5 27.5t-48.5 11.5t-51 -8t-32.5 -22.5t-20.5 -32t-16 -35.5q0 -2 -2 -5t-2 -6l-224 -794q-2 -6 -4 -13.5t-4 -13.5z" />
<glyph unicode="v" horiz-adv-x="851" d="M238 266q0 -86 1 -154.5t21 -105.5q25 -41 59 -41q29 0 60 24.5t65 78.5q16 27 47 71.5t70 97t80 107.5t78 105q25 35 46 64.5t34 47.5v-2q18 25 29.5 39t24.5 30.5t33.5 40t57.5 64.5q10 12 21.5 25.5t25.5 29.5q37 39 51.5 55.5t24.5 26.5q4 6 8 11.5t15 15.5l51 80 l2 14q2 12 2 22q1 25 -13 43q-20 24 -55 23q-27 0 -59.5 -15t-61.5 -46q-20 -18 -33.5 -34.5t-29.5 -39.5h2q-10 -12 -21.5 -26.5t-25.5 -30.5q-35 -41 -52.5 -63.5t-26.5 -34t-11 -15.5l-4 -8l2 2q0 -2 -6.5 -11t-28.5 -44q-10 -14 -29.5 -39t-44 -56.5t-53.5 -65.5 t-55 -67q-25 -29 -46.5 -55.5t-37.5 -46.5q0 29 1 66.5t2 71.5t2 58.5t1 26.5q2 57 3 81t3 40q2 10 3 21.5t1 25.5q0 16 1 40t1 60q0 16 2 42t4 51v28q1 6 1 13q0 42 -24 62q-28 24 -65 24q-35 0 -69.5 -21.5t-42.5 -64.5q-4 -12 -9 -33q-6 -29 -13 -66t-5 -55 q-2 -37 -2 -72t-2 -67q-2 -72 -3 -126t-1 -89q0 -25 2 -35l-2 2v-29q-2 -10 -2 -22v-29q-2 -20 -2 -43t-2 -45v-33z" />
<glyph unicode="w" horiz-adv-x="1249" d="M174 102v2q-2 -25 -2 -45q0 -41 8 -59q12 -26 49 -25q4 0 9.5 1t9.5 1q20 2 33.5 4.5t29 14.5t37 36.5t55.5 71.5q6 6 42 58.5t86.5 126t105.5 157.5t100 158q0 -78 3 -163t8.5 -160.5t10.5 -132t9 -74.5q20 -74 35.5 -92.5t38.5 -18.5h18q31 0 66 24.5t75 96.5 q16 31 54.5 92.5t85.5 142.5q55 90 116.5 193.5t119 203t104.5 184.5t71 140l-4 7q4 4 4 10q2 14 1 29.5t-10 27.5t-26.5 20.5t-46.5 8.5q-47 0 -79.5 -41t-61.5 -88q-10 -16 -48 -76.5t-90 -150t-114.5 -197t-124.5 -215.5q0 59 -1 140t-2 159t-2 138t-1 79v29v45 q0 27 -4 50t-13 38.5t-26 15.5q-29 0 -46 -3t-34.5 -18.5t-40 -50t-61.5 -98.5q-8 -12 -37 -57t-70 -111q-47 -76 -101 -164t-103 -161q10 135 21 274t22 238v8q0 6 2 10q0 16 2 40.5t8 51.5q-14 53 -33.5 67.5t-56.5 14.5q-63 0 -89 -28.5t-36 -82.5q-29 -154 -40 -299 t-15 -254q0 -27 -1 -50t-4 -44l3 2q-2 -33 -5.5 -67.5t-5.5 -69.5q-4 -41 -8 -73.5t0 -41.5z" />
<glyph unicode="x" horiz-adv-x="786" d="M8 39q14 -68 80 -68q27 0 58.5 13.5t60.5 42.5q33 39 55.5 64.5t49 57t65.5 81t106 132.5q18 -78 28.5 -121.5t19 -72.5t16.5 -50.5t22 -51.5q4 -33 29 -57.5t66 -24.5q25 0 56.5 13t65.5 46l-12 55q4 9 4 11q4 16 0 26t-8 19q-6 6 -4 10q-18 39 -29.5 65.5t-21.5 65.5 t-21.5 102.5t-29.5 177.5l38 40q37 40 90.5 94.5t111 112t95.5 91.5q23 25 45.5 60t26.5 63q6 29 -3 48.5t-40 29.5q-6 2 -14 2h-13q-37 0 -64.5 -21.5t-62.5 -52.5q-25 -27 -42 -44t-41.5 -44.5t-67.5 -75t-121 -130.5l-17.5 70t-29.5 114q-6 33 -14.5 62.5t-14.5 54.5 l-2 -2q0 4 -2 11t-4 11q-6 27 -17.5 46.5t-51.5 19.5q-49 0 -80 -25t-41 -59l-2 -11q-6 -29 1 -61.5t11 -44.5q0 -6 2 -19.5t11 -50.5t26.5 -106.5t48.5 -190.5q-86 -111 -134 -171t-78 -97t-51.5 -61.5t-53.5 -59.5l-11 -10q-10 -12 -24.5 -28.5t-28.5 -34t-24.5 -33 t-12.5 -25.5v-8z" />
<glyph unicode="y" horiz-adv-x="1001" d="M283 1022q-2 -10 -2 -21q0 -37 28 -77v2l232 -400l-111 -399v2q-4 -10 -5 -20.5t-5 -20.5q-5 -24 -5 -43t5 -35q10 -30 53 -30h10q72 6 98.5 44.5t41.5 88.5l114 409l496 404q35 31 49 55.5t18 40.5q4 29 -8 40t-26 21q-6 0 -6 4q-25 10 -37 11q-23 0 -43.5 -10.5 t-44.5 -26.5q-25 -18 -50 -29l-383 -317l-192 280v-4q-25 53 -47.5 90t-48.5 37h-11q-39 -8 -75.5 -30.5t-44.5 -65.5z" />
<glyph unicode="z" horiz-adv-x="929" d="M37 59q-2 -10 -2 -20q-1 -27 17 -45q24 -24 67 -23h10q63 2 153.5 4t181.5 4.5t173 2.5h129h51q43 0 76 37.5t49 84.5q4 13 4 17q8 33 -16.5 46t-71.5 13q-20 0 -45 -2t-53 -4l-82 -6h-94q-41 0 -81 -1t-80 -3t-85 -6l850 831q29 33 35 62q6 33 -13.5 57.5t-54.5 24.5h-6 l-526 -31h2q-78 -4 -124 -10.5t-72 -19.5t-38 -34.5t-20 -56.5v-4q-2 -9 -2 -17q0 -55 88 -55q45 0 123 17h-2l333 26l-823 -805q-45 -45 -51 -84z" />
<glyph unicode="{" horiz-adv-x="1015" d="M276 715q-6 -33 9.5 -57.5t62.5 -24.5q106 0 135 -32t15 -105q-6 -29 -19 -70q-16 -59 -36.5 -117.5t-39 -111t-35 -98.5t-24.5 -79q-4 -18 -9 -34.5t-7 -32.5q-23 -109 12 -165t141 -56q33 0 72 6t86 16q18 4 40.5 9.5t45.5 16.5t42.5 29.5t29.5 49.5l2 10 q4 29 -8.5 53.5t-42.5 24.5q-10 0 -18.5 -3t-20.5 -7q-59 -29 -105 -29q-41 0 -57.5 25.5t-7.5 66.5q2 4 3 10t3 10q18 68 53 163.5t76 242.5q10 31 14 63q14 66 5 121.5t-54 108.5q59 35 101 81t74 106.5t56.5 134t49.5 163.5q12 45 30.5 94.5t45 90.5t61.5 68.5t82 27.5 h39q29 0 52 12t40 66l4 16q10 47 -8.5 59.5t-53.5 12.5q-90 0 -167.5 -39t-140 -101.5t-107.5 -143.5t-70 -163q-25 -90 -44 -157.5t-49 -113.5t-76 -69.5t-126 -23.5q-61 0 -104 -41t-52 -84z" />
<glyph unicode="|" horiz-adv-x="456" d="M61 -201q-6 -29 2.5 -47t22.5 -29.5t32.5 -15.5t35.5 -4q35 0 68.5 35t51.5 104l-2 -2l430 1473q4 29 21.5 81t28.5 101q10 45 3 77t-46 32q-4 0 -7.5 -1t-7.5 -1q-47 -10 -73.5 -26.5t-44 -46.5t-29.5 -76t-33 -116l-438 -1499q-10 -18 -15 -39z" />
<glyph unicode="}" horiz-adv-x="1015" d="M104 -176q-4 -27 1.5 -44.5t16.5 -27.5t27.5 -14t32.5 -4q70 0 141.5 34.5t133 91t108.5 128t68 147.5l55 203q8 27 25.5 70t48.5 83.5t77 70.5t111 30q61 0 100.5 33.5t47.5 68.5q6 29 -13.5 51.5t-66.5 22.5l-49 6q-16 8 -35 12.5t-31 17.5t-16 41.5t8 88.5 q16 92 52 201.5t83 220.5q8 16 12.5 34.5t8.5 34.5q8 45 3 89.5t-27.5 77t-62.5 53t-100 20.5q-55 0 -96 -3t-94 -15q-39 -8 -63.5 -37t-31 -59.5t10 -55.5t63.5 -25q29 0 59.5 6.5t63.5 6.5q14 0 35 -4q31 -6 38 -23.5t3 -40.5q-2 -14 -10 -33q-49 -123 -87 -243.5 t-61 -218.5q-35 -172 49 -234q-102 -51 -158.5 -141t-90.5 -207l-56 -203q-8 -25 -19 -55.5t-28.5 -57t-43 -46t-62.5 -23.5q-74 -8 -119 -42t-60 -75z" />
<glyph unicode="~" horiz-adv-x="1007" d="M434 1112q-6 -29 14.5 -51.5t59.5 -22.5q25 0 51.5 19.5t52 44t52 44t51.5 19.5q23 0 35 -22.5t30.5 -48t49 -48t88.5 -22.5q59 0 108 12.5t89 41t70.5 78.5t53.5 128v4q4 23 -18.5 42.5t-55.5 19.5q-23 0 -46 -13.5t-44 -42.5q-6 -12 -13 -32.5t-18.5 -40t-28 -33.5 t-40.5 -14q-35 0 -50.5 24.5t-30.5 55t-40 55t-78 24.5q-41 0 -96 -18.5t-106.5 -49t-90.5 -68.5t-49 -77v-8z" />
<glyph unicode="&#xa1;" horiz-adv-x="454" d="M35 -262q-10 -53 0 -94t63 -41q37 0 62.5 13t42 34.5t27 47.5t14.5 50q2 10 2 19q0 8 2 16l205 725q20 47 30 90q8 39 -3 61.5t-52 22.5q-66 0 -106 -47t-58 -121l-213 -711q-4 -16 -8 -32.5t-8 -32.5zM344 860q-10 -43 9.5 -69.5t74.5 -26.5q61 0 116.5 49t76.5 121 l2 14q6 35 -9.5 65.5t-66.5 30.5q-74 0 -122 -32.5t-79 -132.5z" />
<glyph unicode="&#xa2;" horiz-adv-x="985" d="M217 382q14 -60 48 -101t85 -61.5t113 -20.5h26l-32 -140q-8 -20 -12.5 -36.5t-8.5 -28.5q-8 -45 9.5 -53.5t58.5 -8.5h6q35 0 52.5 9.5t27.5 28t16 44t17 58.5l49 170q49 12 102 36.5t103.5 53t94.5 59.5t75 53q39 31 62.5 68t29.5 68q4 23 -3.5 38t-29.5 15l-7 1t-22 1 q-27 0 -71.5 -12.5t-94.5 -55.5q-8 -12 -26.5 -28.5t-43 -35t-53 -35.5t-59.5 -30l145 518l25 8q25 7 49 7q14 0 36 -5t43.5 -10.5t39.5 -10.5t25 -5q10 -2 18 -2h20q51 0 74 21.5t33 52.5l2 28l2 11q6 31 -3 51t-28.5 30.5t-48 14.5t-61.5 4q-84 0 -118 -2t-56 -6l24 92 q4 12 11.5 33.5t11.5 44.5q4 31 -4 55.5t-49 24.5q-43 0 -66 -10.5t-34 -30t-18 -48t-20 -63.5l-39 -149q-197 -66 -326.5 -195t-189.5 -334q-4 -16 -8 -41q-16 -80 -2 -140zM422 559q2 6 3 11t3 12q35 117 94.5 186.5t161.5 118.5l-143 -506h-17q-55 0 -86.5 50t-15.5 128z " />
<glyph unicode="&#xa3;" horiz-adv-x="1185" d="M147 549q-8 -39 7.5 -69.5t60.5 -30.5q20 0 78 22h143q-33 -78 -66.5 -155.5t-66.5 -159.5q-8 -23 -15 -45.5t-12 -42.5q-6 -37 5.5 -60.5t58.5 -23.5h10q53 4 81 35.5t44 72.5q27 -18 66 -37.5t82 -37t89 -30t87 -16.5q14 -2 26 -2h25q94 0 163.5 33t117 82t73 106.5 t35.5 106.5q10 47 5 78t-21 31h-2q-25 -2 -44.5 -8.5t-35 -19.5t-27.5 -38t-20 -66q-10 -45 -37 -70.5t-65 -37.5t-83 -15.5t-92 -3.5q-43 0 -83 12.5t-78 30t-71.5 36t-64.5 30.5q25 59 46.5 111.5t43.5 103.5h295q16 -8 26.5 -10t16.5 -2h6q31 0 56.5 11t45 29.5t33 41 t17.5 45.5q6 37 -11.5 65.5t-68.5 28.5q-29 0 -46 -9l-17 -9h-281q16 47 28.5 99t24.5 116h279q16 -10 29.5 -12.5t27.5 -2.5q55 0 87 29t46 78l2 14q8 41 -7 72.5t-56 31.5q-29 0 -51 -10l-21 -10h-307q4 41 10 84t10 92l2 8q10 59 -5 94t-56 35h-10q-55 -2 -80 -42 t-47 -105v-2q2 -43 2 -84q0 -39 -4 -80h-133q-14 12 -32 14t-26 2q-55 0 -90 -39.5t-45 -85.5q-8 -41 7.5 -71.5t58.5 -30.5q20 0 39.5 5t31.5 16h164q-10 -55 -24.5 -108.5t-30.5 -106.5h-168q-10 10 -26.5 12t-30.5 2q-53 0 -88 -40t-46 -87z" />
<glyph unicode="&#xa5;" d="M227 246q-8 -39 7.5 -70t60.5 -31q23 0 78 23h194l-10 -37q-4 -12 -6 -24.5t-4 -22.5q-10 -47 -2 -79t47 -32h8q37 2 61.5 15.5t41 34t26.5 45t19 51.5l14 49h223q16 -8 26.5 -10t16.5 -2h6q31 0 56.5 11t45 29.5t33 41t17.5 45.5q6 37 -11.5 65.5t-68.5 28.5 q-29 0 -46 -9l-18 -10h-227l59 215h220q16 -10 29.5 -12t27.5 -2q55 0 87 28.5t46 78.5l4 14q8 41 -8 72.5t-57 31.5q-29 0 -49 -10l-21 -10h-104l469 383q39 37 55 62.5t20 41.5q4 23 -10 36t-31 26q-20 10 -32 10q-35 0 -72 -27.5t-84 -52.5l-502 -414l-252 371 q-29 63 -53.5 105.5t-50.5 42.5h-6q-41 -8 -79 -32t-46 -65q-10 -47 31 -104l223 -383h-94q-16 12 -34 14t-26 2q-55 0 -90 -40t-45 -85q-8 -41 7 -71.5t59 -30.5q20 0 39.5 5t31.5 15h203l-59 -215h-203q-10 10 -26.5 12.5t-31.5 2.5q-53 0 -87.5 -40t-45.5 -87z" />
<glyph unicode="&#xa6;" horiz-adv-x="456" d="M57 -240q-6 -29 2.5 -47t22.5 -29.5t32.5 -15.5t35.5 -4q35 0 69.5 35t50.5 104l-2 -2l125 432q6 29 22.5 81.5t26.5 101.5q10 45 4 76.5t-45 31.5q-4 0 -7 -1t-7 -1q-47 -10 -74.5 -26.5t-44 -46t-30 -75.5t-33.5 -116l-133 -459q-4 -10 -8.5 -19t-6.5 -20zM367 840 q-6 -29 2 -47.5t22.5 -29.5t32.5 -15.5t35 -4.5q35 0 68.5 35t52.5 105l-2 -2l124 432q4 29 21.5 81t28.5 101q10 45 3 77t-46 32q-4 0 -7.5 -1t-7.5 -1q-47 -10 -73.5 -26.5t-44 -46.5t-29.5 -76t-33 -116l-135 -458q-10 -23 -12 -39z" />
<glyph unicode="&#xa7;" horiz-adv-x="856" d="M223 856q-6 -33 14.5 -65.5t43.5 -32.5h14q31 8 71 18t79.5 18.5t74.5 14.5t58 8l4 -10l-7 -27q-4 -27 -9 -49.5t-9 -38.5q-16 -84 1 -119.5t73 -35.5q47 0 80.5 28.5t38.5 50.5q-4 35 -3 54.5t5 44.5q4 16 9 44.5t15 57.5h160q33 0 58.5 33t29.5 59q6 29 -5 46.5 t-32.5 25.5t-51.5 10t-61 2l-32 13q23 59 61.5 143t83.5 168l19 35q-4 10 -13.5 25.5t-19.5 29.5t-23.5 24.5t-27.5 10.5q-31 -12 -93.5 -54t-138.5 -98.5t-156.5 -121t-148.5 -126t-112 -111.5t-50 -75zM416 922q63 61 111 103t85 69.5t61.5 46t43.5 33.5l24 -17 q-16 -33 -31.5 -77t-31.5 -95q-74 -4 -135.5 -24.5t-126.5 -38.5z" />
<glyph unicode="&#xa8;" horiz-adv-x="917" d="M420 1171q-8 -45 18.5 -89t77.5 -44q35 0 62.5 14.5t49 36t35 46t19.5 47.5l4 12t4 14q2 18 3 38t-6 36t-23.5 26.5t-45.5 10.5q-35 0 -67.5 -13.5t-59 -34t-45 -46t-24.5 -47.5zM811 1176q-10 -45 17.5 -87t74.5 -42q35 0 63.5 14t50 35.5t35 47t19.5 48.5q4 6 5 14 t3 17q4 18 4 37q0 18 -7 33.5t-23.5 24.5t-44.5 9q-35 0 -68 -13.5t-59.5 -33.5t-44 -46t-23.5 -48z" />
<glyph unicode="&#xa9;" horiz-adv-x="1499" d="M207 449q-53 -276 45 -432t336 -156q162 0 325.5 72.5t307 198.5t253 294t162.5 358q10 33 18.5 65t14.5 64q23 121 21 232.5t-42 196.5t-125 135.5t-227 50.5q-119 0 -236.5 -47t-228 -126t-209 -180.5t-177 -210t-135 -215t-81.5 -196.5q-8 -29 -13 -53.5t-9 -50.5z M353 256q-3 82 18 182q4 23 10 47.5t12 51.5q23 78 72 172t117.5 189t151.5 185.5t174 160t185.5 111.5t184.5 42q94 0 149.5 -38t80 -101.5t24.5 -145.5t-19 -170q-6 -37 -15 -73.5t-19 -71.5q-43 -162 -133.5 -307.5t-208 -256t-253.5 -175t-272 -64.5q-86 0 -141 31.5 t-85 90t-33 140.5zM509 417q5 -50 28.5 -88t67.5 -61.5t112 -23.5q92 0 164.5 18.5t126 46t91.5 58t60 55.5l74 67q25 31 40 57.5t19 47.5q10 53 -63 53q-33 0 -54.5 -10t-36 -24.5t-22.5 -28t-12 -19.5q-16 -25 -51 -53.5t-79 -54t-97.5 -43t-106.5 -17.5q-29 0 -47 12.5 t-27.5 32t-10.5 44t3 49.5l2 12q20 78 64.5 149.5t99.5 127t114.5 88t110.5 32.5q57 0 95 -10t51 -33q12 -10 27.5 -13t31.5 -3q35 0 62.5 18.5t33.5 46.5q10 39 -39 84q-45 43 -97 53.5t-126 10.5q-90 0 -184 -46t-177 -122t-146.5 -176.5t-90.5 -206.5l-6 -27 q-10 -53 -5 -103z" />
<glyph unicode="&#xaa;" horiz-adv-x="759" d="M121 514q-4 -23 20.5 -43t77.5 -20q12 0 30.5 -4.5t39.5 -4.5q25 0 41 11l274 2l141 2q47 0 76 16t33 39t-24.5 42t-96.5 19q-16 0 -33.5 2.5t-35.5 2.5q-25 0 -46 -7h-282q-4 2 -25 2q-20 0 -45.5 -3t-36.5 -3q-51 0 -77.5 -16t-30.5 -37zM240 811.5q6 -31.5 22.5 -59 t41 -45t54.5 -17.5q53 0 108.5 13.5t106 30t91.5 33.5t67 28q-4 -14 -7 -25.5t-5 -21.5q-4 -18 5 -28.5t48 -10.5q43 0 64.5 23.5t31.5 72.5l2 2l113 428l4 14q8 45 1 74t-25.5 45t-43 22.5t-51.5 6.5q-86 0 -188 -20.5t-193 -73.5q-20 -10 -43.5 -20.5t-33.5 -47.5l-2 -8 q-4 -23 6 -30t26 -7q29 0 65 14.5t46 18.5q72 18 131 39.5t123 21.5q12 0 31.5 -4t15.5 -31l-23 -80q-111 -4 -206 -22.5t-170.5 -52t-129 -85t-77.5 -118.5q-2 -4 -4 -9t-2 -10q-6 -29 0 -60.5zM365 885l2 6q8 33 52 62.5t106.5 52t135 39t142.5 24.5l-15 -115 q0 -4 -37.5 -27.5t-92 -51t-115 -50t-107.5 -22.5q-18 0 -26 2q-2 0 -14.5 6t-25 24.5t-5.5 49.5z" />
<glyph unicode="&#xab;" horiz-adv-x="940" d="M209 700q-6 -33 5 -45t28 -22l213 -260q16 -20 28.5 -34.5t36.5 -19.5h17q14 0 28.5 13.5t32.5 52.5q4 12 4 16q4 16 -6 36t-39 48l-162 199l221 135q43 20 61.5 46t22.5 42v11q-6 37 -17 49t-34 14h-6q-23 0 -59 -18l-287 -179q-31 -10 -56.5 -32.5t-31.5 -51.5z M586 666q-6 -33 5 -45.5t27 -22.5l213 -260q16 -20 28.5 -34.5t37.5 -18.5h16q14 0 27.5 13t32.5 52q4 4 4 8t2 9q4 16 -6 35.5t-39 48.5l-162 198l219 135q45 20 63.5 46t22.5 42v11q-8 37 -18 49t-33 14h-6q-27 0 -59 -18l-287 -178q-31 -10 -56.5 -33t-31.5 -51z" />
<glyph unicode="&#xac;" horiz-adv-x="1943" d="M47 88q-6 -35 16 -63q20 -18 31.5 -29.5t26.5 -24.5q10 -6 20.5 -12t28.5 -6q20 0 45 8q63 12 132.5 25.5t135.5 25.5q23 4 30 7.5t9 11.5v22q-4 18 -7 37t-11 35q-12 16 -21.5 22.5t-29.5 6.5h-13q-47 -4 -89 -8.5t-89 -10.5q29 63 60.5 133t63.5 137.5t62.5 130 t59.5 113.5q2 4 4 9.5t2 9.5q6 18 -25 39q-23 14 -51 25t-57 18q-8 4 -25 4q-25 0 -41 -29q-33 -61 -71.5 -145t-75.5 -172.5t-67.5 -169t-49.5 -138.5zM381 858q-4 -29 16.5 -44t53.5 -26q23 -6 39 -12t30 -6q25 0 31 25q29 74 62.5 153.5t68.5 161.5t70.5 163t68.5 152 q43 4 85 7.5t77 7.5q20 2 26.5 5t8.5 13q2 4 2 17q-8 41 -33 81q-10 10 -20.5 15.5t-38.5 5.5q-51 -2 -118 -7t-135.5 -11.5t-136 -14.5t-122.5 -16q-25 -4 -27 -19q0 -8 2 -16q8 -16 15.5 -43t23.5 -45q10 -12 18.5 -17.5t20.5 -5.5q6 0 12 1t17 3q16 4 39.5 7.5t52.5 7.5 q-27 -59 -56.5 -130t-57 -142.5t-51.5 -138t-38 -113.5zM524 461q-4 -18 25 -25q12 -2 24.5 -3t24.5 -1t18 2q18 0 35 7.5t35 21.5q14 12 32.5 32.5t37 44t36 48t29.5 45.5q10 27 10 33q4 14 -8 32q-23 25 -51 43q-16 12 -27 13q-18 0 -34 -23q-16 -27 -41 -61.5 t-50.5 -69.5t-49 -67.5t-40.5 -55.5l-4 -8t-2 -8zM545 33q-4 -18 5 -26.5t23 -20.5q16 -8 29.5 -14.5t24.5 -12.5q18 -6 26 -6q14 0 31 22q23 33 44.5 67t51.5 73q59 16 134 25.5t147 19.5q-4 -41 -5 -75t-5 -65q0 -29 8 -40t31 -17q23 -10 44 -11t48 -1q25 0 33 7t12 26 q18 139 40.5 292.5t45.5 276.5q12 66 24 109q4 25 -2 38t-32 23q-35 10 -78 19.5t-111 13.5h-14q-35 0 -56.5 -12.5t-37.5 -32.5q-49 -61 -110.5 -144.5t-122 -171.5t-117 -173t-95.5 -152q-12 -20 -16 -37zM823 856q-4 -29 27 -47q16 -12 42 -19.5t48 -13.5q16 -4 21 -4 q20 0 30 25q23 49 44.5 109.5t51.5 127.5q41 6 82 11.5t80 11.5q-43 -111 -61 -185q-4 -4 -4 -10q0 -4 -2 -8q-4 -27 15.5 -41t51.5 -25q20 -6 37 -11t31 -5q25 0 31 25q31 82 69.5 174t77.5 182t76.5 172t66.5 145q2 6 3 10.5t1 8.5q4 10 -1 19.5t-21 19.5q-45 33 -98 45 q-10 2 -16.5 3t-12.5 1q-23 0 -37 -31q-35 -68 -69.5 -155.5t-75.5 -180.5q-37 -4 -75 -6t-79 -6q35 78 63.5 143.5t55.5 112.5q4 12 6 16q2 25 -25 43q-23 16 -51 27.5t-53 20.5q-16 6 -29 6q-25 0 -37 -33q-29 -68 -60.5 -155t-65 -176t-67.5 -174t-65 -152q-4 -6 -4 -13 q0 -4 -2 -8zM903 293q63 86 119.5 164t105.5 139q-14 -68 -25 -139.5t-20 -145.5q-49 -4 -92 -8t-88 -10zM1276 104q-4 -20 3 -32.5t21 -32.5q23 -23 41.5 -38t47.5 -28q29 -20 55 -20q10 0 24.5 3t34.5 7q35 8 77 22.5t84 32t82 38t71 44.5q33 25 54 49.5t27 57.5v29 q4 35 -16 67.5t-51 50.5q63 35 106 66q39 29 70 61.5t37 71.5q4 20 2 35q-4 45 -20.5 76.5t-43.5 60.5q-23 23 -65.5 34t-95.5 11q-86 0 -182.5 -21.5t-168.5 -52.5q-16 -63 -40.5 -138t-51 -149.5t-51 -146.5t-43.5 -131q-4 -10 -8 -27zM1458 115q18 39 34 75.5t32 75.5 q68 20 112 21q63 0 68 -29v-6q-6 -33 -73.5 -73t-172.5 -64zM1491 903q-8 -35 16 -63q14 -18 28.5 -29.5t29.5 -24.5q8 -6 18 -11t31 -5q16 0 47 6q59 10 128 23.5t134 25.5q39 8 39 23q2 4 -2 18q-2 18 -5 36t-11 38q-12 27 -48 27h-18q-47 -4 -90 -7.5t-90 -13.5 q14 29 25.5 56.5t25.5 56.5q59 12 119.5 21.5t120.5 19.5q39 8 43 22q0 2 -4 19q-2 18 -5.5 35.5t-11.5 35.5q-10 27 -49 27h-12q-68 0 -115 -8q23 47 42 89t42 79q66 10 124 15t111 11q37 6 39 23q2 4 2 16q0 18 -3 33.5t-9 36.5q-12 35 -59 35q-106 -4 -214 -22t-190 -36 l-225 -591q-4 -12 -4 -17zM1595 420q20 47 38 87t38 77q90 35 148 34q43 0 49 -20v-6q-4 -16 -24.5 -38t-56.5 -46.5t-85.5 -47t-106.5 -40.5z" />
<glyph unicode="&#xad;" horiz-adv-x="790" d="M193 571q-6 -37 14 -67.5t74 -30.5q12 0 30.5 -4t38.5 -4q25 0 41 10l275 2l141 2q47 0 80 29t39 63q8 35 -17.5 66t-93.5 31q-16 0 -33.5 2t-36.5 2q-25 0 -45 -6h-282q-4 2 -25 2q-20 0 -45.5 -3t-36.5 -3q-51 0 -80.5 -28t-37.5 -63z" />
<glyph unicode="&#xae;" horiz-adv-x="1048" d="M246 881q-20 -106 3 -184.5t72.5 -128.5t116 -74.5t133.5 -24.5q80 0 184.5 33t204 103.5t179 180t110.5 265.5q16 90 6 156.5t-38.5 113.5t-70.5 78t-87 48t-88 24.5t-76 7.5q-109 0 -216.5 -52.5t-196.5 -137.5t-152.5 -192.5t-83.5 -215.5zM342 881q18 92 70.5 182 t126 160.5t161.5 114.5t177 44q31 0 86 -12t104 -48t77.5 -101.5t8.5 -169.5q-25 -129 -91.5 -220.5t-149.5 -150.5t-169 -87t-153 -28q-53 0 -104.5 18.5t-88.5 57.5t-54 98.5t-1 141.5zM494 707q-4 -23 8 -34t35 -11q27 0 54 16t34 47l16 86l104 -35q35 -18 66 -29.5 t55 -11.5q31 0 53.5 20.5t43.5 67.5q-51 18 -86 30.5t-62 22t-48 17.5t-46 18q47 18 94 42t87 52.5t67.5 63.5t36.5 76q10 55 -13.5 91t-74.5 36q-8 2 -31 2q-31 0 -70 -5t-81 -18.5t-81 -36t-69 -55.5q-16 -84 -26.5 -132t-16.5 -76.5t-11.5 -49t-9.5 -43.5zM676 995 l22 109l35 12q35 12 72 22.5t59 10.5q16 0 17.5 -7.5t-0.5 -15.5q-6 -29 -53.5 -57.5t-100.5 -50.5q-14 -6 -25.5 -12.5t-25.5 -10.5z" />
<glyph unicode="&#xaf;" horiz-adv-x="790" d="M297 1163q-6 -37 14.5 -67.5t73.5 -30.5h500q47 0 78.5 28.5t40.5 63.5q6 35 -18.5 65.5t-92.5 30.5q-106 2 -182 2h-125h-82t-49.5 -1t-26.5 -1h-12q-51 0 -81 -27.5t-38 -62.5z" />
<glyph unicode="&#xb0;" horiz-adv-x="518" d="M303 1081q-12 -59 11.5 -103t105.5 -44q51 0 104.5 21.5t98.5 57.5t78 83t47 100q0 6 2 13.5t4 13.5q12 59 -13.5 105t-97.5 46q-66 0 -122 -26.5t-101 -68.5t-75 -91t-40 -94zM456.5 1076.5q-3.5 17.5 0.5 37.5q6 20 18 43t31.5 41.5t44 30.5t53.5 12q25 0 30 -14.5 t1 -34.5l-2 -10q-12 -47 -55 -85t-93 -38q-25 0 -28.5 17.5z" />
<glyph unicode="&#xb1;" horiz-adv-x="854" d="M125 223q-4 -23 11.5 -41t49.5 -18q10 0 22.5 -3t29.5 -3q12 0 28 6h441q6 -6 22 -6q14 0 27.5 3t17.5 3q43 0 73 27.5t36 56.5q4 23 -8.5 38t-47.5 15l-79 -2h-451q-4 4 -14 4q-12 0 -28.5 -3t-23.5 -3q-45 0 -73.5 -23.5t-32.5 -50.5zM258 739q-4 -23 11.5 -41 t49.5 -18q10 0 24.5 -3t31.5 -3q10 0 22 4h142l-41 -156q-10 -12 -14.5 -35.5t-8.5 -35.5l-4 -15q-6 -37 8.5 -51t36.5 -14q29 0 55.5 17.5t34.5 45.5q2 6 6 22.5t10.5 34t10.5 34t6 24.5l37 129h160q12 -4 22 -4q14 0 27.5 3t19.5 3q43 0 74 27.5t37 56.5q4 23 -8.5 38 t-46.5 15l-82 -2h-164l43 150q6 8 8 15t6 17q4 25 6 27l2 8q8 37 -7 54.5t-40 17.5q-27 0 -53.5 -20.5t-36.5 -55.5q-4 -12 -11 -28.5t-11 -26.5q0 -6 2 -8l-45 -150h-148q-4 4 -14 4q-12 0 -28.5 -3t-22.5 -3q-45 0 -74 -23.5t-33 -50.5z" />
<glyph unicode="&#xb2;" horiz-adv-x="733" d="M166 606q-8 -33 5 -54.5t48 -21.5q27 4 34 5.5t23 5.5q47 10 119 21t144 11q92 0 134 -3t58 -5h6q59 0 83 25.5t28 56.5q12 63 -36 86t-167 23q-43 0 -98 -6l-6 16l188 180q106 96 159.5 182t61.5 127l2 5q12 72 -25.5 114.5t-115.5 42.5q-41 0 -86 -9t-92 -32 q-39 -16 -87 -43.5t-91 -59.5t-75 -65.5t-38 -60.5q-6 -35 19.5 -62.5t46.5 -27.5q29 4 61.5 24.5t85.5 61.5q47 39 104.5 68.5t90.5 29.5q6 0 11 -5t3 -9q-2 -14 -30.5 -49t-73 -81t-96.5 -99.5t-104 -103.5t-97.5 -92t-71.5 -65q-39 -33 -62.5 -55.5t-37 -37.5 t-18.5 -23.5t-7 -14.5z" />
<glyph unicode="&#xb3;" horiz-adv-x="763" d="M184 748q-8 -37 11.5 -71t58.5 -59.5t94 -41t119 -15.5q70 0 136.5 17.5t120.5 52.5t93 87t53 122q12 66 -5 116t-60 88q88 51 134 99t58 114q8 43 -3 78t-36.5 60.5t-61.5 39t-77 13.5q-49 0 -127 -25.5t-153.5 -64.5t-133 -85t-65.5 -85q-6 -35 17.5 -63.5t62.5 -28.5 q16 0 35 6q41 39 87 70.5t89 54t78.5 36t60.5 13.5q16 0 27.5 -5t7.5 -20q-6 -29 -44 -59.5t-91.5 -58t-110.5 -48t-102 -28.5h-2q-35 -4 -50.5 -19.5t-21.5 -50.5q-6 -41 6 -74.5t43 -33.5q8 0 21 4h4h2q0 2 4 2q68 25 131 24q47 0 74.5 -15t21.5 -48q-10 -47 -63.5 -84 t-139.5 -37q-47 0 -79.5 9t-36.5 32q-10 35 -39 45t-39 10q-35 0 -67.5 -15t-41.5 -58z" />
<glyph unicode="&#xb4;" horiz-adv-x="1079" d="M569 1067q-4 -16 8 -25.5t41 -19.5h13q6 0 15 5t22.5 15.5t36.5 32.5q16 16 49.5 40t81.5 52q39 25 66.5 44.5t49 40t39 44t35.5 56.5q6 14 11 26.5t7 22.5q12 55 -38 55q-43 0 -123 -45q-33 -18 -72 -52t-77 -73t-71.5 -80t-58.5 -76q-31 -47 -35 -63z" />
<glyph unicode="&#xb5;" horiz-adv-x="1044" d="M61 -291q-6 -35 4.5 -58.5t59.5 -27.5h16q33 0 54.5 13.5t36 36t23.5 50t19 58.5v-2l48 176q61 0 133.5 15.5t134 34t103.5 33.5l42 15l-2 -14q-10 -45 12.5 -58.5t57.5 -13.5q49 0 89 19.5t50 66.5q2 10 3 21.5t-1 25.5l182 693q23 51 29 81q8 41 -6 56.5t-45 15.5h-14 q-55 -4 -91 -39t-69 -114l-139 -533q-29 -18 -69 -38.5t-84 -39t-88 -32t-81 -15.5h-8q-41 0 -62.5 29t-9.5 94l4 12l142 504q10 20 14 47q8 41 -5.5 67.5t-54.5 29.5h-10q-59 0 -95 -38t-44 -79q-2 -8 -2 -21q-51 -195 -83 -315.5t-50.5 -191t-25.5 -100.5t-9 -40l-4 -12 l-84 -336q-6 -20 -11 -39.5t-10 -36.5z" />
<glyph unicode="&#xb6;" horiz-adv-x="1021" d="M215 586q-29 -139 22.5 -218t176.5 -79q29 0 55.5 2t52.5 6l-135 -516l-2 -17q-10 -49 4 -73.5t43 -24.5q12 0 21 2q31 8 54 23.5t42.5 43t36 70.5t35.5 107l317 1151h12q12 0 23.5 2t21.5 2q16 0 29.5 -8t24.5 -37l-344 -1225l-5 -16q-10 -49 5.5 -73.5t44.5 -24.5 q12 0 18 2q33 8 56.5 23.5t42 43t35 70.5t34.5 106l311 1205l2 4q6 33 -16.5 52t-57 30.5t-73.5 15.5t-66 4q-111 0 -236.5 -41t-240.5 -117.5t-205 -190.5t-129 -257q-4 -12 -6 -24.5t-4 -22.5z" />
<glyph unicode="&#xb7;" horiz-adv-x="434" d="M217 569.5q6 -26.5 21.5 -48t38 -36t51.5 -14.5q41 0 73.5 16.5t57 42t40 55t23.5 54.5q4 12 8.5 32.5t4.5 43.5t-8.5 41t-27 29.5t-50.5 11.5q-41 0 -79 -15.5t-69 -40t-52.5 -53.5t-29.5 -55l-2 -10q-6 -27 0 -53.5z" />
<glyph unicode="&#xb8;" horiz-adv-x="1024" d="M375 -217q-4 -29 1 -55.5t40 -32.5q4 0 6 -1t6 -1q41 0 87 48t71 118l59 125q4 16 9 35.5t10 37.5q8 33 -2.5 57.5t-59.5 24.5q-33 0 -58.5 -14t-45 -39t-33.5 -55.5t-25 -63.5l-34 -106l-12 -23q-13 -24 -19 -55z" />
<glyph unicode="&#xb9;" horiz-adv-x="380" d="M236 580q0 -25 38 -39q10 -10 18.5 -12.5t18.5 -2.5h11q47 0 60 18.5t21 51.5l29 149q27 113 49.5 199t41 149.5t33.5 107.5t28 75q6 16 11 30.5t9 26.5l2 10q2 25 -10 40.5t-28.5 23.5t-30 11t-15.5 3q-27 0 -60.5 -14t-63 -32.5t-51 -36t-21.5 -21.5q-14 -63 53 -82 l6 -10q-10 -35 -16.5 -57.5t-10.5 -37t-6 -23.5t-4 -15l-74 -267q-4 -20 -10 -56t-12 -73t-10 -69.5t-6 -46.5z" />
<glyph unicode="&#xba;" horiz-adv-x="817" d="M133 514q-4 -23 20.5 -43t77.5 -20q12 0 31 -4.5t39 -4.5q25 0 41 11l274 2l142 2q47 0 75.5 16t32.5 39t-24.5 42t-96.5 19q-16 0 -33.5 2.5t-35.5 2.5q-25 0 -45 -7h-283q-4 2 -24 2t-46 -3t-36 -3q-51 0 -78 -16t-31 -37zM327 819q3 -41 23.5 -72.5t58 -51t99.5 -19.5 q82 0 164 32.5t152.5 88t122.5 129t75 155.5q2 8 3 14.5t3 14.5q8 47 4 91t-23.5 78t-57.5 54.5t-95 20.5q-98 0 -185 -41t-156 -104.5t-116 -140.5t-65 -146l-2 -19q-8 -43 -5 -84zM464 867.5q-1 19.5 3 39.5l2 15q14 49 44 101t74 97t101 74t127 29q29 0 46.5 -10.5 t24.5 -28t7 -39.5q0 -20 -4 -45l-2 -19q-14 -55 -49 -106t-82 -91t-102.5 -63.5t-110.5 -23.5q-29 0 -45.5 10t-24.5 25.5t-9 35z" />
<glyph unicode="&#xbb;" horiz-adv-x="940" d="M145 350q4 -39 12.5 -52t22.5 -13h17q29 4 46 18t40 35l315 260q20 10 35.5 22.5t21.5 45.5q6 29 -10 51t-45 33l-217 178q-29 18 -51 18h-6q-23 -2 -39.5 -14t-36.5 -49q-4 -4 -4 -11q-4 -16 5 -41.5t44 -46.5l170 -135l-240 -198q-41 -29 -57 -48.5t-21 -35.5 q-2 -6 -2 -17zM536 393q-1 -4 1 -8q4 -39 11 -52.5t21 -13.5h17q29 4 46 18.5t40 35.5l315 260q20 10 35.5 22.5t21.5 44.5q6 29 -10 51.5t-45 32.5l-217 179q-25 18 -51 18h-6q-23 -2 -38 -14.5t-38 -48.5q-4 -4 -4 -11q-4 -16 5 -41.5t46 -46.5l168 -135l-240 -199 q-41 -29 -57 -48t-20 -36q0 -4 -1 -8z" />
<glyph unicode="&#xbc;" horiz-adv-x="1323" d="M164 76q-12 -63 69 -64q20 0 39 11.5t35.5 28t30.5 35.5t24 36q2 6 10.5 17.5t15.5 24.5t14.5 24.5t11.5 15.5q37 59 97 140t132 172t146.5 186.5t144.5 182.5t125 160.5t88 120.5v4q12 23 25.5 48.5t17.5 48.5q6 29 -4 47t-45 18q-66 0 -95.5 -25.5t-44.5 -54.5 q-37 -43 -98 -122.5t-136 -178t-155 -207t-153.5 -210t-134 -187.5t-93.5 -139q-57 -86 -67 -133zM197 532q-2 -10 10 -21t29 -17q10 -10 17 -12.5t17 -2.5h11q47 0 61 18.5t20 51.5l29 149q27 113 49.5 199t42 149.5t34.5 107.5t28 75q12 37 18 57l2 10q2 25 -10 40.5 t-28.5 23.5t-30 11t-15.5 3q-27 0 -59.5 -14t-62 -32.5t-51 -36t-21.5 -21.5q-14 -63 53 -82l6 -10q-10 -35 -16 -57.5t-10.5 -37t-7.5 -24t-5 -15.5l-71 -266q-4 -20 -10.5 -56t-12.5 -73t-11 -69.5t-5 -47.5zM594 317q-6 -33 14.5 -65.5t42.5 -32.5h15q31 8 70.5 18.5 t78.5 18.5t74 14t57 9l4 -11l-4 -26q-4 -27 -9 -49.5t-9 -38.5q-16 -84 1 -120t72 -36q47 0 80 28.5t37 51.5q-4 35 -2 54.5t6 43.5q4 16 9.5 45t13.5 58h160q33 0 59.5 32.5t30.5 59.5q6 29 -5.5 46t-33 25.5t-51 10.5t-60.5 2l-33 12q23 59 62 143t84 168l18 35 q-4 10 -13 25.5t-19.5 30t-23.5 24.5t-28 10q-31 -12 -93 -54t-138 -98.5t-157 -121t-148.5 -126t-112.5 -111.5t-49 -75zM786 383q63 61 111.5 103t85.5 70t61.5 46.5t42.5 32.5l25 -17q-16 -33 -31.5 -76.5t-31.5 -95.5q-74 -4 -135.5 -24.5t-127.5 -38.5z" />
<glyph unicode="&#xbd;" horiz-adv-x="1323" d="M164 76q-12 -63 69 -64q20 0 39 11.5t35.5 28t30.5 35.5t24 36q2 6 10.5 17.5t15.5 24.5t14.5 24.5t11.5 15.5q37 59 97 140t132 172t146.5 186.5t144.5 182.5t125 160.5t88 120.5v4q12 23 25.5 48.5t17.5 48.5q6 29 -4 47t-45 18q-66 0 -95.5 -25.5t-44.5 -54.5 q-37 -43 -98 -122.5t-136 -178t-155 -207t-153.5 -210t-134 -187.5t-93.5 -139q-57 -86 -67 -133zM197 532q-2 -10 10 -21t29 -17q10 -10 17 -12.5t17 -2.5h11q47 0 61 18.5t20 51.5l29 149q27 113 49.5 199t42 149.5t34.5 107.5t28 75q12 37 18 57l2 10q2 25 -10 40.5 t-28.5 23.5t-30 11t-15.5 3q-27 0 -59.5 -14t-62 -32.5t-51 -36t-21.5 -21.5q-14 -63 53 -82l6 -10q-10 -35 -16 -57.5t-10.5 -37t-7.5 -24t-5 -15.5l-71 -266q-4 -20 -10.5 -56t-12.5 -73t-11 -69.5t-5 -47.5zM627 47q-6 -33 7 -54.5t48 -21.5q27 4 34 5t23 6q47 10 119 21 t143 11q92 0 134.5 -3t58.5 -5h6q59 0 82 25.5t29 56.5q12 63 -36 86t-167 23q-47 0 -98 -7l-6 17l188 180q106 96 159.5 182t61.5 127v4q14 72 -24.5 115t-116.5 43q-88 0 -176 -41q-39 -16 -87 -44t-91.5 -59.5t-75 -65.5t-37.5 -60q-6 -35 19.5 -62.5t45.5 -27.5 q29 4 62 24.5t86 61.5q47 39 104.5 68.5t89.5 29.5q6 0 11.5 -5t3.5 -9q-2 -14 -31 -49t-73 -81t-96 -99.5t-104.5 -103.5t-97.5 -92t-71 -65q-39 -33 -62.5 -55.5t-37 -37.5t-19.5 -23.5t-8 -14.5z" />
<glyph unicode="&#xbe;" horiz-adv-x="1669" d="M184 713q-8 -37 11.5 -71t58.5 -59.5t94 -41t119 -15.5q70 0 136.5 17.5t120.5 52.5t93 87t51 122q14 66 -3 116t-60 89q86 51 133 99t59 114q8 43 -3 77.5t-36.5 60t-61.5 39t-77 13.5q-49 0 -127 -25.5t-153.5 -64.5t-134 -85t-66.5 -85q-4 -35 19.5 -63.5t62.5 -28.5 q16 0 33 6q43 39 88 70.5t88 54t79.5 36t61.5 13.5q39 0 33 -24q-6 -29 -44 -60t-90.5 -58.5t-109.5 -48t-102 -28.5h-2q-35 -4 -50.5 -19.5t-23.5 -50.5q-6 -41 7 -74.5t44 -33.5q6 0 19 4h4q2 0 3 1t5 1q33 12 66.5 18t64.5 6q47 0 74.5 -15t21.5 -48q-10 -47 -63.5 -84 t-139.5 -37q-47 0 -79.5 9.5t-38.5 31.5q-8 35 -37 45t-39 10q-35 0 -67.5 -15t-41.5 -58zM510 76q-12 -63 70 -64q20 0 38.5 11.5t35 28t30.5 35.5t25 36q2 6 10 17.5t15 24.5t14.5 24.5t11.5 15.5q37 59 97.5 140t132 172t146 186.5t144.5 182.5t125 160.5t88 120.5v4 q12 23 25.5 48.5t17.5 48.5q6 29 -4 47t-45 18q-66 0 -95.5 -25.5t-43.5 -54.5q-37 -43 -98.5 -122.5t-136.5 -178t-154.5 -207t-153.5 -210t-134.5 -187.5t-92.5 -139q-57 -86 -68 -133zM940 317q-6 -33 14.5 -65.5t42.5 -32.5q37 8 79 18.5t83 18.5t76 14t57 9l4 -11 l-4 -26q-4 -27 -9 -49.5t-9 -38.5q-16 -84 1 -120t73 -36q47 0 66.5 25.5t23.5 48.5q-4 35 -3 54t5 44q4 16 10 47t14 59l187 3q33 0 59.5 32.5t30.5 59.5q6 29 -5.5 46t-33 25.5t-51 10.5t-60.5 2l-69 -2q25 68 47 111.5t44.5 77.5t45 64.5t45.5 71.5l18 35q-4 10 -13 25.5 t-19.5 30t-23.5 24.5t-28 10q-31 -12 -93 -54t-138 -98.5t-157 -121t-148.5 -126t-112.5 -111.5t-49 -75zM1133 383q129 125 224 196.5t132 100.5l-31 -62q-16 -33 -45 -78.5t-45 -97.5q-74 -4 -123 -22.5t-112 -36.5z" />
<glyph unicode="&#xbf;" horiz-adv-x="1087" d="M98 -154q-10 -51 6.5 -95t52.5 -76.5t85 -51t106 -18.5q63 0 131 20.5t134.5 51t128 69.5t116.5 76q47 33 88 76t53 84l5 16q10 47 -6.5 69.5t-51.5 22.5q-39 0 -93 -29.5t-116 -89.5q-90 -72 -175 -124t-156 -52q-47 0 -81 17.5t-28 50.5l2 6q8 33 57.5 74t119 88 t151.5 99t155.5 108.5t129 115t73.5 115.5q4 20 9 39.5t10 38.5q10 53 -12.5 84t-100.5 31q-35 0 -58.5 -47.5t-66.5 -118t-122 -152.5t-222 -151q-51 -25 -101.5 -59t-93.5 -76t-75 -90t-46 -99q-2 -6 -4 -11t-4 -12zM791 889q-10 -49 4 -81t67 -32q72 0 129.5 33t83.5 125 l2 16q12 59 -23.5 84t-82.5 25q-70 0 -113 -37t-61 -102l2 2q-4 -10 -5 -17.5t-3 -15.5z" />
<glyph unicode="&#xc0;" horiz-adv-x="1222" d="M33 49q-6 -31 8 -53.5t68 -26.5h6q41 0 78.5 50.5t87.5 121.5l225 326l58 4q57 4 134.5 9t154.5 9.5t116 4.5q14 -66 23 -104t15.5 -63.5t9.5 -45t7 -50.5q6 -33 15.5 -77.5t19.5 -85.5t21.5 -70t17.5 -29h16q55 0 85 32t40 81q6 41 4 78q-10 92 -34.5 229t-51.5 287.5 t-48.5 295t-25.5 253.5q4 61 -16 103t-61 42q-31 0 -68 -29.5t-80 -99.5l-764 -1069l-32.5 -52t-28.5 -71zM635 653l278 412q2 -33 5.5 -86t8.5 -109.5t11 -110.5t12 -87zM843 1788q1 -12 1 -27q6 -33 14 -56.5t22.5 -44t35 -39.5t49.5 -44q35 -29 59.5 -52.5t34.5 -39.5 q12 -23 24.5 -33t21.5 -15t13 -5h6q31 10 46.5 19t19.5 26q4 10 0 25.5t-10 37.5q-10 35 -28.5 76t-41.5 80t-48.5 72.5t-49.5 52.5q-61 45 -107 45q-47 0 -59 -56q-4 -10 -3 -22z" />
<glyph unicode="&#xc1;" horiz-adv-x="1222" d="M33 49q-6 -31 8 -53.5t68 -26.5h6q41 0 78.5 50.5t87.5 121.5l225 326l58 4q57 4 134.5 9t154.5 9.5t116 4.5q14 -66 23 -104t15.5 -63.5t9.5 -45t7 -50.5q6 -33 15.5 -77.5t19.5 -85.5t21.5 -70t17.5 -29h16q55 0 85 32t40 81q6 41 4 78q-10 92 -34.5 229t-51.5 287.5 t-48.5 295t-25.5 253.5q4 61 -16 103t-61 42q-31 0 -68 -29.5t-80 -99.5l-764 -1069l-32.5 -52t-28.5 -71zM635 653l278 412q2 -33 5.5 -86t8.5 -109.5t11 -110.5t12 -87zM862 1477q-4 -16 8 -25.5t41 -19.5h13q6 0 15 5t22.5 15t35.5 33q16 16 50 39.5t81 52.5q39 25 67 44 t49.5 39.5t38.5 44.5t36 56q12 27 18 49q12 55 -39 56q-43 0 -122 -45q-33 -18 -72 -52t-77 -73t-71.5 -80t-58.5 -76q-29 -39 -35 -63z" />
<glyph unicode="&#xc2;" horiz-adv-x="1222" d="M33 49q-6 -31 8 -53.5t68 -26.5h6q41 0 78.5 50.5t87.5 121.5l225 326l58 4q57 4 134.5 9t154.5 9.5t116 4.5q14 -66 23 -104t15.5 -63.5t9.5 -45t7 -50.5q6 -33 15.5 -77.5t19.5 -85.5t21.5 -70t17.5 -29h16q55 0 85 32t40 81q6 41 4 78q-10 92 -34.5 229t-51.5 287.5 t-48.5 295t-25.5 253.5q4 61 -16 103t-61 42q-31 0 -68 -29.5t-80 -99.5l-764 -1069l-32.5 -52t-28.5 -71zM635 653l278 412q2 -33 5.5 -86t8.5 -109.5t11 -110.5t12 -87zM666 1497q-4 -14 8 -25.5t49 -21.5q4 -2 14 -2q16 0 39 13.5t58 47.5l237 201l98 -194 q12 -41 35 -54.5t39 -13.5q8 0 12 2q39 14 54.5 27t21.5 36v7q6 27 -8 55l-129 252q-4 29 -22.5 50t-47.5 21q-33 0 -47 -13t-28 -32l-312 -264q-23 -18 -40 -33.5t-27 -42.5z" />
<glyph unicode="&#xc3;" horiz-adv-x="1222" d="M33 49q-6 -31 8 -53.5t68 -26.5h6q41 0 78.5 50.5t87.5 121.5l225 326l58 4q57 4 134.5 9t154.5 9.5t116 4.5q14 -66 23 -104t15.5 -63.5t9.5 -45t7 -50.5q6 -33 15.5 -77.5t19.5 -85.5t21.5 -70t17.5 -29h16q55 0 85 32t40 81q6 41 4 78q-10 92 -34.5 229t-51.5 287.5 t-48.5 295t-25.5 253.5q4 61 -16 103t-61 42q-31 0 -68 -29.5t-80 -99.5l-764 -1069l-32.5 -52t-28.5 -71zM635 653l278 412q2 -33 5.5 -86t8.5 -109.5t11 -110.5t12 -87zM739 1526q-4 -23 11.5 -39.5t46.5 -16.5q18 0 37.5 15.5t40 33t40 33t37.5 15.5q16 0 26.5 -16.5 t25 -37t38 -37t66.5 -16.5q90 0 149.5 40t92.5 157v2q4 18 -13.5 32.5t-42.5 14.5q-16 0 -34.5 -9t-32.5 -32q-4 -10 -10.5 -25.5t-14.5 -30t-21.5 -25.5t-31.5 -11q-27 0 -38 18.5t-22.5 42t-31 42t-58.5 18.5q-31 0 -72.5 -14.5t-80.5 -37t-68.5 -51t-38.5 -59.5v-6z" />
<glyph unicode="&#xc4;" horiz-adv-x="1222" d="M33 49q-6 -31 8 -53.5t68 -26.5h6q41 0 78.5 50.5t87.5 121.5l225 326l58 4q57 4 134.5 9t154.5 9.5t116 4.5q14 -66 23 -104t15.5 -63.5t9.5 -45t7 -50.5q6 -33 15.5 -77.5t19.5 -85.5t21.5 -70t17.5 -29h16q55 0 85 32t40 81q6 41 4 78q-10 92 -34.5 229t-51.5 287.5 t-48.5 295t-25.5 253.5q4 61 -16 103t-61 42q-31 0 -68 -29.5t-80 -99.5l-764 -1069l-32.5 -52t-28.5 -71zM635 653l278 412q2 -33 5.5 -86t8.5 -109.5t11 -110.5t12 -87zM719 1581q-10 -45 16.5 -89t77.5 -44q35 0 62.5 14.5t49 36t36 45.5t20.5 47q2 6 4 12.5t4 14.5 q2 18 3 37.5t-6 36t-23.5 27t-44.5 10.5q-35 0 -68 -13.5t-59.5 -34t-45 -46t-24.5 -48.5zM1108 1585q-8 -45 19.5 -87t74.5 -42q35 0 63.5 14.5t50 36t35 47t19.5 48.5q4 6 5 14t3 16q4 18 4 37q0 18 -7 33.5t-23.5 25t-44.5 9.5q-35 0 -68 -13.5t-59.5 -34t-45 -46 t-24.5 -48.5z" />
<glyph unicode="&#xc5;" horiz-adv-x="1222" d="M33 49q-6 -31 8 -53.5t68 -26.5h6q41 0 78.5 50.5t87.5 121.5l225 326l58 4q57 4 134.5 9t154.5 9.5t116 4.5q14 -66 23 -104t15.5 -63.5t9.5 -45t7 -50.5q6 -33 15.5 -77.5t19.5 -85.5t21.5 -70t17.5 -29h16q55 0 85 32t40 81q6 41 4 78q-10 92 -34.5 229t-51.5 287.5 t-48.5 295t-25.5 253.5q4 61 -16 103t-61 42q-31 0 -68 -29.5t-80 -99.5l-764 -1069l-32.5 -52t-28.5 -71zM635 653l278 412q2 -33 5.5 -86t8.5 -109.5t11 -110.5t12 -87zM877 1571q-10 -59 12 -103.5t104 -44.5q51 0 104.5 21.5t98.5 57.5t79 83.5t46 100.5q2 6 4 13t4 13 q10 59 -14.5 105.5t-95.5 46.5q-66 0 -123.5 -27t-101.5 -69t-73.5 -91t-41.5 -94zM1030 1604q6 20 18.5 42.5t32 41t44 31t53.5 12.5q25 0 30.5 -14.5t1.5 -35.5l-2 -10q-12 -47 -55 -85t-92 -38q-25 0 -30 17.5t-1 38.5z" />
<glyph unicode="&#xc6;" horiz-adv-x="2013" d="M-23 -47q-10 -37 54 -43h6q39 0 101.5 50t146.5 122l381 326l30 4q31 4 80 11t109.5 15t119 15.5t107.5 12.5t76 5l-72 -262q-12 -39 -24.5 -74t-16.5 -63q-10 -49 9.5 -79t91.5 -30h16t18 2l650 47q92 0 124.5 29.5t38.5 60.5l2 13q10 47 -13 64.5t-83 17.5h-33 l-606 -52l115 414l471 51q10 2 22.5 3t26.5 1q41 0 80 17.5t55 77.5l2 12q6 29 -13 52.5t-93 23.5h-23q-12 0 -28 -2l-449 -56q29 100 47.5 162t30.5 98.5t18.5 55t12.5 32.5l506 33q51 2 89 3t64.5 9.5t43 28t28.5 58.5l2 12q10 47 -20.5 62.5t-77.5 15.5q-25 0 -51.5 -2 t-53.5 -4q-184 -12 -289.5 -17.5t-165.5 -5.5h-139q-35 0 -79 -15.5t-62 -35.5l-1247 -1116q-12 -10 -34 -30t-43.5 -42.5t-38.5 -46t-20 -41.5zM879 594l440 430q-4 -12 -8 -32.5t-7.5 -45t-7.5 -53.5q-14 -57 -26.5 -116.5t-36.5 -127.5z" />
<glyph unicode="&#xc7;" horiz-adv-x="1175" d="M184.5 265q3.5 -81 30.5 -145.5t76 -108.5t119 -62l-43 -129l-13 -24q-12 -23 -16 -54q-6 -29 -1 -55.5t40 -32.5q4 0 6 -1t6 -1q41 0 87 48t71 118q25 51 36 76.5t16 36t5 12.5t2 6q82 14 162 49t151.5 80t131 97t102.5 104q31 35 35 61q6 29 -12.5 43t-51.5 14 q-39 0 -89 -21.5t-91 -68.5q-23 -29 -65.5 -62.5t-95 -61t-106.5 -46t-99 -18.5q-68 0 -109 26.5t-59.5 71.5t-19.5 104.5t11 124.5l8.5 34l8.5 34q35 125 100.5 249t150.5 220t183 156.5t199 60.5q63 0 96 -9t47 -26q43 -49 68.5 -80.5t33.5 -31.5q51 0 90 34.5t50 79.5 q10 51 -27 90q-66 72 -147.5 98.5t-182.5 26.5q-133 0 -266 -72.5t-250 -194.5t-208 -278.5t-138 -322.5q-12 -35 -18 -76q-18 -92 -14.5 -173z" />
<glyph unicode="&#xc8;" horiz-adv-x="1087" d="M156 82q-10 -49 8 -79t90 -30h16q10 0 21 2l649 48q92 0 125 29.5t39 60.5l2 12q10 47 -13.5 64.5t-82.5 17.5h-33l-606 -51l114 413l471 52q10 2 22.5 3t27.5 1q41 0 79.5 17t55.5 77l2 12q6 29 -13.5 52.5t-93.5 23.5h-22t-29 -2l-448 -55l98 348l516 32q51 2 89 3.5 t64.5 9.5t43 27.5t28.5 58.5l2 12q10 47 -20.5 62.5t-77.5 15.5q-25 0 -51.5 -2t-52.5 -4q-184 -12 -290 -17.5t-165 -5.5h-139q-33 0 -57.5 -11t-43 -29.5t-29 -39t-14.5 -39.5q0 -4 -1 -9t-1 -9q-16 -68 -51 -218.5t-94 -367.5l-94 -348q-12 -39 -24.5 -73.5t-16.5 -63.5z M794 1788q1 -12 1 -27q6 -33 14 -56.5t22.5 -44t35 -39.5t48.5 -44q35 -29 59.5 -52.5t35.5 -39.5q12 -23 24.5 -33t21.5 -15t13 -5h6q31 10 46.5 19t19.5 26q4 10 0 25.5t-11 37.5q-10 35 -28.5 76t-41 80t-48 72.5t-49.5 52.5q-61 45 -107 45q-47 0 -59 -56q-4 -10 -3 -22 z" />
<glyph unicode="&#xc9;" horiz-adv-x="1087" d="M156 82q-10 -49 8 -79t90 -30h16q10 0 21 2l649 48q92 0 125 29.5t39 60.5l2 12q10 47 -13.5 64.5t-82.5 17.5h-33l-606 -51l114 413l471 52q10 2 22.5 3t27.5 1q41 0 79.5 17t55.5 77l2 12q6 29 -13.5 52.5t-93.5 23.5h-22t-29 -2l-448 -55l98 348l516 32q51 2 89 3.5 t64.5 9.5t43 27.5t28.5 58.5l2 12q10 47 -20.5 62.5t-77.5 15.5q-25 0 -51.5 -2t-52.5 -4q-184 -12 -290 -17.5t-165 -5.5h-139q-33 0 -57.5 -11t-43 -29.5t-29 -39t-14.5 -39.5q0 -4 -1 -9t-1 -9q-16 -68 -51 -218.5t-94 -367.5l-94 -348q-12 -39 -24.5 -73.5t-16.5 -63.5z M844 1477q-4 -16 8 -25.5t41 -19.5h12t15.5 5t22.5 15t36 33q16 16 50 39.5t81 52.5q39 25 66.5 44t49 39.5t39 44.5t35.5 56q12 27 19 49q12 55 -39 56q-43 0 -123 -45q-33 -18 -71.5 -52t-76.5 -73t-72 -80t-58 -76q-29 -39 -35 -63z" />
<glyph unicode="&#xca;" horiz-adv-x="1087" d="M156 82q-10 -49 8 -79t90 -30h16q10 0 21 2l649 48q92 0 125 29.5t39 60.5l2 12q10 47 -13.5 64.5t-82.5 17.5h-33l-606 -51l114 413l471 52q10 2 22.5 3t27.5 1q41 0 79.5 17t55.5 77l2 12q6 29 -13.5 52.5t-93.5 23.5h-22t-29 -2l-448 -55l98 348l516 32q51 2 89 3.5 t64.5 9.5t43 27.5t28.5 58.5l2 12q10 47 -20.5 62.5t-77.5 15.5q-25 0 -51.5 -2t-52.5 -4q-184 -12 -290 -17.5t-165 -5.5h-139q-33 0 -57.5 -11t-43 -29.5t-29 -39t-14.5 -39.5q0 -4 -1 -9t-1 -9q-16 -68 -51 -218.5t-94 -367.5l-94 -348q-12 -39 -24.5 -73.5t-16.5 -63.5z M659 1497q-4 -14 8.5 -25.5t49.5 -21.5q4 -2 14 -2q16 0 39 13.5t57 47.5l238 201l98 -194q12 -41 35 -54.5t39 -13.5q8 0 12 2q39 14 54.5 27t21.5 36v7q6 27 -8 55l-129 252q-4 29 -22.5 50t-47.5 21q-33 0 -47 -13t-29 -32l-311 -264q-23 -18 -40 -33.5t-27 -42.5z" />
<glyph unicode="&#xcb;" horiz-adv-x="1087" d="M156 82q-10 -49 8 -79t90 -30h16q10 0 21 2l649 48q92 0 125 29.5t39 60.5l2 12q10 47 -13.5 64.5t-82.5 17.5h-33l-606 -51l114 413l471 52q10 2 22.5 3t27.5 1q41 0 79.5 17t55.5 77l2 12q6 29 -13.5 52.5t-93.5 23.5h-22t-29 -2l-448 -55l98 348l516 32q51 2 89 3.5 t64.5 9.5t43 27.5t28.5 58.5l2 12q10 47 -20.5 62.5t-77.5 15.5q-25 0 -51.5 -2t-52.5 -4q-184 -12 -290 -17.5t-165 -5.5h-139q-33 0 -57.5 -11t-43 -29.5t-29 -39t-14.5 -39.5q0 -4 -1 -9t-1 -9q-16 -68 -51 -218.5t-94 -367.5l-94 -348q-12 -39 -24.5 -73.5t-16.5 -63.5z M715 1581q-10 -45 16.5 -89t77.5 -44q35 0 62.5 14.5t49 36t36 45.5t20.5 47q2 6 4 12.5t4 14.5q2 18 3 37.5t-6 36t-23.5 27t-45.5 10.5q-35 0 -67.5 -13.5t-59 -34t-45 -46t-24.5 -48.5zM1104 1585q-8 -45 19.5 -87t74.5 -42q35 0 63.5 14.5t50 36t35 47t19.5 48.5 q4 6 5 14t3 16q4 18 4 37q0 18 -7 33.5t-23.5 25t-44.5 9.5q-35 0 -68 -13.5t-59.5 -34t-45 -46t-24.5 -48.5z" />
<glyph unicode="&#xcc;" horiz-adv-x="454" d="M147 68q-6 -39 8.5 -66t63.5 -33q4 0 9 -1t10 -1q29 0 47 11.5t30.5 32t21.5 47t21 57.5l297 1050q6 23 16.5 47.5t14.5 47.5q6 33 -4 55t-51 22q-45 0 -74 -9t-46 -27.5t-27.5 -47t-16.5 -65.5l-303 -1069q-4 -14 -8 -26.5t-9 -24.5zM488.5 1788q0.5 -12 0.5 -27 q6 -33 14.5 -56.5t23 -44t35 -39.5t48.5 -44q35 -29 59.5 -52.5t35.5 -39.5q12 -23 24 -33t21.5 -15t13.5 -5h6q31 10 46 19t20 26q4 10 -0.5 25.5t-10.5 37.5q-10 35 -28.5 76t-41 80t-48 72.5t-50.5 52.5q-61 45 -106 45q-47 0 -59 -56q-4 -10 -3.5 -22z" />
<glyph unicode="&#xcd;" horiz-adv-x="454" d="M147 68q-6 -39 8.5 -66t63.5 -33q4 0 9 -1t10 -1q29 0 47 11.5t30.5 32t21.5 47t21 57.5l297 1050q6 23 16.5 47.5t14.5 47.5q6 33 -4 55t-51 22q-45 0 -74 -9t-46 -27.5t-27.5 -47t-16.5 -65.5l-303 -1069q-4 -14 -8 -26.5t-9 -24.5zM461 1477q-4 -16 8 -25.5t41 -19.5 h12t15.5 5t22.5 15t36 33q16 16 50 39.5t81 52.5q39 25 66.5 44t49 39.5t39 44.5t36.5 56q12 27 18 49q12 55 -39 56q-43 0 -123 -45q-33 -18 -71.5 -52t-76.5 -73t-72 -80t-58 -76q-29 -39 -35 -63z" />
<glyph unicode="&#xce;" horiz-adv-x="454" d="M147 68q-6 -39 8.5 -66t63.5 -33q4 0 9 -1t10 -1q29 0 47 11.5t30.5 32t21.5 47t21 57.5l297 1050q6 23 16.5 47.5t14.5 47.5q6 33 -4 55t-51 22q-45 0 -74 -9t-46 -27.5t-27.5 -47t-16.5 -65.5l-303 -1069q-4 -14 -8 -26.5t-9 -24.5zM311 1497q-4 -14 8.5 -25.5 t49.5 -21.5q4 -2 14 -2q16 0 38.5 13.5t57.5 47.5l238 201l98 -194q12 -41 34.5 -54.5t39.5 -13.5q8 0 12 2q39 14 54.5 27t21.5 36v7q6 27 -8 55l-129 252q-4 29 -22.5 50t-47.5 21q-33 0 -47 -13t-29 -32l-311 -264q-23 -18 -40 -33.5t-28 -42.5z" />
<glyph unicode="&#xcf;" horiz-adv-x="454" d="M147 68q-6 -39 8.5 -66t63.5 -33q4 0 9 -1t10 -1q29 0 47 11.5t30.5 32t21.5 47t21 57.5l297 1050q6 23 16.5 47.5t14.5 47.5q6 33 -4 55t-51 22q-45 0 -74 -9t-46 -27.5t-27.5 -47t-16.5 -65.5l-303 -1069q-4 -14 -8 -26.5t-9 -24.5zM344 1571q-10 -45 16.5 -89 t77.5 -44q35 0 62.5 14t49 35.5t36 46t20.5 47.5l4 12t4 15q2 18 3 37.5t-6 36t-23.5 26.5t-44.5 10q-35 0 -68 -13t-59.5 -33.5t-45 -46.5t-24.5 -48zM733 1575q-8 -45 19.5 -87t74.5 -42q35 0 64 14.5t50.5 36t34.5 46.5t19 48q4 6 5 14.5t4 16.5q4 18 4 37 q0 18 -7.5 33.5t-23.5 24.5t-45 9q-35 0 -68 -13t-59.5 -33.5t-45 -46t-24.5 -48.5z" />
<glyph unicode="&#xd0;" horiz-adv-x="1241" d="M117 694q-8 -35 13.5 -66.5t74.5 -31.5h98l-106 -377q-8 -33 -17.5 -65.5t-13.5 -61.5q-10 -53 -2 -88t57 -35q55 0 153.5 20.5t216.5 66.5t245 118t241.5 174.5t206.5 236.5t139 304q8 23 13 51q16 86 6 165t-52 139.5t-116 96t-184 35.5q-86 0 -155 -9t-127 -23.5 t-110.5 -32t-105.5 -33.5q-63 -20 -100 -66.5t-48 -97.5q-4 -20 -4 -33l-84 -295q-16 2 -30 2h-23q-35 0 -46 -3t-24 -3q-51 0 -80.5 -26.5t-35.5 -61.5zM377 178l119 420l172 2q47 0 78.5 28.5t39.5 63.5q6 35 -18.5 64.5t-91.5 29.5h-127l86 312q72 35 172 67.5t211 32.5 q72 0 118 -23.5t70.5 -62.5t28.5 -90t-6 -104l-6 -29q-47 -166 -148.5 -291t-223.5 -211t-249 -137t-225 -72z" />
<glyph unicode="&#xd1;" horiz-adv-x="1337" d="M143 63q-18 -96 78 -96h15q45 4 73.5 35t36.5 68q2 8 2 16v16l230 818q27 -53 58.5 -114t62 -120t57 -116.5t43.5 -102.5q14 -41 40.5 -99.5t56.5 -120t58.5 -118.5t46.5 -94q6 -8 10.5 -19.5t14.5 -20.5t30.5 -15.5t57.5 -6.5q25 0 43.5 13.5t32.5 33t24.5 41t16.5 39.5 l313 1119q4 12 6 23l4 22q10 53 -6 74.5t-69 21.5q-35 0 -55.5 -12.5t-35 -32t-21.5 -42t-13 -42.5l-248 -893q-6 8 -17.5 29.5t-24.5 45t-24.5 44t-15.5 30.5q-37 66 -65.5 125.5t-57.5 125t-62.5 145.5t-80.5 188q-6 16 -11.5 22.5t-9.5 16.5t-11 30.5t-19 65.5 q-6 18 -15.5 41t-23 43.5t-30.5 33.5t-38 13q-25 0 -43 -5t-34.5 -21.5t-32 -45t-29.5 -75.5l-305 -1079q-10 -29 -13 -48zM754 1518q-4 -23 11 -39.5t46 -16.5q18 0 37.5 15.5t40 33t40 33t38.5 15.5q16 0 26.5 -16.5t24.5 -37t37.5 -37t66.5 -16.5q90 0 150.5 40t91.5 157 l2 2q4 18 -14.5 32.5t-42.5 14.5q-16 0 -35 -9.5t-33 -31.5q-4 -10 -9 -25.5t-13.5 -30t-21.5 -25.5t-32 -11q-27 0 -38 18.5t-23 42t-31.5 42t-58.5 18.5q-31 0 -73 -14.5t-80 -37t-67.5 -51.5t-37.5 -59z" />
<glyph unicode="&#xd2;" horiz-adv-x="1304" d="M199 444q-47 -240 40 -373.5t293 -133.5q139 0 281.5 63t267.5 172t220.5 254t142.5 311q14 55 24 111q20 104 19.5 201.5t-35.5 171t-108.5 117.5t-196.5 44q-102 0 -204.5 -41t-199 -109.5t-181.5 -155.5t-154.5 -181t-117.5 -187.5t-69 -170.5q-6 -25 -12 -47.5 t-10 -45.5zM393 455q4 20 9.5 39.5t11.5 42.5q16 59 55 132.5t91 147.5t116.5 143.5t134.5 123t142.5 86t142.5 32.5q74 0 116.5 -29.5t62 -80t19.5 -115.5q0 -63 -14 -133q-4 -27 -11.5 -53.5t-15.5 -53.5q-35 -125 -104.5 -237.5t-160.5 -197.5t-195.5 -135t-208.5 -50 q-133 0 -176 92t-15 246zM931 1788q1 -12 1 -27q6 -33 14 -56.5t22.5 -44t35 -39.5t49.5 -44q35 -29 59.5 -52.5t34.5 -39.5q12 -23 24.5 -33t21.5 -15t13 -5h6q31 10 46.5 19t19.5 26q4 10 0 25.5t-10 37.5q-10 35 -28.5 76t-41 80t-48.5 72.5t-50 52.5q-61 45 -107 45 q-47 0 -59 -56q-4 -10 -3 -22z" />
<glyph unicode="&#xd3;" horiz-adv-x="1304" d="M199 444q-47 -240 40 -373.5t293 -133.5q139 0 281.5 63t267.5 172t220.5 254t142.5 311q14 55 24 111q20 104 19.5 201.5t-35.5 171t-108.5 117.5t-196.5 44q-102 0 -204.5 -41t-199 -109.5t-181.5 -155.5t-154.5 -181t-117.5 -187.5t-69 -170.5q-6 -25 -12 -47.5 t-10 -45.5zM393 455q4 20 9.5 39.5t11.5 42.5q16 59 55 132.5t91 147.5t116.5 143.5t134.5 123t142.5 86t142.5 32.5q74 0 116.5 -29.5t62 -80t19.5 -115.5q0 -63 -14 -133q-4 -27 -11.5 -53.5t-15.5 -53.5q-35 -125 -104.5 -237.5t-160.5 -197.5t-195.5 -135t-208.5 -50 q-133 0 -176 92t-15 246zM1032 1477q-4 -16 8 -25.5t41 -19.5h13q6 0 15 5t22.5 15t35.5 33q16 16 50 39.5t81 52.5q39 25 67 44t49.5 39.5t38.5 44.5t36 56q12 27 18 49q12 55 -39 56q-43 0 -122 -45q-33 -18 -72 -52t-77 -73t-71.5 -80t-58.5 -76q-29 -39 -35 -63z" />
<glyph unicode="&#xd4;" horiz-adv-x="1304" d="M199 444q-47 -240 40 -373.5t293 -133.5q139 0 281.5 63t267.5 172t220.5 254t142.5 311q14 55 24 111q20 104 19.5 201.5t-35.5 171t-108.5 117.5t-196.5 44q-102 0 -204.5 -41t-199 -109.5t-181.5 -155.5t-154.5 -181t-117.5 -187.5t-69 -170.5q-6 -25 -12 -47.5 t-10 -45.5zM393 455q4 20 9.5 39.5t11.5 42.5q16 59 55 132.5t91 147.5t116.5 143.5t134.5 123t142.5 86t142.5 32.5q74 0 116.5 -29.5t62 -80t19.5 -115.5q0 -63 -14 -133q-4 -27 -11.5 -53.5t-15.5 -53.5q-35 -125 -104.5 -237.5t-160.5 -197.5t-195.5 -135t-208.5 -50 q-133 0 -176 92t-15 246zM819 1497q-4 -14 8.5 -25.5t49.5 -21.5q4 -2 14 -2q16 0 38.5 13.5t57.5 47.5l238 201l98 -194q12 -41 34.5 -54.5t39.5 -13.5q8 0 12 2q39 14 54.5 27t21.5 36v7q6 27 -8 55l-129 252q-4 29 -22.5 50t-47.5 21q-33 0 -47 -13t-29 -32l-311 -264 q-23 -18 -40 -33.5t-28 -42.5z" />
<glyph unicode="&#xd5;" horiz-adv-x="1304" d="M199 444q-47 -240 40 -373.5t293 -133.5q139 0 281.5 63t267.5 172t220.5 254t142.5 311q14 55 24 111q20 104 19.5 201.5t-35.5 171t-108.5 117.5t-196.5 44q-102 0 -204.5 -41t-199 -109.5t-181.5 -155.5t-154.5 -181t-117.5 -187.5t-69 -170.5q-6 -25 -12 -47.5 t-10 -45.5zM393 455q4 20 9.5 39.5t11.5 42.5q16 59 55 132.5t91 147.5t116.5 143.5t134.5 123t142.5 86t142.5 32.5q74 0 116.5 -29.5t62 -80t19.5 -115.5q0 -63 -14 -133q-4 -27 -11.5 -53.5t-15.5 -53.5q-35 -125 -104.5 -237.5t-160.5 -197.5t-195.5 -135t-208.5 -50 q-133 0 -176 92t-15 246zM866 1526q-4 -23 11.5 -39.5t46.5 -16.5q18 0 37.5 15.5t40 33t40 33t37.5 15.5q16 0 26.5 -16.5t25 -37t38 -37t66.5 -16.5q90 0 149.5 40t92.5 157v2q4 18 -13.5 32.5t-42.5 14.5q-16 0 -34.5 -9t-32.5 -32q-4 -10 -10.5 -25.5t-14.5 -30 t-21.5 -25.5t-31.5 -11q-27 0 -38 18.5t-22.5 42t-31 42t-58.5 18.5q-31 0 -72.5 -14.5t-80.5 -37t-69 -51t-38 -59.5v-6z" />
<glyph unicode="&#xd6;" horiz-adv-x="1304" d="M199 444q-47 -240 40 -373.5t293 -133.5q139 0 281.5 63t267.5 172t220.5 254t142.5 311q14 55 24 111q20 104 19.5 201.5t-35.5 171t-108.5 117.5t-196.5 44q-102 0 -204.5 -41t-199 -109.5t-181.5 -155.5t-154.5 -181t-117.5 -187.5t-69 -170.5q-6 -25 -12 -47.5 t-10 -45.5zM393 455q4 20 9.5 39.5t11.5 42.5q16 59 55 132.5t91 147.5t116.5 143.5t134.5 123t142.5 86t142.5 32.5q74 0 116.5 -29.5t62 -80t19.5 -115.5q0 -63 -14 -133q-4 -27 -11.5 -53.5t-15.5 -53.5q-35 -125 -104.5 -237.5t-160.5 -197.5t-195.5 -135t-208.5 -50 q-133 0 -176 92t-15 246zM807 1581q-10 -45 16.5 -89t77.5 -44q35 0 62.5 14.5t49 36t36 45.5t20.5 47q2 6 4 12.5t4 14.5q2 18 3 37.5t-6 36t-23.5 27t-44.5 10.5q-35 0 -68 -13.5t-59.5 -34t-45 -46t-24.5 -48.5zM1196 1585q-8 -45 19.5 -87t74.5 -42q35 0 63.5 14.5 t50 36t35 47t19.5 48.5q4 6 5 14t3 16q4 18 4 37q0 18 -7 33.5t-23.5 25t-44.5 9.5q-35 0 -68 -13.5t-59.5 -34t-45 -46t-24.5 -48.5z" />
<glyph unicode="&#xd7;" horiz-adv-x="952" d="M129 215q-6 -35 16 -57q27 -33 74 -33q31 0 64 20q8 6 27.5 20.5t42 30t43 31t30.5 23.5l162 115l125 -160q6 -23 28.5 -39t28.5 -25q18 -23 42 -32t46 -9q41 0 75 22.5t40 57.5q6 33 -19 68l-65 76l-131 163l184 134q12 4 23.5 9t21.5 15q27 25 35 25q51 39 57 80 q8 37 -15.5 62.5t-64.5 25.5t-81 -29q-20 -16 -48 -29.5t-34 -25.5l-187 -133l-117 147q-2 16 -24.5 33.5t-30.5 27.5q-35 43 -86 43q-39 0 -70.5 -23.5t-38 -58t20.5 -71.5q10 -14 25.5 -42t38.5 -38l112 -141l-194 -140q-23 -4 -48.5 -28.5t-41.5 -34.5q-31 -20 -46.5 -41 t-19.5 -39z" />
<glyph unicode="&#xd8;" horiz-adv-x="1304" d="M199 444q-33 -170 2 -288.5t133 -171.5q-51 -82 -60 -129q-6 -35 11.5 -51.5t66.5 -16.5q27 0 50.5 16.5t44 40t36 49t27.5 44.5h22q139 0 281.5 63t267.5 172t220.5 254t142.5 311q6 29 13 54.5t11 54.5q14 74 18.5 142.5t-6 130t-36 112.5t-70.5 86q4 10 8 18t9 17v-2 q14 27 29.5 57.5t19.5 58.5q6 29 -3.5 49.5t-47.5 20.5q-39 0 -66 -9t-45 -22.5t-30.5 -30t-20.5 -30.5q-10 -14 -18.5 -29.5t-18.5 -34.5q-10 0 -21.5 1t-21.5 1q-102 0 -204.5 -41t-199 -109.5t-181.5 -155.5t-154.5 -181t-117.5 -187.5t-69 -170.5q-6 -25 -12 -47.5 t-10 -45.5zM385 275.5q-12 74.5 8 177.5q4 20 9.5 40.5t11.5 43.5q16 59 53 130.5t88 144.5t114.5 141.5t132 121.5t140.5 88t139 37q-68 -115 -152.5 -253t-170.5 -279.5t-168 -274.5t-146 -233q-47 41 -59 115.5zM627 119q63 96 145 222t169 261t171 269.5t150 246.5 q31 -53 32.5 -125.5t-14.5 -150.5q-4 -27 -11.5 -52.5t-15.5 -52.5q-33 -119 -97 -226.5t-149 -191t-182.5 -137t-197.5 -63.5z" />
<glyph unicode="&#xd9;" d="M188 199q-12 -57 0.5 -105.5t52.5 -83.5t107.5 -54t167.5 -19q129 0 248 35.5t213 94t159 132t85 151.5l237 844q4 2 11.5 17.5t11.5 37.5q4 31 -7.5 59.5t-64.5 28.5q-39 0 -63.5 -12t-40 -32.5t-22.5 -48t-13 -56.5l-256 -846q-10 -37 -53 -77t-108 -72.5t-147.5 -53 t-175.5 -20.5q-31 0 -58.5 7t-48 20.5t-29.5 33t-5 43.5l2 8l283 1004q2 12 3 29.5t-5 34t-22.5 27.5t-47.5 11q-33 0 -54.5 -10t-34.5 -26.5t-21.5 -36t-16.5 -39.5l-278 -994q-4 -8 -5.5 -16t-3.5 -16zM816 1788q1 -12 1 -27q6 -33 14.5 -56.5t22.5 -44t34.5 -39.5 t49.5 -44q35 -29 59.5 -52.5t34.5 -39.5q12 -23 24.5 -33t21.5 -15t14 -5h6q31 10 46 19t19 26q4 10 0 25.5t-10 37.5q-10 35 -28.5 76t-41 80t-48 72.5t-50.5 52.5q-61 45 -106 45q-47 0 -60 -56q-4 -10 -3 -22z" />
<glyph unicode="&#xda;" d="M188 199q-12 -57 0.5 -105.5t52.5 -83.5t107.5 -54t167.5 -19q129 0 248 35.5t213 94t159 132t85 151.5l237 844q4 2 11.5 17.5t11.5 37.5q4 31 -7.5 59.5t-64.5 28.5q-39 0 -63.5 -12t-40 -32.5t-22.5 -48t-13 -56.5l-256 -846q-10 -37 -53 -77t-108 -72.5t-147.5 -53 t-175.5 -20.5q-31 0 -58.5 7t-48 20.5t-29.5 33t-5 43.5l2 8l283 1004q2 12 3 29.5t-5 34t-22.5 27.5t-47.5 11q-33 0 -54.5 -10t-34.5 -26.5t-21.5 -36t-16.5 -39.5l-278 -994q-4 -8 -5.5 -16t-3.5 -16zM956 1477q-4 -16 8.5 -25.5t41.5 -19.5h12t15 5t22.5 15t36.5 33 q16 16 50 39.5t81 52.5q39 25 66.5 44t49 39.5t39 44.5t35.5 56q12 27 19 49q12 55 -39 56q-43 0 -123 -45q-33 -18 -72 -52t-77 -73t-71.5 -80t-58.5 -76q-29 -39 -35 -63z" />
<glyph unicode="&#xdb;" d="M188 199q-12 -57 0.5 -105.5t52.5 -83.5t107.5 -54t167.5 -19q129 0 248 35.5t213 94t159 132t85 151.5l237 844q4 2 11.5 17.5t11.5 37.5q4 31 -7.5 59.5t-64.5 28.5q-39 0 -63.5 -12t-40 -32.5t-22.5 -48t-13 -56.5l-256 -846q-10 -37 -53 -77t-108 -72.5t-147.5 -53 t-175.5 -20.5q-31 0 -58.5 7t-48 20.5t-29.5 33t-5 43.5l2 8l283 1004q2 12 3 29.5t-5 34t-22.5 27.5t-47.5 11q-33 0 -54.5 -10t-34.5 -26.5t-21.5 -36t-16.5 -39.5l-278 -994q-4 -8 -5.5 -16t-3.5 -16zM758 1497q-4 -14 8 -25.5t49 -21.5q4 -2 14 -2q16 0 39 13.5t58 47.5 l237 201l99 -194q12 -41 34.5 -54.5t38.5 -13.5q8 0 13 2q39 14 54 27t21 36v7q6 27 -8 55l-129 252q-4 29 -22.5 50t-46.5 21q-33 0 -47.5 -13t-28.5 -32l-312 -264q-23 -18 -40 -33.5t-27 -42.5z" />
<glyph unicode="&#xdc;" d="M188 199q-12 -57 0.5 -105.5t52.5 -83.5t107.5 -54t167.5 -19q129 0 248 35.5t213 94t159 132t85 151.5l237 844q4 2 11.5 17.5t11.5 37.5q4 31 -7.5 59.5t-64.5 28.5q-39 0 -63.5 -12t-40 -32.5t-22.5 -48t-13 -56.5l-256 -846q-10 -37 -53 -77t-108 -72.5t-147.5 -53 t-175.5 -20.5q-31 0 -58.5 7t-48 20.5t-29.5 33t-5 43.5l2 8l283 1004q2 12 3 29.5t-5 34t-22.5 27.5t-47.5 11q-33 0 -54.5 -10t-34.5 -26.5t-21.5 -36t-16.5 -39.5l-278 -994q-4 -8 -5.5 -16t-3.5 -16zM741 1581q-10 -45 16.5 -89t78.5 -44q35 0 62.5 14.5t49 36t36 45.5 t20.5 47q2 6 4 12.5t4 14.5q2 18 3 37.5t-6.5 36t-23.5 27t-45 10.5q-35 0 -67.5 -13.5t-59.5 -34t-45 -46t-25 -48.5zM1130 1585q-8 -45 20 -87t75 -42q35 0 63.5 14.5t50 36t35 47t19.5 48.5q4 6 5 14t3 16q4 18 4 37q0 18 -7 33.5t-23.5 25t-45.5 9.5q-35 0 -67.5 -13.5 t-59 -34t-45 -46t-24.5 -48.5z" />
<glyph unicode="&#xdd;" d="M375 1251q-10 -47 31 -104l294 -508l-143 -508q-4 -12 -6 -24.5t-4 -22.5q-10 -47 -2 -79t47 -32h8q37 2 61.5 15.5t41 34t26.5 45t19 51.5l147 520l623 508q39 37 55 62.5t20 41.5q4 23 -10 36t-31 26q-20 10 -32 10q-35 0 -72 -27.5t-84 -52.5l-502 -414l-252 371 q-29 63 -53.5 105.5t-50.5 42.5h-6q-41 -8 -79 -32t-46 -65zM950 1464q-4 -16 8 -25.5t41 -19.5h13q6 0 15 5.5t22.5 15.5t35.5 33q16 16 50 39.5t82 52.5q39 25 66.5 44t49 39.5t39 44t35.5 56.5q12 27 18 49q8 55 -39 55q-45 0 -122 -45q-33 -18 -72 -52t-77 -72.5 t-71.5 -79.5t-58.5 -76q-33 -45 -35 -64z" />
<glyph unicode="&#xde;" horiz-adv-x="1073" d="M147 68q-6 -39 8.5 -66t63.5 -33h12q31 0 51.5 18.5t36 46t27 61.5t23.5 65l14 53q59 0 81.5 1t33.5 1q100 0 216.5 55.5t223 146.5t189.5 208.5t116 244.5q4 10 5 21.5t5 21.5q25 129 -23 202t-179 73q-98 0 -203 -22.5t-221 -88.5l28 88q6 23 16.5 47.5t14.5 47.5 q6 33 -4 55t-51 22q-45 0 -74 -9t-46 -27.5t-27.5 -47t-16.5 -65.5l-303 -1069q-4 -14 -8 -26.5t-9 -24.5zM449 428v4l36 139l80 281q16 18 56.5 42t95.5 44t121.5 33.5t134.5 13.5q49 0 68.5 -25.5t9.5 -72.5l-2 -17q-25 -90 -85.5 -177t-139.5 -155.5t-164 -111.5 t-154 -43q-31 0 -47.5 9t-9.5 36z" />
<glyph unicode="&#xdf;" horiz-adv-x="2015" d="M94 203q-8 -45 1 -90t40 -81t84 -58.5t133 -22.5q98 0 218 32.5t232.5 99.5t203 169t131.5 244v2q2 8 4 15t4 13q14 70 -6.5 114t-56 68.5t-77.5 33t-73 8.5q-94 0 -180 -21.5t-156 -44.5q-41 -12 -72.5 -21.5t-54.5 -9.5q-16 0 -28.5 9.5t-8.5 31.5v6q10 33 45 77t88 84 t124 67.5t153 27.5q35 0 51 -7t25 -13h2q23 -16 34 -31q16 -16 31.5 -24.5t58.5 -8.5q20 0 39 10.5t34.5 25t24.5 29.5t11 28v8q6 37 -12.5 67.5t-54 54t-87 37t-108.5 13.5q-102 0 -209 -39t-200 -103.5t-162.5 -150.5t-96.5 -178l-4 -25q-12 -59 0 -98t40 -60.5 t65.5 -29.5t76.5 -8q49 0 105.5 14t116.5 31q68 18 134 34.5t122 16.5q29 0 45 -11.5t10 -43.5q-4 -12 -6 -17q-25 -92 -89.5 -154.5t-141 -102.5t-150.5 -57.5t-115 -17.5q-72 0 -92.5 25t-26.5 47q-12 39 -25.5 70.5t-54.5 31.5q-59 0 -91.5 -29.5t-43.5 -70.5zM1069 205 q-8 -45 2 -90t41 -81t84 -58.5t133 -22.5q98 0 218 32.5t232.5 99.5t203 169t128.5 244v2q2 8 4.5 15t4.5 13q14 70 -6.5 114t-56.5 68.5t-78 33t-72 8.5q-94 0 -180.5 -21.5t-155.5 -44.5q-39 -12 -72 -21.5t-55 -9.5q-16 0 -28.5 9.5t-8.5 31.5l2 6q8 33 43 77t88 84 t124 67.5t153 27.5q35 0 51 -7t24 -13h2q23 -16 35 -31q16 -16 31.5 -24.5t58.5 -8.5q20 0 39 10.5t34 25t24.5 29.5t11.5 28l2 8q6 37 -12.5 67.5t-55.5 54t-88 37t-108 13.5q-102 0 -209 -39t-200 -103.5t-162.5 -150.5t-96.5 -178l-4 -25q-12 -59 1 -98t41 -60.5 t64.5 -29.5t75.5 -8q49 0 105.5 14t115.5 31q68 18 134.5 34.5t121.5 16.5q29 0 45.5 -11.5t10.5 -43.5q-4 -12 -6 -17q-25 -92 -89.5 -154.5t-141.5 -102.5t-150.5 -57.5t-114.5 -17.5q-72 0 -92.5 25t-26.5 47q-10 39 -24.5 71t-53.5 32q-59 0 -93 -30t-44 -71z" />
<glyph unicode="&#xe0;" horiz-adv-x="978" d="M10 59q-8 -35 7.5 -57t68.5 -27h6q39 0 76 43t78 107l170 248q98 8 154.5 12t91 6t55 3t45.5 1q4 -14 5 -24.5t5 -20.5q8 -29 12 -47t7.5 -33.5t5.5 -32t4 -38.5q4 -29 14 -67t21.5 -72.5t22.5 -59.5t20 -25h14q55 0 84 31t39 80q4 16 6 34t0 34q-8 59 -23.5 142 t-31.5 177v-2q-25 137 -48.5 279.5t-27.5 253.5v-3q6 57 -15.5 96.5t-62.5 39.5q-31 0 -65.5 -27t-73.5 -88v2l-611 -858q-10 -16 -28.5 -45t-24.5 -62zM549 565l168 248q4 -53 9 -120t13 -118zM655 1438q6 -33 13.5 -56.5t19.5 -42t29.5 -36t42.5 -37.5q27 -23 46 -40.5 t28 -29.5q20 -35 38.5 -43t24.5 -8h4q35 12 52.5 22.5t21.5 34.5q6 23 -6 62v-2q-8 29 -23.5 62.5t-34 65t-41 59.5t-43.5 44q-27 18 -50 29.5t-44 11.5q-59 0 -74 -66q-2 -12 -3 -19t-1 -11z" />
<glyph unicode="&#xe1;" horiz-adv-x="978" d="M10 59q-8 -35 7.5 -57t68.5 -27h6q39 0 76 43t78 107l170 248q98 8 154.5 12t91 6t55 3t45.5 1q4 -14 5 -24.5t5 -20.5q8 -29 12 -47t7.5 -33.5t5.5 -32t4 -38.5q4 -29 14 -67t21.5 -72.5t22.5 -59.5t20 -25h14q55 0 84 31t39 80q4 16 6 34t0 34q-8 59 -23.5 142 t-31.5 177v-2q-25 137 -48.5 279.5t-27.5 253.5v-3q6 57 -15.5 96.5t-62.5 39.5q-31 0 -65.5 -27t-73.5 -88v2l-611 -858q-10 -16 -28.5 -45t-24.5 -62zM549 565l168 248q4 -53 9 -120t13 -118zM674 1202q-4 -25 7 -35t40 -20l8 -2h6q14 0 29.5 7t52.5 44q10 12 36 29.5 t62 40.5q31 20 54.5 36.5t42 34t34 38t31.5 48.5q16 33 17 45q14 66 -45 66q-18 0 -48 -11.5t-63 -29.5q-29 -16 -61.5 -44t-63.5 -59.5t-59.5 -65.5t-46.5 -62q-16 -20 -22.5 -34t-10.5 -26z" />
<glyph unicode="&#xe2;" horiz-adv-x="978" d="M10 59q-8 -35 7.5 -57t68.5 -27h6q39 0 76 43t78 107l170 248q98 8 154.5 12t91 6t55 3t45.5 1q4 -14 5 -24.5t5 -20.5q8 -29 12 -47t7.5 -33.5t5.5 -32t4 -38.5q4 -29 14 -67t21.5 -72.5t22.5 -59.5t20 -25h14q55 0 84 31t39 80q4 16 6 34t0 34q-8 59 -23.5 142 t-31.5 177v-2q-25 137 -48.5 279.5t-27.5 253.5v-3q6 57 -15.5 96.5t-62.5 39.5q-31 0 -65.5 -27t-73.5 -88v2l-611 -858q-10 -16 -28.5 -45t-24.5 -62zM516 1219q-10 -37 55 -60q4 0 9.5 -1t9.5 -1q18 0 38.5 12.5t55.5 47.5l168 139l70 -135q10 -39 33.5 -51.5t39.5 -12.5 q4 0 7.5 1t5.5 1q41 16 56.5 29.5t25.5 40.5v8q4 12 0.5 25.5t-7.5 29.5l-104 201q-8 27 -25.5 47.5t-46.5 20.5q-35 0 -50 -13.5t-28 -31.5l-247 -209l-11 -9q-16 -14 -29.5 -27.5t-23.5 -35.5zM549 565l168 248q4 -53 9 -120t13 -118z" />
<glyph unicode="&#xe3;" horiz-adv-x="978" d="M10 59q-8 -35 7.5 -57t68.5 -27h6q39 0 76 43t78 107l170 248q98 8 154.5 12t91 6t55 3t45.5 1q4 -14 5 -24.5t5 -20.5q8 -29 12 -47t7.5 -33.5t5.5 -32t4 -38.5q4 -29 14 -67t21.5 -72.5t22.5 -59.5t20 -25h14q55 0 84 31t39 80q4 16 6 34t0 34q-8 59 -23.5 142 t-31.5 177v-2q-25 137 -48.5 279.5t-27.5 253.5v-3q6 57 -15.5 96.5t-62.5 39.5q-31 0 -65.5 -27t-73.5 -88v2l-611 -858q-10 -16 -28.5 -45t-24.5 -62zM549 565l168 248q4 -53 9 -120t13 -118zM575 1239q-6 -25 10.5 -44t51.5 -19q20 0 38.5 13t39.5 32q14 12 26.5 22 t20.5 10l4 -6t10 -14v2q12 -23 35 -45.5t76 -22.5q80 0 134 36t85 140v5q4 23 -15.5 40t-48.5 17q-45 0 -73 -45q2 4 -3 -7.5t-10 -19.5q-4 -10 -11 -22.5t-17 -12.5q-12 0 -19.5 10.5t-13.5 22.5q-12 23 -28.5 44.5t-57.5 21.5q-29 0 -65.5 -13.5t-71.5 -35t-62.5 -48 t-34.5 -55.5v-6z" />
<glyph unicode="&#xe4;" horiz-adv-x="978" d="M10 59q-8 -35 7.5 -57t68.5 -27h6q39 0 76 43t78 107l170 248q98 8 154.5 12t91 6t55 3t45.5 1q4 -14 5 -24.5t5 -20.5q8 -29 12 -47t7.5 -33.5t5.5 -32t4 -38.5q4 -29 14 -67t21.5 -72.5t22.5 -59.5t20 -25h14q55 0 84 31t39 80q4 16 6 34t0 34q-8 59 -23.5 142 t-31.5 177v-2q-25 137 -48.5 279.5t-27.5 253.5v-3q6 57 -15.5 96.5t-62.5 39.5q-31 0 -65.5 -27t-73.5 -88v2l-611 -858q-10 -16 -28.5 -45t-24.5 -62zM549 565l168 248q4 -53 9 -120t13 -118zM559 1284q-10 -43 16.5 -84t75.5 -41q33 0 59.5 13.5t46 33t33 43t19.5 43.5v2 q0 4 2 10.5t4 12.5q8 37 -4 71.5t-70 34.5q-33 0 -63.5 -12t-54 -31.5t-40 -43t-22.5 -44.5zM870 1288q-8 -43 20 -83t73 -40q33 0 59.5 13.5t47 33t32.5 43t18 45.5l2 3q0 4 2 9t4 11q2 18 2 37q0 18 -8 33.5t-24.5 26t-44.5 10.5q-31 0 -61.5 -12.5t-55.5 -33t-42 -44 t-22 -44.5z" />
<glyph unicode="&#xe5;" horiz-adv-x="978" d="M10 59q-8 -35 7.5 -57t68.5 -27h6q39 0 76 43t78 107l170 248q98 8 154.5 12t91 6t55 3t45.5 1q4 -14 5 -24.5t5 -20.5q8 -29 12 -47t7.5 -33.5t5.5 -32t4 -38.5q4 -29 14 -67t21.5 -72.5t22.5 -59.5t20 -25h14q55 0 84 31t39 80q4 16 6 34t0 34q-8 59 -23.5 142 t-31.5 177v-2q-25 137 -48.5 279.5t-27.5 253.5v-3q6 57 -15.5 96.5t-62.5 39.5q-31 0 -65.5 -27t-73.5 -88v2l-611 -858q-10 -16 -28.5 -45t-24.5 -62zM549 565l168 248q4 -53 9 -120t13 -118zM684 1280q-10 -55 11.5 -98t99.5 -43q45 0 91 18.5t86 49t68.5 71.5t40.5 88v2 q0 4 2 10t4 11q10 57 -14 100t-92 43q-57 0 -107.5 -23.5t-88 -59.5t-63.5 -80t-36 -83zM848 1286q0 8 2 17q6 27 30.5 54t61.5 27q14 0 10 -18l-2 -8q-10 -31 -37.5 -54.5t-56.5 -23.5q-8 0 -8 6z" />
<glyph unicode="&#xe6;" horiz-adv-x="1609" d="M-35 -16q-4 -23 8.5 -37.5t49.5 -18.5h8q35 0 82 36t108 89l23 19l346 295l37 1t91 2t111.5 3t98.5 4l-51 -187q-4 -10 -5.5 -18t-5.5 -18q-16 -41 -22 -78q-10 -49 7 -78t89 -29q6 0 12 1t15 1l524 39q86 2 115.5 30.5t35.5 61.5l3 13q10 47 -14.5 65.5t-82.5 18.5h-24 l-461 -39l80 289l358 38q10 2 20.5 3.5t20.5 1.5q41 0 78 17t53 77l2 12q4 29 -14.5 54.5t-87.5 25.5h-21q-10 0 -22 -2l-334 -41q16 57 27.5 98t20.5 67.5t15.5 43t10.5 26.5l389 27q8 0 16 1t19 1q37 0 63.5 2t46 11.5t32.5 27.5t24 53l2 13q10 51 -21 66t-80 15 q-12 0 -25.5 -1t-25.5 -1q-8 0 -15 -1t-14 -1q-147 -10 -230 -14t-130 -4h-111q-35 0 -74.5 -15.5t-58.5 -33.5l-995 -891l-7 -7t-9 -7q-12 -12 -29 -27.5t-31 -32t-26.5 -35t-14.5 -32.5zM764 524l264 258l-16 -88q-6 -31 -14.5 -64.5t-22.5 -70.5z" />
<glyph unicode="&#xe7;" horiz-adv-x="940" d="M143 371q-29 -150 12.5 -260.5t151.5 -145.5l-28 -84q-14 -25 -18.5 -34t-8.5 -33q-6 -31 1 -57.5t46 -32.5q4 0 7 -1.5t7 -1.5q41 0 83 44.5t65 105.5v-2q18 41 27.5 61.5t13.5 30.5q66 14 130 43t122.5 65.5t106.5 80t81 83.5v-2q29 37 35 60q6 35 -15.5 51t-56.5 16 t-79 -19.5t-83 -62.5q-16 -23 -48.5 -47t-70.5 -44.5t-79 -35t-74 -14.5q-49 0 -77.5 19.5t-42 53.5t-14.5 79t9 94q4 12 6 24.5t6 24.5q27 98 77 192.5t114.5 170t139.5 122t151 46.5q47 0 70.5 -6.5t33.5 -18.5q14 -16 25.5 -30.5t21.5 -26.5q31 -37 45 -37q49 0 88 34.5 t50 77.5q6 49 -25 86q-53 61 -123 84t-154 23q-111 0 -221 -60.5t-207.5 -160t-172 -227.5t-113.5 -265q-4 -16 -7.5 -31.5t-7.5 -31.5z" />
<glyph unicode="&#xe8;" horiz-adv-x="870" d="M109 84q-10 -49 7 -78t89 -29q6 0 12 1.5t14 1.5l525 38q86 2 114.5 31t34.5 62l4 12q8 47 -15.5 65.5t-80.5 18.5h-25l-460 -39l78 289l360 39q10 2 19.5 3t19.5 1q41 0 78 17.5t53 76.5l4 12q4 29 -14.5 54.5t-87.5 25.5h-21q-10 0 -22 -2l-334 -41l65 236l398 26 q8 0 16 1t18 1q37 0 63 2t45 11.5t33.5 28t24.5 52.5l2 13q10 51 -20.5 66.5t-79.5 15.5q-12 0 -25.5 -1t-25.5 -1q-8 0 -15.5 -1t-13.5 -1q-147 -10 -230 -14.5t-130 -4.5h-111q-63 0 -99 -40t-42 -77q-2 -4 -1 -7t1 -5q-4 -14 -9.5 -33.5t-11.5 -42.5q-16 -66 -39.5 -164 t-58.5 -227l-74 -278q-4 -10 -6 -18.5t-6 -18.5q-6 -20 -11 -41t-9 -37zM616 1438q6 -33 13.5 -56.5t20 -42t29.5 -36t42 -37.5q29 -23 47 -41.5t27 -30.5v2q20 -35 38.5 -43t24.5 -8h4q35 12 52.5 22.5t21.5 34.5q6 23 -6 62q-10 27 -24.5 60.5t-34 65t-41 59.5t-42.5 44 q-27 18 -50 29.5t-44 11.5q-59 0 -73 -66q-2 -12 -3.5 -19t-1.5 -11z" />
<glyph unicode="&#xe9;" horiz-adv-x="870" d="M109 84q-10 -49 7 -78t89 -29q6 0 12 1.5t14 1.5l525 38q86 2 114.5 31t34.5 62l4 12q8 47 -15.5 65.5t-80.5 18.5h-25l-460 -39l78 289l360 39q10 2 19.5 3t19.5 1q41 0 78 17.5t53 76.5l4 12q4 29 -14.5 54.5t-87.5 25.5h-21q-10 0 -22 -2l-334 -41l65 236l398 26 q8 0 16 1t18 1q37 0 63 2t45 11.5t33.5 28t24.5 52.5l2 13q10 51 -20.5 66.5t-79.5 15.5q-12 0 -25.5 -1t-25.5 -1q-8 0 -15.5 -1t-13.5 -1q-147 -10 -230 -14.5t-130 -4.5h-111q-63 0 -99 -40t-42 -77q-2 -4 -1 -7t1 -5q-4 -14 -9.5 -33.5t-11.5 -42.5q-16 -66 -39.5 -164 t-58.5 -227l-74 -278q-4 -10 -6 -18.5t-6 -18.5q-6 -20 -11 -41t-9 -37zM659 1202q-4 -25 7.5 -35t40.5 -20l8 -2h6q14 0 29.5 7t52.5 44q10 12 35.5 29.5t62.5 40.5q33 20 56.5 37.5t42 36t35 42t34.5 56.5q6 8 8 30q8 35 -5 50.5t-40 15.5q-18 0 -47 -11.5t-61 -29.5 q-29 -16 -62 -44t-64.5 -59.5t-59 -65.5t-48.5 -60q-16 -20 -21 -35t-10 -27z" />
<glyph unicode="&#xea;" horiz-adv-x="870" d="M109 84q-10 -49 7 -78t89 -29q6 0 12 1.5t14 1.5l525 38q86 2 114.5 31t34.5 62l4 12q8 47 -15.5 65.5t-80.5 18.5h-25l-460 -39l78 289l360 39q10 2 19.5 3t19.5 1q41 0 78 17.5t53 76.5l4 12q4 29 -14.5 54.5t-87.5 25.5h-21q-10 0 -22 -2l-334 -41l65 236l398 26 q8 0 16 1t18 1q37 0 63 2t45 11.5t33.5 28t24.5 52.5l2 13q10 51 -20.5 66.5t-79.5 15.5q-12 0 -25.5 -1t-25.5 -1q-8 0 -15.5 -1t-13.5 -1q-147 -10 -230 -14.5t-130 -4.5h-111q-63 0 -99 -40t-42 -77q-2 -4 -1 -7t1 -5q-4 -14 -9.5 -33.5t-11.5 -42.5q-16 -66 -39.5 -164 t-58.5 -227l-74 -278q-4 -10 -6 -18.5t-6 -18.5q-6 -20 -11 -41t-9 -37zM512 1219q-10 -37 55 -60q4 0 9.5 -1t9.5 -1q18 0 38.5 12.5t55.5 47.5l-2 -3l168 142l69 -135l-2 2q12 -39 37 -52.5t41 -13.5q4 0 7 1t6 1q41 16 57 29.5t22 42.5v6q8 27 -8 53l-100 203 q-8 27 -25.5 47.5t-46.5 20.5q-35 0 -50 -13.5t-32 -34.5l-243 -206l-9 -7q-23 -16 -35 -29.5t-20 -35.5z" />
<glyph unicode="&#xeb;" horiz-adv-x="870" d="M109 84q-10 -49 7 -78t89 -29q6 0 12 1.5t14 1.5l525 38q86 2 114.5 31t34.5 62l4 12q8 47 -15.5 65.5t-80.5 18.5h-25l-460 -39l78 289l360 39q10 2 19.5 3t19.5 1q41 0 78 17.5t53 76.5l4 12q4 29 -14.5 54.5t-87.5 25.5h-21q-10 0 -22 -2l-334 -41l65 236l398 26 q8 0 16 1t18 1q37 0 63 2t45 11.5t33.5 28t24.5 52.5l2 13q10 51 -20.5 66.5t-79.5 15.5q-12 0 -25.5 -1t-25.5 -1q-8 0 -15.5 -1t-13.5 -1q-147 -10 -230 -14.5t-130 -4.5h-111q-63 0 -99 -40t-42 -77q-2 -4 -1 -7t1 -5q-4 -14 -9.5 -33.5t-11.5 -42.5q-16 -66 -39.5 -164 t-58.5 -227l-74 -278q-4 -10 -6 -18.5t-6 -18.5q-6 -20 -11 -41t-9 -37zM555 1286q-10 -45 16.5 -86t75.5 -41q33 0 59.5 13.5t46 33t34 43t20.5 43.5l4 21q2 18 3 38.5t-5 36t-22.5 25.5t-47.5 10q-33 0 -63.5 -12t-55 -31.5t-41 -43t-22.5 -44.5zM866 1290 q-8 -43 18.5 -84t76.5 -41q33 0 59.5 13.5t45.5 33t31.5 43t18.5 45.5l2 3q0 4 2 10l4 12q2 18 2 37q0 18 -7 33.5t-23.5 25t-44.5 9.5q-33 0 -63 -12.5t-54.5 -32t-42 -43t-23.5 -44.5z" />
<glyph unicode="&#xec;" horiz-adv-x="364" d="M102 76q-8 -39 6.5 -66.5t65.5 -34.5h19q51 0 70.5 31t37.5 82l-2 -2q4 4 5 10t3 10l2 5l238 839q2 4 3 10.5t3 10.5q4 14 9 29.5t9 29.5q6 35 -4 57.5t-55 22.5q-43 0 -69.5 -8t-44 -25.5t-27 -43t-15.5 -60.5l-241 -856v2q-6 -18 -13 -43zM373 1438q6 -33 14 -56.5 t20.5 -42t29 -36t38.5 -37.5q29 -23 47.5 -40.5t26.5 -29.5q20 -35 39.5 -43t25.5 -8h4q35 12 52.5 22.5t21.5 34.5q6 23 -6 62q-10 27 -24.5 60.5t-33 65t-41 59.5t-44.5 44q-27 18 -50.5 29.5t-41.5 11.5q-27 0 -46.5 -15.5t-27.5 -50.5q-2 -12 -3 -19t-1 -11z" />
<glyph unicode="&#xed;" horiz-adv-x="364" d="M102 76q-8 -39 6.5 -66.5t65.5 -34.5h19q51 0 70.5 31t37.5 82l-2 -2q4 4 5 10t3 10l2 5l238 839q2 4 3 10.5t3 10.5q4 14 9 29.5t9 29.5q6 35 -4 57.5t-55 22.5q-43 0 -69.5 -8t-44 -25.5t-27 -44t-15.5 -61.5v2l-241 -856v2q-6 -18 -13 -43zM352 1202q-4 -23 8.5 -34 t40.5 -21l7 -2h6q14 0 29.5 7t52.5 44q10 12 35.5 29.5t62.5 40.5q33 20 57.5 37.5t43 36t34.5 42t35 56.5q6 8 8 30q14 66 -45 66q-23 0 -51.5 -11.5t-61.5 -29.5q-27 -16 -58.5 -44t-63 -59.5t-59 -65.5t-48.5 -62q-16 -20 -22.5 -34t-10.5 -26z" />
<glyph unicode="&#xee;" horiz-adv-x="364" d="M102 76q-8 -39 6.5 -66.5t65.5 -34.5h19q51 0 70.5 31t37.5 82l-2 -2q4 4 5 10t3 10l2 5l238 839q2 4 3 10.5t3 10.5q4 14 9 29.5t9 29.5q6 35 -4 57.5t-55 22.5q-43 0 -69.5 -8t-44 -25.5t-27 -43t-15.5 -60.5l-241 -856v2q-6 -18 -13 -43zM233 1219q-10 -37 56 -60 q4 0 9 -1t9 -1q18 0 39 12.5t55 47.5l166 139l70 -135l-2 2q12 -39 36.5 -52.5t41.5 -13.5q4 0 7 1t5 1q41 16 57.5 29.5t22.5 42.5v6q8 27 -8 53l-101 203q-8 27 -25.5 47.5t-45.5 20.5q-35 0 -50.5 -13.5t-31.5 -34.5l-244 -206l-8 -7q-23 -16 -35 -29.5t-20 -35.5z" />
<glyph unicode="&#xef;" horiz-adv-x="364" d="M102 76q-8 -39 6.5 -66.5t65.5 -34.5h19q51 0 70.5 31t37.5 82l-2 -2q4 4 5 10t3 10l2 5l238 839q2 4 3 10.5t3 10.5q4 14 9 29.5t9 29.5q6 35 -4 57.5t-55 22.5q-43 0 -69.5 -8t-44 -25.5t-27 -44t-15.5 -61.5v2l-241 -856v2q-6 -18 -13 -43zM258 1278q-8 -45 17.5 -86 t74.5 -41q33 0 59.5 13.5t47 33t34 43t19.5 43.5l4 21q4 18 5 38.5t-6 36t-23.5 25.5t-47.5 10q-33 0 -63.5 -12t-55 -31.5t-41 -43t-22.5 -44.5zM571 1282q-10 -43 16.5 -84t76.5 -41q33 0 59.5 13.5t45.5 33t32.5 43t19.5 45.5v2q0 4 2 10.5t4 12.5q8 37 -4 70.5t-69 33.5 q-33 0 -62.5 -12t-54.5 -31.5t-42 -43t-24 -44.5v-8z" />
<glyph unicode="&#xf0;" horiz-adv-x="993" d="M78 575q-8 -37 11.5 -67.5t72.5 -30.5h57l-78 -278q-2 -10 -5 -19.5t-5 -19.5q-4 -16 -8 -32.5t-8 -33.5q-10 -51 0 -85t63 -34q45 0 125 17.5t176 54.5t200.5 96.5t199 143.5t170 193.5t114.5 248.5q4 10 6 20.5t5 22.5q14 72 4.5 139.5t-45 118.5t-99 82t-155.5 31 q-117 0 -195 -20.5t-149 -43.5q-14 -4 -28.5 -8t-31.5 -8q-59 -18 -92 -60t-43 -90q-2 -10 -3 -17t-1 -13l-62 -211h-32q-23 0 -33 -2q-4 0 -7 -1t-7 -1q-53 0 -82 -29t-35 -64zM334 190l80 289h118q47 0 80 30t39 64q8 35 -14.5 66t-87.5 31h-80l59 215q53 29 129 51 t156 22q51 0 85 -17t51.5 -46t20.5 -65.5t-3 -75.5l-4 -21q-37 -123 -111 -217t-163 -159.5t-184 -106.5t-171 -60z" />
<glyph unicode="&#xf1;" horiz-adv-x="1069" d="M98 70q-20 -96 78 -97h12q47 4 77 35t36 70q2 10 2 26l166 594q10 -16 17.5 -31.5t17.5 -31.5q35 -66 66.5 -131.5t52.5 -120.5q12 -31 32.5 -77t44 -96t47 -96t39.5 -77l5 -8q6 -16 22 -32.5t80 -16.5q25 0 43 12t31.5 29.5t23.5 38t17 36.5v2l249 895q6 25 11 41 q10 53 -5.5 73.5t-72.5 20.5q-31 0 -51.5 -10t-33.5 -26.5t-20.5 -36t-13.5 -37.5q-4 -8 -4 -10l-184 -662q-4 8 -4 10q-10 16 -19.5 33t-13.5 29q-25 43 -43.5 78.5t-33.5 67.5t-29.5 65t-30.5 69h2q-16 41 -37 86t-47 103h2q-4 10 -7.5 15t-7.5 9q-4 6 -9 22.5t-17 70.5 q-6 14 -13.5 32.5t-19.5 34.5t-28.5 27.5t-39.5 11.5q-25 0 -43 -5t-33.5 -19.5t-28.5 -41t-28 -69.5l-245 -864q-4 -10 -6.5 -20.5t-4.5 -20.5zM586 1235q-4 -27 12 -46.5t51 -19.5q20 0 38 13.5t38 31.5q14 12 25.5 22.5t21.5 10.5t16 -20q16 -23 38 -44.5t71 -21.5 q80 0 135 36t84 140v4q4 23 -13.5 40.5t-45.5 17.5q-20 0 -41 -10.5t-37 -34.5q4 4 -2 -7.5t-10 -19.5q-4 -10 -10.5 -22.5t-16.5 -12.5t-18.5 10.5t-12.5 22.5q-10 23 -27.5 43.5t-62.5 20.5q-29 0 -65.5 -13.5t-70.5 -34t-60.5 -47t-34.5 -53.5zM907 301h2q2 -4 3 -7l1 -3 l-2 3t-4 7z" />
<glyph unicode="&#xf2;" horiz-adv-x="1044" d="M143 375q-41 -201 34 -313.5t249 -112.5q115 0 232.5 52t221 141t182.5 210t118 256q4 23 10 45.5t10 44.5q16 82 15 159t-25.5 138.5t-76.5 100.5t-140 49q35 12 52 22.5t22 34.5q4 12 0.5 25.5t-9.5 34.5q-8 29 -23.5 62.5t-33.5 65t-39.5 59.5t-44.5 44 q-27 18 -51.5 29.5t-42.5 11.5q-59 0 -74 -66q-2 -10 -3 -22t1 -23q4 -29 12.5 -49t20.5 -36.5t28.5 -34t40.5 -37.5q29 -23 47.5 -40.5t26.5 -29.5q12 -25 26.5 -36t24.5 -15q-10 2 -28 2q-86 0 -170 -34t-164 -90t-150.5 -128t-127 -149.5t-96.5 -153.5t-56 -139 q-12 -39 -19 -78zM340 385q2 27 16 64q20 70 73.5 158.5t126.5 167.5t157 133.5t164 54.5q53 0 83.5 -22.5t44 -60.5t13.5 -87t-10 -101q-4 -20 -9.5 -40t-11.5 -40q-27 -96 -81 -182t-122.5 -151.5t-148.5 -104.5t-160 -39q-94 0 -126 67.5t-9 182.5z" />
<glyph unicode="&#xf3;" horiz-adv-x="1044" d="M143 375q-41 -201 34 -313.5t249 -112.5q115 0 232.5 52t221 141t182.5 210t118 256q4 23 10 45.5t10 44.5q18 88 16 169t-30.5 143.5t-92 99.5t-167.5 37q-86 0 -170 -34t-164 -90t-150.5 -128t-127 -149.5t-96.5 -153.5t-56 -139q-12 -39 -19 -78zM340 385q2 27 16 64 q20 70 73.5 158.5t126.5 167.5t157 133.5t164 54.5q53 0 83.5 -22.5t44 -60.5t13.5 -87t-10 -101q-4 -20 -9.5 -40t-11.5 -40q-27 -96 -81 -182t-122.5 -151.5t-148.5 -104.5t-160 -39q-94 0 -126 67.5t-9 182.5zM811 1202q-4 -25 7 -35t40 -20l8 -2h6q14 0 28.5 7t51.5 44 q10 12 37 29.5t62 40.5q33 20 57.5 37.5t42.5 36t34.5 42t35.5 56.5q6 8 8 30q14 66 -45 66q-23 0 -51.5 -11.5t-61.5 -29.5q-27 -16 -58.5 -44t-63 -59.5t-59.5 -65.5t-48 -62v2q-16 -20 -21.5 -35t-9.5 -27z" />
<glyph unicode="&#xf4;" horiz-adv-x="1044" d="M143 375q-41 -201 34 -313.5t249 -112.5q115 0 232.5 52t221 141t182.5 210t118 256q4 23 10 45.5t10 44.5q18 88 16 169t-30.5 143.5t-92 99.5t-167.5 37q-86 0 -170 -34t-164 -90t-150.5 -128t-127 -149.5t-96.5 -153.5t-56 -139q-12 -39 -19 -78zM340 385q2 27 16 64 q20 70 73.5 158.5t126.5 167.5t157 133.5t164 54.5q53 0 83.5 -22.5t44 -60.5t13.5 -87t-10 -101q-4 -20 -9.5 -40t-11.5 -40q-27 -96 -81 -182t-122.5 -151.5t-148.5 -104.5t-160 -39q-94 0 -126 67.5t-9 182.5zM639 1219q-10 -37 55 -60q4 0 9.5 -1t9.5 -1q18 0 38.5 12.5 t55.5 47.5l168 139l69 -135q10 -39 34 -51.5t40 -12.5q4 0 7 1t5 1q41 16 56.5 29.5t25.5 40.5v8q4 12 1 25.5t-7 29.5l-104 201q-8 27 -25.5 47.5t-46.5 20.5q-35 0 -50 -13.5t-28 -31.5l-247 -209l-11 -9q-16 -14 -29.5 -27.5t-23.5 -35.5z" />
<glyph unicode="&#xf5;" horiz-adv-x="1044" d="M143 375q-41 -201 34 -313.5t249 -112.5q115 0 232.5 52t221 141t182.5 210t118 256q4 23 10 45.5t10 44.5q18 88 16 169t-30.5 143.5t-92 99.5t-167.5 37q-86 0 -170 -34t-164 -90t-150.5 -128t-127 -149.5t-96.5 -153.5t-56 -139q-12 -39 -19 -78zM340 385q2 27 16 64 q20 70 73.5 158.5t126.5 167.5t157 133.5t164 54.5q53 0 83.5 -22.5t44 -60.5t13.5 -87t-10 -101q-4 -20 -9.5 -40t-11.5 -40q-27 -96 -81 -182t-122.5 -151.5t-148.5 -104.5t-160 -39q-94 0 -126 67.5t-9 182.5zM676 1241q-4 -25 12.5 -45t50.5 -20q20 0 38 13t38 32 q12 12 24.5 22t22.5 10q6 0 17 -20q14 -23 36.5 -44.5t71.5 -21.5q82 0 135 36t84 140v5q4 23 -14 40t-47 17q-20 0 -40 -10.5t-36 -34.5q2 4 -3 -7.5t-9 -19.5q-4 -10 -11.5 -22.5t-17.5 -12.5t-17 9.5t-14 21.5q-12 23 -29.5 45.5t-58.5 22.5q-29 0 -65.5 -13.5t-71.5 -34 t-61.5 -48t-34.5 -54.5v-6z" />
<glyph unicode="&#xf6;" horiz-adv-x="1044" d="M143 375q-41 -201 34 -313.5t249 -112.5q115 0 232.5 52t221 141t182.5 210t118 256q4 23 10 45.5t10 44.5q18 88 16 169t-30.5 143.5t-92 99.5t-167.5 37q-86 0 -170 -34t-164 -90t-150.5 -128t-127 -149.5t-96.5 -153.5t-56 -139q-12 -39 -19 -78zM340 385q2 27 16 64 q20 70 73.5 158.5t126.5 167.5t157 133.5t164 54.5q53 0 83.5 -22.5t44 -60.5t13.5 -87t-10 -101q-4 -20 -9.5 -40t-11.5 -40q-27 -96 -81 -182t-122.5 -151.5t-148.5 -104.5t-160 -39q-94 0 -126 67.5t-9 182.5zM629 1286q-10 -45 16.5 -86t75.5 -41q33 0 59.5 13.5t46 33 t34 43t20.5 43.5l4 21q2 18 3 38.5t-5 36t-22.5 25.5t-47.5 10q-33 0 -63.5 -12t-55 -31.5t-41 -43t-22.5 -44.5zM940 1290q-8 -43 18.5 -84t75.5 -41q33 0 59.5 13.5t46 33t32 43t18.5 45.5l2 3q0 4 2 10l4 12q2 18 2 37q0 18 -7 33.5t-23.5 25t-45.5 9.5 q-33 0 -62.5 -12.5t-54 -32t-42 -43t-23.5 -44.5z" />
<glyph unicode="&#xf7;" horiz-adv-x="790" d="M166 449q-8 -37 12.5 -68t73.5 -31q12 0 30.5 -4t39.5 -4q10 0 21 2t19 8l277 2l141 2q47 0 79 29t40 64q6 35 -18.5 65.5t-92.5 30.5q-16 0 -34.5 2t-36.5 2q-25 0 -43 -6h-283q-4 2 -24 2t-47 -3t-37 -3q-51 0 -81 -28t-36 -62zM254 88q-4 -27 2 -53.5t20.5 -48 t37 -35.5t51.5 -14q41 0 73.5 16t57 41.5t40 55t23.5 54.5q4 12 8 33t4 43q0 23 -8 41.5t-26.5 29.5t-51.5 11q-41 0 -78.5 -15.5t-68.5 -40t-52.5 -53t-29.5 -55.5zM481 745.5q6 -26.5 20.5 -48t37 -36t51.5 -14.5q41 0 73.5 16.5t57 42t41 55t22.5 54.5q4 12 8.5 32.5 t4.5 43.5t-8.5 41t-27 29.5t-50.5 11.5q-41 0 -79 -15.5t-69 -40t-51 -53t-29 -55.5l-2 -10q-6 -27 0 -53.5z" />
<glyph unicode="&#xf8;" horiz-adv-x="1044" d="M141 373q-27 -135 1 -230.5t102 -142.5q-35 -61 -41 -96q-8 -39 10 -56.5t70 -17.5q23 0 42 11.5t36.5 27.5t31 36.5t25.5 37.5q0 4 2 6h6q115 0 232.5 52t221 141t182.5 210t118 256q4 23 10 44.5t10 43.5q23 117 10.5 221.5t-82.5 163.5v4h2q14 23 29 52.5t19 56.5 q6 33 -5.5 54.5t-52.5 21.5q-72 0 -103.5 -30t-47.5 -56l2 2q-4 -2 -8.5 -11.5t-12.5 -23.5q-2 -2 -2 -4l-2 -2h-4q-4 0 -8 1t-8 1q-86 0 -170 -34t-164 -90t-150.5 -128t-127 -149.5t-96.5 -153.5t-56 -139q-6 -20 -11.5 -41t-9.5 -39zM338 381q6 31 18 68q18 63 66.5 146 t114 157.5t142.5 132t152 71.5q-37 -61 -78.5 -130.5t-85.5 -142.5t-89.5 -145.5t-85.5 -142.5q-37 -59 -71 -113.5t-63 -101.5q-45 63 -20 201zM543 139q8 10 14 21.5t14 23.5q49 74 105.5 161t115 178t115 180.5t103.5 166.5q10 -39 9 -85t-11 -95q-4 -20 -9.5 -39 t-11.5 -39q-25 -86 -71 -165.5t-105 -142t-128 -106.5t-140 -59z" />
<glyph unicode="&#xf9;" horiz-adv-x="1001" d="M133 180q-20 -100 44.5 -165.5t234.5 -65.5q106 0 205.5 30.5t178 80t133 111.5t70.5 128l191 674q4 8 9 20.5t9 26.5q6 33 -6 61.5t-67 28.5q-37 0 -61.5 -11.5t-39 -30.5t-21.5 -45l-14 -52v2l-204 -676q-8 -29 -40 -57.5t-80 -51t-110.5 -38t-132.5 -15.5 q-43 0 -72.5 16.5t-23.5 47.5v4l227 803q2 12 3 30.5t-5 34.5t-23.5 27.5t-48.5 11.5t-51 -8t-32.5 -22.5t-20.5 -32t-16 -35.5q0 -2 -2 -5t-2 -6l-224 -794q-2 -6 -4 -13.5t-4 -13.5zM635 1438q6 -33 14 -56.5t20.5 -42t29 -36t38.5 -37.5q29 -23 47.5 -40.5t26.5 -29.5 q20 -35 39.5 -43t26.5 -8h4q35 12 52 22.5t21 34.5q6 23 -6 62q-10 27 -24.5 60.5t-33 65t-41 59.5t-44.5 44q-27 18 -50.5 29.5t-41.5 11.5q-27 0 -46.5 -15.5t-27.5 -50.5q-2 -12 -3 -19t-1 -11z" />
<glyph unicode="&#xfa;" horiz-adv-x="1001" d="M133 180q-20 -100 44.5 -165.5t234.5 -65.5q106 0 205.5 30.5t178 80t133 111.5t70.5 128l191 674q4 8 9 20.5t9 26.5q6 33 -6 61.5t-67 28.5q-37 0 -61.5 -11.5t-39 -30.5t-21.5 -45l-14 -52v2l-204 -676q-8 -29 -40 -57.5t-80 -51t-110.5 -38t-132.5 -15.5 q-43 0 -72.5 16.5t-23.5 47.5v4l227 803q2 12 3 30.5t-5 34.5t-23.5 27.5t-48.5 11.5t-51 -8t-32.5 -22.5t-20.5 -32t-16 -35.5q0 -2 -2 -5t-2 -6l-224 -794q-2 -6 -4 -13.5t-4 -13.5zM750 1202q-4 -25 7 -35t40 -20l8 -2h6q14 0 29.5 7t52.5 44q10 12 35.5 29.5t62.5 40.5 q33 20 56.5 37.5t42 36t35 42t34.5 56.5q6 8 8 30q8 35 -5 50.5t-40 15.5q-18 0 -46.5 -11.5t-61.5 -29.5q-29 -16 -61.5 -44t-64.5 -59.5t-59.5 -65.5t-48.5 -60q-16 -20 -21 -35z" />
<glyph unicode="&#xfb;" horiz-adv-x="1001" d="M133 180q-20 -100 44.5 -165.5t234.5 -65.5q106 0 205.5 30.5t178 80t133 111.5t70.5 128l191 674q4 8 9 20.5t9 26.5q6 33 -6 61.5t-67 28.5q-37 0 -61.5 -11.5t-39 -30.5t-21.5 -44t-14 -51l-204 -676q-8 -29 -40 -57.5t-80 -51t-110.5 -38t-132.5 -15.5 q-43 0 -72.5 16.5t-23.5 47.5v4l227 803q2 12 3 30.5t-5 34.5t-23.5 27.5t-48.5 11.5t-51 -8t-32.5 -22.5t-20.5 -32t-16 -35.5q0 -2 -2 -5t-2 -6l-224 -794q-2 -6 -4 -13.5t-4 -13.5zM590 1219q-10 -37 55 -60q4 0 9 -1t10 -1q18 0 38.5 12.5t55.5 47.5l168 139l69 -135 q10 -39 34 -51.5t40 -12.5q4 0 7 1t5 1q41 16 56.5 29.5t25.5 40.5v8q4 12 1 25.5t-7 29.5l-104 201q-8 27 -25.5 47.5t-46.5 20.5q-35 0 -50.5 -13.5t-27.5 -31.5l-248 -209l-10 -9q-16 -14 -29.5 -27.5t-23.5 -35.5z" />
<glyph unicode="&#xfc;" horiz-adv-x="1001" d="M133 180q-20 -100 44.5 -165.5t234.5 -65.5q106 0 205.5 30.5t178 80t133 111.5t70.5 128l191 674q4 8 9 20.5t9 26.5q6 33 -6 61.5t-67 28.5q-37 0 -61.5 -11.5t-39 -30.5t-21.5 -44t-14 -51l-204 -676q-8 -29 -40 -57.5t-80 -51t-110.5 -38t-132.5 -15.5 q-43 0 -72.5 16.5t-23.5 47.5v4l227 803q2 12 3 30.5t-5 34.5t-23.5 27.5t-48.5 11.5t-51 -8t-32.5 -22.5t-20.5 -32t-16 -35.5q0 -2 -2 -5t-2 -6l-224 -794q-2 -6 -4 -13.5t-4 -13.5zM578 1284q-10 -43 16.5 -84t75.5 -41q33 0 59.5 13.5t46 33t32.5 43t19 43.5v2 q0 4 2 10.5t5 12.5q8 37 -4.5 71.5t-69.5 34.5q-33 0 -63.5 -12t-54.5 -31.5t-40 -43t-22 -44.5zM889 1288q-8 -43 19.5 -83t72.5 -40q33 0 58.5 12.5t46 33t33 42.5t18.5 45q4 6 5 14.5t3 16.5q8 37 -4.5 69t-69.5 32q-31 0 -61.5 -12.5t-55 -33t-42 -44t-21.5 -44.5z" />
<glyph unicode="&#xfd;" horiz-adv-x="1001" d="M283 1022q-10 -47 26 -98v2l232 -400l-111 -399v2q-4 -10 -5 -20.5t-5 -20.5q-10 -47 0 -77.5t53 -30.5h10q72 6 98.5 44.5t41.5 88.5l114 409l496 404q35 31 49 55.5t18 40.5q4 29 -8 40t-26 21l2 -2q-2 2 -4 3t-4 3q-25 10 -37 11q-23 0 -43.5 -10.5t-44.5 -26.5 q-25 -18 -50 -29l-383 -317l-192 280v-4q-25 53 -47.5 90t-48.5 37h-11q-39 -8 -75.5 -30.5t-44.5 -65.5zM743 1192q-4 -23 8.5 -34t41.5 -21l6 -2h6q14 0 29.5 7t52.5 44q10 12 35.5 29.5t62.5 39.5q33 23 56.5 39.5t43 35t36 41t34.5 56.5q6 8 8 31q14 66 -45 66 q-23 0 -51.5 -11.5t-60.5 -29.5q-27 -16 -59 -43t-63.5 -59.5t-59 -66.5t-48.5 -63q-16 -20 -22 -33.5t-11 -25.5z" />
<glyph unicode="&#xfe;" horiz-adv-x="858" d="M102 76q-8 -39 6.5 -66.5t65.5 -34.5h10q29 0 48.5 12.5t33 32t23.5 44t20 51.5q4 8 5 15t5 13v2l7 25q23 0 37 1t22 1h12q84 0 181.5 46t185.5 121t156.5 173t97.5 203q2 16 10 39q23 111 -20 174t-160 63q-72 0 -148.5 -14t-162.5 -55l10 28q2 4 3 10.5t3 10.5 q4 14 9 29.5t9 29.5q6 35 -4 57.5t-55 22.5q-43 0 -69.5 -8t-44 -25.5t-27 -44t-15.5 -61.5v2l-241 -856v2q-6 -18 -13 -43zM383 365l29 110l63 223q14 14 45 29.5t72 29t89 22.5t99 9q55 0 45 -55l-4 -14q-18 -68 -64 -134.5t-104.5 -118.5t-123 -85t-115.5 -33 q-35 0 -31 17z" />
<glyph unicode="&#xff;" horiz-adv-x="1001" d="M283 1022q-10 -47 26 -98v2l232 -400l-111 -399v2q-4 -10 -5 -20.5t-5 -20.5q-10 -47 0 -77.5t53 -30.5h10q72 6 98.5 44.5t41.5 88.5l114 409l496 404q35 31 49 55.5t18 40.5q4 29 -8 40t-26 21q-6 0 -6 4q-25 10 -37 11q-23 0 -43.5 -10.5t-44.5 -26.5q-25 -18 -50 -29 l-383 -317l-192 280v-4q-25 53 -47.5 90t-48.5 37h-11q-39 -8 -75.5 -30.5t-44.5 -65.5zM586 1274q-10 -45 16.5 -87t75.5 -42q33 0 59.5 13t46 32.5t33 43.5t19.5 44l4 20q4 18 5 38t-5 37.5t-22.5 27.5t-47.5 10q-33 0 -63.5 -12.5t-55 -31.5t-42 -43t-23.5 -44v-6z M897 1278q-4 -20 1 -43t17.5 -41t31 -30.5t42.5 -12.5q33 0 59.5 13.5t47 34t33 44t18.5 43.5v2q2 4 4 10.5t2 12.5q8 37 -3 71.5t-69 34.5q-33 0 -62.5 -12t-54 -31.5t-42 -43t-23.5 -44.5z" />
<glyph unicode="&#x152;" horiz-adv-x="1996" d="M199 444q-47 -240 40 -373.5t293 -133.5q143 0 288 65.5t272 177.5q-6 -20 -11.5 -37.5t-9.5 -33.5q-10 -49 8.5 -78t91.5 -29q8 0 16.5 1t18.5 1l652 47q92 0 124.5 29.5t36.5 60.5l4 13q8 47 -15 64.5t-83 17.5h-33l-606 -52l117 414l471 51q10 2 22.5 3t26.5 1 q41 0 79 17.5t56 77.5l2 12q6 29 -14.5 52.5t-93.5 23.5h-23q-12 0 -26 -2l-449 -56l2 15l96 333l516 33q51 2 89 3t64 9.5t42 28t29 57.5l4 13q10 47 -20.5 62.5t-77.5 15.5q-25 0 -51.5 -2.5t-55.5 -4.5q-182 -12 -287.5 -17t-165.5 -5h-139q-29 0 -51.5 -9.5t-38.5 -23.5 q-41 45 -105.5 70.5t-156.5 25.5q-102 0 -204.5 -41t-199 -109.5t-181.5 -155.5t-154.5 -181t-117.5 -187.5t-69 -170.5q-6 -25 -12 -47.5t-10 -45.5zM393 455q4 20 9.5 39.5t11.5 42.5q16 59 55 132.5t91 147.5t116.5 143.5t134.5 123t142.5 86t142.5 32.5q63 0 103 -22.5 t62.5 -61.5t28.5 -90t0 -108q-27 -119 -73 -285q-43 -109 -113 -203t-154 -164.5t-178 -110.5t-188 -40q-133 0 -176 92t-15 246z" />
<glyph unicode="&#x153;" horiz-adv-x="1597" d="M143 375q-41 -201 34 -313.5t249 -112.5q104 0 210.5 43t205.5 119v-5q-10 -47 7 -75.5t85 -28.5h18t17 2h-2l522 37q86 0 115.5 29.5t35.5 62.5l2 12q10 47 -14 65.5t-82 18.5h-24l-461 -39l80 291l358 39h17q4 0 11 1t13 1q41 0 78 17.5t53 76.5l2 15q6 29 -13.5 54.5 t-90.5 25.5h-21q-10 0 -20 -2l-336 -43l70 235l395 27q8 0 16 1t19 1q37 0 63.5 2t46 11t32.5 27.5t24 53.5l2 12q10 51 -21 66.5t-80 15.5q-12 0 -25.5 -1t-25.5 -1q-8 0 -15 -1t-14 -1q-145 -10 -229 -14t-131 -4h-111q-39 0 -73 -21q-35 35 -86.5 53.5t-122.5 18.5 q-86 0 -170 -34t-164 -90t-150.5 -128t-127 -149.5t-96.5 -153.5t-56 -139q-12 -39 -19 -78zM340 385q2 27 16 64q20 70 73.5 158.5t126.5 167.5t157 133.5t164 54.5q45 0 73.5 -16.5t44 -45.5t20.5 -66.5t1 -80.5q-10 -41 -21.5 -85.5t-23.5 -93.5q-4 -10 -7 -21t-8 -24 l2 2q-35 -84 -88 -156.5t-116.5 -125.5t-135 -84t-143.5 -31q-94 0 -126 67.5t-9 182.5z" />
<glyph unicode="&#x178;" d="M375 1251q-10 -47 31 -104l294 -508l-143 -508q-4 -12 -6 -24.5t-4 -22.5q-10 -47 -2 -79t47 -32h8q37 2 61.5 15.5t41 34t26.5 45t19 51.5l147 520l623 508q39 37 55 62.5t20 41.5q4 23 -10 36t-31 26q-20 10 -32 10q-35 0 -72 -27.5t-84 -52.5l-502 -414l-252 371 q-29 63 -53.5 105.5t-50.5 42.5h-6q-41 -8 -79 -32t-46 -65zM754 1565q-10 -45 16.5 -89t77.5 -44q35 0 62.5 14t49 35.5t35 46t19.5 47.5l4 12t4 15q4 18 4 36q0 20 -6 37t-22.5 27t-45.5 10q-35 0 -67.5 -13t-59 -33.5t-46 -46.5t-25.5 -48v-6zM1143 1569 q-10 -45 18.5 -87t75.5 -42q35 0 63.5 14t49 35.5t34 47t19.5 48.5q4 6 5 14.5t3 16.5q4 18 4 37q0 18 -7 33.5t-23.5 24.5t-45.5 9q-35 0 -67.5 -13t-58 -33.5t-44 -46t-24.5 -48.5z" />
<glyph unicode="&#x2c6;" horiz-adv-x="819" d="M377 1087q-4 -14 8 -25t49 -22q6 -2 17 -2q16 0 37.5 13.5t56.5 48.5l237 200l99 -194q12 -41 35.5 -54.5t39.5 -13.5q8 0 11 2q39 14 54 27.5t21 36.5v6q6 25 -6 55l-129 252q-6 29 -24.5 50.5t-46.5 21.5q-33 0 -47.5 -13.5t-28.5 -31.5l-311 -264q-23 -18 -40.5 -34 t-27.5 -42z" />
<glyph unicode="&#x2dc;" horiz-adv-x="1007" d="M479 1116q-4 -23 11.5 -39t46.5 -16q18 0 37.5 15.5t40 32.5t40 32.5t37.5 15.5q16 0 26.5 -16.5t25 -37t38 -36.5t66.5 -16q90 0 150.5 39.5t91.5 156.5l2 2q4 18 -14.5 32.5t-43.5 14.5q-16 0 -34.5 -9t-32.5 -32q-4 -10 -10.5 -25.5t-14.5 -29.5t-21.5 -25.5 t-31.5 -11.5q-27 0 -38 18.5t-22.5 42t-31 42t-58.5 18.5q-31 0 -72.5 -14.5t-79.5 -37t-68 -51t-38 -59.5z" />
<glyph unicode="&#x2000;" horiz-adv-x="949" />
<glyph unicode="&#x2001;" horiz-adv-x="1898" />
<glyph unicode="&#x2002;" horiz-adv-x="949" />
<glyph unicode="&#x2003;" horiz-adv-x="1898" />
<glyph unicode="&#x2004;" horiz-adv-x="632" />
<glyph unicode="&#x2005;" horiz-adv-x="474" />
<glyph unicode="&#x2006;" horiz-adv-x="316" />
<glyph unicode="&#x2007;" horiz-adv-x="316" />
<glyph unicode="&#x2008;" horiz-adv-x="237" />
<glyph unicode="&#x2009;" horiz-adv-x="379" />
<glyph unicode="&#x200a;" horiz-adv-x="105" />
<glyph unicode="&#x2010;" horiz-adv-x="790" d="M193 571q-6 -37 14 -67.5t74 -30.5q12 0 30.5 -4t38.5 -4q25 0 41 10l275 2l141 2q47 0 80 29t39 63q8 35 -17.5 66t-93.5 31q-16 0 -33.5 2t-36.5 2q-25 0 -45 -6h-282q-4 2 -25 2q-20 0 -45.5 -3t-36.5 -3q-51 0 -80.5 -28t-37.5 -63z" />
<glyph unicode="&#x2011;" horiz-adv-x="790" d="M193 571q-6 -37 14 -67.5t74 -30.5q12 0 30.5 -4t38.5 -4q25 0 41 10l275 2l141 2q47 0 80 29t39 63q8 35 -17.5 66t-93.5 31q-16 0 -33.5 2t-36.5 2q-25 0 -45 -6h-282q-4 2 -25 2q-20 0 -45.5 -3t-36.5 -3q-51 0 -80.5 -28t-37.5 -63z" />
<glyph unicode="&#x2012;" horiz-adv-x="790" d="M193 571q-6 -37 14 -67.5t74 -30.5q12 0 30.5 -4t38.5 -4q25 0 41 10l275 2l141 2q47 0 80 29t39 63q8 35 -17.5 66t-93.5 31q-16 0 -33.5 2t-36.5 2q-25 0 -45 -6h-282q-4 2 -25 2q-20 0 -45.5 -3t-36.5 -3q-51 0 -80.5 -28t-37.5 -63z" />
<glyph unicode="&#x2013;" horiz-adv-x="1112" d="M176 549q-6 -33 12.5 -57.5t69.5 -24.5q12 0 33.5 -4t44.5 -4q16 0 33 6h612q14 -6 31 -6q20 0 37.5 4t25.5 4q31 0 56.5 10t45 27.5t33 38t17.5 41.5q6 29 -11.5 51t-64.5 22l-111 -2h-626q-8 4 -19 4q-18 0 -39.5 -4t-31.5 -4q-63 0 -101.5 -32.5t-46.5 -69.5z" />
<glyph unicode="&#x2014;" horiz-adv-x="1544" d="M176 549q-6 -33 12.5 -57.5t69.5 -24.5q12 0 33.5 -4t44.5 -4q16 0 33 6l1042 -2q14 -6 29 -6q20 0 38.5 4t26.5 4q31 0 56.5 10t45 27.5t33 38t17.5 41.5q6 29 -11.5 51t-64.5 22l-111 -2l-1056 2q-8 4 -19 4q-18 0 -39.5 -4t-31.5 -4q-63 0 -101.5 -32.5t-46.5 -69.5z " />
<glyph unicode="&#x2018;" horiz-adv-x="391" d="M340 920q-2 -66 8 -113t64 -51h8q41 0 63.5 27.5t30.5 74.5q6 27 6 62l-2 2l8 256q0 27 3 54.5t-2 51t-23.5 38.5t-59.5 15q-47 0 -66.5 -21.5t-25.5 -55.5q-4 -20 -5 -43t-1 -46z" />
<glyph unicode="&#x2019;" horiz-adv-x="307" d="M213 788.5q6 -26.5 41 -32.5q4 0 6 -1t6 -1q41 0 87 48t69 118l115 262q4 16 9 35.5t9 37.5q6 33 -3 57.5t-58 24.5q-33 0 -58.5 -14t-45 -38.5t-34 -55.5t-24.5 -64l-90 -243l-12 -24q-11 -24 -17 -54q-6 -29 0 -55.5z" />
<glyph unicode="&#x201a;" horiz-adv-x="307" d="M10 -199q-6 -29 0 -55.5t41 -32.5q4 0 6 -1t6 -1q41 0 87 48t69 118l115 262l9 36t9 38q6 33 -3 57.5t-58 24.5q-33 0 -58.5 -14.5t-45 -39t-34 -55t-24.5 -63.5l-88 -244l-13 -23q-12 -24 -18 -55z" />
<glyph unicode="&#x201c;" horiz-adv-x="753" d="M232.5 884q-1.5 -24 4 -50.5t20.5 -49t48 -28.5h12q35 0 58.5 30.5t34.5 81.5q4 12 6 25t0 27l20 262q-2 23 -3 49t-9 50t-27.5 40t-56.5 16q-45 0 -67.5 -25.5t-30.5 -64.5q-4 -18 -5 -38.5t3 -43.5l-4 -243v-4q-2 -10 -3.5 -34zM594 920q-2 -66 8 -113t64 -51h8 q41 0 63.5 27.5t30.5 74.5q6 27 6 62l-2 2l8 256q0 27 3 54.5t-2 51t-23.5 38.5t-59.5 15q-47 0 -66.5 -21.5t-25.5 -55.5q-4 -20 -5 -43t-1 -46z" />
<glyph unicode="&#x201d;" horiz-adv-x="647" d="M213 788.5q6 -26.5 41 -32.5q4 0 6 -1t6 -1q41 0 87 48t69 118l115 262q4 16 9 35.5t9 37.5q6 33 -3 57.5t-58 24.5q-33 0 -58.5 -14t-45 -38.5t-34 -55.5t-24.5 -64l-90 -243l-12 -24q-11 -24 -17 -54q-6 -29 0 -55.5zM573 834q-6 -33 2.5 -53.5t38.5 -24.5h9 q53 0 94 47t63 117l-2 2l99 256q10 25 22 51t16 49q6 27 -6 43t-57 16q-37 0 -61.5 -14t-42 -37.5t-29.5 -53.5t-23 -61l-96 -251q-10 -23 -16 -45.5t-11 -40.5z" />
<glyph unicode="&#x201e;" horiz-adv-x="647" d="M8 -207q-4 -29 1 -55.5t40 -32.5q4 0 6 -1t6 -1q41 0 87 48t71 118l113 262q4 16 9 35.5t9 38.5q8 33 -2 57.5t-59 24.5q-33 0 -58.5 -14.5t-45 -39t-34 -55.5t-24.5 -63l-88 -244l-13 -23q-12 -24 -18 -55zM369 -217q-6 -33 2 -53.5t39 -24.5h8q53 0 94 47t66 117l-3 2 l97 256q10 25 23.5 51.5t17.5 48.5q4 27 -8.5 43.5t-57.5 16.5q-37 0 -61.5 -14.5t-42 -38t-29.5 -53t-22 -60.5l-95 -252q-18 -47 -28 -86z" />
<glyph unicode="&#x2022;" horiz-adv-x="579" d="M176 557q-8 -41 1 -83t32.5 -75.5t58.5 -55t80 -21.5q63 0 113.5 25.5t88.5 65.5t62.5 85t36.5 86q4 10 6 22t7 25q6 33 6 67q0 37 -12.5 66t-41 47t-79.5 18q-63 0 -123 -24.5t-108 -62t-81 -83t-45 -86.5z" />
<glyph unicode="&#x2026;" horiz-adv-x="1409" d="M119 102.5q6 -26.5 20.5 -48t37 -36t50.5 -14.5q41 0 74 16.5t57.5 42t41 55t22.5 54.5q4 12 8 32.5t4 43.5t-8 41t-26.5 29.5t-51.5 11.5q-41 0 -79 -15.5t-68.5 -40t-51 -53t-28.5 -55.5l-2 -10q-6 -27 0 -53.5zM592 150q-4 -27 2 -53.5t20.5 -48t37 -36t50.5 -14.5 q41 0 74 16.5t57.5 42t40 55t23.5 54.5q4 12 8 32.5t4 43.5t-8 41t-26.5 29.5t-51.5 11.5q-41 0 -78.5 -15.5t-68.5 -40t-52.5 -53.5t-29.5 -55zM1055 100.5q6 -26.5 20.5 -48t37 -36t50.5 -14.5q41 0 74 16.5t57.5 42t41 55t22.5 54.5q4 12 8 32.5t4 43.5t-8 41t-26.5 29.5 t-51.5 11.5q-41 0 -79 -15.5t-68.5 -40t-52 -53.5t-27.5 -55l-2 -10q-6 -27 0 -53.5z" />
<glyph unicode="&#x202f;" horiz-adv-x="379" />
<glyph unicode="&#x2039;" horiz-adv-x="546" d="M205 666q-6 -33 5 -45.5t28 -22.5l213 -260q16 -20 28.5 -34.5t36.5 -18.5h16q14 0 27.5 13t32.5 52q4 4 4 8t2 9q4 16 -6 35.5t-39 48.5l-162 198l219 135q45 20 63.5 46t22.5 42v11q-8 37 -18 49t-33 14h-6q-27 0 -59 -18l-287 -178q-31 -10 -56.5 -33t-31.5 -51z" />
<glyph unicode="&#x203a;" horiz-adv-x="546" d="M145 350q4 -39 12.5 -52t22.5 -13h17q29 4 46 18t40 35l315 260q20 10 35.5 22.5t21.5 45.5q6 29 -10 51t-45 33l-217 178q-29 18 -51 18h-6q-23 -2 -39.5 -14t-36.5 -49q-4 -4 -4 -11q-4 -16 5 -41.5t44 -46.5l170 -135l-240 -198q-41 -29 -57 -48.5t-21 -35.5 q-2 -6 -2 -17z" />
<glyph unicode="&#x205f;" horiz-adv-x="474" />
<glyph unicode="&#x20ac;" horiz-adv-x="1226" d="M88 471q-8 -39 6.5 -69.5t59.5 -30.5q23 0 77 22h11q-12 -96 0 -179t50 -144.5t102.5 -96t154.5 -34.5q92 0 188.5 30.5t183.5 79.5t160.5 109.5t122.5 120.5q31 35 35 61q6 29 -12.5 43t-50.5 14q-39 0 -89.5 -21.5t-91.5 -68.5q-23 -29 -65.5 -62.5t-95 -61t-106.5 -46 t-99 -18.5q-61 0 -100.5 21.5t-61 58.5t-26.5 87t1 107h402q16 -8 26.5 -10t16.5 -2h6q31 0 56.5 11t45 29.5t32.5 41t17 45.5q8 37 -10 65.5t-69 28.5q-29 0 -47 -9l-17 -9h-412q37 111 99 215h366q14 -10 27.5 -12.5t28.5 -2.5q55 0 86.5 29t48.5 78l2 14q8 41 -7.5 73 t-56.5 32q-29 0 -50 -10l-21 -11h-287q86 94 181 152.5t196 58.5q63 0 96 -9t47 -26q43 -49 68.5 -80.5t34.5 -31.5q51 0 90 34.5t49 79.5q10 51 -27 90q-66 72 -147.5 98.5t-182.5 26.5q-82 0 -164.5 -29.5t-162.5 -81.5t-155 -124t-140 -158h-115q-16 12 -33.5 14.5 t-25.5 2.5q-55 0 -90 -40t-43 -85q-8 -41 7 -72t58 -31q45 0 72 21h47q-61 -109 -96 -215h-13q-10 10 -25 12t-30 2q-53 0 -88 -40t-45 -87z" />
<glyph unicode="&#x2122;" horiz-adv-x="1644" d="M293 1225q-4 -20 10 -33.5t53 -13.5h15q8 0 18 2l160 32l-178 -641l-4 -20t-7 -21q-4 -18 3.5 -32.5t39.5 -14.5q43 0 58.5 20.5t32.5 67.5l186 664l192 35q61 16 84 28t31 37l2 8q10 53 -47 54q-12 0 -20 -2q-61 -10 -109.5 -19.5t-104 -21t-125 -24.5t-171.5 -32 q-37 -10 -72 -22t-45 -45zM825 592q-10 -51 2.5 -68.5t40.5 -21.5h6q14 0 27.5 10t24 25.5t17.5 31t9 27.5l131 473q18 -78 39 -160t37 -159q4 -29 7 -42.5t5.5 -21.5t5.5 -16t9 -27q2 -12 19.5 -24.5t43.5 -12.5q18 0 38 9.5t40 31.5q18 18 26.5 29.5t15.5 22t16.5 24.5 t29.5 41q16 20 48 56t71 81t82 93t84 93l-144 -499q-8 -20 -10 -31q-10 -49 43 -55h6q37 0 57.5 24.5t26.5 57.5l4 12l197 702q10 51 -2 66.5t-47 19.5h-2q-16 0 -52 -33.5t-71 -74.5q-76 -92 -133 -162t-99 -120t-71 -83.5t-47 -54.5q-31 -37 -45.5 -60.5t-22.5 -23.5 q-6 0 -14 43q-6 43 -17.5 93t-20.5 94.5t-16.5 77t-7.5 38.5q-6 33 -13 69t-13 64.5t-11.5 47t-5.5 16.5q-6 35 -22.5 54.5t-36.5 19.5t-39.5 -18.5t-30.5 -53.5z" />
<glyph unicode="&#x25fc;" horiz-adv-x="1136" d="M0 0v1137h1137v-1137h-1137z" />
<glyph unicode="&#xfb01;" horiz-adv-x="1175" d="M94 72q-18 -94 53 -95q20 0 31 3h-2q33 4 54.5 12t36 24.5t25.5 42t23 62.5l99 336l372 55h-2q51 4 80 11t44.5 18.5t22.5 28t15 38.5q0 2 2 5t2 8q0 4 2 7t2 7q4 23 -3 38t-21.5 23.5t-36 11.5t-43.5 3q-31 0 -58.5 -3t-50.5 -8q-4 -2 -8 -2h-6l-260 -39l65 234l414 29 q76 8 106.5 30.5t47.5 71.5l2 4q4 53 -19.5 73.5t-78.5 20.5q-8 0 -18.5 -1t-20.5 -1q-109 -10 -180.5 -16t-117.5 -11.5t-71 -7.5t-39 -4q-12 -2 -20 -2t-19 -2h2q-88 -10 -126 -30.5t-48 -69.5q-4 -14 -6 -28.5t0 -30.5q-31 -115 -47.5 -176.5t-30.5 -106.5 q-10 -31 -18 -61.5t-21 -75.5l-114 -371q-4 -16 -8.5 -29.5t-6.5 -25.5zM903 94q-8 -39 6.5 -66.5t63.5 -33.5h18q53 0 72.5 30.5t38.5 81.5l-2 -2q2 4 3 10.5t5 10.5l2 4l238 840q2 4 2 10t4 10q4 14 9 29.5t9 30.5q6 35 -4 57t-55 22q-43 0 -69.5 -8t-44 -25.5t-27 -43 t-15.5 -60.5l-242 -856v2q-4 -10 -7 -20.5t-5 -22.5z" />
<glyph unicode="&#xfb02;" horiz-adv-x="1501" d="M94 72q-18 -94 53 -95q20 0 31 3h-2q33 4 54.5 12t36 24.5t25.5 42t23 62.5l99 336l372 55h-2q51 4 80 11t44.5 18.5t22.5 28t15 38.5q0 2 2 5t2 8q0 4 2 7t2 7q4 23 -3 38t-21.5 23.5t-36 11.5t-43.5 3q-31 0 -58.5 -3t-50.5 -8q-4 -2 -8 -2h-6l-260 -39l65 234l414 29 q76 8 106.5 30.5t47.5 71.5l2 4q4 53 -19.5 73.5t-78.5 20.5q-8 0 -18.5 -1t-20.5 -1q-109 -10 -180.5 -16t-117.5 -11.5t-71 -7.5t-39 -4q-12 -2 -20 -2t-19 -2h2q-88 -10 -126 -30.5t-48 -69.5q-4 -14 -6 -28.5t0 -30.5q-31 -115 -47.5 -176.5t-30.5 -106.5 q-10 -31 -18 -61.5t-21 -75.5l-114 -371q-4 -16 -8.5 -29.5t-6.5 -25.5zM889 84q-8 -41 2 -78t51 -37q4 0 7 1t7 1l467 62q61 10 96 36.5t42 55.5q0 4 1 7t-1 7l2 4q14 78 -80 78q-29 0 -62 -6h2l-311 -41l229 819q4 10 6.5 20.5t4.5 20.5q10 51 -4.5 73.5t-61.5 22.5 q-74 0 -100.5 -37.5t-40.5 -99.5l-244 -866v2q-4 -10 -6 -19.5t-6 -25.5z" />
</font>
</defs>
</svg>
