<?xml version="1.0" standalone="no"?>
<!DOCTYPE svg PUBLIC "-//W3C//DTD SVG 1.1//EN" "http://www.w3.org/Graphics/SVG/1.1/DTD/svg11.dtd" >
<svg xmlns="http://www.w3.org/2000/svg" xmlns:xlink="http://www.w3.org/1999/xlink" version="1.1">
<metadata></metadata>
<defs>
<font id="komika_text_tightitalic" horiz-adv-x="339" >
<font-face units-per-em="2048" ascent="1638" descent="-410" />
<missing-glyph horiz-adv-x="401" />
<glyph horiz-adv-x="0" />
<glyph horiz-adv-x="682" />
<glyph horiz-adv-x="546" d="M382 1130.5q3 -28.5 13.5 -52t26.5 -39t39 -15.5q31 0 56.5 16.5t44 42t31.5 55t19 54.5q6 23 10.5 50.5t0 51t-17.5 40t-44 16.5t-59.5 -15.5t-53 -40t-41 -53.5t-22.5 -55.5t-3 -55z" />
<glyph horiz-adv-x="802" d="M453 1124q0 -29 8 -51t26.5 -35.5t51.5 -13.5q39 0 79.5 21.5t75.5 57.5t62 83t39 100q16 68 0.5 123t-74.5 55q-49 0 -92 -26.5t-78 -68.5t-59.5 -91t-32.5 -94q-6 -31 -6 -60zM572.5 1166.5q-3.5 17.5 1 38t14.5 43t25.5 41t34 30.5t40.5 12q23 0 24 -18t-5 -41 q-10 -47 -43 -85t-70 -38q-18 0 -21.5 17.5z" />
<glyph horiz-adv-x="614" d="M377 1423q-6 -31 2 -61l90 -252q4 -29 15.5 -50.5t33.5 -21.5q25 0 37 13.5t23 31.5l241 265q18 18 31.5 33.5t23.5 41.5l3 17q4 14 -5.5 25.5t-35.5 21.5q-16 4 -34 -5t-52 -55l-185 -200l-67 194q-10 49 -33 59.5t-29 6.5q-31 -14 -43 -27.5t-16 -36.5z" />
<glyph unicode="&#xd;" horiz-adv-x="1024" />
<glyph horiz-adv-x="692" d="M102 76q-12 -63 50 -64q14 0 28.5 11.5t26.5 28t23.5 35.5t21.5 36q2 6 8 17.5t12.5 24.5t12.5 24.5t8 15.5q29 59 77 140t103 172t115.5 186.5t115 182.5t98.5 160.5t70 120.5v4q8 23 19.5 48.5t15.5 48.5q4 29 -3 47t-34 18q-47 0 -70.5 -25.5t-35.5 -54.5 q-29 -43 -77 -122.5t-106.5 -178t-123 -207t-123 -210t-105.5 -187.5t-73 -139q-47 -88 -54 -133z" />
<glyph horiz-adv-x="770" d="M178 7q17 -38 55 -34q18 2 37 14.5t33 30t22.5 40t8.5 46.5l135 598q84 20 131 31.5t69.5 18t29 8.5t8.5 2l-142 -637q-8 -33 -15 -60.5t-7 -50.5q0 -20 11 -33.5t38 -17.5q29 -4 47 8.5t30.5 35t21.5 53t18 61.5v-2l133 583q37 139 41 201t-37 53l-332 -63l23 113 q2 14 11 49t25.5 70.5t40 63.5t58.5 28q23 0 48 -14.5t36 -31.5q43 -20 63 -20q18 0 41 14q25 14 37 34t17.5 38t2 33.5t-11.5 23.5q-16 14 -36.5 31.5t-47 32t-59.5 25t-72 10.5q-70 0 -120 -42t-87 -108.5t-63.5 -150.5t-44.5 -166l-17 -72l-39 -20q-16 -6 -30.5 -10.5 t-26.5 -12.5t-22.5 -26.5t-18.5 -51.5q-8 -31 -4 -47t15.5 -22.5t27.5 -4t33 8.5l22 -2l-131 -570q-23 -51 -6 -89z" />
<glyph horiz-adv-x="880" d="M178 7q17 -38 55 -34q18 2 37 14.5t33 30t22.5 40t8.5 46.5l135 598l219 54q31 14 49.5 24.5t28.5 19.5t14 22.5t8 33.5l3 2q6 41 -9.5 62.5t-62.5 7.5l-205 -35l23 113q2 14 11 49t25.5 70.5t40 63.5t58.5 28q33 0 62.5 -12.5t56 -30t52 -36t48.5 -30.5l-229 -987 q-10 -66 1 -103.5t50 -33.5q41 2 59.5 42t38.5 105v2l246 1075q8 35 16 68t8 55q0 25 -12 38t-43 11q-39 -4 -60.5 -35.5t-35.5 -72.5q-20 18 -48 38.5t-59.5 39t-65.5 31t-67 12.5q-70 0 -120 -42t-87 -108.5t-63.5 -150.5t-44.5 -166l-17 -72l-39 -20q-16 -6 -30.5 -10.5 t-26.5 -12.5t-22.5 -26.5t-18.5 -51.5q-8 -31 -4 -47t15.5 -22.5t27.5 -4t33 8.5l22 -2l-131 -570q-23 -51 -6 -89z" />
<glyph horiz-adv-x="681" d="M85 558q-9 -38 1 -66.5t39 -38t65 19.5q4 4 27 14l-90 -374q-10 -16 -16 -52q-4 -23 -5.5 -45t4 -38.5t16.5 -25.5t30 -5l440 76q57 14 86 45.5t25 60.5q12 53 -18 69.5t-93 2.5l-315 -56l116 494l170 135q33 27 44.5 66t1 67.5t-40 35.5t-76.5 -30q-10 -6 -19.5 -12 t-19.5 -14l75 313q20 76 16.5 109.5t-44.5 33.5q-59 0 -81 -39.5t-36 -107.5l-111 -455q-66 -47 -99.5 -75.5t-43.5 -38.5q-39 -31 -48 -69z" />
<glyph horiz-adv-x="475" d="M129 560q-10 -38 1 -66.5t39 -38t64 19.5q2 2 11 6l-86 -375q-12 -66 0 -103.5t47 -33.5q43 2 61.5 42t38.5 106v2l117 506l190 151q33 27 44.5 66t1 67.5t-41 35.5t-77.5 -30q-10 -10 -27.5 -21t-32.5 -24l74 324q8 35 16.5 67.5t8.5 55.5q0 25 -12.5 38t-43.5 11 q-27 -2 -45 -18.5t-30.5 -41t-21.5 -54t-15 -58.5l-107 -467q-53 -35 -84 -61.5t-41 -36.5q-39 -31 -49 -69z" />
<glyph horiz-adv-x="872" d="M50 11.5q5 -23.5 23.5 -37t45.5 -11.5q61 4 145 7t170 4t162 2t121 1h49q33 0 59.5 41.5t38.5 92.5q12 33 -2 47t-46 15t-80 -4t-103 -9q-53 0 -96 -1t-85 -2t-86 -5.5t-98 -10.5l867 1086q18 25 24 49t3 44.5t-15 33t-33 10.5l-498 -39q-66 -2 -104.5 -8t-61 -19.5 t-32.5 -37t-19 -60.5q-12 -57 35 -65.5t139 18.5l361 37l-840 -1053q-31 -37 -40 -69.5t-4 -56zM682 1907q-4 -33 4 -62l88 -252q4 -29 16.5 -50t34.5 -21q25 0 37 13t23 32l241 264q18 18 30.5 33.5t23.5 42.5l4 16q4 29 -41 47q-18 4 -34.5 -5t-51.5 -54l-187 -201 l-65 195q-4 25 -13.5 39t-19.5 20t-18.5 7t-10.5 -1q-31 -14 -43 -27t-18 -36z" />
<glyph horiz-adv-x="710" d="M41 -2q0 -14 10 -20.5t35 -5.5t72 5l368 9q4 -6 17.5 -8.5t29.5 -2.5t28.5 2.5t19.5 6.5q37 20 55 46.5t22 75.5q2 25 -11 34.5t-34.5 11.5t-47 -1.5t-50.5 -3.5h-260l479 570q43 41 57.5 62t18.5 50q8 33 -1 49.5t-30.5 21.5t-50.5 3t-61 -4l-355 -8q-25 0 -44 -1 t-34.5 -9.5t-28 -25.5t-22.5 -50q-14 -47 6.5 -68.5t44.5 -21.5q39 -2 76 -1t76 4t85 6t103 3l-452 -539q-53 -53 -87 -85.5t-34 -61.5v-43zM428 1417q-8 -27 4 -61l88 -252q4 -29 16.5 -50.5t34.5 -21.5q23 0 35 13.5t23 31.5l241 264q18 18 31.5 34t22.5 42l2 17 q4 14 -4.5 25t-36.5 22q-16 4 -33.5 -5.5t-52.5 -54.5l-183 -200l-67 194q-10 49 -32.5 59.5t-31.5 6.5q-29 -14 -40 -27.5t-17 -36.5z" />
<glyph unicode=" "  horiz-adv-x="401" />
<glyph unicode="&#x09;" horiz-adv-x="401" />
<glyph unicode="&#xa0;" horiz-adv-x="401" />
<glyph unicode="!" d="M80 0q10 -37 51 -37q55 0 93 33t63 133q12 51 0.5 83t-58.5 32t-89 -49.5t-60 -120.5q-10 -37 0 -74zM189 376q-3 -50 42 -50q51 0 81 47t46 121l183 710q4 16 7 32.5t7 33.5q10 53 3 94t-46 41q-33 0 -54.5 -19.5t-34.5 -47t-20.5 -58.5t-9.5 -55l-174 -725 q-27 -74 -30 -124z" />
<glyph unicode="&#x22;" horiz-adv-x="528" d="M240 931q-2 -30 5 -56.5t34 -32.5q35 -8 66.5 41t45.5 123l62 262q2 23 6 49t2 50t-13.5 40t-39.5 16q-25 0 -43.5 -14t-30.5 -38.5t-20.5 -55.5t-10.5 -64l-47 -243l-7 -24q-7 -23 -9 -53zM511 893q-1 -47 38 -51q41 -4 68.5 44t41.5 120v2l52 256q4 27 11 54.5t7 49.5 q0 25 -10 40t-41 15q-29 0 -46.5 -14t-28.5 -37.5t-17 -53.5t-13 -61l-49 -251q-12 -66 -13 -113z" />
<glyph unicode="#" horiz-adv-x="1073" d="M197 395q0 -14 8 -26.5t29.5 -17.5t62.5 1h43l-86 -182q-47 -109 -53 -153t53 -44q14 0 30.5 15.5t32 40t28.5 53.5t24 57l98 213h168l-90 -198q-29 -53 -37 -87t-4 -54.5t16 -29t29 -10.5q14 -2 30.5 15.5t34 44t33 59.5t27.5 62l90 198h57q45 -2 74 -4t48.5 6t31.5 30 t22 69q12 41 -11 51t-107 10h-37l143 315h53q16 -2 31 -2h29q41 0 69.5 18.5t28.5 59.5q8 14 8 33q0 20 -11 33.5t-34.5 19.5t-60.5 -4h-37l69 154q53 94 61.5 147t-40.5 53q-23 0 -36 -6t-26.5 -22.5t-29 -48t-37.5 -82.5l-90 -195h-170l86 184q41 76 43 123t-49 47 q-20 0 -39 -15t-32 -37.5t-23.5 -47t-14.5 -41.5l-100 -213h-62q-68 4 -108.5 -17.5t-50.5 -64.5q-16 -57 14.5 -69.5t83.5 -6.5h49l-147 -315h-43q-68 4 -112 -17.5t-56 -68.5q-4 -16 -4 -33zM541 514l147 315h168l-145 -315h-170z" />
<glyph unicode="$" horiz-adv-x="768" d="M116 163.5q11 -46.5 39.5 -77.5t70.5 -46t89 -20l-28 -108q-47 -166 26 -166q51 0 73 49t34 119l29 117q57 20 118.5 66t115.5 115t99 162t74 208q39 168 0 244.5t-117 76.5q-41 0 -84 -20l52 223q35 2 57 -15.5t33 -29.5q49 -59 86 -56t59 99q10 39 -4 72.5t-44 59.5 t-68 40t-74 14l12 43q6 14 12 38t4 45.5t-14 35.5t-39 12q-27 -4 -44 -19t-28.5 -35.5t-16.5 -43.5t-7 -39l-13 -53q-55 -20 -112 -63.5t-107.5 -103.5t-91.5 -136t-63 -164q-16 -61 -12 -112.5t20 -87.5t41.5 -55.5t52.5 -19.5q20 0 47 14.5t58 37.5l-93 -381 q-37 -18 -59.5 -10t-34.5 24t-15 33.5t-3 15.5q18 59 6 91t-37 33t-52.5 -26.5t-41.5 -87.5q-16 -66 -5 -112.5zM375 758.5q-2 27.5 8 62.5q23 92 78 163t114 108l-69 -295q-35 -27 -63.5 -46.5t-47.5 -19.5q-18 0 -20 27.5zM500 242l112 465q51 29 86 28q31 0 38 -36.5 t-9 -102.5q-31 -135 -93.5 -226t-133.5 -128z" />
<glyph unicode="%" horiz-adv-x="1015" d="M259 -20.5q11 -28.5 35.5 -31.5t59.5 24.5t72 93.5q154 289 260.5 487.5t177 329.5t110.5 204.5t60.5 111.5t24.5 50.5t6 20.5q8 37 -3 66.5t-33.5 39.5t-51.5 -4t-55 -63q-162 -305 -273.5 -514t-184.5 -346.5t-114 -213t-60.5 -113.5t-23.5 -49.5t-6 -17.5 q-12 -47 -1 -75.5zM301 989q0 -43 12.5 -79t39 -59.5t69.5 -23.5q35 0 81 23.5t91 65.5t81 96.5t52 115.5q27 106 -5 175t-118 69q-43 0 -88 -23.5t-85 -64.5t-71.5 -95t-48.5 -118q-10 -39 -10 -82zM437 1028q-1 14 5 43q14 49 51 88t68 39q25 0 33 -19.5t4 -35.5 q-6 -29 -22.5 -54.5t-37 -46t-40 -33t-33.5 -12.5q-4 0 -11.5 1t-11.5 8.5t-5 21.5zM592 106q-2 -43 7 -79.5t34.5 -61t75.5 -24.5q35 0 83 22.5t95 65.5t87 104t58 139q12 49 12 93q0 45 -11 78.5t-34.5 54t-56.5 20.5q-49 0 -100 -17.5t-96.5 -56t-82 -102t-59.5 -156.5 q-10 -37 -12 -80zM737 132.5q-4 19.5 0 39.5l4 27q16 66 53 104.5t72 38.5q47 0 41 -45l-6 -25q-8 -33 -24.5 -61.5t-35 -50t-39 -34.5t-36.5 -13q-25 0 -29 19.5z" />
<glyph unicode="&#x26;" horiz-adv-x="962" d="M112.5 203.5q-8.5 -74.5 3 -133t45.5 -93t101 -34.5q90 0 205 66.5t223 172.5l31 -112q14 -66 42 -80.5t56.5 1t53 49.5t36.5 66l-90 213q18 25 41 57t45.5 63.5t42 62t33.5 53.5q29 33 32 57.5t-10.5 40t-36 22.5t-46.5 7q-18 0 -34 -14.5t-26 -35t-19.5 -42 t-15.5 -35.5q-10 -16 -22 -36.5t-29 -41.5q-25 94 -48.5 188.5t-39.5 161.5q37 25 77 61t75.5 79t63.5 91t40 99t0 91t-38.5 67.5t-64.5 42t-81 14.5q-96 0 -164 -47t-96 -168q-14 -59 -8 -127.5t20 -128.5q-135 -86 -229.5 -213t-141.5 -330q-18 -80 -26.5 -154.5zM259 201 q-3 35 1 75.5t14 81.5q35 143 105 233.5t168 156.5q8 -37 20.5 -85.5t24.5 -102.5t26.5 -111.5t30.5 -112.5q-43 -43 -89 -82t-90 -67.5t-86 -46t-77 -17.5q-23 0 -34 21.5t-14 56.5zM630 1070q-7 46 3 87q10 35 31.5 49.5t56.5 14.5q12 0 27.5 -4.5t30 -11.5t21.5 -20.5 t1 -31.5q-14 -59 -57.5 -100t-94.5 -70q-12 41 -19 87z" />
<glyph unicode="'" horiz-adv-x="262" d="M240 931q-2 -30 5 -56.5t34 -32.5q35 -8 66.5 41t45.5 123l62 262q2 23 6 49t2 50t-13.5 40t-39.5 16q-25 0 -43.5 -14t-30.5 -38.5t-20.5 -55.5t-10.5 -64l-47 -243l-7 -24q-7 -23 -9 -53z" />
<glyph unicode="(" horiz-adv-x="589" d="M262 743q-162 -672 57 -938q47 -49 77 -17t46 99q6 23 0 44.5t-16 42t-22.5 36t-20.5 25.5q-12 37 -21.5 104.5t-9.5 159.5t13.5 204.5t44.5 239.5q66 270 156.5 461t199.5 277q27 27 59.5 45t40.5 45q12 51 4 78.5t-29.5 35t-50 -4t-59.5 -38.5q-168 -143 -278.5 -360 t-190.5 -539z" />
<glyph unicode=")" horiz-adv-x="589" d="M86 -139q-10 -41 2 -63.5t33.5 -32t45 -5.5t36.5 21q100 115 174 218t130 214t98 236.5t79 285.5q29 147 45 282.5t13 253.5t-30.5 214t-86.5 166q-20 23 -41 23.5t-39.5 -14.5t-33.5 -44t-24 -66q-6 -25 4.5 -45t23.5 -42.5t27.5 -50.5t18.5 -64q4 -31 11.5 -86.5 t8.5 -134t-7.5 -177t-37 -215.5t-50 -195.5t-53.5 -152.5t-82 -159t-132 -216q-14 -12 -34.5 -27.5t-40 -34t-36 -41t-22.5 -48.5z" />
<glyph unicode="*" horiz-adv-x="815" d="M238 1114q-12 -72 22 -125q41 -53 92 -53q10 0 27.5 4t28.5 4q39 0 43 -22q6 -14 -5 -70l-16 -90q-20 -104 41 -166q10 -8 39 -8q45 0 74 96q35 125 57 156q10 -4 26.5 -14.5t43.5 -30.5q51 -39 59 -39q27 0 51.5 29.5t30.5 64.5q4 23 -5 45.5t-28 46.5q-47 53 -47 80 q33 10 66.5 19.5t68.5 19.5q72 27 90 127q10 63 -3 83.5t-64 20.5q-10 0 -30.5 9.5t-43.5 5.5q-39 -8 -63 -9q-53 0 -62 33q-6 39 8 137q8 53 10.5 88t0.5 54q-10 68 -70 67q-39 -4 -72 -49t-35 -96q-4 -23 -7 -48.5t-1 -53.5q-10 -18 -20 -19l-49 92q-31 49 -76 49 q-27 0 -50.5 -25.5t-29.5 -60.5q-6 -45 27 -123l49 -116q-25 -25 -64 -25h-2q-29 0 -33 -2q-27 -8 -51 -32.5t-28 -53.5z" />
<glyph unicode="+" horiz-adv-x="833" d="M129 446.5q-8 -34.5 5 -63.5t54 -29q14 0 38 -6t42 4h150l-51 -217q-10 -16 -16.5 -50t-10.5 -50q-16 -61 -2 -87t43 -26t57.5 24.5t38.5 65.5q2 8 7 31t11.5 47.5t12.5 47t8 34.5l45 180h166q16 -10 41 -4t33 6q39 0 68.5 30t42 65.5t2 65.5t-51.5 30l-82 -2h-172 l49 207q10 16 17 47q4 33 8 37q12 57 -3 83.5t-43 25.5t-56.5 -27.5t-40.5 -75.5q-4 -23 -15.5 -50.5t-7.5 -39.5l-51 -207h-156q-10 8 -34.5 2t-34.5 -6q-45 0 -74 -29t-37 -63.5z" />
<glyph unicode="," horiz-adv-x="327" d="M-23 -174q-14 -49 0.5 -64.5t38.5 -15.5q43 0 87 29.5t81 75t65 98.5t40 102q23 86 10.5 135.5t-78.5 49.5q-51 0 -83 -25t-49 -59.5t-19 -73.5t8 -66q20 -53 8 -84.5t-34.5 -51t-47 -30t-27.5 -20.5z" />
<glyph unicode="-" horiz-adv-x="591" d="M161 567q-5 -35 10 -64.5t54 -29.5q16 0 39 -7t43 9l207 2l107 2q35 0 59.5 30t30.5 64.5t-12.5 64.5t-67.5 30q-18 0 -43 3t-43 -5h-211q-4 2 -19 2q-16 0 -34.5 -3t-26.5 -3q-41 0 -64.5 -30t-28.5 -65z" />
<glyph unicode="." horiz-adv-x="305" d="M57 69.5q2 -28.5 12.5 -52t28 -39t39.5 -15.5q31 0 55.5 16.5t43 42t32 55t19.5 54.5q6 23 10 50.5t1 51t-16.5 40t-43.5 16.5q-31 0 -59.5 -15.5t-53.5 -40t-41 -53t-22.5 -55.5t-4.5 -55.5z" />
<glyph unicode="/" horiz-adv-x="618" d="M81 -8.5q-9 -57.5 56 -57.5q23 0 44.5 21.5t39 49.5t30.5 55.5t21 39.5q27 53 69 135t93 178.5t106.5 202t105.5 207t93 192.5t68 159v-3q12 27 24.5 59t17.5 60.5t-3 48t-35 19.5q-59 0 -85 -32t-40 -60q-27 -57 -69 -143.5t-90 -187.5t-101 -210t-104.5 -212 t-96.5 -194.5t-78 -156.5q-57 -113 -66 -170.5z" />
<glyph unicode="0" horiz-adv-x="776" d="M149.5 379.5q2.5 -111.5 27 -196.5t72.5 -134t118 -49q76 0 145.5 56.5t127.5 151.5t103 223t70 269l4 15q16 98 26.5 209.5t0.5 207t-48 159t-114 63.5q-68 0 -121 -18.5t-115 -86.5q-96 -104 -168.5 -272t-107.5 -361q-23 -125 -20.5 -236.5zM309 310.5 q-24 99.5 10 303.5q23 135 67 255t95 190q12 18 31.5 36.5t41 34t40 25.5t31.5 10q37 0 58.5 -33.5t28.5 -92t1 -138.5t-23 -174q-16 -92 -40.5 -182t-58.5 -163t-80.5 -119t-107.5 -52q-70 0 -94 99.5z" />
<glyph unicode="1" horiz-adv-x="382" d="M117 57q-4 -25 24 -39q20 -18 45 -18q33 0 44.5 18.5t17.5 49.5q23 125 45 243.5t43.5 226t44 197.5t47.5 158q16 47 30.5 100.5t37.5 141.5q2 12 6 28.5t8 32.5t8 27.5t4 13.5q0 25 -10 40t-23.5 24.5t-25.5 12.5t-14 3q-25 0 -59 -17.5t-63.5 -39t-51 -42t-21.5 -26.5 q-12 -70 68 -90l4 -8l-2 -15q-23 -119 -69 -276.5t-81 -349.5q-16 -84 -29.5 -187.5t-27.5 -208.5z" />
<glyph unicode="2" horiz-adv-x="780" d="M10 76q-6 -31 3.5 -52.5t31.5 -21.5q12 0 48 11.5t88 23.5t114.5 23.5t126.5 11.5q82 0 130 -3t73.5 -6.5t35 -6.5t15.5 -3h8q29 0 44 26.5t22 63.5q14 74 -36 101.5t-175 27.5q-43 0 -94.5 -5t-110.5 -19l6 31q35 39 73 86t76.5 96t76.5 96t71 86q63 70 109.5 139.5 t79 129t50 107.5t21.5 77l2 6q16 92 -19.5 147.5t-113.5 55.5q-90 0 -197 -62q-43 -25 -97 -64.5t-103.5 -84.5t-85 -89t-41.5 -81q-8 -37 10 -68t33 -31q33 6 68.5 35t92.5 88q31 33 67 62.5t70.5 52t65.5 37t51 14.5q23 0 33 -18.5t6 -44.5q-4 -23 -39.5 -80.5t-90 -133 t-121 -161.5t-131 -167t-121 -148.5t-91.5 -104.5q-43 -47 -68.5 -78t-39.5 -51.5t-19.5 -31.5t-7.5 -19z" />
<glyph unicode="3" horiz-adv-x="806" d="M41 248q-8 -51 11.5 -96.5t60.5 -79t100 -53t129 -19.5q76 0 147.5 24.5t132 73.5t103.5 123t61 172q20 117 -9 191.5t-107 101.5l2 19q66 43 115 82.5t83.5 80.5t55 84t30.5 95q10 57 0 104t-34.5 81t-61.5 52.5t-80 18.5q-35 0 -87 -16.5t-109.5 -45.5t-114.5 -65.5 t-105.5 -76.5t-81 -82t-38.5 -79q-8 -41 13.5 -74t47.5 -33q20 0 45 31q47 57 100.5 103.5t104.5 80t97 52t77 18.5t50.5 -18.5t11.5 -61.5q-8 -49 -58.5 -105.5t-118 -105.5t-142.5 -86t-130 -47q-29 -4 -40 -18.5t-17 -48.5q-4 -25 -4 -47q0 -23 5 -41.5t13 -29.5t18 -11 q4 0 12.5 4t24.5 10q74 33 152 33q72 0 108.5 -33t24.5 -109q-8 -43 -31.5 -84t-60.5 -72.5t-85 -51t-104 -19.5q-66 0 -108.5 20.5t-50.5 65.5q-6 43 -31 53.5t-35 10.5q-29 0 -56.5 -15.5t-35.5 -60.5z" />
<glyph unicode="4" horiz-adv-x="917" d="M95 425.5q3 -19.5 8.5 -36t13.5 -28t18 -11.5q2 0 3 1t3 1q39 16 90.5 32.5t102.5 30t95 21.5t69 8q29 0 24 -10q0 -2 -2 -2v-2l6 -12q-37 -133 -49 -211q-20 -111 -6 -157t64 -46q41 0 69.5 25.5t32.5 48.5q-4 53 -2 87t10 79q6 31 14.5 71.5t22.5 92.5l8 32l10 9 q14 2 37 5t43 3l119 -13h4q12 0 23.5 11.5t20.5 27t16.5 32.5t9.5 32q6 33 -4.5 50t-32 26.5t-50 11.5t-59.5 2h-73l-4 14q12 45 33.5 107.5t49 134.5t58.5 149.5t63 153.5q16 33 17 39q-4 10 -10.5 27.5t-15.5 34t-19.5 27.5t-18.5 11q-35 -18 -107.5 -79.5t-159.5 -145.5 t-181 -181.5t-172 -188.5t-131.5 -164.5t-59.5 -112.5q-4 -18 -1 -37.5zM362 614q76 90 128.5 148.5t88 98.5t61.5 65.5t52 50.5l10 -10q-23 -66 -48 -139.5t-54 -165.5l-6 -27l-12 -6q-92 -8 -143.5 -15.5t-73.5 -17.5z" />
<glyph unicode="5" horiz-adv-x="794" d="M47 266q-10 -49 14.5 -96t68.5 -84t103.5 -59.5t118.5 -22.5q90 0 167 32t137.5 85t99.5 123.5t53 150.5q12 74 2 145.5t-47 128t-100.5 91.5t-153.5 35q-61 0 -125 -21l-6 12l82 248q6 16 35.5 28.5t71.5 22t92.5 14.5t97.5 9t88 5t63 1q25 0 37 22.5t17 51.5 q6 39 4 61.5t-9.5 34.5t-19.5 16.5t-25 4.5h-26q2 0 -51.5 -6.5t-132 -18.5t-168 -32.5t-158.5 -49.5q-14 -8 -34.5 -50t-43.5 -101.5t-46.5 -129t-41.5 -130t-29.5 -102.5t-13.5 -50q-4 -16 -1 -35.5t10 -36t19.5 -28t30.5 -11.5q12 0 33 11q121 63 213 63q43 0 79 -16.5 t61.5 -44t37 -66.5t2.5 -82q-16 -86 -80.5 -132t-160.5 -56h-19q-51 0 -90 28.5t-67.5 63.5t-48 63.5t-31.5 28.5q-31 0 -64 -39v-2q-23 -25 -32 -44t-13 -34z" />
<glyph unicode="6" horiz-adv-x="849" d="M147 444q-25 -141 1 -227t72 -134t96.5 -64.5t72.5 -16.5q80 0 159 44t146.5 118t116.5 169t68 197q14 82 4.5 156t-41 129t-82.5 88t-119 33q-20 0 -49 -5t-64 -18l-4 17q43 74 86 128t79 93t59.5 60.5t25.5 31.5q8 41 -12.5 68.5t-52.5 27.5q-45 0 -112 -65.5 t-163 -212.5q-82 -129 -133 -220t-82 -162t-46 -125t-26 -110zM305 451q27 154 102.5 234.5t161.5 80.5q53 0 81 -13.5t41.5 -34t15.5 -42t4 -35.5q6 -33 7 -65.5t-5 -69.5q-33 -102 -70 -163.5t-74 -94.5t-72.5 -44t-66.5 -11q-72 0 -109.5 66.5t-15.5 191.5z" />
<glyph unicode="7" horiz-adv-x="739" d="M223 104q-8 -47 5.5 -75.5t54.5 -28.5q27 0 46 8t32.5 20.5t20.5 25t9 20.5l2 10q-2 27 -1 41t5 31q10 53 62.5 191t173.5 368q49 96 100 179t92 145.5t65.5 98.5t24.5 40q6 41 0 64.5t-17 35.5t-26.5 15t-27.5 3l-20 -5q-21 -5 -57 -11t-82 -10t-97 -4q-70 0 -111 1 t-63.5 2t-31.5 2t-15 1h-7q-68 -10 -97.5 -39t-33.5 -53q-6 -37 15.5 -57.5t52.5 -31t61.5 -12.5t42.5 -2h13q59 0 100 2t100 13q4 4 18.5 3t18.5 1l6 -17l-20 -37q-86 -166 -157.5 -312t-125 -266t-87.5 -209t-42 -140z" />
<glyph unicode="8" horiz-adv-x="792" d="M86 248q-20 -115 47.5 -181.5t194.5 -66.5q53 0 107 11.5t101.5 37t80 64.5t42.5 94l3 8q6 35 1.5 71t-19.5 76.5t-40.5 93t-62.5 122.5l-17 26l4 17q23 18 69 64t96 99.5t92 102.5t55 76q47 92 59 155q6 31 0 62.5t-22.5 58.5t-45 44t-71.5 17q-47 0 -101.5 -12 t-106.5 -30.5t-98 -40t-75 -39.5q-123 -82 -148 -224q-25 -152 84 -333v-15q-109 -113 -161 -194.5t-68 -163.5zM238 256q8 47 46 105.5t103 119.5h8q111 -166 99 -233q-6 -37 -43 -68h-2q-37 -25 -87 -24q-141 0 -124 100zM379 950q4 29 33.5 60.5t74.5 59.5t101.5 46.5 t111.5 20.5h7q31 0 42 -19.5t7 -46.5q-6 -31 -33 -67.5t-59.5 -70.5t-61.5 -60.5t-39 -34.5q-35 -31 -53 -48.5t-28.5 -26.5t-13.5 -11l-3 -2l-6 -5h-10q-23 29 -37.5 63t-21.5 64.5t-9 52t-2 25.5z" />
<glyph unicode="9" horiz-adv-x="806" d="M150 570.5q8 -52.5 30.5 -90.5t58 -59.5t80.5 -21.5q78 0 166 47.5t166 106.5l-108 -516q6 -37 61 -37q29 0 56.5 14.5t35.5 55.5q4 47 9.5 86t15.5 92q18 109 45 219.5t57.5 217t63.5 201.5t65 173q14 35 24.5 57.5t15.5 35.5t7 20.5t2 13.5q4 29 -10 62.5t-33 45.5 q-10 4 -45.5 13.5t-76.5 9.5q-86 0 -155 -20.5t-119 -47t-80.5 -52.5t-41.5 -34q-86 -72 -139 -144.5t-85 -137t-45 -115.5t-19 -80q-10 -63 -2 -115.5zM307 694q12 74 53 149t95.5 136t113 99t107.5 38q43 0 68.5 -29t17.5 -88q-10 -59 -47 -133.5t-89.5 -140.5 t-114.5 -110t-126 -44q-43 0 -65.5 34t-12.5 89z" />
<glyph unicode=":" horiz-adv-x="303" d="M78 10.5q12 -47.5 59 -47.5q55 0 93.5 53t56.5 121q16 66 5 109t-56 43q-29 0 -54.5 -16.5t-46 -42t-35 -56.5t-20.5 -61q-14 -55 -2 -102.5zM213 577.5q14 -47.5 59 -47.5q55 0 93.5 53.5t56.5 121.5q16 66 5 108.5t-56 42.5q-29 0 -55.5 -16.5t-47 -42t-35 -56 t-20.5 -61.5q-14 -55 0 -102.5z" />
<glyph unicode=";" horiz-adv-x="303" d="M-35 -176q-14 -49 0.5 -64.5t38.5 -15.5q43 0 87 29.5t81 75t64.5 99.5t39.5 103q23 86 10.5 135.5t-77.5 49.5q-31 0 -56.5 -17.5t-45 -42t-32 -53.5t-18.5 -51q-14 -57 5.5 -82t43.5 -25q20 0 39 12q-20 -43 -47.5 -59t-54.5 -25.5t-48.5 -22.5t-29.5 -46zM216 577.5 q13 -47.5 58 -47.5q55 0 93.5 53.5t56.5 121.5q16 66 6 108.5t-55 42.5q-29 0 -55.5 -16.5t-47 -42t-35 -56t-20.5 -61.5q-14 -55 -1 -102.5z" />
<glyph unicode="&#x3c;" horiz-adv-x="806" d="M211 467q-10 -53 27 -92l331 -369q10 -27 32 -31t46.5 8.5t46 38t29.5 58.5q14 55 -3.5 69.5t-37.5 16.5l-272 295l413 246q23 0 45.5 23.5t36.5 74.5q8 37 -3 62.5t-34.5 34.5t-51.5 -2t-50 -50l-483 -287q-33 -18 -50.5 -43.5t-21.5 -52.5z" />
<glyph unicode="=" horiz-adv-x="901" d="M187.5 353q9.5 -36 45.5 -36q18 0 60 23h459q16 -10 23 -11t13 -1q41 0 71 34.5t42 75.5t1 76t-54 35q-23 0 -34 -9l-11 -10h-469q-8 10 -20.5 12.5t-22.5 2.5q-37 0 -63.5 -36t-38 -78t-2 -78zM285.5 761q9.5 -36 44.5 -36t55 20h461q12 -10 22.5 -12t20.5 -2 q41 0 65.5 29t36.5 78q12 45 2 81.5t-43 36.5q-23 0 -38 -10l-15 -10h-465q-10 12 -23.5 14t-19.5 2q-39 0 -65.5 -35.5t-37 -77.5t-1 -78z" />
<glyph unicode="&#x3e;" horiz-adv-x="806" d="M127 88q-10 -43 1 -72.5t32.5 -41t47 -3t44.5 38.5l522 379q16 12 31.5 33.5t22 46.5t3 48.5t-23.5 41.5l-350 295q2 16 -14.5 36.5t-34.5 20.5q-37 0 -67 -28.5t-43 -64.5t-8 -68.5t40 -42.5l297 -244l-416 -293q-18 0 -45 -12.5t-39 -69.5z" />
<glyph unicode="?" horiz-adv-x="815" d="M193 66q-16 -70 10 -97.5t63 -27.5q53 0 86 36.5t49 102.5l-2 -2q16 61 9 103t-52 42q-53 0 -97 -32.5t-66 -124.5zM258 453q-10 -53 5.5 -84t74.5 -31q27 0 45 47t53 117.5t95.5 152.5t170.5 152q39 25 79 58.5t74 75.5t58.5 89t36.5 100q14 55 6 103.5t-32.5 84.5 t-63.5 56.5t-84 20.5q-49 0 -99 -20.5t-100.5 -51.5t-98.5 -70t-91 -75q-35 -33 -66.5 -76t-41.5 -84q-14 -53 -3 -81t39 -28q29 0 71 30t89 89q70 72 135.5 124t120.5 52q37 0 61.5 -19.5t14.5 -54.5q-8 -33 -46 -73.5t-92.5 -87.5t-117 -99.5t-119.5 -108.5t-100 -114.5 t-58 -116.5q-4 -20 -8 -39.5t-8 -37.5z" />
<glyph unicode="@" horiz-adv-x="1236" d="M133 266.5q-6 -94.5 20.5 -167t89 -114.5t173.5 -42q45 0 86 11t72.5 24.5t49.5 23.5l19 10q33 0 62.5 31t41 69t0 68.5t-56.5 30.5q-27 0 -41 -18.5t-37 -51.5q-4 -2 -25.5 -14t-60.5 -27.5t-75 -15.5q-80 0 -122 31.5t-57.5 83t-10.5 116t22 129.5q16 72 55 160t94 176 t127 172t156 149.5t179 104.5t198 39q78 0 119.5 -38t57 -97t9.5 -133t-23 -143q-29 -115 -67.5 -204t-78.5 -149.5t-75 -91.5t-55 -31q-16 0 -11 27t11 49l164 567q6 6 11 23.5t4 37t-10 35t-34 15.5q-14 2 -36.5 -12.5t-30.5 -40.5l-15 3q-16 3 -31 3q-90 0 -183 -62.5 t-175 -155.5t-141.5 -200.5t-81.5 -200.5q-23 -88 -1.5 -141t109.5 -53q43 0 91.5 28.5t96.5 72.5t94 94.5t83 93.5q-53 -160 -52 -252t77 -92q51 0 116.5 45t129 129t119.5 201t91 262q25 109 28 208t-26.5 174.5t-98.5 120.5t-185 45q-94 0 -191.5 -36.5t-192 -100 t-180.5 -150.5t-157.5 -189.5t-126 -215t-80.5 -225.5q-25 -104 -31 -198.5zM552 432.5q-3 20.5 3 38.5q12 51 56 128t104.5 149.5t128 125t125.5 52.5q20 0 25 -13.5t1 -29.5q-6 -23 -31.5 -67t-62.5 -96t-81 -106.5t-88 -99.5t-83 -73.5t-65 -28.5q-29 0 -32 20.5z" />
<glyph unicode="A" horiz-adv-x="917" d="M26.5 58.5q-8.5 -33.5 1 -59.5t52.5 -30h5q29 1 59 47q32 50 71 125l178 326l43 4t101.5 9t116 9.5t85.5 4.5q10 -66 16.5 -104t10.5 -63.5t5 -45t3 -50.5q2 -33 8 -77.5t13.5 -85.5t13.5 -70t12 -29q33 -4 55.5 10.5t36 41t19.5 62.5t6 77q-4 92 -18.5 229t-30 287.5 t-27.5 295t-12 253.5q2 19 2 37q0 32 -7 57q-11 39 -35 48t-56.5 -18.5t-71.5 -107.5l-606 -1069q-8 -16 -24.5 -48t-25 -65.5zM496 653l223 412q0 -33 1 -86t2 -109.5t4 -110.5t7 -87z" />
<glyph unicode="B" horiz-adv-x="942" d="M109.5 -22.5q5.5 -22.5 25.5 -22.5q68 0 154 19.5t178 56.5t183 91t168 123.5t133 155t81 183.5q11 45 11 85q0 69 -32 119q-50 80 -182 80q113 70 164 143.5t74 159.5q4 20 4 39q0 50 -31 90q-43 54 -153 54q-117 0 -227.5 -33t-204.5 -61q-25 -8 -55.5 -41t-32.5 -95 l-215 -917q-12 -43 -24.5 -88t-18 -82t0 -59.5zM279 143l122 506q88 27 161 42.5t138 15.5q33 0 71 -3.5t66.5 -15.5t44 -34.5t5.5 -61.5q-23 -92 -94.5 -170t-161.5 -135.5t-185.5 -94t-166.5 -49.5zM442 827l62 240q150 109 338 109q27 0 50 -9t17 -34q-14 -57 -64 -108.5 t-118 -92.5t-144.5 -68.5t-140.5 -36.5z" />
<glyph unicode="C" horiz-adv-x="880" d="M147 292v-15q0 -95 22 -167q24 -78 75 -124.5t129 -46.5q70 0 142.5 30.5t139 79.5t123.5 110t96 120q29 42 29 71q0 6 -1 10q-8 30 -36 36q-5 1 -11 1q-25 1 -60 -17q-43 -22 -78 -73q-18 -29 -51 -62.5t-73 -61t-82 -46t-75 -18.5q-57 0 -88 33.5t-41 89.5q-6 35 -6 75 q0 25 2 51q6 72 25 146q31 125 83 249t118.5 220t142.5 156.5t151 60.5q47 0 72 -9t35 -26q33 -49 51 -80.5t25 -31.5q27 0 52 21q26 20 40 50q16 33 15 71q0 34 -17 62q-47 72 -107.5 98.5t-136.5 26.5q-98 0 -200.5 -72.5t-194.5 -194.5t-165 -278.5t-114 -322.5 q-29 -118 -31 -222z" />
<glyph unicode="D" horiz-adv-x="929" d="M120 50q-3 -36 6 -58.5t38 -22.5q41 0 115.5 20.5t165 66.5t187.5 118t186 174.5t163 236.5t115 304q22 86 22 169v11q-2 88 -30.5 155.5t-85 109.5t-144.5 42q-66 0 -117 -9t-95 -23.5t-83 -32t-80 -33.5q-57 -23 -86.5 -81t-34.5 -116l-208 -862q-10 -43 -20.5 -88 t-13.5 -81zM287 178l223 920q53 35 129 67.5t160 32.5q57 0 92 -26.5t51 -70.5t16 -100q0 -55 -12 -112q-41 -166 -122 -291t-175 -211t-191.5 -137t-170.5 -72z" />
<glyph unicode="E" horiz-adv-x="815" d="M115 35q3 -33 25 -49q16 -12 50 -13q12 0 27 2l490 48q70 0 94 29.5t30 60.5q5 22 5 39q0 28 -14 40q-19 16 -64 16q-9 0 -19 -1l-458 -51l100 413l354 52q10 2 19.5 3t19.5 1q31 0 59.5 17t45.5 77q4 16 4 35q0 18 -12.5 31.5t-36.5 19.5q-12 3 -30 3t-40 -3l-338 -55 l84 348l387 32q39 2 66.5 3.5t48 9.5t34 27.5t23.5 58.5q10 41 0 60.5t-32.5 25.5t-53.5 3t-61 -5q-139 -12 -217 -17.5t-125 -5.5h-105q-27 0 -47 -14t-34.5 -35.5t-23 -45.5t-8.5 -42q-14 -68 -44.5 -218.5t-81.5 -367.5l-82 -348q-14 -57 -28 -104q-12 -41 -11 -71v-9z " />
<glyph unicode="F" horiz-adv-x="745" d="M104 -3q6 -26 38 -26q10 0 22 2q27 4 43 13.5t27.5 28t20.5 47t21 69.5l113 436l363 72q43 4 67.5 12t38.5 21.5t20.5 32t12.5 45.5q6 19 6 34q-1 19 -11 29q-18 17 -52 21q-12 1 -23 2q-23 0 -47 -4q-37 -6 -59 -11l-273 -53l82 348l408 37q61 8 86 30.5t39 73.5 q1 12 1 22q0 44 -21 58t-65 14q-10 0 -22 -1q-139 -16 -216 -25.5t-116 -15.5t-54 -9.5t-34 -5.5q-47 -6 -75.5 -16t-44.5 -28q-17 -20 -23 -48q-5 -21 -5 -52q0 -10 1 -22q-29 -123 -47.5 -195.5t-30.5 -124.5t-24.5 -98t-28.5 -116l-121 -463q-19 -77 -19 -115 q0 -11 2 -19z" />
<glyph unicode="G" horiz-adv-x="1105" d="M144 295q-1 -15 -1 -30q0 -84 24 -151q28 -79 90 -127t171 -48q137 0 267 71.5t238.5 187t188.5 261t115 295.5q3 15 3 27q0 23 -12 37q-20 22 -57 22q-23 0 -49 -13l-45 -17t-103.5 -41t-114.5 -44t-79 -27q-51 -6 -83.5 -41.5t-44.5 -74.5q-8 -23 -8 -42q0 -13 4 -25 q9 -28 40 -17q98 29 183 64.5t186 68.5q-37 -82 -95.5 -172t-134 -166t-166 -125t-190.5 -49q-61 0 -99 33.5t-54 87.5q-15 49 -15 110v14q2 70 21 142q20 86 61 172t97.5 165t122 146.5t134 116.5t137.5 74q55 21 105 21q12 0 23 -1q53 -4 78.5 -17.5t35.5 -30.5 t12.5 -34.5t8.5 -32t22.5 -20.5t55.5 0q33 4 50 44q13 30 13 65q0 13 -2 26q-8 76 -65.5 129t-163.5 53q-74 0 -158 -27.5t-171 -80.5t-171 -130t-157 -174.5t-129 -214t-87 -249.5q-27 -109 -32 -211z" />
<glyph unicode="H" horiz-adv-x="944" d="M104 14q5 -30 52 -45q27 -8 55.5 23.5t44.5 107.5l121 500l481 21l-104 -449q-10 -33 -10 -62q0 -24 6 -44q13 -42 53 -42h8q47 4 67.5 49.5t28.5 92.5q6 37 13 59l247 1047q8 29 14.5 54.5t5.5 45t-11.5 30.5t-36.5 11q-33 0 -53.5 -10t-33 -27.5t-20.5 -40t-16 -47.5 l-111 -483l-489 -27l98 410q4 14 9 37.5t5 46.5q0 25 -9 43t-34 22q-23 4 -40 -6t-31.5 -27.5t-23.5 -41t-15 -43.5q-10 -43 -30.5 -125t-44.5 -179.5t-48.5 -200t-44.5 -188.5l-92 -407q-12 -56 -12 -88q0 -10 1 -17z" />
<glyph unicode="I" d="M112 20q3 -44 50 -51q27 -4 43 6.5t27.5 30t20.5 48t19 61.5l254 1050q6 27 15.5 56.5t11.5 55.5t-5 43t-34 17q-70 0 -92.5 -36.5t-36.5 -112.5l-258 -1069q-15 -47 -15 -86v-13z" />
<glyph unicode="J" horiz-adv-x="800" d="M62 114q1 -59 28 -107t80 -77.5t141 -29.5q84 0 161 36.5t140.5 98t108 143.5t67.5 172l201 821q8 37 14.5 68t5.5 52.5t-11.5 33.5t-36.5 12q-31 0 -50.5 -17t-33 -42t-21.5 -53.5t-14 -53.5l-201 -821q-10 -45 -39 -97t-71 -97t-95 -75t-110 -30q-35 0 -55.5 5 t-31 17.5t-14.5 32t-6 48.5q6 31 15.5 68.5t12.5 70.5t-6.5 55.5t-43.5 22.5h-23q-20 0 -51 -29t-49 -113q-13 -51 -13 -104q0 -6 1 -11z" />
<glyph unicode="K" horiz-adv-x="845" d="M116 -3q9 -32 46 -32q16 0 32.5 6t32 23.5t27.5 48.5t18 78l125 520l283 -612q23 -43 37 -60.5t31 -9.5q68 27 81 68q4 14 4 31q0 32 -16 73l-291 614l416 381q66 43 81 87q8 22 7.5 39.5t-7.5 31.5q-15 27 -50 28h-2q-34 0 -70 -42l-452 -422l90 352q11 61 11 100v6 q-1 40 -56 40q-35 -2 -63 -44t-44 -102l-260 -1081q-14 -62 -14 -97q0 -15 3 -25z" />
<glyph unicode="L" horiz-adv-x="681" d="M105.5 16q-1.5 -22 4 -38.5t16.5 -25.5t30 -5l440 76q57 13 86 45q25 28 25 54v7q3 15 3 27q0 30 -21 42q-16 9 -42 9q-22 0 -51 -6l-315 -56l251 1055q17 65 17 99q-1 7 -1 11q-4 34 -44 33q-59 0 -81 -39.5t-36 -107.5l-260 -1083q-10 -16 -16 -52q-4 -23 -5.5 -45z " />
<glyph unicode="M" horiz-adv-x="1191" d="M125 4q12 -29 43 -35q18 -4 35.5 11.5t32 39t23.5 51t13 46.5l177 733q16 -123 36.5 -248t34.5 -248q4 -43 7 -63.5t5.5 -33.5t4.5 -26.5t8 -42.5q2 -16 17.5 -32.5t38 -21.5t52 6.5t60.5 54.5q20 31 31.5 47t19.5 33.5t19.5 39t33.5 62.5q18 31 57 87t88.5 125.5 t102.5 145.5t102 146l-192 -779q-13 -43 -13 -77v-13q3 -39 48 -43h8q46 -1 72 43q28 48 32 105l267 1089q6 39 6 64t-7.5 39t-20.5 21t-34 11q-8 2 -24.5 -11t-37 -37.5t-44 -56.5t-43.5 -65q-92 -143 -163 -250.5t-123 -185.5t-87 -130t-55 -85q-31 -45 -48.5 -78.5 t-26.5 -46t-13 1t-9 60.5q-6 68 -16 145.5t-19.5 146t-15.5 119t-6 60.5q-4 51 -11 105t-14.5 99.5t-13.5 74t-6 26.5q-4 55 -21.5 84t-41 30t-47 -27t-37.5 -85l-283 -1124q-8 -42 -8 -70q0 -24 6 -37z" />
<glyph unicode="N" horiz-adv-x="1003" d="M121 111q-14 -48 -14 -80q0 -65 58 -64h9q44 4 68 47q23 40 22 81v7l197 818q18 -53 40.5 -114t44 -120t39 -116.5t27.5 -102.5q10 -41 28.5 -99.5t38 -120t40 -118.5t33.5 -94q4 -8 7 -19.5t10 -20.5t22.5 -15.5t44.5 -6.5q18 0 32.5 13.5t25.5 33t19.5 41t12.5 39.5 l268 1119q14 60 14 92q0 11 -2 19q-6 30 -55 30q-25 0 -42 -12.5t-27.5 -32t-16.5 -42t-12 -42.5l-213 -893q-4 8 -12.5 29.5t-17.5 45t-17.5 44t-10.5 30.5q-25 66 -44 125.5t-39.5 125t-43 145.5t-55.5 188q-4 16 -7 22.5t-6 16.5t-8.5 30.5t-11.5 65.5q-4 18 -11 41 t-16.5 43.5t-21.5 33.5t-29 13q-18 0 -32.5 -5t-26.5 -21.5t-24.5 -45t-24.5 -75.5z" />
<glyph unicode="O" horiz-adv-x="978" d="M172 96q58 -160 225 -159q104 0 214 63t206 172t172 254t115 311q29 121 40 237q4 43 4 83q0 67 -12 124q-18 91 -73 146t-160 55q-78 0 -155.5 -41t-151.5 -109.5t-140.5 -155.5t-121.5 -181t-94 -187.5t-58 -170.5q-37 -152 -37 -269q1 -99 27 -172zM298 366 q5 76 28 171q14 59 44.5 132.5t72.5 147.5t93.5 143.5t105.5 123t110.5 86t107.5 32.5q66 0 98 -42t40 -108q3 -27 3 -57q1 -44 -7 -93q-12 -83 -33 -165q-29 -125 -84.5 -237.5t-126 -197.5t-151.5 -135t-159 -50q-55 0 -88 30.5t-46 86.5q-9 40 -10 91q1 20 2 41z" />
<glyph unicode="P" horiz-adv-x="849" d="M112 24.5q1 -24.5 12 -40t40 -13.5q25 2 46 18.5t35.5 38t21.5 46t5 45.5l103 426q90 18 201.5 66t214 121t182 165.5t106.5 198.5q13 56 13 96q0 13 -1 25q-6 47 -28.5 74.5t-57 38.5t-73.5 11q-160 0 -269.5 -20.5t-177.5 -36.5q-45 -10 -71.5 -52t-38.5 -91 q-10 -39 -21.5 -82t-21.5 -85t-19.5 -80t-15.5 -67l-168 -696q-6 -25 -12 -53.5t-5 -53zM420 727l86 385q70 25 169 37t183 12q14 0 30.5 -1t28 -7t16.5 -19t-1 -38q-14 -57 -69.5 -114.5t-131.5 -108t-159 -89.5t-152 -57z" />
<glyph unicode="Q" horiz-adv-x="1009" d="M132 263q-1 -18 -1 -35q0 -77 19 -137q22 -73 75.5 -112.5t141.5 -39.5q94 0 188 43t186 122q25 -49 55.5 -91t47.5 -93q46 -34 79 -34q11 0 20 4q38 14 69 90l2 -3q-10 31 -27.5 54.5t-36.5 50.5q-23 37 -39 65.5t-45 83.5q100 119 175 268.5t120 323.5q27 113 28 215v8 q0 98 -23 170q-25 76 -75.5 121t-125.5 45q-78 0 -160 -39.5t-163 -107.5t-156.5 -158t-139 -190.5t-111 -204.5t-69.5 -203q-29 -117 -34 -216zM286 340q7 66 25.5 139.5t54 156.5t83 163t105.5 152.5t119.5 127t124 87t122.5 32.5q49 0 76.5 -30.5t37.5 -83.5q7 -34 7 -76 q0 -21 -2 -44q-5 -67 -23 -141q-31 -129 -86.5 -244.5t-124.5 -207.5q-31 43 -51.5 79.5t-34.5 63.5q-18 25 -43 18.5t-44.5 -31t-26.5 -59.5q-2 -11 -2 -22q0 -24 11 -47q16 -10 32 -47t38 -84q-66 -57 -135.5 -90t-138.5 -33q-55 0 -84 28.5t-38 77.5q-5 28 -5 61 q0 25 3 54z" />
<glyph unicode="R" horiz-adv-x="862" d="M112 5q3 -36 40 -36h4q27 0 46 12.5t32.5 33t21.5 46t16 52.5l103 428l313 -516q20 -35 48 -48.5t55.5 -7.5t51 31t34.5 66l-15 -31q4 16 4 30q0 21 -9 39q-15 30 -38 56l-297 458q80 25 162 66t153.5 99.5t126 132t76.5 163.5q13 55 13 99q0 161 -183 161 q-135 0 -223 -7t-149 -19q-47 -10 -79 -60.5t-44 -117.5q-16 -80 -34.5 -164t-33.5 -160l-180 -690q-15 -67 -15 -104v-12zM424 743l94 392q25 10 64 17t82 11q34 3 69 3h17q43 -1 77 -7q65 -14 65 -58q0 -10 -3 -22q-12 -57 -64.5 -111.5t-122 -100.5t-144.5 -78.5 t-134 -45.5z" />
<glyph unicode="S" horiz-adv-x="968" d="M107 138q6 -54 31.5 -98t72.5 -72.5t119 -28.5q88 0 198.5 38.5t215 119.5t190.5 205t127 294q14 58 14 102q-1 26 -5 48q-14 58 -43.5 88t-68 41.5t-65.5 11.5q-72 0 -138.5 -18.5t-124 -42t-102.5 -42t-71 -18.5q-25 0 -43 20q-10 12 -9 32q0 15 5 34q10 43 46 102.5 t91 112.5t126.5 91t151.5 38q45 0 60.5 -14.5t25.5 -22.5q16 -18 24.5 -31.5t17 -21.5t21.5 -12t38 -4q14 0 28.5 10t25.5 23.5t18.5 28.5t9.5 28q4 17 4 33q0 23 -8 45q-14 36 -46 64t-77 43t-97 15q-92 0 -190 -47t-185 -125t-153 -180t-92 -215q-12 -53 -12 -92 q0 -17 2 -32q8 -48 30.5 -75.5t55 -38t67.5 -10.5q43 0 99.5 18.5t116 42t121 42t114.5 18.5q40 0 58 -24q10 -13 9 -38q0 -23 -8 -57q-29 -121 -95.5 -203.5t-143 -135t-150.5 -75t-115 -22.5q-37 0 -59.5 10.5t-35.5 26.5t-18 33.5t-10 34.5q-6 41 -15 76.5t-38 35.5 q-47 0 -72.5 -30.5t-37.5 -71.5q-8 -35 -8 -71q0 -19 2 -37z" />
<glyph unicode="T" horiz-adv-x="765" d="M293 1130q-4 -15 -4 -28q-1 -24 15 -40q15 -15 50 -16q19 0 45 5l191 49l-240 -994q-4 -20 -10 -43.5t-6 -44.5q0 -20 9 -34.5t40 -14.5q51 0 69 31t42 104l249 1031l224 53q37 12 60.5 22.5t38.5 22.5t23.5 26.5t12.5 32.5q6 22 6 38q0 25 -12 39q-14 16 -39 16 q-11 0 -25 -3q-72 -16 -129 -29.5t-121.5 -29.5t-146.5 -36.5t-203 -51.5q-20 -8 -42.5 -16.5t-42 -19.5t-34 -27.5t-20.5 -41.5z" />
<glyph unicode="U" horiz-adv-x="937" d="M142 114q4 -54 31.5 -93t79.5 -61.5t132 -22.5q96 0 186.5 35.5t163 94t123 132t68.5 151.5l204 844q2 2 9.5 24.5t9.5 49t-8.5 48t-42.5 21.5q-29 0 -48.5 -12t-31.5 -32.5t-18.5 -48t-12.5 -56.5l-217 -846q-10 -37 -43 -77t-82 -72.5t-111.5 -53t-132.5 -20.5 q-49 -1 -81 29q-23 21 -23 53q0 14 4 30l242 1004q2 12 3 29.5t-3 34t-16.5 27.5t-34.5 11q-49 0 -66.5 -35.5t-32.5 -76.5l-239 -994q-13 -52 -13 -97q0 -10 1 -20z" />
<glyph unicode="V" horiz-adv-x="798" d="M244 140v-21q0 -81 14 -121q13 -39 42 -39q5 0 11 1q37 9 90 110q25 53 74 140t102.5 179t100.5 173t72 124q18 31 29.5 50.5t29.5 46t48 70.5t85 122q31 43 46.5 65.5t23.5 32.5t13 17.5t15 19.5l41 90q5 23 5 40q0 16 -4 26q-9 24 -30.5 29t-50 -11t-57.5 -53 q-23 -29 -45 -63.5t-61 -98.5q-35 -51 -52.5 -77.5t-24.5 -40t-9 -17.5t-5.5 -10t-9.5 -20.5t-24 -47.5q-10 -18 -36 -59t-58.5 -92.5t-67.5 -105.5t-63.5 -100t-48 -77t-21.5 -33q-2 8 0 61.5t4 114t5 110.5t3 52q2 53 5 83t4 48.5t3 31.5t3 32.5t3.5 51.5t4.5 89 q2 27 5 75t5 79q1 9 1 17q0 38 -16 58q-20 24 -49 25q-29 0 -53 -21.5t-35 -62.5q0 -4 -2 -14.5t-4 -24.5q-6 -35 -13 -80t-7 -67q-8 -147 -14.5 -263t-8.5 -180q-2 -37 -1 -46t-1 -32q-4 -27 -5 -73.5t-3 -98.5q-6 -117 -8 -214z" />
<glyph unicode="W" horiz-adv-x="1169" d="M177 32q1 -28 7 -42.5t17.5 -17.5t29.5 -1q14 2 25.5 5.5t25 16.5t31 41.5t47.5 84.5q4 6 26 45t54.5 97t72.5 132t80 149.5t78 148.5t64 130q-4 -96 -6 -215q-1 -79 -1 -154v-74q1 -110 3 -193t6 -107q8 -53 16.5 -79t15.5 -36t15.5 -9t20.5 1q23 0 51.5 26.5 t65.5 106.5q18 41 59 127t93 194.5t111.5 232.5t114 241.5t99.5 219t67 169.5l2 6q4 14 5.5 30.5t-4 32t-18.5 25.5t-38 10q-35 0 -62.5 -46t-54.5 -99q-12 -20 -54 -106.5t-101.5 -210t-128 -272t-133.5 -294.5q0 33 2 99.5t5 146.5t5 165t3 155.5t2 118.5t1 54q0 18 1 51 t1 64q0 33 -4 57.5t-14 24.5q-23 0 -36.5 -3t-28.5 -21.5t-35.5 -58.5t-57.5 -114q-8 -12 -28.5 -53l-49.5 -99t-64.5 -130t-72.5 -145.5t-72 -143.5t-65 -125q6 92 14 191.5t16.5 195.5t16.5 183.5t16 156.5q2 16 5 55t12 80q-10 53 -23.5 67.5t-42.5 14.5 q-47 0 -68.5 -28.5t-31.5 -81.5q-20 -117 -32.5 -234t-21 -222t-13.5 -195.5t-11 -153.5q-4 -43 -7 -91t-7.5 -93.5t-7.5 -80t-5 -49.5q-3 -38 -3 -63v-11z" />
<glyph unicode="X" horiz-adv-x="737" d="M25 29q8 -63 57 -64q49 0 94 58q35 51 86 129.5t99.5 152.5t82.5 127l33 53l7 -48q8 -48 18 -115.5t24.5 -139t26.5 -116.5q0 -27 12.5 -49.5t34 -32t50 0t63.5 50.5l-6 59q8 29 3 42.5t-10 27.5q-16 49 -30.5 133t-24.5 167t-16 144l-6 60l35 54q36 54 89.5 130 t110.5 154.5t100 128.5q16 25 34 56.5t26 62t4 55t-29 32.5q-13 4 -24 4q-25 0 -43 -17q-28 -25 -56 -62q-16 -23 -43.5 -61t-58.5 -81t-63.5 -88t-58 -80.5t-42.5 -58.5l-18 -23q-6 -4 -14.5 37t-19.5 104.5t-22.5 134.5t-19.5 126q-4 18 -6 34.5t-7 29t-14.5 19.5t-27.5 7 q-39 0 -61.5 -23.5t-33.5 -58.5q-4 -14 -4 -35q0 -18 1 -36.5t4.5 -35t5.5 -24.5q0 -6 5 -44t13 -90t17.5 -111.5t17.5 -109.5t14 -84l6 -34q-2 -2 -24.5 -39t-61.5 -98.5t-82 -127t-84 -128t-67 -99.5q-2 -4 -17.5 -25.5t-34 -48t-32.5 -52t-12 -33.5z" />
<glyph unicode="Y" horiz-adv-x="937" d="M317 1229q0 -35 23 -82l205 -508l-123 -508q-14 -60 -14 -104v-11q2 -43 37 -43h6q53 6 76.5 49.5t35.5 96.5l127 520l484 508q35 45 48 72.5t13 44.5q0 16 -10.5 27.5t-20.5 21.5q-14 12 -30.5 8t-34 -16.5t-37 -30t-41.5 -31.5l-391 -414l-176 371q-20 66 -38 110 t-40.5 37.5t-46 -20.5t-38 -38.5t-14.5 -59.5z" />
<glyph unicode="Z" horiz-adv-x="872" d="M50 11.5q5 -23.5 23.5 -37t45.5 -11.5q61 4 145 7t170 4t162 2t121 1h49q33 0 59.5 41.5t38.5 92.5q12 33 -2 47t-46 15h-11q-29 0 -69 -4q-48 -5 -103 -9q-53 0 -96 -1t-85 -2t-86 -5.5t-98 -10.5l867 1086q18 25 24 49t3 44.5t-15 33t-33 10.5l-498 -39 q-66 -2 -104.5 -8t-61 -19.5t-32.5 -37t-19 -60.5q-2 -12 -2 -21q0 -39 37 -45q11 -2 25 -2q44 0 114 21l361 37l-840 -1053q-31 -37 -40 -69.5t-4 -56z" />
<glyph unicode="[" horiz-adv-x="620" d="M57 -243.5q19 -24.5 111 -0.5l242 33q35 4 51 28.5t26 61.5q10 45 11 66q0 20 -12.5 26t-35 3t-55.5 -7l-172 -24l352 1446l170 59q37 16 58.5 22.5t34 12.5t18.5 18t14 43q12 57 -27.5 75.5t-99.5 6.5l-157 -47q-57 -18 -102.5 -61t-61.5 -105l-361 -1530 q-23 -102 -4 -126.5z" />
<glyph unicode="\" horiz-adv-x="690" d="M385 946q0 -109 3 -229.5t8 -234t14.5 -213t23.5 -163.5q0 -18 1 -42.5t5 -49t11.5 -45t17.5 -28.5q25 -23 48.5 -24t39.5 22.5t24.5 73.5t0.5 134q-14 154 -23.5 323t-13.5 317.5t-5 256t-1 138.5q-2 53 -2 100t-8.5 78t-28 40t-58.5 -11q-39 -18 -45 -48t-8 -63 q-2 -47 -3 -134t-1 -198z" />
<glyph unicode="]" horiz-adv-x="620" d="M82 -248.5q8 -19.5 29.5 -23.5t52.5 3t63 17l121 23q33 8 58.5 14t44 16.5t31 28.5t22.5 53l405 1643q6 25 7.5 46t-10 35.5t-39 17.5t-81.5 -11q-10 -4 -44.5 -10.5t-71.5 -12.5t-67 -11t-30 -7q-49 -6 -72.5 -27.5t-33.5 -58.5q-16 -70 10.5 -85.5t85.5 -6.5l170 30 l-352 -1454l-166 -47q-25 -6 -44 -10t-36.5 -13.5t-30 -30t-20.5 -56.5q-10 -43 -2 -62.5z" />
<glyph unicode="^" horiz-adv-x="614" d="M547 1087q-4 -14 4 -25t37 -22q16 -4 33.5 5.5t52.5 54.5l184 200l66 -194q10 -49 32.5 -59.5t30.5 -6.5q29 14 41 27.5t16 36.5q8 25 -2 61l-90 252q-4 29 -15 50.5t-34 21.5q-25 0 -37 -13.5t-22 -31.5l-240 -264q-20 -18 -33.5 -34t-21.5 -42z" />
<glyph unicode="_" horiz-adv-x="720" d="M-68.5 -183.5q-7.5 -27.5 0 -50t31.5 -22.5h705q25 0 41 22.5t22 50t0 51t-29 23.5h-702q-25 0 -43 -23.5t-25.5 -51z" />
<glyph unicode="`" horiz-adv-x="808" d="M516 1352q2 -33 8 -56.5t16.5 -44t25 -40t36.5 -44.5q25 -29 42.5 -52t25.5 -40q8 -23 16 -33t15.5 -15t11.5 -5h4q18 8 29.5 15t16.5 18.5t4 29t-7 45.5q-6 35 -18.5 76t-28 80t-33.5 73t-37 52q-51 49 -90 42t-37 -101z" />
<glyph unicode="a" horiz-adv-x="811" d="M71 129q3 -49 17 -92t41 -71.5t61 -28.5q55 0 115 18t113 41.5t98 48.5t74 37q-6 -29 -12.5 -50.5t-4.5 -36.5t13.5 -23.5t42.5 -8.5q47 0 70.5 33t33.5 102l4 2l135 602q12 55 12 94v21q-4 45 -23 69.5t-47 34t-54 9.5q-92 0 -200.5 -30t-205.5 -103q-23 -12 -48 -27.5 t-38 -67.5q-10 -47 8.5 -57t47 -3t57.5 22.5t37 21.5q78 25 140.5 54.5t127.5 29.5q14 0 34.5 -6t14.5 -41l-24 -113q-117 -6 -219.5 -31.5t-183.5 -73.5t-139 -119t-89 -167q-10 -33 -10 -71q0 -9 1 -19zM206 158.5q-5 23.5 3 60.5q12 47 59 87t112.5 73t143.5 55.5 t152 34.5l-23 -162q0 -4 -21.5 -22.5t-56 -45t-78.5 -55t-88 -50.5t-86 -34q-25 -7 -46 -7q-15 0 -27 3l-10 6q-9 7 -19 20t-15 36.5z" />
<glyph unicode="b" horiz-adv-x="768" d="M106 -12q3 -51 48 -51q61 0 134.5 31.5t149.5 87t148.5 130t134 158.5t107 176t65.5 180q8 38 8 68q0 54 -26 82q-41 44 -119 45q-80 0 -165 -33t-173 -106l114 463q10 58 10 91v12q-2 34 -57 34q-31 0 -51 -16.5t-33.5 -43t-22.5 -59.5t-16 -66l-239 -1046 q-17 -75 -17 -123v-14zM272 127l88 385q31 47 71 85t85 64.5t90 41t86 14.5q4 0 14.5 1t20.5 -2t15 -13.5t-1 -30.5q-12 -59 -61 -142.5t-115.5 -164t-144.5 -146t-148 -92.5z" />
<glyph unicode="c" horiz-adv-x="708" d="M104 158q0 -5 -1 -9q-1 -57 17 -102q18 -49 56.5 -78.5t99.5 -29.5q80 0 142.5 21.5t109.5 53t80 66.5t54 61l67 78q51 78 57 130q1 5 1 9q0 43 -56 43q-29 0 -47 -12t-31.5 -27.5t-21.5 -32t-13 -22.5q-16 -29 -45.5 -61.5t-68.5 -62t-85 -49t-93 -19.5q-27 0 -42.5 15 t-21.5 40t-4.5 55.5t6.5 61.5q20 88 60.5 170t89.5 145.5t101 101t97 37.5q49 0 81 -12t42 -37q22 -20 48 -20h11q32 6 54 30q24 27 24 67q0 36 -30 77q-41 47 -84 59.5t-107 12.5q-78 0 -160.5 -52.5t-156.5 -140.5t-131.5 -201.5t-83.5 -236.5q-13 -67 -15 -129z" />
<glyph unicode="d" horiz-adv-x="856" d="M104 178q4 -68 26 -118t51.5 -77.5t56.5 -27.5q115 0 186.5 21.5t113.5 45t61 41t32 9.5q-2 -39 -2 -60q0 -20 4 -30.5t16.5 -12.5t34.5 -2q53 0 72.5 37t27.5 105l25 79l231 1033q6 18 12.5 41.5t5.5 43t-12.5 34t-39.5 14.5q-59 0 -79 -43t-36 -105l-84 -368 q-14 20 -28.5 23t-30.5 3q-133 0 -239 -59.5t-183.5 -144.5t-128 -177t-70.5 -157q-23 -69 -23 -129q-1 -9 0 -19zM256 291q4 23 11 42t18 40q59 106 117.5 168.5t113.5 95.5t107.5 41t101.5 8q29 0 38 -18.5t-1 -46.5l-29 -142q-23 -96 -84 -168.5t-132 -119t-133 -64.5 q-33 -10 -55 -10q-19 0 -30 8q-29 20 -41 63q-7 23 -6 52q-1 24 4 51z" />
<glyph unicode="e" horiz-adv-x="720" d="M113 268q-20 -85 -20 -148q0 -66 22 -108q43 -82 149 -82q78 0 161 33t153.5 77t118.5 91t55 76q9 32 9 53q0 41 -32 41q-18 0 -28.5 -1t-19.5 -4t-21.5 -10t-30.5 -20q-35 -29 -73 -59.5t-77 -55t-78 -41t-75 -16.5q-10 0 -23.5 1t-26 9.5t-21.5 28t-9 55.5q2 39 8 65 l6 26q88 27 182.5 59.5t175 74.5t138 94t71.5 120q10 43 10 82q0 14 -1 27q-5 50 -26.5 86t-57 56.5t-84.5 20.5q-94 0 -183.5 -55.5t-163 -145.5t-128 -202.5t-80.5 -227.5zM311 449q27 68 67 122t83 91.5t85 59t77 21.5q45 0 60 -29.5t5 -58.5q-12 -29 -62.5 -68.5 t-111.5 -74.5q-62 -36 -120 -56q-36 -13 -59 -12q-14 0 -24 5z" />
<glyph unicode="f" horiz-adv-x="595" d="M178 7q15 -34 48 -34h7q18 2 37 14.5t33 30t22.5 40t8.5 46.5l135 598l219 54q31 14 49.5 24.5t28.5 19.5t14 22.5t8 33.5l3 2q2 11 2 21q0 26 -11 41q-10 14 -31 14q-13 0 -32 -6l-205 -35l23 113q2 14 11 49t25.5 70.5t40 63.5t58.5 28q23 0 48 -14.5t36 -31.5 q43 -20 63 -20q18 0 41 14q25 14 37 34t17.5 38t2 33.5t-11.5 23.5q-16 14 -36.5 31.5t-47 32t-59.5 25t-72 10.5q-70 0 -120 -42t-87 -108.5t-63.5 -150.5t-44.5 -166l-17 -72l-39 -20q-16 -6 -30.5 -10.5t-26.5 -12.5t-22.5 -26.5t-18.5 -51.5q-8 -31 -4 -47t15.5 -22.5 t27.5 -4t33 8.5l22 -2l-131 -570q-13 -29 -13 -54q0 -19 7 -35z" />
<glyph unicode="g" horiz-adv-x="806" d="M45 -301q-4 -17 -4 -32q0 -24 9 -44q16 -33 47.5 -54.5t76.5 -32.5t92 -11q72 0 138.5 26.5t124 81t102 137t71.5 195.5l181 789q8 35 12 62.5t-4 47t-32.5 29.5t-76.5 10q-115 0 -220 -32.5t-189 -93t-142.5 -146.5t-76.5 -193q-27 -147 -33 -233q-3 -37 -3 -67 q0 -40 5 -68q8 -50 27.5 -73.5t46.5 -43.5q14 -12 59 -6t106.5 35.5t129 83t129.5 135.5q-29 -119 -43 -179l-15 -59q-14 -61 -38.5 -109.5t-56.5 -82t-68 -51.5q-31 -15 -61 -15h-7q-37 4 -75 19.5t-56 39.5q-31 16 -42.5 19.5t-21.5 3.5h-16q-31 0 -48.5 -23.5 t-27.5 -64.5zM258 200q-1 11 -1 23q0 22 3 47q4 37 10 68l11 57q16 70 40.5 118t56.5 82t73 57.5t90 45.5q53 14 105 26q28 6 50 6q19 0 33 -5q-4 -16 -4 -43q0 -25 -4 -55.5t-14.5 -65.5t-34.5 -69q-37 -61 -89.5 -126t-106.5 -119t-102 -88t-79 -34q-18 0 -26.5 21.5 t-10.5 53.5z" />
<glyph unicode="h" horiz-adv-x="782" d="M113 10q4 -39 43 -45h7q27 0 57 30q34 34 44 99l86 373q43 39 88 79t87 72.5t78 53t63 20.5q18 0 23 -16.5t4 -39t-7 -47t-10 -40.5l-113 -449q-7 -35 -7 -61q0 -69 48 -76q4 -1 9 -1q29 0 49 24q22 28 45 110l131 563q22 90 22 144q0 27 -6 45q-16 54 -86 53 q-86 0 -178 -54t-187 -132l105 456q8 33 12 58.5t8 44.5q5 28 4 46q0 20 -5 28q-11 14 -40 14q-33 0 -54 -23.5t-36.5 -60.5t-26 -82t-20.5 -90l-231 -1012q-7 -32 -7 -61q0 -12 1 -23z" />
<glyph unicode="i" d="M107.5 21.5q1.5 -21.5 11.5 -35t36.5 -17.5t46 8.5t32 35t21.5 53t17 61.5v-2l134 584q18 70 25 109.5t5 61t-13 27.5t-32 6q-35 0 -56.5 -10t-34.5 -34.5t-22.5 -64.5t-21.5 -99l-129 -574q-6 -33 -13.5 -60.5t-6 -49zM342 1147q-5 -20 -5 -39q1 -30 13 -56 q20 -42 43 -42q61 0 100 52t54 116l4 53q5 21 5 38t-4 29q-9 28 -58 27q-51 0 -90 -40t-62 -138z" />
<glyph unicode="j" d="M-258 -340l18 -26q17 -27 41.5 -62t53 -68.5t51.5 -48.5q23 -14 47 -14q21 0 44 11q48 24 90 79t75 132t47 155l207 880q8 35 17 72t9 66q0 31 -12 49t-47 18t-55.5 -21.5t-32.5 -51t-19.5 -63.5t-15.5 -58l-197 -891q-35 -149 -74 -149q-2 0 -5 1q-27 4 -34 6t-16 13 q-16 14 -23 25.5t-13.5 21.5t-16.5 21.5t-31 25.5q-16 8 -34.5 -1t-35 -27.5t-27.5 -44t-11 -50.5zM329 1108.5q-1 -29.5 5 -54t21.5 -41t41.5 -16.5q59 0 107.5 51.5t64.5 151.5v35q10 37 -2 60.5t-71 23.5q-20 0 -45 -11.5t-47.5 -31t-41 -48t-26.5 -63.5q-6 -27 -7 -56.5 z" />
<glyph unicode="k" horiz-adv-x="645" d="M116 19.5q3 -21.5 13 -36t33 -14.5q53 0 75.5 42t32.5 102l72 295l145 -349q0 -12 7.5 -29.5t18.5 -33.5t22.5 -28.5t21.5 -14.5q20 -4 40.5 9t34.5 38q13 26 15 58v7q0 29 -14 60l-152 389l252 229q41 29 58.5 46.5t27.5 52.5l2 -2q2 12 1 34.5t-7 41t-18.5 27.5 t-32.5 -3q-35 -23 -55.5 -39t-57.5 -43l-256 -231l131 608q6 27 10.5 51.5t0 42t-18.5 26.5t-43 5q-33 -6 -50 -19.5t-27.5 -34t-16.5 -49t-14 -63.5l-242 -1081q-6 -23 -9 -47.5t0 -46z" />
<glyph unicode="l" d="M123 2q12 -38 47 -33q43 2 61.5 42t38.5 106v2l248 1075q8 35 16.5 67.5t8.5 55.5q0 25 -12.5 38t-43.5 11q-27 -2 -45 -18.5t-31.5 -41t-21.5 -54t-14 -58.5l-252 -1088q-6 -33 -6 -59t6 -45z" />
<glyph unicode="m" horiz-adv-x="1157" d="M114 32q3 -38 44 -50q10 -3 19 -3q33 -1 51 33q24 42 38 101l111 413q33 29 77 60.5t86 59.5t74.5 45.5t42.5 17.5t9.5 -7.5t-2.5 -19.5l-132 -563q-11 -53 -11 -84q0 -15 3 -25q8 -28 56 -39q20 -4 36.5 12.5t28.5 41t20.5 51t10.5 43.5l102 420q43 51 92.5 84.5 t92.5 54t72.5 29t33.5 8.5q10 0 9 -9.5t-5 -23.5l-131 -582q-5 -29 -5 -51q0 -64 42 -74q5 -1 10 -1q56 0 96 143v-4l154 665q5 22 5 48q0 9 -1 18q-2 37 -19.5 63.5t-49.5 33.5q-6 1 -14 1q-30 0 -73 -24q-49 -31 -106 -64t-150 -86l11 84q4 31 3 49.5t-7.5 27.5t-17.5 12 t-25 5q-5 1 -9 1q-27 -1 -65 -19q-45 -22 -97.5 -55t-107.5 -70t-106 -64l12 60q9 27 9 46q0 13 -4 23q-11 24 -42 25q-37 0 -63.5 -23.5t-45.5 -89.5l-151 -661q-12 -40 -12 -73q0 -7 1 -14z" />
<glyph unicode="n" horiz-adv-x="770" d="M111 57q-6 -35 4 -61.5t43 -22.5q25 2 44 16.5t32.5 33t20.5 39t7 36.5l127 494q47 43 94 68.5t87 39t67 16.5t33 3q18 0 18 -21q0 -20 -4 -30l-129 -568q-12 -49 -12 -76q0 -16 4 -24q10 -24 51 -27h8q34 0 58 32q26 36 34 101l21 93l133 577q5 22 5 41q-1 40 -23 68 q-34 41 -76 41q-27 0 -71 -14.5t-92 -33t-92 -37t-69 -26.5l4 37q-2 14 2 35q4 27 -1 39t-50 2q-47 -8 -73.5 -44t-34.5 -85l-58 -248q-10 -49 -16 -77t-15.5 -66.5t-25.5 -105t-43 -196.5q-4 -12 -7 -24t-5 -25z" />
<glyph unicode="o" horiz-adv-x="802" d="M104 164q0 -4 -1 -8q-1 -59 19 -106q20 -50 62.5 -80.5t114.5 -30.5q88 0 179 47t169 128t138 187t87 227q18 74 20 146v10q0 64 -18 116q-18 56 -59 90t-106 34q-109 0 -206 -59.5t-175 -151.5t-132.5 -204t-76.5 -214q-13 -67 -15 -131zM256 231.5q2 32.5 8 63.5 q18 70 53 147.5t85.5 142t114 106.5t138.5 42q33 0 52.5 -17.5t26.5 -47.5q5 -21 5 -44q0 -10 -1 -22q-3 -37 -11 -74q-18 -80 -58 -154.5t-93.5 -132t-115 -92t-122.5 -34.5q-33 0 -51.5 16t-25.5 42t-5 58.5z" />
<glyph unicode="p" horiz-adv-x="813" d="M-18 -562q2 -32 30 -32q6 0 15 2q47 12 72.5 41t39.5 92l97 426q4 -2 18 -2h25q14 0 26 1t21 1q74 0 163 55.5t171.5 146.5t149 209t95.5 245q18 77 18 138q0 54 -15 94q-31 85 -138 85q-74 0 -153.5 -23.5t-172.5 -89.5q6 25 6 44q0 26 -12 39q-20 22 -57 18 q-25 -4 -43.5 -20.5t-30.5 -38t-20 -44t-11 -39.5l-4 -24l-276 -1213q-14 -62 -14 -101v-10zM295 184l94 408q4 18 33 42.5t73 47.5t99 39t111 16q41 0 54 -31q6 -14 6 -34q0 -22 -7 -49q-20 -90 -68.5 -177.5t-109 -156t-125 -111.5t-117.5 -43q-25 0 -37 10.5t-6 38.5z " />
<glyph unicode="q" horiz-adv-x="817" d="M119 57q33 -92 135 -92q188 0 348 148l-141 -609q-8 -33 -8 -55.5t8 -33.5q16 -23 45 -23q20 0 64 19.5t90.5 48t84 63.5t46.5 65l16 47q3 15 3 26q0 27 -16 37q-8 5 -17 5q-19 0 -44 -20l-94 -48l268 1174q6 33 -9 54.5t-42 32.5t-56.5 15t-49.5 4q-84 0 -179.5 -40.5 t-183.5 -117.5t-158.5 -190.5t-103.5 -257.5q-21 -87 -21 -153q0 -57 15 -99zM261 205.5q-3 23.5 1 54.5t12 62q25 104 72 177.5t100.5 122t104.5 73t82 32.5q14 4 34.5 10t37.5 6q18 0 28 -10t4 -37q-6 -31 -15 -73.5t-20.5 -91t-24.5 -93.5t-28 -78q-16 -39 -51 -76.5 t-82 -66.5t-100.5 -47t-102.5 -18q-25 0 -37 15t-15 38.5z" />
<glyph unicode="r" horiz-adv-x="579" d="M115 21.5q2 -21.5 12 -36t31 -12.5q6 2 14 2h14q23 0 40.5 28t39.5 116l131 502q20 12 34.5 25t32 25.5t43 24t68.5 19.5q90 14 134.5 28.5t64 31t23.5 35.5t12 42l-18 70q-35 18 -70 18t-103 -22q-37 -12 -52 -17.5t-29.5 -12.5t-34 -18.5t-64.5 -35.5q-2 49 -8 66.5 t-35 17.5q-66 0 -89 -32t-27 -93l-154 -674q-6 -23 -9 -49.5t-1 -48z" />
<glyph unicode="s" horiz-adv-x="798" d="M66 147q-8 -21 -8 -41q0 -22 10 -42q18 -38 53 -66.5t80 -44.5t86 -16q82 0 171 36.5t166.5 101t136 148.5t81.5 180q8 38 8 70q0 15 -2 29q-6 42 -23.5 70t-43 40.5t-54.5 12.5q-53 0 -112.5 -18.5t-112.5 -42t-95 -42t-61 -18.5q-27 0 -29 11t0 24q8 39 41 76.5 t83.5 68.5t115 49.5t139.5 18.5q2 0 14.5 -2t30.5 -2t40 2t36 8q27 12 43.5 39.5t14 57.5t-27 51.5t-79.5 21.5q-84 0 -178 -27t-179 -79t-150.5 -130t-92.5 -182q-6 -31 -6 -66q0 -33 12 -61.5t38 -47t73 -18.5q43 0 94 19.5t102 42t97.5 42t76.5 19.5q18 0 29.5 -15 t5.5 -42q-10 -47 -47 -96t-89 -90t-112.5 -67t-117.5 -26q-27 0 -56.5 23t-70.5 74q-12 12 -31 17t-38 -1t-36.5 -23.5t-25.5 -46.5z" />
<glyph unicode="t" horiz-adv-x="669" d="M191 22q2 -26 13 -41.5t29.5 -20.5t36.5 -5q49 0 95.5 17.5t87.5 42t74.5 53t58.5 51.5l37 47q4 21 4 38q-1 20 -7 34q-12 26 -36.5 32t-55 -6t-57.5 -39q-10 -14 -33.5 -37.5t-56.5 -23.5q-10 0 -15.5 6t-0.5 27l129 565l198 37q61 23 84 43t27 51q4 23 6 42t-6 30.5 t-27.5 13.5t-58.5 -10l-182 -33l26 117q10 61 10 96t-43 39h-9q-77 0 -101 -135l-33 -148l-90 -18q-43 -16 -60.5 -43t-25.5 -64q-1 -7 -1 -13q0 -46 77 -46l61 14l-147 -641q-8 -38 -8 -62v-10z" />
<glyph unicode="u" horiz-adv-x="782" d="M137 172q-12 -52 -12 -92q0 -44 15 -72q28 -53 98 -53q45 0 100 15.5t103 34t80 33.5l32 15q-7 -25 -7 -42q0 -19 9 -27q16 -16 45 -17q45 0 80 29q31 26 31 89v15l157 693q28 75 28 110q0 9 -2 15q-9 32 -50 28t-68.5 -39t-54.5 -114l-121 -533q-23 -18 -52.5 -39.5 t-63 -41t-67.5 -32t-61 -12.5q-23 0 -49 7.5t-20 39.5l139 592q15 45 15 80q0 10 -1 20q-6 42 -45 44q-27 2 -48 -11.5t-36.5 -34t-25 -46t-9.5 -46.5z" />
<glyph unicode="v" horiz-adv-x="628" d="M186 401q4 -43 5.5 -116.5t4.5 -144t12 -124t34 -55.5h6q32 0 60 38q30 42 59 95q14 25 46.5 77t75.5 119.5t92.5 143.5t92.5 147.5t78 133t51 100.5q13 35 13 61q0 9 -1 16q-6 30 -43 30q-20 0 -34.5 -4.5t-27 -14.5t-25.5 -28.5t-32 -47.5q-25 -39 -66.5 -107.5 t-88.5 -145t-94.5 -153.5t-79.5 -132q7 109 7 198v22v37q0 69 3 105q2 14 3 47t1 66v63v37q-6 43 -21.5 45t-37.5 2q-25 0 -42.5 -12t-28.5 -28.5t-16.5 -35t-5.5 -30.5q2 -57 2 -105v-94v-94t-2 -111z" />
<glyph unicode="w" horiz-adv-x="921" d="M121 66q4 -59 9 -80t22 -21h28q20 0 34.5 6t34 34t50.5 81t82 150q8 12 52 84.5t97 181.5q-1 -37 -1 -75.5t1 -78.5q2 -80 6.5 -149.5t8.5 -118.5t6 -62q2 -35 7 -49t13.5 -18t20.5 -3t28.5 -1t36 19.5t38 54t34.5 67.5t29 59l313 586q47 72 57 116q2 7 1 14q0 35 -42 59 q-25 16 -44 9t-37.5 -33t-38 -64.5t-43.5 -88.5q-35 -68 -68 -136t-63.5 -130.5t-58 -115t-50.5 -84.5v43q0 41 -1 105.5t-2 130t-1 118.5v72q2 33 2 57t-2 39q-4 30 -37 30l-8 2q-8 3 -22.5 -5.5t-36 -34t-52.5 -80.5q-16 -35 -52 -102.5t-76 -139.5t-72.5 -133.5 t-40.5 -79.5q8 61 17 131t16.5 133.5t14.5 114.5t11 78q4 35 9 67.5t3.5 58t-12 40t-37.5 12.5q-47 -4 -68.5 -40t-33.5 -134q-2 -16 -8.5 -70.5t-15.5 -129.5t-19 -157.5t-18.5 -154.5t-14.5 -123t-6 -61z" />
<glyph unicode="x" horiz-adv-x="634" d="M20 28q-1 -6 -1 -10q0 -45 47 -45q25 0 41 8.5t28 19.5t22.5 23.5t22.5 22.5q18 20 53 64.5t70 89.5t61 77l25 33q16 -31 33.5 -73.5t28.5 -77.5q6 -16 15 -39t18.5 -45.5t16.5 -40t11 -23.5q23 -29 45.5 -34t43 4.5t35.5 31t21 45.5q-6 31 -11 49.5t-9 31t-8 20.5t-6 20 q-6 20 -19.5 57t-30 78t-34 80t-31.5 66l24 29l60 72t71.5 86t61.5 73q25 33 47.5 61.5t34.5 52t11 42t-21 32.5q-18 14 -45 15q-29 0 -65 -39t-71 -86l-180 -217q-10 20 -17 37.5t-15.5 38t-19.5 48t-26 68.5q-14 27 -21 55.5t-18 50t-28 32t-49 -0.5q-33 -12 -48.5 -33.5 t-18.5 -47t4 -51t20 -46.5q23 -51 39 -89t29.5 -71.5t24.5 -66.5t23 -72l-25 -30q-26 -31 -59.5 -73t-68.5 -85t-56 -68q-80 -94 -86 -150z" />
<glyph unicode="y" horiz-adv-x="708" d="M-59 -420q6 -14 24.5 -20t43 -8.5t51 -1.5t51.5 1q49 0 91 25t78.5 66t68.5 94t61 112l434 897q14 29 25.5 57.5t13.5 51.5t-10.5 37t-45.5 14q-45 0 -63.5 -21.5t-38.5 -62.5l-274 -588l-97 560q-2 18 -4 39.5t-9 37t-22.5 21.5t-46.5 -4q-43 -16 -62 -57 q-13 -27 -13 -64q0 -21 4 -45l131 -719l-45 -96q-6 -14 -19.5 -43t-32 -57.5t-41 -50t-47.5 -21.5q-20 0 -54 8q-18 4 -36 4q-16 0 -31 -3q-34 -7 -58.5 -42t-26.5 -121z" />
<glyph unicode="z" horiz-adv-x="710" d="M41 -2q0 -14 10 -20.5t35 -5.5t72 5l368 9q4 -6 17.5 -8.5t29.5 -2.5t28.5 2.5t19.5 6.5q37 20 55 46.5t22 75.5q2 25 -11 34.5t-34.5 11.5t-47 -1.5t-50.5 -3.5h-260l479 570q43 41 57.5 62t18.5 50q8 33 -1 49.5t-30.5 21.5t-50.5 3t-61 -4l-355 -8q-25 0 -44 -1 t-34.5 -9.5t-28 -25.5t-22.5 -50q-6 -19 -6 -34q1 -23 13 -35q20 -22 44 -21q26 -1 51 -1h25q37 1 76 4t85 6t103 3l-452 -539q-53 -53 -87 -85.5t-34 -61.5v-43z" />
<glyph unicode="{" horiz-adv-x="761" d="M230.5 665.5q9.5 -32.5 48.5 -32.5q47 0 73.5 -11.5t35.5 -36t4 -64.5t-19 -95q-29 -119 -64 -228.5t-51 -177.5q-23 -88 -24 -150.5t24 -97t77 -39.5t136 21q14 4 31.5 9.5t35 16.5t32 29.5t22.5 49.5q6 18 5 37.5t-9 33t-22.5 16.5t-35.5 -9q-41 -25 -68.5 -28 t-41.5 10t-17.5 40t7.5 61q16 68 45.5 163.5t64.5 242.5q20 92 21 160q0 68 -39 133q45 35 77.5 81t58.5 106.5t46.5 134t42.5 163.5q10 45 25.5 94.5t36 90.5t48 68.5t62.5 27.5q14 0 29.5 -1t28 5t23.5 22.5t21 51.5q12 57 -1 72.5t-42 15.5q-68 0 -127 -39t-107 -101.5 t-84 -143.5t-56 -163q-23 -90 -40.5 -157.5t-41 -113.5t-59 -69.5t-95.5 -23.5q-41 0 -70.5 -33t-43 -71t-4 -70.5z" />
<glyph unicode="|" horiz-adv-x="342" d="M38 -228.5q1 -25.5 11 -41t25.5 -21.5t29.5 -6q27 0 53.5 35t43.5 104l-2 -2l366 1473q4 29 19.5 81t25.5 101q8 49 2 82t-43 25q-35 -10 -55 -26.5t-34.5 -46.5t-26 -76t-27.5 -116l-375 -1499q-14 -41 -13 -66.5z" />
<glyph unicode="}" horiz-adv-x="761" d="M76 -164q-14 -59 5 -80.5t46 -21.5q53 0 107.5 34.5t102.5 91t86 128t56 147.5l47 203q6 27 20.5 70t39 83.5t60.5 70.5t85 30q41 0 69.5 27.5t39 60.5t-2 60.5t-51.5 27.5l-34 6q-12 8 -26.5 12.5t-24 17.5t-11.5 41.5t8 88.5q16 92 46 201.5t69 220.5q18 55 22.5 109.5 t-8 99.5t-44 72.5t-85.5 27.5q-41 0 -71.5 -3t-69.5 -15q-29 -8 -49.5 -37t-26.5 -60q-4 -31 7.5 -55.5t46.5 -24.5q27 0 58.5 8.5t60 0t29.5 -38t-9 -58.5q-41 -123 -74 -243.5t-51 -218.5q-14 -86 -8 -144.5t37 -89.5q-78 -51 -123 -141t-74 -207l-47 -203 q-6 -25 -16.5 -55.5t-24.5 -57t-34.5 -46t-47.5 -23.5q-55 -8 -90 -42t-45 -75z" />
<glyph unicode="~" horiz-adv-x="755" d="M358 1120q-8 -33 6.5 -57.5t47.5 -24.5q18 0 38.5 19.5t40 44t40 44t38.5 19.5q16 0 25.5 -22.5t23 -48t36 -48t65.5 -22.5q45 0 83 12.5t68.5 41t55.5 78.5t43 128q4 20 -7.5 38.5t-31 25t-43 -5t-43.5 -48.5q-4 -12 -9.5 -32.5t-14.5 -40t-21.5 -33.5t-30.5 -14 q-27 0 -38 24.5t-21.5 55t-28.5 55t-57 24.5q-31 0 -73 -18.5t-82 -49t-70.5 -68.5t-39.5 -77z" />
<glyph unicode="&#xa1;" d="M14.5 -356q8.5 -41 46.5 -41q33 0 54.5 19.5t35 47t19.5 58t8 55.5l178 725q25 74 28 124t-42 50q-49 0 -81 -47t-48 -121l-180 -711q-4 -16 -8.5 -32.5t-8.5 -32.5q-10 -53 -1.5 -94zM286 796q11 -32 58 -32t89 49t59 121q12 37 1.5 73.5t-51.5 36.5q-55 0 -91.5 -32.5 t-63.5 -132.5q-12 -51 -1 -83z" />
<glyph unicode="&#xa2;" horiz-adv-x="739" d="M169.5 405.5q6.5 -67.5 31 -113.5t64.5 -69.5t87 -23.5h21l-29 -140q-12 -49 -16 -74.5t0 -36.5t17 -13.5t34 -2.5q27 0 41 9.5t22.5 28t13.5 44t13 58.5l43 170q37 12 78 36.5t79 53t71.5 59.5t58.5 53q25 27 43 60t25 61.5t3 48t-22 19.5q-2 0 -20.5 2t-54.5 -11.5 t-73 -56.5q-14 -23 -54 -63.5t-87 -65.5l125 518l20 8q19 7 37 7q10 0 26.5 -5t32 -10.5t29 -10.5t19.5 -5q55 -10 77.5 13.5t32.5 58.5l3 28q16 70 -16 90.5t-85 20.5q-63 0 -89 -2t-42 -6l21 92q2 14 10 39.5t11 52.5t-4 46.5t-34 19.5q-33 0 -50 -10.5t-26.5 -30 t-15.5 -48t-16 -63.5l-35 -149q-147 -66 -249.5 -195t-154.5 -334q-23 -90 -16.5 -157.5zM338 582q29 117 76 186.5t125 118.5l-121 -506h-12q-45 0 -67 57.5t-1 143.5z" />
<glyph unicode="&#xa3;" horiz-adv-x="888" d="M128 484.5q9 -35.5 46 -35.5q14 0 59 22h109q-27 -78 -54.5 -155.5t-56.5 -159.5q-10 -35 -17 -68t-7 -57q0 -23 13 -36t44 -11q37 4 58.5 35.5t35.5 72.5q20 -18 49 -37.5t61 -37t65.5 -30t66.5 -16.5q80 -10 138.5 18.5t98.5 78t64.5 109t33.5 110.5t7 86t-14 33 q-18 -2 -33.5 -8.5t-27 -19.5t-20.5 -38t-18 -66q-8 -45 -29.5 -70.5t-50 -37.5t-63.5 -15.5t-68 -3.5t-62.5 12.5t-57 30t-53 36t-48.5 30.5q20 59 39 111.5t37 103.5h221q14 -10 21.5 -11t11.5 -1q41 0 71.5 34.5t43 75.5t2.5 76t-53 35q-23 0 -37 -9l-13 -9h-211 q12 47 24.5 99t23.5 116h208q10 -10 21.5 -12.5t21.5 -2.5q41 0 67 29t36 78q12 45 3 81.5t-44 36.5q-23 0 -39 -10l-16 -10h-230q4 41 9.5 84t11.5 92q12 66 -0.5 103.5t-48.5 33.5q-41 -2 -59.5 -42t-41.5 -105v-2q2 -43 0 -83t-4 -81h-100q-10 12 -24.5 14t-20.5 2 q-39 0 -65.5 -35.5t-36 -77.5t0 -78t43.5 -36q35 0 54 21h122q-10 -55 -21 -108.5t-26 -106.5h-127q-8 10 -19 12t-22 2q-37 0 -63.5 -36t-37.5 -78t-2 -77.5z" />
<glyph unicode="&#xa5;" horiz-adv-x="937" d="M179 181q9 -36 46 -36q16 0 58 23h147l-8 -37q-16 -68 -14 -115t43 -43q53 6 76.5 49.5t35.5 96.5l12 49h168q16 -10 23.5 -11t11.5 -1q41 0 72 34.5t43 75.5t1 76t-54 35q-23 0 -35 -9l-12 -10h-170l51 215h164q10 -10 21 -12t22 -2q41 0 66.5 28.5t35.5 78.5 q10 45 2 81.5t-43 36.5q-23 0 -39 -10l-16 -10h-78l365 383q35 45 48 72.5t13 44.5q0 16 -10.5 27.5t-20.5 21.5q-14 12 -30.5 8t-34 -16.5t-37 -30t-41.5 -31.5l-391 -414l-176 371q-20 66 -38 110t-40.5 37.5t-46 -20.5t-38 -38.5t-14.5 -59.5t23 -82l154 -383h-70 q-10 12 -24.5 14t-20.5 2q-39 0 -65.5 -35.5t-36 -77.5t0 -78t44.5 -36t53 20h151l-49 -215h-153q-8 10 -19.5 12.5t-21.5 2.5q-37 0 -63.5 -36t-38 -78t-2.5 -78z" />
<glyph unicode="&#xa6;" horiz-adv-x="342" d="M35 -267.5q2 -25.5 12 -41t25.5 -21.5t29.5 -6q27 0 52.5 35t42.5 104l-2 -2l106 432q4 29 19.5 81.5t25.5 101.5q8 49 2 81.5t-43 24.5q-35 -10 -55.5 -26.5t-34.5 -46t-25.5 -75.5t-27.5 -116l-115 -459q-14 -41 -12 -66.5zM298 812q1 -26 12.5 -41t26.5 -21.5t30 -6.5 q27 0 52 35t42 105l-2 -2l106 432q4 29 19.5 81t25.5 101q8 49 2 82t-43 25q-35 -10 -55 -26.5t-34.5 -46.5t-26 -76t-27.5 -116l-115 -458q-14 -41 -13 -67z" />
<glyph unicode="&#xa7;" horiz-adv-x="641" d="M195 856q-6 -33 8 -65.5t30 -32.5h11q23 8 53.5 18t60 18.5t56 14.5t43.5 8l2 -10q-4 -35 -10.5 -63.5t-10.5 -51.5q-16 -84 -2.5 -119.5t53.5 -35.5q35 0 60.5 28.5t30.5 50.5q-2 35 0 54.5t6 44.5q2 16 7 44.5t13 57.5h119q25 0 45.5 33t24.5 59q6 29 -2.5 46.5 t-23.5 25.5t-36.5 10t-44.5 2l-24 13q16 59 48.5 143t67.5 168l15 35q-4 10 -9.5 25.5t-13.5 29.5t-17.5 24.5t-19.5 10.5q-25 -12 -72 -54t-105 -98.5t-120.5 -121t-115 -126t-88 -111.5t-39.5 -75zM340 922q49 61 87 103t65.5 69.5t47 46t33.5 33.5l19 -17 q-14 -33 -26.5 -77t-26.5 -95q-57 -4 -104.5 -24.5t-94.5 -38.5z" />
<glyph unicode="&#xa8;" horiz-adv-x="688" d="M348 1130.5q2 -24.5 11.5 -45t23.5 -34t35 -13.5q25 0 46 14.5t38.5 36t29 46t17.5 47.5q4 18 7 42.5t0 45t-14.5 35t-35.5 14.5q-27 0 -52.5 -13.5t-46 -34t-36 -46t-21.5 -47.5q-4 -23 -2 -47.5zM642 1138.5q3 -24.5 11.5 -45t22.5 -33.5t33 -13q27 0 49 14t38.5 35.5 t28 47t15.5 48.5q6 18 9 41.5t0 44t-15.5 35t-38.5 14.5q-25 0 -50.5 -13.5t-46 -33.5t-35 -46t-18.5 -48q-6 -23 -3 -47.5z" />
<glyph unicode="&#xa9;" horiz-adv-x="1124" d="M148 263q-3 -128 30 -217t97.5 -137t160.5 -48q121 0 247 72.5t236.5 198.5t198.5 294t135 358q33 139 45.5 272.5t-9 238t-85 169t-184.5 64.5q-88 0 -178 -47t-176 -126t-163 -180.5t-139.5 -210t-107.5 -215t-66 -196.5q-39 -162 -42 -290zM275.5 315.5 q7.5 100.5 35.5 221.5q18 78 58.5 172t94.5 189t118.5 185.5t135 160t142.5 111.5t139 42q84 0 126 -54.5t52.5 -140.5t-3.5 -193.5t-41 -211.5q-39 -162 -111 -307.5t-163 -256t-195.5 -175t-204.5 -64.5q-72 0 -115 39t-59.5 110.5t-9 172zM393 434q0 -53 15.5 -96 t49.5 -68.5t87 -25.5q70 0 124 18.5t96 46t69.5 58t46.5 55.5l59 67q43 68 49 113t-47 45q-25 0 -41 -10t-27.5 -24.5t-18.5 -28t-9 -19.5q-14 -25 -41 -53.5t-61.5 -54t-74.5 -43t-81 -17.5q-23 0 -36 13.5t-19.5 35t-5.5 48t8 53.5q18 78 53 149.5t77 127t88 88t85 32.5 q41 0 69.5 -10t38.5 -33q25 -20 53.5 -16t47 25.5t20.5 54t-29 69.5q-35 43 -72.5 53.5t-93.5 10.5q-68 0 -139 -46t-136 -122t-116 -176.5t-75 -206.5q-12 -57 -13 -113z" />
<glyph unicode="&#xaa;" horiz-adv-x="569" d="M105 508.5q-1 -21.5 16.5 -39.5t56.5 -18q16 0 39 -7.5t43 9.5l207 2l106 2q35 0 57.5 18.5t24.5 40t-18.5 39.5t-69.5 18q-18 0 -42.5 3.5t-43.5 -5.5h-213q-2 2 -18 2q-14 0 -32.5 -3t-29.5 -3q-39 0 -60.5 -18.5t-22.5 -40zM204 827.5q1 -34.5 12 -65.5t29.5 -51.5 t43.5 -20.5q39 0 81 13.5t79.5 30t69.5 33.5t52 28q-8 -41 -11 -63.5t40 -22.5q61 0 76 96v2l98 428q10 49 6 81t-16 50t-31.5 24.5t-40.5 6.5q-66 0 -142.5 -20.5t-146.5 -73.5q-14 -10 -31.5 -20.5t-27.5 -47.5q-8 -33 5 -40t33.5 -3t41 15.5t27.5 15.5q53 18 99 39.5 t93 21.5q10 0 24.5 -4t10.5 -31l-21 -80q-166 -10 -285.5 -75.5t-160.5 -202.5q-8 -29 -7 -63.5zM301 891q8 33 41 62.5t81 52t103.5 39t108.5 24.5l-17 -115q0 -4 -32.5 -30.5t-78.5 -56t-94 -51t-81 -11.5q-2 0 -11.5 6t-17.5 26.5t-2 53.5z" />
<glyph unicode="&#xab;" horiz-adv-x="704" d="M178 700q-4 -33 3 -45t18 -22l153 -260q10 -20 19.5 -34.5t29.5 -19.5h13q10 0 20 13.5t25 52.5q8 23 5 44.5t-32 55.5l-115 199l170 135q41 25 54.5 57.5t11.5 41.5q-4 37 -12.5 49t-24.5 14q-18 2 -49 -18l-219 -179q-25 -10 -44.5 -32.5t-25.5 -51.5zM459 666 q-4 -33 4 -45.5t18 -22.5l152 -260q10 -20 19.5 -34.5t29.5 -18.5h12q10 0 20.5 13t24.5 52q10 23 6 44.5t-30 56.5l-117 198l170 135q41 25 55.5 57.5t10.5 41.5q-4 37 -12.5 49t-24.5 14q-18 4 -47 -18l-222 -178q-25 -10 -44 -33t-25 -51z" />
<glyph unicode="&#xac;" horiz-adv-x="1458" d="M37 58q2 -17 12 -33q14 -18 22.5 -29.5t18.5 -24.5q8 -10 21.5 -16t50.5 6q47 12 99 25.5t101 25.5q25 6 28 12.5t3 28.5q-2 18 -4 37t-8 35q-10 18 -18.5 24.5t-28.5 4.5q-35 -4 -66.5 -8.5t-66.5 -10.5q25 63 50 133t51 137.5t50.5 130t46.5 113.5q8 20 6 31.5 t-16 26.5q-37 29 -80 43q-20 8 -30.5 3t-20.5 -28q-27 -61 -58.5 -145t-61 -172.5t-55.5 -169t-42 -138.5q-6 -25 -4 -42zM315 877q-12 -41 3.5 -58.5t44 -30t48 -17.5t25.5 24q25 74 52.5 153.5t56 161.5t58.5 163t56 152q33 4 64.5 7.5t56.5 7.5q20 4 24.5 10t4.5 25 q-4 23 -8 43t-15 38q-6 10 -13 15.5t-30 5.5q-39 -2 -88 -7t-101 -11.5t-103.5 -14.5t-92.5 -16q-12 -4 -17 -10.5t-1 -24.5q4 -16 9 -43t18 -45q10 -16 19 -20.5t28 1.5q14 4 31.5 7.5t39.5 7.5q-23 -59 -47 -130t-46.5 -142.5t-43 -138t-33.5 -113.5zM410 14.5 q6 -12.5 20 -28.5q10 -8 19.5 -14.5t17.5 -12.5q18 -8 26.5 -5t18.5 21q16 33 33.5 67t42.5 73q45 16 102.5 25.5t110.5 19.5q-4 -41 -6 -75t-7 -65q0 -29 5.5 -40t21.5 -17q16 -10 33.5 -11t36.5 -1q18 0 25.5 7t11.5 26q10 86 22 181t25.5 185t27 171t25.5 141q4 25 0 38 t-25 23q-27 10 -56.5 19.5t-82.5 13.5q-31 4 -48 -9.5t-34 -35.5q-41 -61 -89 -144.5t-96 -171.5t-93 -173t-76 -152q-18 -43 -12 -55.5zM412 477q-14 -33 14 -41q10 -2 24.5 -4t24.5 2q24 0 53 29q23 27 54.5 78t52.5 92q4 12 6 20.5t2 12.5q4 16 -4 32q-8 10 -17.5 21.5 t-19.5 21.5q-27 25 -47 -10q-14 -27 -33.5 -61.5t-39 -69.5t-39 -67.5t-31.5 -55.5zM642 833.5q5 -14.5 20 -24.5q12 -12 31.5 -19.5t35.5 -13.5q29 -10 39 21q16 49 34.5 109.5t45.5 127.5q29 6 60.5 11.5t60.5 11.5q-16 -55 -29.5 -101.5t-21.5 -83.5q-16 -37 -1 -54 t44 -30q29 -10 48 -15t25 24q27 82 57.5 174t63.5 182t63.5 172t55.5 145q6 20 5 31.5t-17 26.5q-37 35 -74 45q-18 6 -28.5 3t-20.5 -30q-29 -68 -57.5 -155.5t-61.5 -180.5q-29 -4 -56.5 -6t-60.5 -6q31 78 53.5 143.5t44.5 112.5q6 23 4.5 34t-18.5 25q-16 16 -36.5 27.5 t-39.5 20.5q-20 8 -30.5 4t-18.5 -31q-23 -68 -49.5 -155t-55 -176t-56 -174t-54.5 -152q-10 -29 -5 -43.5zM686 293q49 86 93 164t83 139q-10 -68 -21.5 -139.5t-19.5 -145.5q-37 -4 -68.5 -8t-66.5 -10zM960 78.5q5 -15.5 15 -39.5q16 -23 30.5 -38t36.5 -28 q18 -18 34 -19t50 9q53 18 123 54t117 83q29 29 46.5 61t19.5 75q2 35 -11.5 67.5t-36.5 50.5q23 16 43.5 32.5t36.5 33.5q39 35 65.5 77t22.5 91q0 45 -12 76.5t-33 60.5q-20 31 -66 39t-101.5 2t-113 -25.5t-102.5 -44.5q-14 -63 -34.5 -138t-43 -149.5t-44 -146.5 t-35.5 -131q-12 -37 -7 -52.5zM1098 115q14 39 27.5 75.5t25.5 75.5q63 27 98 20t37 -28q2 -33 -51 -75t-137 -68zM1149 920q-14 -47 6 -80q10 -18 21.5 -29.5t21.5 -24.5q8 -10 22.5 -15t49.5 5q45 10 97 23.5t101 25.5q20 6 26.5 13.5t2.5 27.5l-4 36t-6 38q-8 33 -49 27 q-35 -4 -68 -7.5t-70 -13.5q14 29 23.5 56.5t19.5 56.5q45 12 91.5 21.5t91.5 19.5q20 6 26.5 12t1.5 29q-2 18 -4 35.5t-6 35.5q-8 29 -45 27q-47 0 -86 -8q18 47 34.5 89t33.5 79q49 10 93 15t87 11q18 4 24.5 10.5t6.5 28.5q0 35 -8.5 70t-43.5 35q-78 -4 -161 -22 t-142 -36zM1208 420q31 92 64 164q63 33 103 35t42 -21q2 -14 -13 -36.5t-43 -48.5t-67 -50.5t-86 -42.5z" />
<glyph unicode="&#xad;" horiz-adv-x="591" d="M161 567q-5 -35 10 -64.5t54 -29.5q16 0 39 -7t43 9l207 2l107 2q35 0 59.5 30t30.5 64.5t-12.5 64.5t-67.5 30q-18 0 -43 3t-43 -5h-211q-4 2 -19 2q-16 0 -34.5 -3t-26.5 -3q-41 0 -64.5 -30t-28.5 -65z" />
<glyph unicode="&#xae;" horiz-adv-x="786" d="M207 696.5q14 -78.5 49 -128.5t85 -74.5t99 -24.5q61 0 140 33t156 103.5t140.5 180t90.5 265.5q25 135 2 218t-67 130t-96 63.5t-89 16.5q-82 0 -164 -52.5t-151.5 -137.5t-121 -192.5t-69.5 -215.5q-18 -106 -4 -184.5zM279.5 739.5q-11.5 59.5 3.5 141.5q16 92 58 182 t99.5 160.5t125 114.5t134.5 44q23 0 64 -12t75.5 -48t54 -101.5t1.5 -169.5q-23 -129 -75 -220.5t-115.5 -150.5t-129 -87t-116.5 -28q-39 0 -77 18.5t-64.5 57.5t-38 98.5zM391 707q-4 -23 5.5 -34t25.5 -11q20 0 41.5 16t25.5 47l17 86l76 -35q31 -20 54 -32.5t43.5 -9.5 t37 24.5t31.5 64.5q-39 18 -65 30.5t-45.5 22t-36 17.5t-34.5 18q37 18 73 42t66.5 52.5t52 63.5t29.5 76q10 55 -7 91t-56 36q-18 2 -50 -1t-68 -15.5t-70.5 -36t-61.5 -60.5q-16 -84 -25.5 -132t-13.5 -77q-6 -29 -10 -49t-8 -43zM539 995l18 109l27 12q29 12 55.5 22.5 t44.5 10.5q10 0 11 -7.5t-1 -15.5q-4 -29 -41 -57.5t-78 -50.5q-10 -6 -18 -12.5t-18 -10.5z" />
<glyph unicode="&#xaf;" horiz-adv-x="591" d="M258 1159q-4 -35 11.5 -64.5t52.5 -29.5h374q37 0 61.5 29.5t30 64.5t-12 64.5t-66.5 29.5q-121 2 -191 2h-104q-35 0 -46.5 -1t-17.5 -1q-41 0 -64.5 -29.5t-27.5 -64.5z" />
<glyph unicode="&#xb0;" horiz-adv-x="389" d="M255 1034.5q-1 -28.5 8 -51t27.5 -36t51.5 -13.5q39 0 79 21.5t75.5 57.5t61.5 83t38 100q18 68 2 123t-74 55q-49 0 -92 -26.5t-78 -68.5t-58.5 -91t-33.5 -94q-6 -31 -7 -59.5zM376 1076.5q-3 17.5 1 38t14 43t25.5 41t34 30.5t41.5 12q20 0 22 -18t-2 -41 q-12 -47 -45 -85t-70 -38q-18 0 -21 17.5z" />
<glyph unicode="&#xb1;" horiz-adv-x="641" d="M103.5 230.5q-7.5 -25.5 2 -46t37.5 -20.5q10 0 27.5 -5t32.5 5h332q10 -10 27.5 -5t21.5 5q27 0 49 21.5t31.5 47t2 47t-37.5 21.5l-58 -2h-338q-10 6 -26.5 2t-22.5 -4q-33 0 -53 -20.5t-27.5 -46zM219 746.5q-6 -25.5 3 -46t38 -20.5q10 0 26.5 -5t30.5 3h107 l-35 -156q-8 -12 -12 -35.5t-6 -35.5q-12 -45 -1 -62.5t29 -17.5q20 0 41 17.5t27 45.5q2 6 6 22.5t8 34t8.5 34t6.5 24.5l30 129h121q10 -8 28.5 -3t24.5 5q27 0 48.5 21.5t30.5 47t2 47t-38 21.5l-59 -2h-123l35 150q6 8 8 15t4 17q4 25 6 27q8 41 -3 60.5t-29.5 18.5 t-39 -20.5t-28.5 -54.5q-4 -16 -12 -35.5t-6 -27.5l-37 -150h-111q-8 6 -25.5 2t-23.5 -4q-33 0 -53.5 -20.5t-26.5 -46z" />
<glyph unicode="&#xb2;" horiz-adv-x="548" d="M141 606q-6 -33 4.5 -54.5t36.5 -21.5q18 4 23.5 5.5t19.5 5.5q35 10 88.5 21t108.5 11q68 0 99.5 -3t43.5 -5q45 -2 65.5 23.5t26.5 58.5q10 63 -25.5 86t-125.5 23q-33 0 -72 -6l-6 16l145 180q84 96 128 182t51 127v5q14 72 -13.5 114.5t-87.5 42.5q-68 0 -137 -41 q-29 -16 -64.5 -43.5t-69.5 -59.5t-59.5 -65.5t-29.5 -60.5q-6 -35 12.5 -62.5t34.5 -27.5q23 4 47.5 24.5t65.5 61.5q37 39 80.5 68.5t68.5 29.5q12 0 12 -14q-2 -12 -24.5 -47t-57 -82t-76.5 -101.5t-83 -104.5t-76 -91t-55 -64q-59 -66 -77 -93.5t-22 -37.5z" />
<glyph unicode="&#xb3;" horiz-adv-x="573" d="M160 748q-6 -37 7 -71t42 -59.5t69.5 -41t88.5 -15.5q51 0 102 17.5t93 52.5t73 87t43 122q12 66 1 116t-44 88q68 51 104.5 99t46.5 114q14 86 -25.5 138.5t-101.5 52.5q-37 0 -96 -25.5t-117.5 -64.5t-103.5 -85t-51 -85q-4 -20 2 -40t17.5 -33t27.5 -18t37 5 q33 39 67.5 70.5t67.5 54t60.5 36t45.5 13.5q27 0 25 -25q-6 -29 -36 -59.5t-69.5 -58t-83.5 -48t-77 -28.5h-2q-27 -4 -38 -19.5t-18 -50.5q-4 -23 -2 -45t8.5 -37.5t16.5 -23t27 1.5h2h2q0 2 2 2q51 25 100 24q35 0 56.5 -15t15.5 -48q-8 -47 -51 -84t-107 -37 q-37 0 -60.5 9t-25.5 32q-6 35 -27.5 45t-27.5 10q-29 0 -53.5 -15t-32.5 -58z" />
<glyph unicode="&#xb4;" horiz-adv-x="808" d="M460 1055.5q1 -11.5 10.5 -18.5t25.5 -15h8t11 5t17.5 15.5t28.5 32.5q14 16 39 40t64 52q29 25 50 44.5t37.5 40t31 44t28.5 56.5q18 47 16 71.5t-18 29.5t-44 -6t-60 -36q-25 -18 -56 -52t-59.5 -73t-56 -80t-46.5 -76q-16 -29 -22 -46t-5 -28.5z" />
<glyph unicode="&#xb5;" horiz-adv-x="782" d="M34 -324.5q1 -21.5 11 -35t39 -17.5q27 -4 45 8.5t30.5 35t21.5 53t18 61.5v-2l41 176q45 0 100 15.5t102 34t79 33.5l32 15q-14 -53 2 -69.5t45 -16.5q45 0 80 29t31 104l157 693q35 94 26 125.5t-50 27.5t-68.5 -39t-54.5 -114l-121 -533q-23 -18 -52.5 -38.5t-63 -39 t-67.5 -32t-61 -15.5q-35 -4 -52 29t-3 106l125 504q20 59 14 100t-45 44q-27 2 -48 -11.5t-36.5 -34t-25 -46t-9.5 -46.5q-37 -158 -61.5 -266t-40.5 -180t-24.5 -113t-13.5 -61.5t-7 -27.5t-2 -11l-74 -336q-6 -33 -13 -60.5t-6 -49z" />
<glyph unicode="&#xb6;" horiz-adv-x="765" d="M183 381q34 -92 136 -92q43 0 82 8l-118 -516q-14 -66 1 -94.5t44 -18.5q25 8 43 23.5t33.5 43t27.5 70.5t29 107l276 1151q10 -2 21.5 1t23 2t20.5 -9t15 -35l-295 -1225q-16 -66 0.5 -94.5t44.5 -17.5q25 8 42.5 23.5t32.5 43t28.5 70.5t29.5 106l271 1205 q8 33 -7.5 54t-42 32.5t-56.5 15.5t-50 4q-84 0 -179 -41t-184.5 -117.5t-161 -190.5t-104.5 -257q-37 -160 -3 -252z" />
<glyph unicode="&#xb7;" horiz-adv-x="325" d="M179 577.5q3 -28.5 13.5 -52t28 -39t39.5 -15.5q31 0 55.5 16.5t44 42t32 55t18.5 54.5q6 23 10 50.5t1 51t-16.5 40t-44.5 16.5t-59.5 -15.5t-53 -40t-42 -53.5t-23.5 -55.5t-3 -55z" />
<glyph unicode="&#xb8;" horiz-adv-x="768" d="M273 -272.5q3 -26.5 30 -32.5q14 -4 32.5 7t37 33.5t34 54.5t27.5 69l51 125q4 20 11.5 47.5t8.5 51t-9.5 40t-38.5 16.5q-25 0 -45.5 -14t-36 -39t-27.5 -55.5t-20 -63.5l-29 -106l-9 -23q-9 -24 -16 -55q-4 -29 -1 -55.5z" />
<glyph unicode="&#xb9;" horiz-adv-x="284" d="M195 580q0 -27 28 -39q10 -12 16.5 -13.5t16.5 -1.5q35 0 47 18.5t16 51.5l27 149q23 113 43.5 199t36.5 149.5t28.5 107.5t22.5 75q4 16 8 30.5t9 26.5l2 10q2 25 -7.5 40.5t-21.5 23.5t-23 11l-10 3q-20 0 -46 -14t-49.5 -32.5t-39.5 -36t-16 -21.5q-4 -29 4 -50.5 t35 -31.5l4 -10q-8 -35 -13.5 -57.5t-9.5 -37t-6 -23.5t-4 -15l-62 -267q-4 -20 -10 -56t-11 -73t-10 -69.5t-5 -46.5z" />
<glyph unicode="&#xba;" horiz-adv-x="612" d="M115 508.5q-2 -21.5 16.5 -39.5t54.5 -18q16 0 40 -7.5t44 9.5l205 2l107 2q37 0 58.5 18.5t24.5 40t-18.5 39.5t-71.5 18q-18 0 -41.5 3.5t-44.5 -5.5h-210q-4 2 -19 2q-16 0 -34.5 -3t-26.5 -3q-41 0 -61.5 -18.5t-22.5 -40zM268 831q0 -43 13.5 -77.5t42 -56 t77.5 -21.5q61 0 124 32.5t117 88t96.5 129t60.5 155.5q12 51 13 100.5t-12.5 87.5t-42 61.5t-73.5 23.5q-74 0 -140.5 -41t-119.5 -104.5t-91 -140.5t-54 -146q-10 -45 -11 -91zM374 877.5q1 21.5 5 44.5q12 49 35.5 101t58.5 97t79 74t95 29q47 0 54 -44.5t-5 -97.5 q-12 -55 -38.5 -106t-63.5 -91t-79 -63.5t-83 -23.5q-23 0 -36 11t-18 29.5t-4 40z" />
<glyph unicode="&#xbb;" horiz-adv-x="704" d="M119 350q4 -39 10 -52t16 -13h13q18 4 32.5 18t30.5 35l244 260q16 10 29.5 22.5t17.5 45.5q6 29 -6 51t-33 33l-158 178q-23 20 -43 18q-18 -2 -30.5 -14t-28.5 -49q-2 -4 -4 -15.5t1 -26t11 -29.5t25 -28l123 -135l-187 -198q-41 -35 -51 -56.5t-12 -44.5zM414 385 q2 -39 8 -52.5t16 -13.5h13q20 4 34.5 18.5t30.5 35.5l242 260q16 10 29.5 22.5t17.5 44.5q6 29 -6.5 51.5t-30.5 32.5l-160 179q-20 20 -43 18q-16 -2 -28.5 -14.5t-28.5 -48.5q-4 -4 -5 -15.5t2 -26t11 -30t25 -27.5l121 -135l-187 -199q-39 -35 -50 -56t-11 -44z" />
<glyph unicode="&#xbc;" horiz-adv-x="991" d="M127 76q-12 -63 49 -64q14 0 28.5 11.5t27 28t23.5 35.5t21 36q2 6 8.5 17.5t12.5 24.5t12 24.5t8 15.5q29 59 77 140t103.5 172t116 186.5t114.5 182.5t99 160.5t70 120.5v4q8 23 19.5 48.5t15.5 48.5q4 29 -3 47t-34 18q-47 0 -70.5 -25.5t-36.5 -54.5 q-29 -43 -76.5 -122.5t-106 -178t-123 -207t-123 -210t-105.5 -187.5t-74 -139q-47 -88 -53 -133zM164 532q-2 -10 6 -21t20 -17q10 -12 17.5 -13.5t17.5 -1.5q35 0 47.5 18.5t16.5 51.5l26 149q23 113 42.5 199t36 149.5t29.5 107.5t23 75q4 16 8.5 30.5t8.5 26.5l2 10 q2 25 -7 40.5t-21.5 23.5t-22.5 11l-11 3q-20 0 -45.5 -14t-49 -32.5t-40 -36t-16.5 -21.5q-4 -29 4 -50.5t35 -31.5l4 -10q-8 -35 -13.5 -57.5t-9.5 -37t-6 -24t-4 -15.5l-61 -266q-4 -20 -10.5 -56t-11.5 -73t-10 -69.5t-5 -47.5zM455 317q-4 -33 10 -65.5t31 -32.5h10 q23 8 53.5 18.5t60 18.5t56 14t43.5 9l2 -11q-4 -35 -11.5 -63t-11.5 -51q-14 -84 -0.5 -120t54.5 -36q35 0 60.5 28.5t29.5 51.5q-2 35 -1 54.5t5 43.5q4 16 9 45t13 58h119q25 0 45.5 32.5t24.5 59.5q6 29 -2 46t-23.5 25.5t-38 10.5t-45.5 2l-24 12q18 59 50 143t68 168 l15 35q-4 10 -10.5 25.5t-13.5 30t-16 24.5t-20 10q-25 -12 -72.5 -54t-106 -98.5t-121 -121t-115 -126t-88 -111.5t-39.5 -75zM602 383q49 61 86 103t64.5 70t48 46.5t35.5 32.5l16 -17q-12 -33 -25.5 -76.5t-27.5 -95.5q-55 -4 -102.5 -24.5t-94.5 -38.5z" />
<glyph unicode="&#xbd;" horiz-adv-x="991" d="M127 76q-12 -63 49 -64q14 0 28.5 11.5t27 28t23.5 35.5t21 36q2 6 8.5 17.5t12.5 24.5t12 24.5t8 15.5q29 59 77 140t103.5 172t116 186.5t114.5 182.5t99 160.5t70 120.5v4q8 23 19.5 48.5t15.5 48.5q4 29 -3 47t-34 18q-47 0 -70.5 -25.5t-36.5 -54.5 q-29 -43 -76.5 -122.5t-106 -178t-123 -207t-123 -210t-105.5 -187.5t-74 -139q-47 -88 -53 -133zM164 532q-2 -10 6 -21t20 -17q10 -12 17.5 -13.5t17.5 -1.5q35 0 47.5 18.5t16.5 51.5l26 149q23 113 42.5 199t36 149.5t29.5 107.5t23 75q4 16 8.5 30.5t8.5 26.5l2 10 q2 25 -7 40.5t-21.5 23.5t-22.5 11l-11 3q-20 0 -45.5 -14t-49 -32.5t-40 -36t-16.5 -21.5q-4 -29 4 -50.5t35 -31.5l4 -10q-8 -35 -13.5 -57.5t-9.5 -37t-6 -24t-4 -15.5l-61 -266q-4 -20 -10.5 -56t-11.5 -73t-10 -69.5t-5 -47.5zM471 47q-6 -33 4 -54.5t37 -21.5 q18 4 23.5 5t17.5 6q35 10 90 21t109 11q68 0 99.5 -3t43.5 -5q45 -2 65.5 23.5t26.5 58.5q10 63 -25.5 86t-125.5 23q-31 0 -74 -7l-4 17l147 180q82 96 125 182t51 127v4q12 72 -14.5 115t-85.5 43q-66 0 -135 -41q-29 -16 -66 -44t-70.5 -59.5t-58 -65.5t-28.5 -60 q-6 -35 12 -62.5t33 -27.5q23 4 48 24.5t64 61.5q37 39 81 68.5t69 29.5q14 0 10 -14q-2 -12 -24.5 -47t-56.5 -82t-76 -101.5t-83 -104.5t-75.5 -91t-55.5 -64q-59 -66 -76.5 -93.5t-21.5 -37.5z" />
<glyph unicode="&#xbe;" horiz-adv-x="1251" d="M158 713q-6 -37 7 -71t42 -59.5t69.5 -41t88.5 -15.5q51 0 102 17.5t93 52.5t73 87t43 122q12 66 1 116t-42 89q66 51 102.5 99t46.5 114q14 86 -25.5 138t-101.5 52q-37 0 -96 -25.5t-117.5 -64.5t-103.5 -85t-51 -85q-2 -20 3 -39.5t17.5 -33t28.5 -18.5t35 5 q33 39 68.5 70.5t67.5 54t59.5 36t45.5 13.5q29 0 27 -24q-6 -29 -36 -60t-69.5 -58.5t-84.5 -48t-78 -28.5q-29 -4 -40 -19.5t-18 -50.5q-4 -23 -2 -45t8.5 -37.5t16.5 -22.5t27 1h2h2q0 2 4 2q51 25 98 24q35 0 56.5 -15t15.5 -48q-8 -47 -51 -84t-107 -37 q-35 0 -58.5 9.5t-27.5 31.5q-4 35 -26.5 45t-28.5 10q-27 0 -52.5 -15t-33.5 -58zM385 76q-12 -63 49 -64q14 0 29.5 11.5t28 28t23.5 35.5t20 36q2 6 9 17.5t13 24.5t12 24.5t9 15.5q29 59 76.5 140t103 172t115 186.5t113.5 182.5t98 160.5t71 120.5v4q10 23 20.5 48.5 t14.5 48.5q4 29 -2 47t-33 18q-47 0 -70.5 -25.5t-35.5 -54.5q-29 -43 -77 -122.5t-107.5 -178t-123 -207t-122 -210t-106.5 -187.5t-75 -139q-23 -43 -36 -77t-17 -56zM715 317q-4 -33 9 -65.5t30 -32.5q27 8 59.5 18.5t64 18.5t58.5 14t43 9l2 -11q-4 -35 -11.5 -63 t-11.5 -51q-14 -84 -1.5 -120t53.5 -36q37 0 51 25.5t18 48.5q-2 35 0 54t6 44q2 16 7.5 47t15.5 59l139 3q25 0 45.5 32.5t24.5 59.5q6 29 -2 46t-24.5 25.5t-38 10.5t-46.5 2l-51 -2q18 68 36.5 111.5t37 77.5t36 64.5t35.5 71.5l17 35q-4 10 -10.5 25.5t-13.5 30 t-17 24.5t-21 10q-25 -12 -72.5 -54t-106 -98.5t-121 -121t-113.5 -126t-87 -111.5t-40 -75zM862 383q98 125 172 196.5t103 100.5l-25 -62q-12 -33 -35.5 -78.5t-38.5 -97.5q-55 -4 -92 -22.5t-84 -36.5z" />
<glyph unicode="&#xbf;" horiz-adv-x="815" d="M70 -234.5q8 -48.5 32.5 -84t63.5 -56t84 -20.5q49 0 99 20.5t100.5 51t98.5 69.5t91 76q35 33 66.5 76t42.5 84q16 53 4.5 80.5t-39.5 27.5q-29 0 -71 -29.5t-89 -89.5q-72 -72 -137.5 -124t-118.5 -52q-39 0 -63.5 19.5t-14.5 54.5q6 33 45 74t93.5 88t117 99 t119.5 108.5t100 115t58 115.5q6 20 9 39.5t7 38.5q10 53 -5 84t-75 31q-27 0 -45 -47.5t-53 -118t-95.5 -152.5t-170.5 -151q-80 -49 -151.5 -134.5t-96.5 -189.5q-14 -55 -6 -103.5zM618 818.5q7 -42.5 52 -42.5q53 0 97 33t67 125q18 70 -9.5 97.5t-64.5 27.5 q-51 0 -85 -37t-50 -102l2 2q-16 -61 -9 -103.5z" />
<glyph unicode="&#xc0;" horiz-adv-x="917" d="M26.5 58.5q-8.5 -33.5 1 -59.5t52.5 -30q31 -4 63.5 46.5t71.5 125.5l178 326l43 4t101.5 9t116 9.5t85.5 4.5q10 -66 16.5 -104t10.5 -63.5t5 -45t3 -50.5q2 -33 8 -77.5t13.5 -85.5t13.5 -70t12 -29q33 -4 55.5 10.5t36 41t19.5 62.5t6 77q-4 92 -18.5 229t-30 287.5 t-27.5 295t-12 253.5q6 55 -5 94t-35 48t-56.5 -18.5t-71.5 -107.5l-606 -1069q-8 -16 -24.5 -48t-25 -65.5zM496 653l223 412q0 -33 1 -86t2 -109.5t4 -110.5t7 -87zM688 1761q2 -33 8 -56.5t15.5 -44t25 -39.5t35.5 -44q25 -29 42 -52.5t26 -39.5q18 -45 32.5 -48t14.5 -5 q18 8 29.5 15t17.5 18.5t5 28.5t-7 46q-6 35 -19.5 76t-29 80t-32.5 72.5t-36 52.5q-53 49 -91 41.5t-36 -101.5z" />
<glyph unicode="&#xc1;" horiz-adv-x="917" d="M26.5 58.5q-8.5 -33.5 1 -59.5t52.5 -30q31 -4 63.5 46.5t71.5 125.5l178 326l43 4t101.5 9t116 9.5t85.5 4.5q10 -66 16.5 -104t10.5 -63.5t5 -45t3 -50.5q2 -33 8 -77.5t13.5 -85.5t13.5 -70t12 -29q33 -4 55.5 10.5t36 41t19.5 62.5t6 77q-4 92 -18.5 229t-30 287.5 t-27.5 295t-12 253.5q6 55 -5 94t-35 48t-56.5 -18.5t-71.5 -107.5l-606 -1069q-8 -16 -24.5 -48t-25 -65.5zM496 653l223 412q0 -33 1 -86t2 -109.5t4 -110.5t7 -87zM691 1465.5q1 -11.5 10.5 -18.5t25.5 -15h8q6 0 12.5 5t17.5 15t28 33q14 16 38.5 39.5t63.5 52.5 q31 25 51.5 44t37.5 39.5t30.5 44.5t29.5 56q18 47 16.5 72t-18 30t-44 -6.5t-60.5 -35.5q-27 -18 -56.5 -52t-59 -73t-56.5 -80t-45 -76q-16 -29 -23.5 -46t-6.5 -28.5z" />
<glyph unicode="&#xc2;" horiz-adv-x="917" d="M26.5 58.5q-8.5 -33.5 1 -59.5t52.5 -30q31 -4 63.5 46.5t71.5 125.5l178 326l43 4t101.5 9t116 9.5t85.5 4.5q10 -66 16.5 -104t10.5 -63.5t5 -45t3 -50.5q2 -33 8 -77.5t13.5 -85.5t13.5 -70t12 -29q33 -4 55.5 10.5t36 41t19.5 62.5t6 77q-4 92 -18.5 229t-30 287.5 t-27.5 295t-12 253.5q6 55 -5 94t-35 48t-56.5 -18.5t-71.5 -107.5l-606 -1069q-8 -16 -24.5 -48t-25 -65.5zM496 653l223 412q0 -33 1 -86t2 -109.5t4 -110.5t7 -87zM545 1497q-4 -14 4 -25.5t37 -21.5q16 -4 33.5 5t52.5 54l184 201l66 -194q10 -49 32.5 -59.5t30.5 -6.5 q29 14 41 27t16 36q8 27 0 62l-92 252q-2 29 -14 50t-35 21q-25 0 -36 -13t-21 -32l-242 -264q-18 -18 -32.5 -33.5t-22.5 -42.5z" />
<glyph unicode="&#xc3;" horiz-adv-x="917" d="M26.5 58.5q-8.5 -33.5 1 -59.5t52.5 -30q31 -4 63.5 46.5t71.5 125.5l178 326l43 4t101.5 9t116 9.5t85.5 4.5q10 -66 16.5 -104t10.5 -63.5t5 -45t3 -50.5q2 -33 8 -77.5t13.5 -85.5t13.5 -70t12 -29q33 -4 55.5 10.5t36 41t19.5 62.5t6 77q-4 92 -18.5 229t-30 287.5 t-27.5 295t-12 253.5q6 55 -5 94t-35 48t-56.5 -18.5t-71.5 -107.5l-606 -1069q-8 -16 -24.5 -48t-25 -65.5zM496 653l223 412q0 -33 1 -86t2 -109.5t4 -110.5t7 -87zM602 1532q-8 -25 4 -43.5t37 -18.5q14 0 28.5 15.5t30 33t31 33t29.5 15.5q12 0 19 -16.5t17.5 -37 t27 -37t48.5 -16.5q68 0 114 40t75 157q4 14 -4 28.5t-23.5 18.5t-33 -4t-31.5 -35q-4 -10 -8.5 -25.5t-11.5 -30t-17 -25.5t-25 -11q-20 0 -28.5 18.5t-15.5 42t-20.5 42t-43.5 18.5q-25 0 -55.5 -14.5t-60.5 -37t-53.5 -51t-29.5 -59.5z" />
<glyph unicode="&#xc4;" horiz-adv-x="917" d="M26.5 58.5q-8.5 -33.5 1 -59.5t52.5 -30q31 -4 63.5 46.5t71.5 125.5l178 326l43 4t101.5 9t116 9.5t85.5 4.5q10 -66 16.5 -104t10.5 -63.5t5 -45t3 -50.5q2 -33 8 -77.5t13.5 -85.5t13.5 -70t12 -29q33 -4 55.5 10.5t36 41t19.5 62.5t6 77q-4 92 -18.5 229t-30 287.5 t-27.5 295t-12 253.5q6 55 -5 94t-35 48t-56.5 -18.5t-71.5 -107.5l-606 -1069q-8 -16 -24.5 -48t-25 -65.5zM496 653l223 412q0 -33 1 -86t2 -109.5t4 -110.5t7 -87zM586 1540.5q2 -24.5 11 -45t23.5 -34t34.5 -13.5q27 0 48.5 14.5t38 36t26.5 45.5t16 47q4 18 7.5 43 t1.5 45.5t-13.5 35t-38.5 14.5t-52 -13.5t-44.5 -34t-34 -46t-20.5 -48t-4 -47zM877.5 1548.5q3.5 -24.5 11.5 -45t23.5 -34t33.5 -13.5q27 0 48.5 14.5t38 36t27.5 47t17 48.5q4 18 8.5 41.5t1 44t-15.5 35t-37 14.5q-27 0 -51.5 -13.5t-44.5 -34t-35.5 -46t-22 -48t-3 -47 z" />
<glyph unicode="&#xc5;" horiz-adv-x="917" d="M26.5 58.5q-8.5 -33.5 1 -59.5t52.5 -30q31 -4 63.5 46.5t71.5 125.5l178 326l43 4t101.5 9t116 9.5t85.5 4.5q10 -66 16.5 -104t10.5 -63.5t5 -45t3 -50.5q2 -33 8 -77.5t13.5 -85.5t13.5 -70t12 -29q33 -4 55.5 10.5t36 41t19.5 62.5t6 77q-4 92 -18.5 229t-30 287.5 t-27.5 295t-12 253.5q6 55 -5 94t-35 48t-56.5 -18.5t-71.5 -107.5l-606 -1069q-8 -16 -24.5 -48t-25 -65.5zM496 653l223 412q0 -33 1 -86t2 -109.5t4 -110.5t7 -87zM700 1524q0 -29 9.5 -51.5t28 -36t50.5 -13.5q39 0 79 21.5t76 57.5t61.5 83.5t37.5 100.5q8 33 9.5 65.5 t-7 57t-27 40t-48.5 15.5q-49 0 -92 -27t-78 -69t-58.5 -91t-33.5 -94q-6 -31 -7 -59zM820.5 1565.5q-3.5 17.5 0.5 38.5q6 20 16.5 42.5t25 41t32.5 31t41 12.5t23.5 -18.5t-3.5 -41.5q-10 -47 -43.5 -85t-70.5 -38q-18 0 -21.5 17.5z" />
<glyph unicode="&#xc6;" horiz-adv-x="1509" d="M-20 -59q0 -27 40 -31q29 -4 78 46t117 126l295 326l50 9t115.5 21.5t132 22.5t97.5 10l-61 -262q-14 -57 -27.5 -104.5t-11.5 -80t23.5 -49t76.5 -10.5l490 47q70 0 94.5 29.5t30.5 60.5q16 59 -8.5 79t-84.5 16l-454 -52l98 414l354 51q10 2 18.5 3t18.5 1 q33 0 60.5 17.5t44.5 77.5q4 16 4 34t-12.5 31.5t-37 20t-69.5 0.5l-336 -56q25 100 40 162t25.5 98.5t15.5 55t11 32.5l379 33q39 2 66.5 3t48 9.5t34 28t23.5 58.5q8 41 -2 60t-32.5 25.5t-53.5 3.5t-61 -5q-137 -12 -216 -17.5t-124 -5.5h-105q-27 0 -59.5 -15.5 t-48.5 -35.5l-969 -1116l-42 -48t-47 -66t-19 -58zM678 594l342 430q-4 -23 -10 -56.5t-11 -74.5q-14 -57 -23 -116.5t-32 -127.5z" />
<glyph unicode="&#xc7;" horiz-adv-x="880" d="M148 315.5q-5 -94.5 10.5 -169t52.5 -127t96 -70.5l-39 -129l-9 -24q-9 -23 -13 -54q-6 -29 -3 -55.5t29 -32.5q14 -4 33 7t37 33.5t34.5 54.5t26.5 69q18 51 28.5 76.5t15 36t5.5 12.5l3 6q61 14 121.5 49t116 80t102.5 97t79 104q35 51 28 81.5t-35.5 35.5t-71.5 -16.5 t-78 -72.5q-18 -29 -51 -62.5t-73 -61t-82 -46t-75 -18.5q-57 0 -88 33.5t-41 89t-4 127t25 145.5q31 125 83 249t118.5 220t142.5 156.5t151 60.5q47 0 72 -9t35 -26q33 -49 51 -80.5t25 -31.5q27 0 52 20.5t39.5 51t15.5 66.5t-17 66q-47 72 -107.5 98.5t-136.5 26.5 q-98 0 -200.5 -72.5t-194.5 -194.5t-165 -278.5t-114 -322.5q-25 -104 -30 -198.5z" />
<glyph unicode="&#xc8;" horiz-adv-x="815" d="M115 35q2 -33 24.5 -49.5t77.5 -10.5l490 48q70 0 94 29.5t30 60.5q14 59 -9 78.5t-83 15.5l-458 -51l100 413l354 52q10 2 19.5 3t19.5 1q31 0 59.5 17t45.5 77q4 16 4 35q0 18 -12.5 31.5t-37 19.5t-69.5 0l-338 -55l84 348l387 32q39 2 66.5 3.5t48 9.5t34 27.5 t23.5 58.5q10 41 0 60.5t-32.5 25.5t-53.5 3t-61 -5q-139 -12 -217 -17.5t-125 -5.5h-105q-27 0 -47 -14t-34.5 -35.5t-23 -45.5t-8.5 -42q-14 -68 -44.5 -218.5t-81.5 -367.5l-82 -348q-14 -57 -27.5 -104t-11.5 -80zM651 1761q2 -33 8.5 -56.5t15.5 -44t24.5 -39.5 t35.5 -44q25 -29 42.5 -52.5t25.5 -39.5q18 -45 32.5 -48t14.5 -5q18 8 29.5 15t17.5 18.5t5 28.5t-7 46q-6 35 -19.5 76t-29 80t-32.5 72.5t-36 52.5q-53 49 -91 41.5t-36 -101.5z" />
<glyph unicode="&#xc9;" horiz-adv-x="815" d="M115 35q2 -33 24.5 -49.5t77.5 -10.5l490 48q70 0 94 29.5t30 60.5q14 59 -9 78.5t-83 15.5l-458 -51l100 413l354 52q10 2 19.5 3t19.5 1q31 0 59.5 17t45.5 77q4 16 4 35q0 18 -12.5 31.5t-37 19.5t-69.5 0l-338 -55l84 348l387 32q39 2 66.5 3.5t48 9.5t34 27.5 t23.5 58.5q10 41 0 60.5t-32.5 25.5t-53.5 3t-61 -5q-139 -12 -217 -17.5t-125 -5.5h-105q-27 0 -47 -14t-34.5 -35.5t-23 -45.5t-8.5 -42q-14 -68 -44.5 -218.5t-81.5 -367.5l-82 -348q-14 -57 -27.5 -104t-11.5 -80zM677 1465.5q1 -11.5 10.5 -18.5t25.5 -15h10t11 5 t17.5 15t28.5 33q23 31 101 92q31 25 52 44t37.5 39.5t31 44.5t28.5 56q18 47 16 72t-18 30t-44 -6.5t-60 -35.5q-27 -18 -56.5 -52t-59.5 -73t-56.5 -80t-44.5 -76q-16 -29 -23.5 -46t-6.5 -28.5z" />
<glyph unicode="&#xca;" horiz-adv-x="815" d="M115 35q2 -33 24.5 -49.5t77.5 -10.5l490 48q70 0 94 29.5t30 60.5q14 59 -9 78.5t-83 15.5l-458 -51l100 413l354 52q10 2 19.5 3t19.5 1q31 0 59.5 17t45.5 77q4 16 4 35q0 18 -12.5 31.5t-37 19.5t-69.5 0l-338 -55l84 348l387 32q39 2 66.5 3.5t48 9.5t34 27.5 t23.5 58.5q10 41 0 60.5t-32.5 25.5t-53.5 3t-61 -5q-139 -12 -217 -17.5t-125 -5.5h-105q-27 0 -47 -14t-34.5 -35.5t-23 -45.5t-8.5 -42q-14 -68 -44.5 -218.5t-81.5 -367.5l-82 -348q-14 -57 -27.5 -104t-11.5 -80zM541 1497q-4 -14 4 -25.5t37 -21.5q16 -4 33.5 5 t52.5 54l182 201l68 -194q10 -49 32.5 -59.5t30.5 -6.5q29 14 41 27t16 36q10 29 -2 62l-90 252q-2 29 -15 50t-36 21t-34 -13t-21 -32l-244 -264q-16 -18 -30.5 -33.5t-22.5 -42.5z" />
<glyph unicode="&#xcb;" horiz-adv-x="815" d="M115 35q2 -33 24.5 -49.5t77.5 -10.5l490 48q70 0 94 29.5t30 60.5q14 59 -9 78.5t-83 15.5l-458 -51l100 413l354 52q10 2 19.5 3t19.5 1q31 0 59.5 17t45.5 77q4 16 4 35q0 18 -12.5 31.5t-37 19.5t-69.5 0l-338 -55l84 348l387 32q39 2 66.5 3.5t48 9.5t34 27.5 t23.5 58.5q10 41 0 60.5t-32.5 25.5t-53.5 3t-61 -5q-139 -12 -217 -17.5t-125 -5.5h-105q-27 0 -47 -14t-34.5 -35.5t-23 -45.5t-8.5 -42q-14 -68 -44.5 -218.5t-81.5 -367.5l-82 -348q-14 -57 -27.5 -104t-11.5 -80zM583 1540.5q3 -24.5 11 -45t23.5 -34t33.5 -13.5 q27 0 48.5 14.5t38 36t26.5 45.5t16 47q4 18 8.5 43t1 45.5t-14.5 35t-38 14.5t-51 -13.5t-44.5 -34t-35 -46t-20.5 -48t-3 -47zM874.5 1548.5q2.5 -24.5 10.5 -45t23.5 -34t33.5 -13.5q27 0 49.5 14.5t39 36t27.5 47t15 48.5q4 18 8 41.5t1 44t-14 35t-38 14.5t-51.5 -13.5 t-45 -34t-34.5 -46t-20.5 -48t-4 -47z" />
<glyph unicode="&#xcc;" d="M112 20.5q3 -43.5 50 -51.5q27 -4 43 6.5t27.5 30t20.5 48t19 61.5l254 1050q6 27 15.5 56.5t11.5 55.5t-5 43t-34 17q-70 0 -92.5 -36.5t-36.5 -112.5l-258 -1069q-18 -55 -15 -98.5zM422 1761q2 -33 8 -56.5t15.5 -44t24.5 -39.5t36 -44q25 -29 42 -52.5t25 -39.5 q8 -23 17.5 -33t16.5 -15t9 -5h5q18 8 29.5 15t17.5 18.5t6 27.5q0 18 -6 47q-8 35 -20.5 76t-29 80t-34 72.5t-35.5 52.5q-51 49 -90 41.5t-37 -101.5z" />
<glyph unicode="&#xcd;" d="M112 20.5q3 -43.5 50 -51.5q27 -4 43 6.5t27.5 30t20.5 48t19 61.5l254 1050q6 27 15.5 56.5t11.5 55.5t-5 43t-34 17q-70 0 -92.5 -36.5t-36.5 -112.5l-258 -1069q-18 -55 -15 -98.5zM390 1465.5q1 -11.5 10.5 -18.5t25.5 -15h8q6 0 12.5 5t17.5 15t28 33 q14 16 38.5 39.5t63.5 52.5q31 25 51.5 44t37.5 39.5t30.5 44.5t29.5 56q18 47 16.5 72t-18 30t-44 -6.5t-60.5 -35.5q-27 -18 -56.5 -52t-59 -73t-56.5 -80t-45 -76q-16 -29 -23.5 -46t-6.5 -28.5z" />
<glyph unicode="&#xce;" d="M112 20.5q3 -43.5 50 -51.5q27 -4 43 6.5t27.5 30t20.5 48t19 61.5l254 1050q6 27 15.5 56.5t11.5 55.5t-5 43t-34 17q-70 0 -92.5 -36.5t-36.5 -112.5l-258 -1069q-18 -55 -15 -98.5zM279 1497q-4 -14 5 -25.5t35 -21.5q16 -4 34 5t53 54l184 201l65 -194 q10 -49 34 -59.5t30 -6.5q29 14 42 27t17 36q6 31 -2 62l-90 252q-4 29 -16.5 50t-34.5 21q-25 0 -36 -13t-21 -32l-242 -264q-18 -18 -31.5 -33.5t-23.5 -42.5z" />
<glyph unicode="&#xcf;" d="M112 20.5q3 -43.5 50 -51.5q27 -4 43 6.5t27.5 30t20.5 48t19 61.5l254 1050q6 27 15.5 56.5t11.5 55.5t-5 43t-34 17q-70 0 -92.5 -36.5t-36.5 -112.5l-258 -1069q-18 -55 -15 -98.5zM304 1529.5q3 -24.5 11.5 -45t23.5 -33.5t34 -13q27 0 48 14t37.5 35.5t27 46 t16.5 47.5q6 18 9 43t0 45.5t-14.5 34.5t-37.5 14q-27 0 -51.5 -13t-45 -33.5t-35 -46.5t-20.5 -48.5t-3 -47zM596 1538q2 -25 10 -45t23.5 -33.5t34.5 -13.5q27 0 49 14.5t38.5 36t28 46.5t15.5 48q4 18 8 42t1 44.5t-14.5 34.5t-37.5 14q-27 0 -51.5 -13t-45 -33.5 t-35 -46t-20.5 -48t-4 -47.5z" />
<glyph unicode="&#xd0;" horiz-adv-x="929" d="M106.5 689q-4.5 -36 11 -64.5t52.5 -28.5h74l-90 -377q-10 -43 -20.5 -88t-13.5 -81t6 -58.5t38 -22.5q41 0 115.5 20.5t165 66.5t187.5 118t186 174.5t163 236.5t115 304q23 92 21.5 180t-30 155.5t-85 109.5t-144.5 42q-66 0 -117 -9t-95 -23.5t-83 -32t-80 -33.5 q-57 -23 -86.5 -81t-34.5 -116l-71 -295q-27 2 -43 2q-14 0 -23.5 -2t-14.5 -3t-11 -1q-41 0 -64.5 -28.5t-28 -64.5zM287 178l102 420l131 2q35 0 59.5 28.5t30.5 64.5t-12 64.5t-68 28.5h-94l74 312q53 35 129 67.5t160 32.5q57 0 92 -26.5t51 -70.5t16 -100 q0 -55 -12 -112q-41 -166 -122 -291t-175 -211t-191.5 -137t-170.5 -72z" />
<glyph unicode="&#xd1;" horiz-adv-x="1003" d="M121 111q-45 -152 53 -144q43 4 67.5 47t22.5 88l197 818q18 -53 40.5 -114t44 -120t39 -116.5t27.5 -102.5q10 -41 28.5 -99.5t38 -120t40 -118.5t33.5 -94q4 -8 7 -19.5t10 -20.5t22.5 -15.5t44.5 -6.5q18 0 32.5 13.5t25.5 33t19.5 41t12.5 39.5l268 1119 q18 80 12 110.5t-55 30.5q-25 0 -42 -12.5t-27.5 -32t-16.5 -42t-12 -42.5l-213 -893q-4 8 -12.5 29.5t-17.5 45t-17.5 44t-10.5 30.5q-25 66 -44 125.5t-39.5 125t-43 145.5t-55.5 188q-4 16 -7 22.5t-6 16.5t-8.5 30.5t-11.5 65.5q-4 18 -11 41t-16.5 43.5t-21.5 33.5 t-29 13q-18 0 -32.5 -5t-26.5 -21.5t-24.5 -45t-24.5 -75.5zM612 1524q-8 -25 4.5 -43.5t36.5 -18.5q14 0 28.5 15.5t30 33t31 33t29.5 15.5q12 0 19.5 -16.5t17.5 -37t26.5 -37t49.5 -16.5q68 0 114.5 40t73.5 157q4 14 -4 28.5t-22.5 18.5t-32 -4.5t-31.5 -34.5 q-4 -10 -8 -25.5t-11.5 -30t-17.5 -25.5t-24 -11q-20 0 -28.5 18.5t-17 42t-21.5 42t-44 18.5q-25 0 -55.5 -14.5t-60 -37t-53.5 -51.5t-30 -59z" />
<glyph unicode="&#xd2;" horiz-adv-x="978" d="M171.5 96.5q57.5 -159.5 225.5 -159.5q104 0 214 63t206 172t172 254t115 311q29 121 40 237t-7.5 207t-73.5 146t-160 55q-78 0 -155.5 -41t-151.5 -109.5t-140.5 -155.5t-121.5 -181t-94 -187.5t-58 -170.5q-68 -281 -10.5 -440.5zM298 365.5q5 76.5 28 171.5 q14 59 44.5 132.5t72.5 147.5t93.5 143.5t105.5 123t110.5 86t107.5 32.5q66 0 97.5 -42t40 -108.5t-4 -149.5t-32.5 -165q-29 -125 -84.5 -237.5t-126 -197.5t-151.5 -135t-159 -50q-55 0 -88 30.5t-46 86t-8 132zM754 1761q2 -33 8 -56.5t15 -44t24.5 -39.5t36.5 -44 q25 -29 42 -52.5t25 -39.5q8 -23 17.5 -33t16.5 -15t9 -5h4q18 8 29.5 15t18 18.5t6.5 27.5q0 18 -7 47q-8 35 -20 76t-28.5 80t-34 72.5t-35.5 52.5q-51 49 -90 41.5t-37 -101.5z" />
<glyph unicode="&#xd3;" horiz-adv-x="978" d="M171.5 96.5q57.5 -159.5 225.5 -159.5q104 0 214 63t206 172t172 254t115 311q29 121 40 237t-7.5 207t-73.5 146t-160 55q-78 0 -155.5 -41t-151.5 -109.5t-140.5 -155.5t-121.5 -181t-94 -187.5t-58 -170.5q-68 -281 -10.5 -440.5zM298 365.5q5 76.5 28 171.5 q14 59 44.5 132.5t72.5 147.5t93.5 143.5t105.5 123t110.5 86t107.5 32.5q66 0 97.5 -42t40 -108.5t-4 -149.5t-32.5 -165q-29 -125 -84.5 -237.5t-126 -197.5t-151.5 -135t-159 -50q-55 0 -88 30.5t-46 86t-8 132zM818 1465.5q1 -11.5 10.5 -18.5t25.5 -15h10t11.5 5 t17.5 15t29 33q23 31 100 92q31 25 52.5 44t37.5 39.5t30.5 44.5t28.5 56q18 47 16.5 72t-18 30t-44 -6.5t-60.5 -35.5q-27 -18 -56.5 -52t-59 -73t-56.5 -80t-45 -76q-16 -29 -23.5 -46t-6.5 -28.5z" />
<glyph unicode="&#xd4;" horiz-adv-x="978" d="M171.5 96.5q57.5 -159.5 225.5 -159.5q104 0 214 63t206 172t172 254t115 311q29 121 40 237t-7.5 207t-73.5 146t-160 55q-78 0 -155.5 -41t-151.5 -109.5t-140.5 -155.5t-121.5 -181t-94 -187.5t-58 -170.5q-68 -281 -10.5 -440.5zM298 365.5q5 76.5 28 171.5 q14 59 44.5 132.5t72.5 147.5t93.5 143.5t105.5 123t110.5 86t107.5 32.5q66 0 97.5 -42t40 -108.5t-4 -149.5t-32.5 -165q-29 -125 -84.5 -237.5t-126 -197.5t-151.5 -135t-159 -50q-55 0 -88 30.5t-46 86t-8 132zM659 1497q-4 -14 5.5 -25.5t35.5 -21.5q16 -4 34 5t52 54 l185 201l65 -194q10 -49 34 -59.5t30 -6.5q29 14 42 27t17 36q6 31 -2 62l-90 252q-4 29 -16.5 50t-34.5 21q-25 0 -36 -13t-22 -32l-241 -264q-18 -18 -31.5 -33.5t-23.5 -42.5z" />
<glyph unicode="&#xd5;" horiz-adv-x="978" d="M171.5 96.5q57.5 -159.5 225.5 -159.5q104 0 214 63t206 172t172 254t115 311q29 121 40 237t-7.5 207t-73.5 146t-160 55q-78 0 -155.5 -41t-151.5 -109.5t-140.5 -155.5t-121.5 -181t-94 -187.5t-58 -170.5q-68 -281 -10.5 -440.5zM298 365.5q5 76.5 28 171.5 q14 59 44.5 132.5t72.5 147.5t93.5 143.5t105.5 123t110.5 86t107.5 32.5q66 0 97.5 -42t40 -108.5t-4 -149.5t-32.5 -165q-29 -125 -84.5 -237.5t-126 -197.5t-151.5 -135t-159 -50q-55 0 -88 30.5t-46 86t-8 132zM696 1532q-6 -25 5.5 -43.5t35.5 -18.5q14 0 28.5 15.5 t30 33t31 33t29.5 15.5q12 0 19.5 -16.5t17.5 -37t27.5 -37t50.5 -16.5q66 0 112.5 40t75.5 157q2 14 -6 28.5t-23.5 18.5t-33 -4t-31.5 -35q-4 -10 -8 -25.5t-11.5 -30t-17.5 -25.5t-24 -11q-18 0 -26.5 18.5t-17 42t-20.5 42t-43 18.5q-25 0 -55.5 -14.5t-60 -37t-53 -51 t-32.5 -59.5z" />
<glyph unicode="&#xd6;" horiz-adv-x="978" d="M171.5 96.5q57.5 -159.5 225.5 -159.5q104 0 214 63t206 172t172 254t115 311q29 121 40 237t-7.5 207t-73.5 146t-160 55q-78 0 -155.5 -41t-151.5 -109.5t-140.5 -155.5t-121.5 -181t-94 -187.5t-58 -170.5q-68 -281 -10.5 -440.5zM298 365.5q5 76.5 28 171.5 q14 59 44.5 132.5t72.5 147.5t93.5 143.5t105.5 123t110.5 86t107.5 32.5q66 0 97.5 -42t40 -108.5t-4 -149.5t-32.5 -165q-29 -125 -84.5 -237.5t-126 -197.5t-151.5 -135t-159 -50q-55 0 -88 30.5t-46 86t-8 132zM651 1540.5q2 -24.5 11.5 -45t24.5 -34t34 -13.5 q27 0 48.5 14.5t37.5 36t26.5 45.5t16.5 47q4 18 8 43t1 45.5t-14 35t-38 14.5t-51.5 -13.5t-45 -34t-34.5 -46t-20.5 -48t-4.5 -47zM943 1548.5q3 -24.5 11.5 -45t23.5 -34t34 -13.5q27 0 48 14.5t37.5 36t28 47t17.5 48.5q4 18 8 41.5t1 44t-14.5 35t-37.5 14.5 q-27 0 -51.5 -13.5t-45 -34t-36 -46t-21.5 -48t-3 -47z" />
<glyph unicode="&#xd7;" horiz-adv-x="714" d="M104.5 219q-6.5 -37 10.5 -61q16 -27 44.5 -33t57.5 20q6 6 21.5 20.5t33 30t32.5 31t24 23.5l123 115l92 -160q2 -23 18.5 -39t20.5 -25q20 -37 53 -40t59.5 16.5t37.5 55.5t-11 75l-45 76l-92 163l141 134q10 4 18.5 9t18.5 15q18 25 24 25q39 39 45.5 76.5t-9 62.5 t-46.5 29t-63 -29q-16 -16 -38 -29.5t-26 -25.5l-145 -133l-82 147q0 16 -17.5 33.5t-23.5 27.5q-23 41 -54.5 43t-56 -19.5t-34 -59t13.5 -74.5q8 -14 17 -42t26 -38l82 -141l-150 -140q-16 -4 -36.5 -28.5t-34.5 -34.5q-43 -39 -49.5 -76z" />
<glyph unicode="&#xd8;" horiz-adv-x="978" d="M151.5 187.5q18.5 -142.5 100.5 -203.5q-49 -98 -53 -147.5t59 -49.5q20 0 37.5 16.5t33 40t29 49t23.5 44.5h16q104 0 214 63t206 172t172 254t115 311q20 88 32.5 174t11.5 162t-20.5 139.5t-58.5 104.5q4 10 7 18t7 17v-2q12 27 24.5 58.5t17.5 60t-3 48t-35 19.5 q-29 0 -49 -9t-34.5 -22.5t-23.5 -30t-17 -30.5q-6 -14 -12.5 -29.5t-16.5 -34.5q-8 0 -15.5 1t-15.5 1q-78 0 -155.5 -41t-151.5 -109.5t-140.5 -155.5t-121.5 -181t-94 -187.5t-58 -170.5q-49 -207 -30.5 -349.5zM295 306.5q-2 97.5 31 230.5q14 59 44.5 130.5t70.5 144.5 t89.5 141.5t102.5 121.5t107.5 88t105.5 37q-55 -115 -123 -253t-136.5 -279.5t-134 -274.5t-114.5 -233q-41 49 -43 146.5zM473 119q49 96 115.5 222t135.5 261t135.5 269.5t119.5 246.5q29 -70 20 -173.5t-38 -207.5q-29 -119 -80.5 -226.5t-117 -191t-140 -137 t-150.5 -63.5z" />
<glyph unicode="&#xd9;" horiz-adv-x="937" d="M141.5 114.5q3.5 -53.5 31.5 -93t80 -62t132 -22.5q96 0 186.5 35.5t163 94t123 132t68.5 151.5l204 844q2 2 9.5 24.5t9.5 49t-8.5 48t-42.5 21.5q-29 0 -48.5 -12t-31.5 -32.5t-18.5 -48t-12.5 -56.5l-217 -846q-10 -37 -43 -77t-82 -72.5t-111.5 -53t-132.5 -20.5 q-49 0 -81.5 29.5t-18.5 82.5l242 1004q2 12 3 29.5t-3 34t-16.5 27.5t-34.5 11q-49 0 -66.5 -35.5t-32.5 -76.5l-239 -994q-16 -63 -12.5 -116.5zM668 1761q2 -33 8 -56.5t15 -44t24.5 -39.5t36.5 -44q25 -29 42 -52.5t25 -39.5q8 -23 17.5 -33t16.5 -15t9 -5h4 q18 8 29.5 15t18 18.5t6.5 27.5q0 18 -7 47q-8 35 -20 76t-28.5 80t-34 72.5t-35.5 52.5q-51 49 -90 41.5t-37 -101.5z" />
<glyph unicode="&#xda;" horiz-adv-x="937" d="M141.5 114.5q3.5 -53.5 31.5 -93t80 -62t132 -22.5q96 0 186.5 35.5t163 94t123 132t68.5 151.5l204 844q2 2 9.5 24.5t9.5 49t-8.5 48t-42.5 21.5q-29 0 -48.5 -12t-31.5 -32.5t-18.5 -48t-12.5 -56.5l-217 -846q-10 -37 -43 -77t-82 -72.5t-111.5 -53t-132.5 -20.5 q-49 0 -81.5 29.5t-18.5 82.5l242 1004q2 12 3 29.5t-3 34t-16.5 27.5t-34.5 11q-49 0 -66.5 -35.5t-32.5 -76.5l-239 -994q-16 -63 -12.5 -116.5zM762 1465.5q2 -11.5 10.5 -18.5t24.5 -15h10t11 5t18.5 15t27.5 33q29 37 101 92q31 25 52 44t37.5 39.5t31 44.5t28.5 56 q18 47 16 72t-18 30t-44 -6.5t-60 -35.5q-25 -18 -54.5 -52t-59.5 -73t-56.5 -80t-46.5 -76q-16 -29 -23.5 -46t-5.5 -28.5z" />
<glyph unicode="&#xdb;" horiz-adv-x="937" d="M141.5 114.5q3.5 -53.5 31.5 -93t80 -62t132 -22.5q96 0 186.5 35.5t163 94t123 132t68.5 151.5l204 844q2 2 9.5 24.5t9.5 49t-8.5 48t-42.5 21.5q-29 0 -48.5 -12t-31.5 -32.5t-18.5 -48t-12.5 -56.5l-217 -846q-10 -37 -43 -77t-82 -72.5t-111.5 -53t-132.5 -20.5 q-49 0 -81.5 29.5t-18.5 82.5l242 1004q2 12 3 29.5t-3 34t-16.5 27.5t-34.5 11q-49 0 -66.5 -35.5t-32.5 -76.5l-239 -994q-16 -63 -12.5 -116.5zM614 1497q-4 -14 4.5 -25.5t36.5 -21.5q16 -4 34 5t52 54l183 201l67 -194q10 -49 33 -59.5t31 -6.5q29 14 41 27t16 36 q10 29 -2 62l-90 252q-2 29 -15.5 50t-35.5 21q-23 0 -34 -13t-22 -32l-243 -264q-16 -18 -30.5 -33.5t-23.5 -42.5z" />
<glyph unicode="&#xdc;" horiz-adv-x="937" d="M141.5 114.5q3.5 -53.5 31.5 -93t80 -62t132 -22.5q96 0 186.5 35.5t163 94t123 132t68.5 151.5l204 844q2 2 9.5 24.5t9.5 49t-8.5 48t-42.5 21.5q-29 0 -48.5 -12t-31.5 -32.5t-18.5 -48t-12.5 -56.5l-217 -846q-10 -37 -43 -77t-82 -72.5t-111.5 -53t-132.5 -20.5 q-49 0 -81.5 29.5t-18.5 82.5l242 1004q2 12 3 29.5t-3 34t-16.5 27.5t-34.5 11q-49 0 -66.5 -35.5t-32.5 -76.5l-239 -994q-16 -63 -12.5 -116.5zM602 1540.5q2 -24.5 11.5 -45t24.5 -34t34 -13.5q27 0 48 14.5t37.5 36t27 45.5t16.5 47q4 18 8 43t1 45.5t-14.5 35 t-37.5 14.5q-27 0 -51.5 -13.5t-45 -34t-35 -46t-20.5 -48t-4 -47zM894 1548.5q3 -24.5 11 -45t23.5 -34t34.5 -13.5q27 0 48 14.5t37.5 36t28 47t17.5 48.5q4 18 8 41.5t1 44t-14.5 35t-37.5 14.5q-27 0 -51.5 -13.5t-45 -34t-36 -46t-21.5 -48t-3 -47z" />
<glyph unicode="&#xdd;" horiz-adv-x="937" d="M317 1229q0 -35 23 -82l205 -508l-123 -508q-16 -68 -14 -115t43 -43q53 6 76.5 49.5t35.5 96.5l127 520l484 508q35 45 48 72.5t13 44.5q0 16 -10.5 27.5t-20.5 21.5q-14 12 -30.5 8t-34 -16.5t-37 -30t-41.5 -31.5l-391 -414l-176 371q-20 66 -38 110t-40.5 37.5 t-46 -20.5t-38 -38.5t-14.5 -59.5zM757 1453q1 -11 10.5 -18.5t25.5 -15.5h8q6 0 12 5.5t17.5 15.5t27.5 33q14 16 39 39.5t64 52.5q31 25 51 44t37.5 39.5t31 44t29.5 56.5q18 47 16 71.5t-18 29.5t-44 -6t-60 -36q-27 -18 -56.5 -52t-59.5 -72.5t-56.5 -79.5t-45.5 -76 q-16 -29 -23 -46.5t-6 -28.5z" />
<glyph unicode="&#xde;" horiz-adv-x="804" d="M112 20.5q3 -43.5 50 -51.5q27 -4 44 13.5t31.5 45t25 63.5t20.5 69l10 53q45 0 62.5 1t25.5 1q76 0 165 55.5t171 146.5t147.5 208.5t93.5 244.5q35 147 3.5 232.5t-138.5 85.5q-72 0 -151.5 -22.5t-167.5 -88.5l22 88q6 27 15.5 56.5t11.5 55.5t-5 43t-34 17 q-70 0 -92.5 -36.5t-36.5 -112.5l-258 -1069q-18 -55 -15 -98.5zM348 432l33 139l68 281q12 18 43.5 42t73.5 44t92.5 33.5t101.5 13.5q41 0 53 -31t0 -84q-20 -90 -69.5 -177t-110 -155.5t-125 -111.5t-117.5 -43q-25 0 -36 10t-7 39z" />
<glyph unicode="&#xdf;" horiz-adv-x="929" d="M145 -177q15 -38 54 -34q18 2 36.5 14.5t33 29.5t22.5 40t8 47l238 1086q2 14 11 46.5t26.5 67.5t43 66t60.5 43q31 10 58.5 16t49 0t30.5 -27.5t3 -66.5q-29 -37 -64.5 -77t-69.5 -86t-58.5 -102.5t-30.5 -125.5q-20 -39 -14 -98.5t33.5 -116t74.5 -95t111 -38.5 q18 0 31.5 -26t-11.5 -79q-18 -45 -30.5 -72.5t-24.5 -46t-27.5 -28.5t-40.5 -19q-27 -10 -56.5 17.5t-70.5 79.5q-12 12 -29.5 17t-37 -1t-36.5 -23.5t-28 -46.5q-16 -45 1.5 -87t53 -72.5t81 -45t86.5 -6.5q49 10 97 38t92 77t78.5 120t57.5 167q18 104 -19.5 162.5 t-95.5 58.5q-74 0 -117.5 31.5t-53 83t18.5 114t93 121.5q33 29 50.5 46.5t28.5 30.5t17 27.5t19 36.5q41 88 30.5 153t-50.5 103.5t-99 51t-119 -1.5q-72 -18 -123 -62.5t-87 -107t-61.5 -139t-43.5 -158.5l-17 -72l-39 -20q-16 -6 -30.5 -10.5t-26.5 -12.5t-22.5 -26.5 t-18.5 -51.5q-8 -31 -4 -47t15.5 -22.5t27.5 -4t33 8.5l22 -2l-165 -754q-20 -51 -5 -89z" />
<glyph unicode="&#xe0;" horiz-adv-x="811" d="M71 129q3 -49 17 -92t41 -71.5t61 -28.5q55 0 115 18t113 41.5t98 48.5t74 37q-6 -29 -12.5 -50.5t-4.5 -36.5t13.5 -23.5t42.5 -8.5q47 0 70.5 33t33.5 102l4 2l135 602q16 70 11.5 115t-23 69.5t-46.5 34t-54 9.5q-92 0 -200.5 -30t-205.5 -103q-23 -12 -48 -27.5 t-38 -67.5q-10 -47 8.5 -57t47 -3t57.5 22.5t37 21.5q78 25 140.5 54.5t127.5 29.5q14 0 34.5 -6t14.5 -41l-24 -113q-117 -6 -219.5 -31.5t-183.5 -73.5t-139 -119t-89 -167q-12 -41 -9 -90zM206 158.5q-5 23.5 3 60.5q12 47 59 87t112.5 73t143.5 55.5t152 34.5l-23 -162 q0 -4 -21.5 -22.5t-56 -45t-78.5 -55t-88 -51t-86 -34t-73 -3.5l-10 6q-9 7 -19 20t-15 36.5zM516 1352q2 -33 8 -56.5t16.5 -44t25 -40t36.5 -44.5q25 -29 42.5 -52t25.5 -40q8 -23 16 -33t15.5 -15t11.5 -5h4q18 8 29.5 15t16.5 18.5t4 29t-7 45.5q-6 35 -18.5 76t-28 80 t-33.5 73t-37 52q-51 49 -90 42t-37 -101z" />
<glyph unicode="&#xe1;" horiz-adv-x="811" d="M71 129q3 -49 17 -92t41 -71.5t61 -28.5q55 0 115 18t113 41.5t98 48.5t74 37q-6 -29 -12.5 -50.5t-4.5 -36.5t13.5 -23.5t42.5 -8.5q47 0 70.5 33t33.5 102l4 2l135 602q16 70 11.5 115t-23 69.5t-46.5 34t-54 9.5q-92 0 -200.5 -30t-205.5 -103q-23 -12 -48 -27.5 t-38 -67.5q-10 -47 8.5 -57t47 -3t57.5 22.5t37 21.5q78 25 140.5 54.5t127.5 29.5q14 0 34.5 -6t14.5 -41l-24 -113q-117 -6 -219.5 -31.5t-183.5 -73.5t-139 -119t-89 -167q-12 -41 -9 -90zM206 158.5q-5 23.5 3 60.5q12 47 59 87t112.5 73t143.5 55.5t152 34.5l-23 -162 q0 -4 -21.5 -22.5t-56 -45t-78.5 -55t-88 -51t-86 -34t-73 -3.5l-10 6q-9 7 -19 20t-15 36.5zM521 1055.5q1 -11.5 10.5 -18.5t25.5 -15h8t11.5 5t17.5 15.5t29 32.5q14 16 38.5 40t63.5 52q29 25 50.5 44.5t37.5 40t30.5 44t28.5 56.5q18 47 16.5 71.5t-18 29.5t-44 -6 t-60.5 -36q-25 -18 -55.5 -52t-59 -73t-56.5 -80t-46 -76q-16 -29 -22.5 -46t-5.5 -28.5z" />
<glyph unicode="&#xe2;" horiz-adv-x="811" d="M71 129q3 -49 17 -92t41 -71.5t61 -28.5q55 0 115 18t113 41.5t98 48.5t74 37q-6 -29 -12.5 -50.5t-4.5 -36.5t13.5 -23.5t42.5 -8.5q47 0 70.5 33t33.5 102l4 2l135 602q16 70 11.5 115t-23 69.5t-46.5 34t-54 9.5q-92 0 -200.5 -30t-205.5 -103q-23 -12 -48 -27.5 t-38 -67.5q-10 -47 8.5 -57t47 -3t57.5 22.5t37 21.5q78 25 140.5 54.5t127.5 29.5q14 0 34.5 -6t14.5 -41l-24 -113q-117 -6 -219.5 -31.5t-183.5 -73.5t-139 -119t-89 -167q-12 -41 -9 -90zM206 158.5q-5 23.5 3 60.5q12 47 59 87t112.5 73t143.5 55.5t152 34.5l-23 -162 q0 -4 -21.5 -22.5t-56 -45t-78.5 -55t-88 -51t-86 -34t-73 -3.5l-10 6q-9 7 -19 20t-15 36.5zM416 1087q-4 -14 5 -25t36 -22q16 -4 33.5 5.5t52.5 54.5l184 200l66 -194q10 -49 33.5 -59.5t29.5 -6.5q29 14 41 27.5t18 36.5q6 25 -4 61l-88 252q-4 29 -16 50.5t-35 21.5 q-25 0 -37 -13.5t-22 -31.5l-240 -264q-20 -18 -32.5 -34t-22.5 -42z" />
<glyph unicode="&#xe3;" horiz-adv-x="811" d="M71 129q3 -49 17 -92t41 -71.5t61 -28.5q55 0 115 18t113 41.5t98 48.5t74 37q-6 -29 -12.5 -50.5t-4.5 -36.5t13.5 -23.5t42.5 -8.5q47 0 70.5 33t33.5 102l4 2l135 602q16 70 11.5 115t-23 69.5t-46.5 34t-54 9.5q-92 0 -200.5 -30t-205.5 -103q-23 -12 -48 -27.5 t-38 -67.5q-10 -47 8.5 -57t47 -3t57.5 22.5t37 21.5q78 25 140.5 54.5t127.5 29.5q14 0 34.5 -6t14.5 -41l-24 -113q-117 -6 -219.5 -31.5t-183.5 -73.5t-139 -119t-89 -167q-12 -41 -9 -90zM206 158.5q-5 23.5 3 60.5q12 47 59 87t112.5 73t143.5 55.5t152 34.5l-23 -162 q0 -4 -21.5 -22.5t-56 -45t-78.5 -55t-88 -51t-86 -34t-73 -3.5l-10 6q-9 7 -19 20t-15 36.5zM446 1122q-6 -25 4.5 -43t34.5 -18q14 0 29.5 15.5t31 32.5t31 32.5t29.5 15.5q12 0 19.5 -16.5t16.5 -37t26.5 -36.5t50.5 -16q66 0 112.5 39.5t75.5 156.5q4 14 -5 28.5 t-23.5 18.5t-32 -4t-31.5 -35q-4 -10 -8 -25.5t-11.5 -29.5t-17.5 -25.5t-24 -11.5q-18 0 -26.5 18.5t-17 42t-20.5 42t-43 18.5q-25 0 -55.5 -14.5t-60 -37t-53 -51t-32.5 -59.5z" />
<glyph unicode="&#xe4;" horiz-adv-x="811" d="M71 129q3 -49 17 -92t41 -71.5t61 -28.5q55 0 115 18t113 41.5t98 48.5t74 37q-6 -29 -12.5 -50.5t-4.5 -36.5t13.5 -23.5t42.5 -8.5q47 0 70.5 33t33.5 102l4 2l135 602q16 70 11.5 115t-23 69.5t-46.5 34t-54 9.5q-92 0 -200.5 -30t-205.5 -103q-23 -12 -48 -27.5 t-38 -67.5q-10 -47 8.5 -57t47 -3t57.5 22.5t37 21.5q78 25 140.5 54.5t127.5 29.5q14 0 34.5 -6t14.5 -41l-24 -113q-117 -6 -219.5 -31.5t-183.5 -73.5t-139 -119t-89 -167q-12 -41 -9 -90zM206 158.5q-5 23.5 3 60.5q12 47 59 87t112.5 73t143.5 55.5t152 34.5l-23 -162 q0 -4 -21.5 -22.5t-56 -45t-78.5 -55t-88 -51t-86 -34t-73 -3.5l-10 6q-9 7 -19 20t-15 36.5zM426 1130.5q2 -24.5 11 -45t23.5 -34t35.5 -13.5q27 0 48 14.5t37.5 36t28 46t17.5 47.5q4 18 7 42.5t1 45t-13.5 35t-37.5 14.5q-27 0 -52.5 -13.5t-46 -34t-35 -46t-20.5 -48 t-4 -47zM720 1138.5q3 -24.5 11 -45t23.5 -33.5t33.5 -13q27 0 48.5 14t38 35.5t28 47t17.5 48.5q4 18 7 41.5t0 44t-15.5 35t-37.5 14.5q-27 0 -51 -13.5t-44.5 -33.5t-35 -46t-20.5 -48.5t-3 -47z" />
<glyph unicode="&#xe5;" horiz-adv-x="811" d="M71 129q3 -49 17 -92t41 -71.5t61 -28.5q55 0 115 18t113 41.5t98 48.5t74 37q-6 -29 -12.5 -50.5t-4.5 -36.5t13.5 -23.5t42.5 -8.5q47 0 70.5 33t33.5 102l4 2l135 602q16 70 11.5 115t-23 69.5t-46.5 34t-54 9.5q-92 0 -200.5 -30t-205.5 -103q-23 -12 -48 -27.5 t-38 -67.5q-10 -47 8.5 -57t47 -3t57.5 22.5t37 21.5q78 25 140.5 54.5t127.5 29.5q14 0 34.5 -6t14.5 -41l-24 -113q-117 -6 -219.5 -31.5t-183.5 -73.5t-139 -119t-89 -167q-12 -41 -9 -90zM206 158.5q-5 23.5 3 60.5q12 47 59 87t112.5 73t143.5 55.5t152 34.5l-23 -162 q0 -4 -21.5 -22.5t-56 -45t-78.5 -55t-88 -51t-86 -34t-73 -3.5l-10 6q-9 7 -19 20t-15 36.5zM529.5 1124.5q-1.5 -28.5 8 -51t28 -36t50.5 -13.5q39 0 79 21.5t76 57.5t61.5 83t37.5 100q8 33 9.5 65.5t-7 57.5t-27 40t-46.5 15q-49 0 -93 -26.5t-78 -68.5t-58.5 -91 t-32.5 -94q-6 -31 -7.5 -59.5zM650.5 1166.5q-3.5 17.5 0.5 38t14.5 43t25 41t33.5 30.5t42 12q20 0 21 -18t-3 -41q-10 -47 -42.5 -85t-69.5 -38q-18 0 -21.5 17.5z" />
<glyph unicode="&#xe6;" horiz-adv-x="1236" d="M71 129q3 -49 17 -92t41 -71.5t61 -28.5q55 0 115 18t113 41.5t98 48.5t74 37q18 -23 30.5 -38t22.5 -26.5t22.5 -17.5t28.5 -10q37 -25 94 -25q78 0 162 33t155 77t119 91t54 76q10 47 7 70.5t-32 23.5q-16 0 -27.5 -1t-20.5 -4t-20 -10.5t-30 -19.5q-35 -29 -73 -59.5 t-76.5 -55t-77.5 -41t-76 -16.5q-10 0 -24.5 1t-27 9t-20.5 27.5t-8 56.5l12 90q88 27 183.5 60t176.5 74.5t138.5 94t71.5 120.5q27 119 -18.5 195.5t-143.5 76.5q-84 0 -162 -44t-149 -118q4 49 -5.5 80t-27 48.5t-41 23.5t-47.5 6q-92 0 -200.5 -30t-205.5 -103 q-23 -12 -48 -27.5t-38 -67.5q-10 -47 8.5 -57t47 -3t57.5 22.5t37 21.5q78 25 140.5 54.5t127.5 29.5q14 0 34.5 -6t14.5 -41l-24 -113q-117 -6 -219.5 -31.5t-183.5 -73.5t-139 -119t-89 -167q-12 -41 -9 -90zM206 158.5q-5 23.5 3 60.5q12 47 59 87t112.5 73t143.5 55.5 t152 34.5q-12 -53 -19.5 -84t-10.5 -47t-5 -23.5t-2 -11.5t-2 -8t-2 -8q-25 -23 -73 -58.5t-104.5 -68.5t-112.5 -53.5t-95 -10.5l-10 6q-9 7 -19 20t-15 36.5zM838 483q27 68 65.5 122t81.5 92t85 59.5t77 21.5q47 0 61 -29.5t4 -58.5q-12 -29 -62 -68.5t-111.5 -74.5 t-119 -55.5t-81.5 -8.5z" />
<glyph unicode="&#xe7;" horiz-adv-x="708" d="M102.5 171.5q-2.5 -56.5 10 -102.5t40 -79t74.5 -45q-2 -8 -6 -29l-31 -106l-10 -24t-14 -54q-4 -29 -1 -55.5t28 -32.5q14 -4 32.5 7t37 33.5t35 54t26.5 68.5l51 125l4 19q55 12 100 34.5t80 50t60.5 55.5t42.5 50l67 78q51 78 57.5 130t-55.5 52q-29 0 -47 -12 t-31.5 -27.5t-21.5 -32t-13 -22.5q-16 -29 -45.5 -61.5t-68.5 -62t-85 -49t-93 -19.5q-27 0 -42.5 15t-21.5 40t-5 55.5t7 61.5q20 88 60.5 170t89.5 145.5t101 101t97 37.5q49 0 81 -12t42 -37q27 -25 59.5 -19.5t54 30t23.5 62.5t-30 81q-41 47 -84 59.5t-107 12.5 q-78 0 -160.5 -52.5t-156.5 -140.5t-131.5 -201.5t-83.5 -236.5q-14 -59 -16.5 -115.5z" />
<glyph unicode="&#xe8;" horiz-adv-x="720" d="M113 268q-41 -174 2 -256t149 -82q78 0 161 33t153.5 77t118.5 91t55 76q25 94 -23 94q-18 0 -28.5 -1t-19.5 -4t-21.5 -10t-30.5 -20q-35 -29 -73 -59.5t-77 -55t-78 -41t-75 -16.5q-10 0 -23.5 1t-26 9.5t-21.5 28t-9 55.5q2 39 8 65l6 26q88 27 182.5 59.5t175 74.5 t138 94t71.5 120q14 59 9 109t-26.5 86t-57 56.5t-84.5 20.5q-94 0 -183.5 -55.5t-163 -145.5t-128 -202.5t-80.5 -227.5zM311 449q27 68 67 122t83 91.5t85 59t77 21.5q45 0 60 -29.5t5 -58.5q-12 -29 -62.5 -68.5t-111.5 -74.5t-119.5 -55.5t-83.5 -7.5zM516 1352 q2 -33 8 -56.5t16.5 -44t25 -40t36.5 -44.5q25 -29 42.5 -52t25.5 -40q8 -23 16 -33t15.5 -15t11.5 -5h4q18 8 29.5 15t16.5 18.5t4 29t-7 45.5q-6 35 -18.5 76t-28 80t-33.5 73t-37 52q-51 49 -90 42t-37 -101z" />
<glyph unicode="&#xe9;" horiz-adv-x="720" d="M113 268q-41 -174 2 -256t149 -82q78 0 161 33t153.5 77t118.5 91t55 76q25 94 -23 94q-18 0 -28.5 -1t-19.5 -4t-21.5 -10t-30.5 -20q-35 -29 -73 -59.5t-77 -55t-78 -41t-75 -16.5q-10 0 -23.5 1t-26 9.5t-21.5 28t-9 55.5q2 39 8 65l6 26q88 27 182.5 59.5t175 74.5 t138 94t71.5 120q14 59 9 109t-26.5 86t-57 56.5t-84.5 20.5q-94 0 -183.5 -55.5t-163 -145.5t-128 -202.5t-80.5 -227.5zM311 449q27 68 67 122t83 91.5t85 59t77 21.5q45 0 60 -29.5t5 -58.5q-12 -29 -62.5 -68.5t-111.5 -74.5t-119.5 -55.5t-83.5 -7.5zM567 1055.5 q2 -11.5 10.5 -18.5t24.5 -15h10t11.5 5t17.5 15.5t29 32.5q29 37 100 92q29 25 50.5 44.5t39 40t30.5 44t28 56.5q18 47 16 71.5t-18.5 29.5t-44 -6t-60.5 -36q-25 -18 -54.5 -52t-59 -73t-56.5 -80t-47 -76q-16 -29 -22.5 -46t-4.5 -28.5z" />
<glyph unicode="&#xea;" horiz-adv-x="720" d="M113 268q-41 -174 2 -256t149 -82q78 0 161 33t153.5 77t118.5 91t55 76q25 94 -23 94q-18 0 -28.5 -1t-19.5 -4t-21.5 -10t-30.5 -20q-35 -29 -73 -59.5t-77 -55t-78 -41t-75 -16.5q-10 0 -23.5 1t-26 9.5t-21.5 28t-9 55.5q2 39 8 65l6 26q88 27 182.5 59.5t175 74.5 t138 94t71.5 120q14 59 9 109t-26.5 86t-57 56.5t-84.5 20.5q-94 0 -183.5 -55.5t-163 -145.5t-128 -202.5t-80.5 -227.5zM311 449q27 68 67 122t83 91.5t85 59t77 21.5q45 0 60 -29.5t5 -58.5q-12 -29 -62.5 -68.5t-111.5 -74.5t-119.5 -55.5t-83.5 -7.5zM408 1087 q-4 -14 4 -25t37 -22q16 -4 33.5 5.5t52.5 54.5l182 200l67 -194q10 -49 33 -59.5t31 -6.5q29 14 40 27.5t17 36.5q8 27 -4 61l-88 252q-4 29 -16.5 50.5t-34.5 21.5q-23 0 -35 -13.5t-22 -31.5l-242 -264q-18 -18 -31.5 -34t-21.5 -42z" />
<glyph unicode="&#xeb;" horiz-adv-x="720" d="M113 268q-41 -174 2 -256t149 -82q78 0 161 33t153.5 77t118.5 91t55 76q25 94 -23 94q-18 0 -28.5 -1t-19.5 -4t-21.5 -10t-30.5 -20q-35 -29 -73 -59.5t-77 -55t-78 -41t-75 -16.5q-10 0 -23.5 1t-26 9.5t-21.5 28t-9 55.5q2 39 8 65l6 26q88 27 182.5 59.5t175 74.5 t138 94t71.5 120q14 59 9 109t-26.5 86t-57 56.5t-84.5 20.5q-94 0 -183.5 -55.5t-163 -145.5t-128 -202.5t-80.5 -227.5zM311 449q27 68 67 122t83 91.5t85 59t77 21.5q45 0 60 -29.5t5 -58.5q-12 -29 -62.5 -68.5t-111.5 -74.5t-119.5 -55.5t-83.5 -7.5zM434 1130.5 q2 -24.5 11.5 -45t23.5 -34t35 -13.5q25 0 46 14.5t38.5 36t29 46t17.5 47.5q4 18 7 42.5t0 45t-14.5 35t-35.5 14.5q-27 0 -52.5 -13.5t-46 -34t-36 -46t-21.5 -47.5q-4 -23 -2 -47.5zM728 1138.5q3 -24.5 11.5 -45t22.5 -33.5t33 -13q27 0 49 14t38.5 35.5t28 47 t15.5 48.5q6 18 9 41.5t0 44t-15.5 35t-38.5 14.5q-25 0 -50.5 -13.5t-46 -33.5t-35 -46t-18.5 -48q-6 -23 -3 -47.5z" />
<glyph unicode="&#xec;" d="M107.5 21.5q1.5 -21.5 11.5 -35t36.5 -17.5t46 8.5t32 35t21.5 53t17 61.5v-2l134 584q18 70 25 109.5t5 61t-13 27.5t-32 6q-35 0 -56.5 -10t-34.5 -34.5t-22.5 -64.5t-21.5 -99l-129 -574q-6 -33 -13.5 -60.5t-6 -49zM293 1352q2 -33 8 -56.5t16.5 -44t24.5 -40 t37 -44.5q25 -29 42 -52t25 -40q8 -23 17.5 -33t15.5 -15t10 -5h5q18 8 29.5 15t17.5 18.5t5 29t-7 45.5q-8 35 -20.5 76t-28 80t-34 73t-36.5 52q-25 25 -48.5 36t-41 6t-27.5 -29.5t-10 -71.5z" />
<glyph unicode="&#xed;" d="M107.5 21.5q1.5 -21.5 11.5 -35t36.5 -17.5t46 8.5t32 35t21.5 53t17 61.5v-2l134 584q18 70 25 109.5t5 61t-13 27.5t-32 6q-35 0 -56.5 -10t-34.5 -34.5t-22.5 -64.5t-21.5 -99l-129 -574q-6 -33 -13.5 -60.5t-6 -49zM295 1055.5q2 -11.5 10.5 -18.5t24.5 -15h10t11 5 t17.5 15.5t28.5 32.5q29 37 101 92q29 25 50 44.5t38.5 40t31 44t27.5 56.5q18 47 16 71.5t-17 29.5t-43 -6t-62 -36q-25 -18 -54.5 -52t-58.5 -73t-56.5 -80t-45.5 -76q-16 -29 -23.5 -46t-5.5 -28.5z" />
<glyph unicode="&#xee;" d="M107.5 21.5q1.5 -21.5 11.5 -35t36.5 -17.5t46 8.5t32 35t21.5 53t17 61.5v-2l134 584q18 70 25 109.5t5 61t-13 27.5t-32 6q-35 0 -56.5 -10t-34.5 -34.5t-22.5 -64.5t-21.5 -99l-129 -574q-6 -33 -13.5 -60.5t-6 -49zM162 1087q-4 -14 4 -25t37 -22q16 -4 33.5 5.5 t52.5 54.5l182 200l68 -194q10 -49 32.5 -59.5t30.5 -6.5q29 14 40 27.5t17 36.5q8 27 -4 61l-88 252q-4 29 -16 50.5t-35 21.5t-35 -13.5t-22 -31.5l-242 -264q-18 -18 -31.5 -34t-21.5 -42z" />
<glyph unicode="&#xef;" d="M107.5 21.5q1.5 -21.5 11.5 -35t36.5 -17.5t46 8.5t32 35t21.5 53t17 61.5v-2l134 584q18 70 25 109.5t5 61t-13 27.5t-32 6q-35 0 -56.5 -10t-34.5 -34.5t-22.5 -64.5t-21.5 -99l-129 -574q-6 -33 -13.5 -60.5t-6 -49zM179 1130.5q3 -24.5 11.5 -45t23.5 -34t34 -13.5 q27 0 48 14.5t37.5 36t28 46t17.5 47.5q4 18 8 42.5t1 45t-14.5 35t-37.5 14.5q-27 0 -51.5 -13.5t-45 -34t-36 -46t-21.5 -48t-3 -47zM472 1138.5q3 -24.5 11.5 -45t23.5 -33.5t34 -13q27 0 48 14t37.5 35.5t28 47t17.5 48.5q4 18 7 41.5t0 44t-14.5 35t-37.5 14.5 q-27 0 -51.5 -13.5t-45 -33.5t-35 -46t-20.5 -48.5t-3 -47z" />
<glyph unicode="&#xf0;" horiz-adv-x="813" d="M177 506q-13 -105 1.5 -199t56 -169t109.5 -111q20 -10 70.5 -18.5t117 12t139 82t138.5 188.5q35 70 61.5 174t39 221t11.5 236.5t-22 222.5l47 37q33 27 44 65.5t1 67t-39.5 36t-77.5 -29.5l-12 -8l-12 -8q-39 84 -100 120q-29 16 -63 1t-52 -52q-4 -10 21.5 -59 t54.5 -123q-8 -8 -14.5 -13t-8.5 -10q-39 -31 -49 -68.5t0 -66t38 -38t64 19.5l13 6l2 8l6 4q10 -47 14 -96t0 -96l-20 28q-49 53 -84 72q-59 31 -122 28t-121 -36t-108.5 -91.5t-87.5 -135.5q-43 -96 -56 -201zM325.5 436.5q3.5 69.5 36.5 169.5q31 72 76 117h2 q10 12 24.5 28.5t36 28t54.5 10t80 -25.5q35 -18 58.5 -55t30.5 -88.5t-3 -115t-43 -134.5q-53 -117 -124 -157t-130 -7q-27 14 -52.5 40.5t-37.5 73t-8.5 116z" />
<glyph unicode="&#xf1;" horiz-adv-x="770" d="M111 57q-6 -35 4 -61.5t43 -22.5q25 2 44 16.5t32.5 33t20.5 39t7 36.5l127 494q47 43 94 68.5t87 39t67 16.5t33 3q18 0 18 -21q0 -20 -4 -30l-129 -568q-18 -76 -8 -99.5t51 -27.5q39 -4 65.5 32t34.5 101l21 93l133 577q16 68 -17.5 109t-76.5 41q-27 0 -71 -14.5 t-92 -33t-92 -37t-69 -26.5l4 37q-2 14 2 35q4 27 -1 39t-50 2q-47 -8 -73.5 -44t-34.5 -85l-58 -248q-10 -49 -16 -77t-15.5 -66.5t-25.5 -105t-43 -196.5q-4 -12 -7 -24t-5 -25zM432 1116q-6 -25 5.5 -43t35.5 -18q14 0 28.5 15t30 32.5t31 33t29.5 15.5q12 0 19 -16.5 t17.5 -37t28 -37t50.5 -16.5q66 0 112.5 40t75.5 157q2 14 -6 28.5t-22.5 18.5t-32 -4t-31.5 -35q-4 -10 -9.5 -25.5t-11.5 -29.5t-16 -25.5t-25 -11.5q-18 0 -26 18.5t-16.5 42t-21.5 42t-44 18.5q-25 0 -55.5 -14.5t-60.5 -37t-53.5 -51t-31.5 -59.5z" />
<glyph unicode="&#xf2;" horiz-adv-x="802" d="M103.5 164.5q-1.5 -64.5 19 -114.5t62.5 -80.5t114 -30.5q88 0 179 47t169 128t138 187t87 227q18 74 19.5 145.5t-17 127t-59.5 89.5t-106 34q-109 0 -206 -59.5t-175 -151.5t-132.5 -204t-76.5 -214q-14 -66 -15.5 -130.5zM256 231.5q2 32.5 8 63.5q18 70 53 147.5 t85.5 142t114 106.5t138.5 42q33 0 52.5 -17.5t26.5 -47t4 -66.5t-11 -74q-18 -80 -58 -154.5t-93.5 -132t-115 -92t-122.5 -34.5q-33 0 -51.5 16t-25.5 42t-5 58.5zM516 1352q2 -33 8 -56.5t16.5 -44t25 -40t36.5 -44.5q25 -29 42.5 -52t25.5 -40q8 -23 16 -33t15.5 -15 t11.5 -5h4q18 8 29.5 15t16.5 18.5t4 29t-7 45.5q-6 35 -18.5 76t-28 80t-33.5 73t-37 52q-51 49 -90 42t-37 -101z" />
<glyph unicode="&#xf3;" horiz-adv-x="802" d="M103.5 164.5q-1.5 -64.5 19 -114.5t62.5 -80.5t114 -30.5q88 0 179 47t169 128t138 187t87 227q18 74 19.5 145.5t-17 127t-59.5 89.5t-106 34q-109 0 -206 -59.5t-175 -151.5t-132.5 -204t-76.5 -214q-14 -66 -15.5 -130.5zM256 231.5q2 32.5 8 63.5q18 70 53 147.5 t85.5 142t114 106.5t138.5 42q33 0 52.5 -17.5t26.5 -47t4 -66.5t-11 -74q-18 -80 -58 -154.5t-93.5 -132t-115 -92t-122.5 -34.5q-33 0 -51.5 16t-25.5 42t-5 58.5zM595 1055.5q1 -11.5 10.5 -18.5t25.5 -15h8t11 5t17.5 15.5t28.5 32.5q14 16 39 40t64 52q29 25 50 44.5 t37.5 40t31 44t28.5 56.5q18 47 16.5 71.5t-18 29.5t-44.5 -6t-60 -36q-25 -18 -55.5 -52t-59.5 -73t-56.5 -80t-45.5 -76q-16 -29 -22.5 -46t-5.5 -28.5z" />
<glyph unicode="&#xf4;" horiz-adv-x="802" d="M103.5 164.5q-1.5 -64.5 19 -114.5t62.5 -80.5t114 -30.5q88 0 179 47t169 128t138 187t87 227q18 74 19.5 145.5t-17 127t-59.5 89.5t-106 34q-109 0 -206 -59.5t-175 -151.5t-132.5 -204t-76.5 -214q-14 -66 -15.5 -130.5zM256 231.5q2 32.5 8 63.5q18 70 53 147.5 t85.5 142t114 106.5t138.5 42q33 0 52.5 -17.5t26.5 -47t4 -66.5t-11 -74q-18 -80 -58 -154.5t-93.5 -132t-115 -92t-122.5 -34.5q-33 0 -51.5 16t-25.5 42t-5 58.5zM438 1087q-4 -14 4.5 -25t36.5 -22q16 -4 33.5 5.5t52.5 54.5l183 200l67 -194q10 -49 32.5 -59.5 t31.5 -6.5q29 14 40 27.5t17 36.5q8 27 -4 61l-88 252q-4 29 -16.5 50.5t-34.5 21.5q-23 0 -35.5 -13.5t-22.5 -31.5l-241 -264q-18 -18 -31.5 -34t-22.5 -42z" />
<glyph unicode="&#xf5;" horiz-adv-x="802" d="M103.5 164.5q-1.5 -64.5 19 -114.5t62.5 -80.5t114 -30.5q88 0 179 47t169 128t138 187t87 227q18 74 19.5 145.5t-17 127t-59.5 89.5t-106 34q-109 0 -206 -59.5t-175 -151.5t-132.5 -204t-76.5 -214q-14 -66 -15.5 -130.5zM256 231.5q2 32.5 8 63.5q18 70 53 147.5 t85.5 142t114 106.5t138.5 42q33 0 52.5 -17.5t26.5 -47t4 -66.5t-11 -74q-18 -80 -58 -154.5t-93.5 -132t-115 -92t-122.5 -34.5q-33 0 -51.5 16t-25.5 42t-5 58.5zM487 1122q-8 -25 3.5 -43t35.5 -18q14 0 29.5 15.5t31 32.5t31 32.5t29.5 15.5q12 0 19.5 -16.5t16.5 -37 t25.5 -36.5t49.5 -16q68 0 114.5 39.5t73.5 156.5q4 14 -4 28.5t-22.5 18.5t-32 -4t-31.5 -35q-4 -10 -8 -25.5t-11.5 -29.5t-17.5 -25.5t-24 -11.5q-20 0 -28.5 18.5t-16 42t-20.5 42t-44 18.5q-25 0 -55.5 -14.5t-60 -37t-53 -51t-30.5 -59.5z" />
<glyph unicode="&#xf6;" horiz-adv-x="802" d="M103.5 164.5q-1.5 -64.5 19 -114.5t62.5 -80.5t114 -30.5q88 0 179 47t169 128t138 187t87 227q18 74 19.5 145.5t-17 127t-59.5 89.5t-106 34q-109 0 -206 -59.5t-175 -151.5t-132.5 -204t-76.5 -214q-14 -66 -15.5 -130.5zM256 231.5q2 32.5 8 63.5q18 70 53 147.5 t85.5 142t114 106.5t138.5 42q33 0 52.5 -17.5t26.5 -47t4 -66.5t-11 -74q-18 -80 -58 -154.5t-93.5 -132t-115 -92t-122.5 -34.5q-33 0 -51.5 16t-25.5 42t-5 58.5zM473 1130.5q2 -24.5 11.5 -45t23.5 -34t33 -13.5q27 0 48 14.5t37.5 36t28 46t17.5 47.5q4 18 8 42.5t1 45 t-14.5 35t-37.5 14.5q-27 0 -51.5 -13.5t-45 -34t-36 -46t-21.5 -47.5q-4 -23 -2 -47.5zM766 1138.5q2 -24.5 10 -45t23.5 -33.5t34.5 -13q27 0 49 14t38.5 35.5t28 47t15.5 48.5q4 18 7 41.5t0 44t-14.5 35t-37.5 14.5q-27 0 -51.5 -13.5t-45 -33.5t-35 -46t-18.5 -48 q-6 -23 -4 -47.5z" />
<glyph unicode="&#xf7;" horiz-adv-x="591" d="M135 444.5q-4 -34.5 11.5 -64.5t52.5 -30q16 0 39.5 -7t44.5 9l206 2l107 2q37 0 61.5 30t29.5 64.5t-12.5 64.5t-66.5 30q-18 0 -42.5 3t-43.5 -5h-213q-2 2 -18 2t-35.5 -3t-28.5 -3q-41 0 -64.5 -30t-27.5 -64.5zM191.5 43q3.5 -29 13.5 -52.5t27.5 -38.5t39.5 -15 q31 0 55.5 16t44 41.5t32 55t18.5 54.5q6 23 10 50.5t1 51t-16.5 40t-43.5 16.5q-31 0 -59.5 -15.5t-53 -40t-42 -53t-24 -55t-3 -55.5zM383 753.5q2 -28.5 12.5 -52t27.5 -39t40 -15.5q31 0 55.5 16.5t44 42t31.5 55t18 54.5q6 23 10.5 50.5t1.5 51t-16.5 40t-44.5 16.5 t-59.5 -15.5t-53 -40t-41 -53t-22.5 -55.5t-4 -55.5z" />
<glyph unicode="&#xf8;" horiz-adv-x="802" d="M103.5 190.5q-3.5 -51.5 6 -95.5t31 -78.5t58.5 -55.5q-2 -2 -2 -8q-57 -113 -67.5 -170t56.5 -57q23 0 43.5 21.5t38 49t30.5 55t24 39.5q4 12 9 24.5t13 27.5q84 12 168 63t155.5 130t126 179.5t78.5 212.5q27 109 17 206t-68 149q8 20 17.5 41t15.5 39 q12 27 24.5 58.5t17.5 60t-3 48t-35 19.5q-57 0 -82.5 -32t-40 -60.5t-30 -62t-35.5 -74.5q-102 -10 -192.5 -73t-163 -153t-124 -195.5t-71.5 -203.5q-12 -53 -15.5 -104.5zM256 202q-2 46 8 93q14 59 42 124.5t67 125t89 105.5t109 69q-70 -145 -145.5 -301t-140.5 -287 q-27 25 -29 71zM451 143q66 125 140.5 266.5t137.5 274.5q10 -31 8 -72t-10 -84q-14 -61 -42 -120.5t-64.5 -109.5t-79.5 -90t-90 -65z" />
<glyph unicode="&#xf9;" horiz-adv-x="782" d="M137 172q-25 -111 3 -164t98 -53q45 0 100 15.5t103 34t80 33.5l32 15q-14 -53 2 -69.5t45 -16.5q45 0 80 29t31 104l157 693q35 94 26 125.5t-50 27.5t-68.5 -39t-54.5 -114l-121 -533q-23 -18 -52.5 -39.5t-63 -41t-67.5 -32t-61 -12.5q-23 0 -49 7.5t-20 39.5l139 592 q20 59 14 100.5t-45 43.5q-27 2 -48 -11.5t-36.5 -34t-25 -46t-9.5 -46.5zM516 1352q2 -33 8 -56.5t16.5 -44t25 -40t36.5 -44.5q25 -29 42.5 -52t25.5 -40q8 -23 16 -33t15.5 -15t11.5 -5h4q18 8 29.5 15t16.5 18.5t4 29t-7 45.5q-6 35 -18.5 76t-28 80t-33.5 73t-37 52 q-51 49 -90 42t-37 -101z" />
<glyph unicode="&#xfa;" horiz-adv-x="782" d="M137 172q-25 -111 3 -164t98 -53q45 0 100 15.5t103 34t80 33.5l32 15q-14 -53 2 -69.5t45 -16.5q45 0 80 29t31 104l157 693q35 94 26 125.5t-50 27.5t-68.5 -39t-54.5 -114l-121 -533q-23 -18 -52.5 -39.5t-63 -41t-67.5 -32t-61 -12.5q-23 0 -49 7.5t-20 39.5l139 592 q20 59 14 100.5t-45 43.5q-27 2 -48 -11.5t-36.5 -34t-25 -46t-9.5 -46.5zM555 1055.5q2 -11.5 10.5 -18.5t24.5 -15h10t11 5t17.5 15.5t28.5 32.5q29 37 101 92q29 25 50 44.5t38.5 40t31 44t27.5 56.5q18 47 16.5 71.5t-18 29.5t-44.5 -6t-60 -36q-25 -18 -54.5 -52 t-59.5 -73t-56.5 -80t-46.5 -76q-16 -29 -22.5 -46t-4.5 -28.5z" />
<glyph unicode="&#xfb;" horiz-adv-x="782" d="M137 172q-25 -111 3 -164t98 -53q45 0 100 15.5t103 34t80 33.5l32 15q-14 -53 2 -69.5t45 -16.5q45 0 80 29t31 104l157 693q35 94 26 125.5t-50 27.5t-68.5 -39t-54.5 -114l-121 -533q-23 -18 -52.5 -39.5t-63 -41t-67.5 -32t-61 -12.5q-23 0 -49 7.5t-20 39.5l139 592 q20 59 14 100.5t-45 43.5q-27 2 -48 -11.5t-36.5 -34t-25 -46t-9.5 -46.5zM397 1087q-4 -14 5.5 -25t35.5 -22q16 -4 33.5 5.5t52.5 54.5l185 200l65 -194q10 -49 33.5 -59.5t30.5 -6.5q29 14 41 27.5t18 36.5q6 25 -4 61l-88 252q-4 29 -16.5 50.5t-34.5 21.5 q-25 0 -37 -13.5t-23 -31.5l-239 -264q-20 -18 -32.5 -34t-23.5 -42z" />
<glyph unicode="&#xfc;" horiz-adv-x="782" d="M137 172q-25 -111 3 -164t98 -53q45 0 100 15.5t103 34t80 33.5l32 15q-14 -53 2 -69.5t45 -16.5q45 0 80 29t31 104l157 693q35 94 26 125.5t-50 27.5t-68.5 -39t-54.5 -114l-121 -533q-23 -18 -52.5 -39.5t-63 -41t-67.5 -32t-61 -12.5q-23 0 -49 7.5t-20 39.5l139 592 q20 59 14 100.5t-45 43.5q-27 2 -48 -11.5t-36.5 -34t-25 -46t-9.5 -46.5zM424 1130.5q2 -24.5 11 -45t23.5 -34t33.5 -13.5q27 0 48 14.5t37.5 36t28 46t17.5 47.5q4 18 8 42.5t1 45t-14.5 35t-37.5 14.5q-27 0 -51.5 -13.5t-45 -34t-36 -46t-21.5 -47.5q-4 -23 -2 -47.5z M717 1138.5q2 -24.5 10 -45t23.5 -33.5t33.5 -13q27 0 49.5 14t39 35.5t27.5 47t15 48.5q4 18 7.5 41.5t0.5 44t-14.5 35t-38.5 14.5t-51 -13.5t-44.5 -33.5t-35 -46t-18.5 -48q-6 -23 -4 -47.5z" />
<glyph unicode="&#xfd;" horiz-adv-x="708" d="M-59 -420q6 -14 24.5 -20t43 -8.5t51 -1.5t51.5 1q49 0 91 25t78.5 66t68.5 94t61 112l434 897q14 29 25.5 57.5t13.5 51.5t-10.5 37t-45.5 14q-45 0 -63.5 -21.5t-38.5 -62.5l-274 -588l-97 560q-2 18 -4 39.5t-9 37t-22.5 21.5t-46.5 -4q-43 -16 -62.5 -57.5 t-8.5 -108.5l131 -719l-45 -96q-6 -14 -19.5 -43t-32 -57.5t-41 -50t-47.5 -21.5q-20 0 -54 8t-67.5 1t-58 -42t-26.5 -121zM522 1055.5q2 -11.5 10.5 -18.5t24.5 -15h10t11.5 5t17.5 15.5t29 32.5q29 37 100 92q29 25 50.5 44.5t38.5 40t30.5 44t27.5 56.5q18 47 16.5 71.5 t-17 29.5t-43 -6t-62.5 -36q-25 -18 -54.5 -52t-58 -73t-56.5 -80t-46 -76q-16 -29 -23.5 -46t-5.5 -28.5z" />
<glyph unicode="&#xfe;" horiz-adv-x="813" d="M-18 -561.5q2 -40.5 45 -30.5q47 12 72.5 41t39.5 92l97 426q35 -10 58 -5t32 5q74 0 163 55.5t171.5 146.5t149 209t95.5 245q35 147 3.5 232t-138.5 85q-74 0 -153.5 -23.5t-172.5 -89.5l72 312q18 70 25.5 109.5t3.5 61t-17.5 27.5t-33.5 6q-35 0 -56.5 -10t-35 -34.5 t-23.5 -64.5t-23 -99l-360 -1586q-16 -70 -14 -110.5zM295 184l98 420q12 18 43 42t74 44.5t93 33.5t102 13q41 0 54 -30.5t-1 -83.5q-20 -90 -68.5 -177.5t-109 -156t-125 -111.5t-117.5 -43q-25 0 -37 10.5t-6 38.5z" />
<glyph unicode="&#xff;" horiz-adv-x="708" d="M-59 -420q6 -14 24.5 -20t43 -8.5t51 -1.5t51.5 1q49 0 91 25t78.5 66t68.5 94t61 112l434 897q14 29 25.5 57.5t13.5 51.5t-10.5 37t-45.5 14q-45 0 -63.5 -21.5t-38.5 -62.5l-274 -588l-97 560q-2 18 -4 39.5t-9 37t-22.5 21.5t-46.5 -4q-43 -16 -62.5 -57.5 t-8.5 -108.5l131 -719l-45 -96q-6 -14 -19.5 -43t-32 -57.5t-41 -50t-47.5 -21.5q-20 0 -54 8t-67.5 1t-58 -42t-26.5 -121zM348 1130.5q2 -24.5 11.5 -45t23.5 -34t35 -13.5q25 0 46 14.5t38.5 36t29 46t17.5 47.5q4 18 7 42.5t0 45t-14.5 35t-35.5 14.5q-27 0 -52.5 -13.5 t-46 -34t-36 -46t-21.5 -47.5q-4 -23 -2 -47.5zM642 1138.5q3 -24.5 11.5 -45t22.5 -33.5t33 -13q27 0 49 14t38.5 35.5t28 47t15.5 48.5q6 18 9 41.5t0 44t-15.5 35t-38.5 14.5q-25 0 -50.5 -13.5t-46 -33.5t-35 -46t-18.5 -48q-6 -23 -3 -47.5z" />
<glyph unicode="&#x152;" horiz-adv-x="1497" d="M171.5 96.5q57.5 -159.5 225.5 -159.5q109 0 219.5 65.5t208.5 177.5q-12 -43 -18 -77.5t0 -58.5t28.5 -35t69.5 -5l488 47q70 0 96.5 29.5t30.5 60.5q14 59 -9.5 79t-85.5 16l-454 -52l98 414l356 51q20 4 37 4q31 0 58.5 17.5t44.5 77.5q6 16 5 34.5t-12.5 31.5 t-36 19.5t-69.5 0.5l-338 -56l2 15l82 333l389 33q39 2 66.5 3t47 9.5t33 28t23.5 57.5q10 41 0 60.5t-33.5 26t-54.5 3t-61 -5.5q-137 -12 -215 -17t-123 -5h-105q-20 0 -38.5 -9.5t-30.5 -23.5q-29 45 -76 70.5t-117 25.5q-78 0 -155.5 -41t-151.5 -109.5t-140.5 -155.5 t-121.5 -181t-94 -187.5t-58 -170.5q-68 -281 -10.5 -440.5zM298 365.5q5 76.5 28 171.5q14 59 44.5 132.5t72.5 147.5t93.5 143.5t105.5 123t110.5 86t107.5 32.5q47 0 76 -22.5t44 -61.5t18 -90t-3 -108q-12 -61 -28.5 -132t-34.5 -153q-37 -109 -91.5 -203t-120 -164.5 t-138 -110.5t-142.5 -40q-55 0 -88 30.5t-46 86t-8 132z" />
<glyph unicode="&#x153;" horiz-adv-x="1263" d="M103.5 164.5q-1.5 -64.5 19 -114.5t62.5 -80.5t114 -30.5q86 0 173 44t165 121q4 -88 48 -130t122 -42t161 33t153.5 77t118.5 91t54 76q10 47 7 70.5t-29 23.5q-18 0 -28.5 -1t-20 -4t-21.5 -10t-31 -20q-35 -29 -71.5 -59.5t-76.5 -55t-79 -41t-76 -16.5q-10 0 -23.5 1 t-25.5 9.5t-21.5 28t-9.5 55.5q2 39 8 65l5 26q88 27 183 59.5t176 74.5t138.5 94t71.5 120q14 59 9 109t-25.5 86t-56 56.5t-85.5 20.5q-88 0 -168.5 -48t-152.5 -126q-10 86 -53 141.5t-129 55.5q-109 0 -206 -59.5t-175 -151.5t-132.5 -204t-76.5 -214 q-14 -66 -15.5 -130.5zM256 231.5q2 32.5 8 63.5q18 70 53 147.5t85.5 142t114 106.5t138.5 42q33 0 52.5 -17.5t26.5 -47t4 -66.5t-11 -74q-18 -80 -58 -154.5t-93.5 -132t-115 -92t-122.5 -34.5q-33 0 -51.5 16t-25.5 42t-5 58.5zM854 451q27 68 65.5 122t81.5 91.5t86 59 t78 21.5q45 0 60.5 -29.5t5.5 -58.5q-12 -29 -63.5 -68.5t-113 -74.5t-118.5 -55.5t-82 -7.5z" />
<glyph unicode="&#x178;" horiz-adv-x="937" d="M317 1229q0 -35 23 -82l205 -508l-123 -508q-16 -68 -14 -115t43 -43q53 6 76.5 49.5t35.5 96.5l127 520l484 508q35 45 48 72.5t13 44.5q0 16 -10.5 27.5t-20.5 21.5q-14 12 -30.5 8t-34 -16.5t-37 -30t-41.5 -31.5l-391 -414l-176 371q-20 66 -38 110t-40.5 37.5 t-46 -20.5t-38 -38.5t-14.5 -59.5zM610 1523.5q2 -24.5 11.5 -45t23.5 -33.5t33 -13q27 0 48.5 14t37.5 35.5t27.5 46t17.5 47.5q4 18 7 42.5t0 45t-14 35t-38 14.5t-51.5 -13t-45 -33.5t-35 -46.5t-20.5 -48q-4 -23 -2 -47.5zM903 1531.5q2 -24.5 10.5 -45t23.5 -33.5 t34 -13q27 0 48 14t37.5 35.5t28 47t15.5 48.5q6 18 9 42t0 44.5t-14.5 34.5t-37.5 14q-27 0 -51.5 -13t-45 -33.5t-35 -46t-18.5 -48.5q-6 -23 -4 -47.5z" />
<glyph unicode="&#x2c6;" horiz-adv-x="614" d="M317 1087q-4 -14 4.5 -25t36.5 -22q16 -4 33 5.5t51 54.5l185 200l67 -194q10 -49 33 -59.5t31 -6.5q29 14 40 27.5t17 36.5q4 14 2 29.5t-6 31.5l-88 252q-4 29 -16.5 50.5t-34.5 21.5q-25 0 -36 -13.5t-24 -31.5l-239 -264q-20 -18 -32.5 -34t-21.5 -42z" />
<glyph unicode="&#x2dc;" horiz-adv-x="755" d="M395 1122q-8 -25 3.5 -43t35.5 -18q14 0 29.5 15.5t31 32.5t31 32.5t29.5 15.5q12 0 19.5 -16.5t16.5 -37t25.5 -36.5t49.5 -16q68 0 114.5 39.5t73.5 156.5q4 14 -4 28.5t-22.5 18.5t-32 -4t-31.5 -35q-4 -10 -8 -25.5t-11.5 -29.5t-17.5 -25.5t-25 -11.5 q-20 0 -28 18.5t-15.5 42t-20.5 42t-44 18.5q-25 0 -55.5 -14.5t-60 -37t-53.5 -51t-30 -59.5z" />
<glyph unicode="&#x2000;" horiz-adv-x="985" />
<glyph unicode="&#x2001;" horiz-adv-x="1971" />
<glyph unicode="&#x2002;" horiz-adv-x="985" />
<glyph unicode="&#x2003;" horiz-adv-x="1971" />
<glyph unicode="&#x2004;" horiz-adv-x="657" />
<glyph unicode="&#x2005;" horiz-adv-x="492" />
<glyph unicode="&#x2006;" horiz-adv-x="328" />
<glyph unicode="&#x2007;" horiz-adv-x="328" />
<glyph unicode="&#x2008;" horiz-adv-x="246" />
<glyph unicode="&#x2009;" horiz-adv-x="394" />
<glyph unicode="&#x200a;" horiz-adv-x="109" />
<glyph unicode="&#x2010;" horiz-adv-x="591" d="M161 567q-5 -35 10 -64.5t54 -29.5q16 0 39 -7t43 9l207 2l107 2q35 0 59.5 30t30.5 64.5t-12.5 64.5t-67.5 30q-18 0 -43 3t-43 -5h-211q-4 2 -19 2q-16 0 -34.5 -3t-26.5 -3q-41 0 -64.5 -30t-28.5 -65z" />
<glyph unicode="&#x2011;" horiz-adv-x="591" d="M161 567q-5 -35 10 -64.5t54 -29.5q16 0 39 -7t43 9l207 2l107 2q35 0 59.5 30t30.5 64.5t-12.5 64.5t-67.5 30q-18 0 -43 3t-43 -5h-211q-4 2 -19 2q-16 0 -34.5 -3t-26.5 -3q-41 0 -64.5 -30t-28.5 -65z" />
<glyph unicode="&#x2012;" horiz-adv-x="591" d="M161 567q-5 -35 10 -64.5t54 -29.5q16 0 39 -7t43 9l207 2l107 2q35 0 59.5 30t30.5 64.5t-12.5 64.5t-67.5 30q-18 0 -43 3t-43 -5h-211q-4 2 -19 2q-16 0 -34.5 -3t-26.5 -3q-41 0 -64.5 -30t-28.5 -65z" />
<glyph unicode="&#x2013;" horiz-adv-x="833" d="M150.5 559q-9.5 -35 3 -63.5t53.5 -28.5q14 0 39.5 -6t44.5 4h459q16 -10 38.5 -4t32.5 6q39 0 69 29.5t43 65.5t3 65.5t-51 29.5l-86 -2h-469q-10 8 -34 2t-34 -6q-45 0 -73.5 -28.5t-38 -63.5z" />
<glyph unicode="&#x2014;" horiz-adv-x="1157" d="M150.5 559q-9.5 -35 3 -63.5t53.5 -28.5q14 0 39.5 -6t44.5 4l782 -2q16 -10 39 -4t31 6q39 0 68.5 29.5t42 65.5t2 65.5t-51.5 29.5l-82 -2l-792 2q-10 8 -34 2t-34 -6q-45 0 -73.5 -28.5t-38 -63.5z" />
<glyph unicode="&#x2018;" horiz-adv-x="292" d="M281 858q0 -29 5 -51.5t15 -35.5t31 -15q41 -4 62.5 44t23.5 120l-2 2l14 256q2 27 5 54.5t0 51t-17.5 38.5t-44.5 15q-27 0 -42.5 -14t-23.5 -37.5t-10 -53.5t-2 -61l-12 -251q-2 -33 -2 -62z" />
<glyph unicode="&#x2019;" horiz-adv-x="229" d="M184 788.5q4 -26.5 29 -32.5q14 -4 32.5 7t37 33.5t35 54.5t26.5 69l94 262q4 20 11.5 47.5t8.5 51.5t-8.5 40t-39.5 16q-25 0 -44.5 -14t-35 -38.5t-27.5 -55.5t-20 -64l-74 -243l-9 -24q-10 -24 -14 -54q-6 -29 -2 -55.5z" />
<glyph unicode="&#x201a;" horiz-adv-x="229" d="M1 -254.5q3 -26.5 28 -32.5q14 -4 32.5 7.5t37 34t35 54t26.5 68.5l94 262q4 20 11 48t8 51.5t-8 40t-40 16.5q-49 0 -78.5 -53.5t-46.5 -118.5l-73 -244l-11 -23q-10 -24 -14 -55q-4 -29 -1 -55.5z" />
<glyph unicode="&#x201c;" horiz-adv-x="565" d="M201 844.5q2 -29.5 13 -56t38 -32.5q35 -8 60.5 41t27.5 123l25 262q0 23 -1.5 49t-6.5 50t-19 40t-43 16q-25 0 -41 -14t-25.5 -38.5t-12.5 -55.5t-3 -64l-8 -243l-3 -24t-1 -53.5zM471 858q0 -29 5 -51.5t15.5 -35.5t30.5 -15q41 -4 62.5 44t23.5 120l-2 2l15 256 q2 27 5 54.5t0 51t-17.5 38.5t-45.5 15q-27 0 -42 -14t-23.5 -37.5t-10.5 -53.5t-2 -61l-12 -251q-2 -33 -2 -62z" />
<glyph unicode="&#x201d;" horiz-adv-x="485" d="M184 788.5q4 -26.5 29 -32.5q14 -4 32.5 7t37 33.5t35 54.5t26.5 69l94 262q4 20 11.5 47.5t8.5 51.5t-8.5 40t-39.5 16q-25 0 -44.5 -14t-35 -38.5t-27.5 -55.5t-20 -64l-74 -243l-9 -24q-10 -24 -14 -54q-6 -29 -2 -55.5zM453 807q-4 -47 30 -51q43 -4 76 44t53 120v2 l80 256q8 27 19.5 54.5t14.5 51t-6 38.5t-40 15q-29 0 -48.5 -14t-32.5 -37.5t-22.5 -53.5t-17.5 -61l-82 -251q-20 -66 -24 -113z" />
<glyph unicode="&#x201e;" horiz-adv-x="485" d="M-1 -262.5q3 -26.5 30 -32.5q14 -4 32.5 7.5t37 34t34 54t27.5 68.5l92 262q4 20 11 48t9 51.5t-7 40t-40 16.5q-49 0 -79.5 -53.5t-47.5 -118.5l-73 -244l-9 -23q-10 -24 -16 -55q-4 -29 -1 -55.5zM266 -244q-4 -47 33 -51q41 -4 74 44t55 120v2l80 256q8 27 19.5 54.5 t14.5 51t-6.5 39t-39.5 15.5q-29 0 -48.5 -14.5t-34 -38t-23.5 -53t-17 -60.5l-80 -252q-23 -66 -27 -113z" />
<glyph unicode="&#x2022;" horiz-adv-x="434" d="M146 486q4 -44 20 -80.5t43 -60t61 -23.5q47 0 86 25.5t69 65.5t49.5 85t29.5 86q8 35 14 78t1 79.5t-26.5 62t-68.5 25.5t-92 -24.5t-82 -62t-62.5 -83t-35.5 -86.5q-10 -43 -6 -87z" />
<glyph unicode="&#x2026;" horiz-adv-x="1056" d="M91 110.5q3 -28.5 13.5 -52t26.5 -39t39 -15.5q31 0 56.5 16.5t44 42t32 55t19.5 54.5q6 23 10 50.5t0 51t-17.5 40t-44.5 16.5t-59.5 -15.5t-53 -40t-41 -53t-22.5 -55.5t-3 -55.5zM447.5 104.5q3.5 -28.5 13.5 -52t26.5 -39t38.5 -15.5q31 0 55.5 16.5t44 42t32 55 t18.5 54.5q6 23 10 50.5t1 51t-16.5 40t-43.5 16.5q-31 0 -59.5 -15.5t-53.5 -40t-41 -53.5t-22.5 -55.5t-3 -55zM794 108.5q3 -28.5 13 -52t26.5 -39t38.5 -15.5q31 0 56.5 16.5t44 42t32 55t19.5 54.5q6 23 9 50.5t0 51t-16 40t-44 16.5t-59.5 -15.5t-53 -40t-41 -53.5 t-22.5 -55.5t-3 -55z" />
<glyph unicode="&#x202f;" horiz-adv-x="394" />
<glyph unicode="&#x2039;" horiz-adv-x="409" d="M174 666q-4 -33 3 -45.5t18 -22.5l153 -260q10 -20 19.5 -34.5t29.5 -18.5h13q10 0 20 13t25 52q8 23 5 44.5t-32 56.5l-115 198l170 135q41 25 54.5 57.5t11.5 41.5q-4 37 -12.5 49t-24.5 14q-20 4 -49 -18l-219 -178q-25 -10 -44.5 -33t-25.5 -51z" />
<glyph unicode="&#x203a;" horiz-adv-x="409" d="M119 350q4 -39 10 -52t16 -13h13q18 4 32.5 18t30.5 35l244 260q16 10 29.5 22.5t17.5 45.5q6 29 -6 51t-33 33l-158 178q-23 20 -43 18q-18 -2 -30.5 -14t-28.5 -49q-2 -4 -4 -15.5t1 -26t11 -29.5t25 -28l123 -135l-187 -198q-41 -35 -51 -56.5t-12 -44.5z" />
<glyph unicode="&#x205f;" horiz-adv-x="492" />
<glyph unicode="&#x20ac;" horiz-adv-x="919" d="M81 406.5q9 -35.5 46 -35.5q18 0 59 22h9q-12 -96 -6 -179t33.5 -144.5t73.5 -96t114 -34.5q70 0 142.5 30.5t140 79.5t123.5 109.5t95 120.5q37 51 30 81.5t-35.5 35.5t-71.5 -16.5t-78 -72.5q-18 -29 -51 -62.5t-73 -61t-82 -46t-75 -18.5q-45 0 -73.5 21.5t-43 58.5 t-17.5 87t3 107h301q16 -10 23.5 -11t13.5 -1q41 0 70.5 35t42 75.5t1 75.5t-54.5 35q-23 0 -35 -9l-12 -9h-309q16 55 35.5 108t44.5 107h274q12 -10 22.5 -12.5t20.5 -2.5q41 0 65.5 29t37.5 78q12 45 2 82t-43 37q-23 0 -40 -10l-16 -11h-215q66 94 139.5 152.5 t149.5 58.5q47 0 71.5 -9t35.5 -26q33 -49 51 -80.5t22 -31.5q29 0 53.5 20.5t40 51t16.5 66.5t-19 66q-45 72 -106.5 98.5t-135.5 26.5q-61 0 -125 -29.5t-125 -81.5t-120.5 -124t-110.5 -158h-86q-10 12 -22.5 14.5t-18.5 2.5q-39 0 -66 -36t-37 -78t-1 -78t44 -36t56 21 h34q-47 -104 -80 -215h-8q-8 10 -20 12t-23 2q-37 0 -63.5 -36t-36.5 -78t-1 -77.5z" />
<glyph unicode="&#x2122;" horiz-adv-x="1232" d="M258 1231q-6 -29 8.5 -44.5t61.5 -6.5l121 32l-154 -641q-2 -12 -6 -27.5t-4 -29.5q0 -12 7 -21.5t25 -9.5q33 0 44.5 20.5t25.5 67.5l160 664l145 35q47 16 64.5 28t23.5 37q10 35 -4 50.5t-43 9.5q-45 -10 -82 -19.5t-79 -21t-94 -24.5t-130 -32q-29 -10 -54.5 -22 t-35.5 -45zM636 523.5q9 -17.5 30 -21.5q12 -4 22 6t19.5 25.5t15.5 33t8 29.5l115 473q10 -78 23.5 -160t23.5 -159q2 -29 3 -42.5t2 -21.5t3 -16t6 -27q2 -10 11.5 -21.5t24.5 -14.5t33.5 4t39.5 36q14 18 20 29.5t11.5 22t12.5 24.5t23 41q12 20 37 56t55.5 81t65.5 93 t68 93l-123 -499q-12 -35 -10 -58.5t30 -27.5q35 -4 52.5 26.5t21.5 67.5l170 702q10 51 1 66.5t-36 19.5q-10 4 -38.5 -30.5t-57.5 -77.5q-59 -92 -104.5 -162t-79 -120t-56 -83.5t-35.5 -54.5q-20 -29 -31.5 -50.5t-17.5 -29.5t-9 0t-5 39q-4 43 -10 93t-12.5 94.5 t-11.5 77t-5 38.5q-2 33 -6 69t-8 64.5t-8.5 47t-4.5 16.5q-6 72 -40.5 74t-55.5 -72l-182 -725q-10 -51 -1 -68.5z" />
<glyph unicode="&#x25fc;" horiz-adv-x="921" d="M0 0v922h922v-922h-922z" />
</font>
</defs>
</svg>
